%TF.GenerationSoftware,KiCad,Pcbnew,9.0.7-9.0.7~ubuntu24.04.1*%
%TF.CreationDate,2026-01-30T18:11:09-03:00*%
%TF.ProjectId,Main board,4d61696e-2062-46f6-9172-642e6b696361,1*%
%TF.SameCoordinates,Original*%
%TF.FileFunction,Copper,L4,Inr*%
%TF.FilePolarity,Positive*%
%FSLAX46Y46*%
G04 Gerber Fmt 4.6, Leading zero omitted, Abs format (unit mm)*
G04 Created by KiCad (PCBNEW 9.0.7-9.0.7~ubuntu24.04.1) date 2026-01-30 18:11:09*
%MOMM*%
%LPD*%
G01*
G04 APERTURE LIST*
G04 Aperture macros list*
%AMRoundRect*
0 Rectangle with rounded corners*
0 $1 Rounding radius*
0 $2 $3 $4 $5 $6 $7 $8 $9 X,Y pos of 4 corners*
0 Add a 4 corners polygon primitive as box body*
4,1,4,$2,$3,$4,$5,$6,$7,$8,$9,$2,$3,0*
0 Add four circle primitives for the rounded corners*
1,1,$1+$1,$2,$3*
1,1,$1+$1,$4,$5*
1,1,$1+$1,$6,$7*
1,1,$1+$1,$8,$9*
0 Add four rect primitives between the rounded corners*
20,1,$1+$1,$2,$3,$4,$5,0*
20,1,$1+$1,$4,$5,$6,$7,0*
20,1,$1+$1,$6,$7,$8,$9,0*
20,1,$1+$1,$8,$9,$2,$3,0*%
G04 Aperture macros list end*
%TA.AperFunction,ComponentPad*%
%ADD10O,3.000000X2.000000*%
%TD*%
%TA.AperFunction,ComponentPad*%
%ADD11R,2.000000X3.000000*%
%TD*%
%TA.AperFunction,ComponentPad*%
%ADD12O,2.000000X3.000000*%
%TD*%
%TA.AperFunction,ComponentPad*%
%ADD13RoundRect,0.249999X0.850001X0.850001X-0.850001X0.850001X-0.850001X-0.850001X0.850001X-0.850001X0*%
%TD*%
%TA.AperFunction,ComponentPad*%
%ADD14C,2.200000*%
%TD*%
%TA.AperFunction,ComponentPad*%
%ADD15RoundRect,0.249999X0.850001X-0.850001X0.850001X0.850001X-0.850001X0.850001X-0.850001X-0.850001X0*%
%TD*%
%TA.AperFunction,ComponentPad*%
%ADD16RoundRect,0.250000X1.050000X1.050000X-1.050000X1.050000X-1.050000X-1.050000X1.050000X-1.050000X0*%
%TD*%
%TA.AperFunction,ComponentPad*%
%ADD17C,2.600000*%
%TD*%
%TA.AperFunction,ComponentPad*%
%ADD18RoundRect,0.250000X1.050000X-1.050000X1.050000X1.050000X-1.050000X1.050000X-1.050000X-1.050000X0*%
%TD*%
%TA.AperFunction,ViaPad*%
%ADD19C,2.000000*%
%TD*%
%TA.AperFunction,ViaPad*%
%ADD20C,0.800000*%
%TD*%
%TA.AperFunction,ViaPad*%
%ADD21C,0.300000*%
%TD*%
%TA.AperFunction,ViaPad*%
%ADD22C,1.000000*%
%TD*%
%TA.AperFunction,ViaPad*%
%ADD23C,0.600000*%
%TD*%
%TA.AperFunction,Conductor*%
%ADD24C,0.300000*%
%TD*%
%TA.AperFunction,Conductor*%
%ADD25C,0.200000*%
%TD*%
G04 APERTURE END LIST*
D10*
%TO.N,/power selector/P_SOLAR_I*%
%TO.C,K701*%
X56700000Y-65875000D03*
%TO.N,/power selector/P_MAIN_O*%
X56700000Y-60835000D03*
%TO.N,/power selector/P_SOLAR_I*%
X49200000Y-65875000D03*
%TO.N,/power selector/P_MAIN_O*%
X49200000Y-60835000D03*
D11*
%TO.N,/power selector/C_COIL_SOL*%
X56700000Y-86175000D03*
D12*
%TO.N,+9V*%
X49200000Y-86175000D03*
%TD*%
D13*
%TO.N,/solar array deployment/C_PANEL_CLOSE_BTN_I*%
%TO.C,J108*%
X97850000Y-38705000D03*
D14*
%TO.N,GND*%
X95310000Y-38705000D03*
%TO.N,/solar array deployment/C_PANEL_OPEEN_BTN_I*%
X92770000Y-38705000D03*
%TO.N,GND*%
X90230000Y-38705000D03*
%TO.N,/solar array verification/A_PANEL_CLOSE_SENSOR_I*%
X87690000Y-38705000D03*
%TO.N,GND*%
X85150000Y-38705000D03*
%TO.N,/solar array verification/A_PANEL_OPEN_SENSOR_I*%
X82610000Y-38705000D03*
%TO.N,GND*%
X80070000Y-38705000D03*
%TD*%
D13*
%TO.N,/active filter/A_LDR_N_I*%
%TO.C,J101*%
X123985000Y-38705000D03*
D14*
%TO.N,GND*%
X121445000Y-38705000D03*
%TO.N,/active filter/A_LDR_E_I*%
X118905000Y-38705000D03*
%TO.N,GND*%
X116365000Y-38705000D03*
%TO.N,/active filter/A_LDR_S_I*%
X113825000Y-38705000D03*
%TO.N,GND*%
X111285000Y-38705000D03*
%TO.N,/active filter/A_LDR_W_I*%
X108745000Y-38705000D03*
%TO.N,GND*%
X106205000Y-38705000D03*
%TD*%
D15*
%TO.N,/thermal control/A_HTAS_I*%
%TO.C,J109*%
X124783711Y-90151799D03*
D14*
%TO.N,GND*%
X124783711Y-87611799D03*
%TO.N,/thermal control/A_LTHC_I*%
X124783711Y-85071799D03*
%TO.N,GND*%
X124783711Y-82531799D03*
%TD*%
D10*
%TO.N,/power selector/P_BATTERY_I*%
%TO.C,K702*%
X34850000Y-66025000D03*
%TO.N,/power selector/P_MAIN_O*%
X34850000Y-60985000D03*
%TO.N,/power selector/P_BATTERY_I*%
X27350000Y-66025000D03*
%TO.N,/power selector/P_MAIN_O*%
X27350000Y-60985000D03*
D11*
%TO.N,/power selector/C_COIL_BATT*%
X34850000Y-86325000D03*
D12*
%TO.N,+9V*%
X27350000Y-86325000D03*
%TD*%
D16*
%TO.N,/thermal control/A_LTHC_O*%
%TO.C,J110*%
X72750000Y-40202500D03*
D17*
%TO.N,GND*%
X67750000Y-40202500D03*
%TO.N,/solar array deployment/S_SERVO_SIGNAL_O*%
X62750000Y-40202500D03*
%TO.N,GND*%
X57750000Y-40202500D03*
%TD*%
D18*
%TO.N,+9V*%
%TO.C,J103*%
X122350000Y-75725000D03*
D17*
%TO.N,+9VA*%
X122350000Y-70645000D03*
%TO.N,-9VA*%
X122350000Y-65565000D03*
%TO.N,GND*%
X122350000Y-60485000D03*
X122350000Y-55405000D03*
%TD*%
D16*
%TO.N,/power selector/P_SOLAR_I*%
%TO.C,J105*%
X48010000Y-40907500D03*
D17*
%TO.N,GND*%
X42930000Y-40907500D03*
%TO.N,/power selector/P_MAIN_O*%
X37850000Y-40907500D03*
%TO.N,GND*%
X32770000Y-40907500D03*
%TO.N,/power selector/P_BATTERY_I*%
X27690000Y-40907500D03*
%TD*%
D19*
%TO.N,+9V*%
X89250000Y-93426000D03*
X84150000Y-93425000D03*
D20*
%TO.N,/solar array verification/A_IN+_STP_CLS*%
X106142000Y-88425000D03*
X69700000Y-105575000D03*
%TO.N,/active filter/A_LDR_N_O*%
X29200000Y-108225000D03*
X79700000Y-96175000D03*
%TO.N,/active filter/A_LDR_E_O*%
X84209281Y-96175000D03*
X29065564Y-107209436D03*
%TO.N,/active filter/A_LDR_W_O*%
X53500000Y-101575000D03*
X88550000Y-102575000D03*
%TO.N,/active filter/A_IN-_W*%
X56400000Y-111125000D03*
X57100000Y-113201000D03*
%TO.N,/active filter/A_LDR_S_O*%
X58650000Y-101775000D03*
X79700000Y-100974000D03*
%TO.N,/thermal control/L_HTAS*%
X110750000Y-124575000D03*
X106700000Y-112275000D03*
%TO.N,/thermal control/A_HTAS_O*%
X112600000Y-106575000D03*
X111853000Y-99675000D03*
X115913186Y-123756814D03*
X81238652Y-83580000D03*
X102049000Y-91625000D03*
%TO.N,/thermal control/A_LTHC_O*%
X81400000Y-55175000D03*
X117500000Y-103544425D03*
X111950000Y-55175000D03*
X107200000Y-55175000D03*
X113375668Y-86457377D03*
%TO.N,/thermal control/L_LTHC*%
X115500000Y-104825000D03*
X121350000Y-124125000D03*
%TO.N,/solar eclipse/L_ECLIPSE*%
X86000000Y-128525000D03*
X70450000Y-112325000D03*
D21*
%TO.N,/solar eclipse/C_ECLIPSE_O*%
X125700000Y-109475000D03*
X92300000Y-117275000D03*
X78950000Y-107725000D03*
X80850000Y-107275000D03*
D20*
%TO.N,/solar eclipse/L_LIGHT_N*%
X94550000Y-113625000D03*
X89700000Y-122825000D03*
D21*
%TO.N,/solar eclipse/C_LIGHT_N_O*%
X125250000Y-118025000D03*
X91300000Y-118025000D03*
X77550000Y-91175000D03*
X79950000Y-91175000D03*
%TO.N,/solar eclipse/C_LIGHT_E_O*%
X121300000Y-112575000D03*
X95100000Y-91825000D03*
X121700000Y-118625000D03*
X104650000Y-128975000D03*
D20*
%TO.N,/solar eclipse/L_LIGHT_E*%
X104750000Y-131825000D03*
X104650000Y-108825000D03*
%TO.N,/solar eclipse/L_LIGHT_S*%
X65062500Y-110675000D03*
X93100000Y-140425000D03*
D21*
%TO.N,/solar eclipse/C_LIGHT_S_O*%
X92850000Y-116775000D03*
X82450000Y-99525000D03*
X125000000Y-110725000D03*
X77500000Y-99425000D03*
D20*
%TO.N,/solar eclipse/L_LIGHT_W*%
X64700000Y-112775000D03*
X82300000Y-131875000D03*
D21*
%TO.N,/solar eclipse/C_LIGHT_W_O*%
X89900000Y-101375000D03*
X85350000Y-100875000D03*
X80450000Y-116025000D03*
X122400000Y-112475000D03*
D22*
%TO.N,/solar array deployment/S_SERVO_SIGNAL_O*%
X81172860Y-57404222D03*
X107845000Y-63125000D03*
D20*
%TO.N,/solar array deployment/L_PANEL_OPEN*%
X48150000Y-115625000D03*
X49700000Y-135825000D03*
D21*
%TO.N,/solar array deployment/C_PANEL_OPEN_LATCH_O*%
X97850000Y-100775000D03*
X95100000Y-72275000D03*
X72800000Y-104575000D03*
X65350000Y-99775000D03*
X74550000Y-104775000D03*
X77100000Y-73225000D03*
X57500000Y-140825000D03*
X78250000Y-76325000D03*
X94050000Y-99475000D03*
X78300000Y-98925000D03*
X74150000Y-97225000D03*
D20*
%TO.N,/solar array deployment/L_PANEL_CLOSE*%
X69550000Y-116725000D03*
X63800000Y-133475000D03*
D21*
%TO.N,/solar array deployment/C_PANEL_CLOSE_LATCH_O*%
X100250000Y-99625000D03*
X81000000Y-74425000D03*
X110050000Y-87325000D03*
X93350000Y-107425000D03*
X93100000Y-74525000D03*
X81350000Y-113975000D03*
X90500000Y-74175000D03*
X113300000Y-101175000D03*
%TO.N,/solar array verification/C_TR_555*%
X64650000Y-94975000D03*
X77700000Y-71025000D03*
D20*
%TO.N,/solar array verification/A_STP_OPN_O*%
X91350000Y-79125000D03*
X54550000Y-96175000D03*
%TO.N,/solar array verification/L_ALARM*%
X54300000Y-142425000D03*
X44950000Y-115225000D03*
D21*
%TO.N,/solar array verification/C_PANEL_FAILURE_O*%
X97500000Y-83175000D03*
X117550000Y-97025000D03*
X61800000Y-142525000D03*
X95650000Y-78225000D03*
%TO.N,/power selector/C_SOLAR_SELECT*%
X117300000Y-94075000D03*
X73950000Y-63875000D03*
X61000000Y-85475000D03*
X42350000Y-76875000D03*
X44600000Y-141425000D03*
%TO.N,/power selector/C_BATT_SELECT*%
X44950000Y-89325000D03*
X116671418Y-95903583D03*
X44737500Y-90775000D03*
X27400000Y-125475000D03*
D20*
%TO.N,/active filter/A_LDR_S_I*%
X42300000Y-117675000D03*
%TO.N,/active filter/A_LDR_N_I*%
X36200000Y-108625000D03*
%TO.N,/active filter/A_LDR_W_I*%
X58150000Y-127275000D03*
%TO.N,/active filter/A_LDR_E_I*%
X40825000Y-111925000D03*
D21*
%TO.N,/solar array verification/C_PANEL_CLOSED_O*%
X116650000Y-94075000D03*
X78700000Y-74825000D03*
%TO.N,/solar array verification/C_PANEL_OPEN_O*%
X81000000Y-75425000D03*
X113300000Y-99475000D03*
X96350000Y-59275000D03*
X94550000Y-59275000D03*
D19*
%TO.N,/power selector/P_BATTERY_I*%
X31450000Y-68825000D03*
D21*
X41280331Y-126605331D03*
D19*
X27250000Y-68975000D03*
D21*
X38450000Y-73025000D03*
%TO.N,/power selector/P_SOLAR_I*%
X41900000Y-72075000D03*
D19*
X56750000Y-68575000D03*
X49200000Y-68775000D03*
X52850000Y-68575000D03*
D21*
X26400000Y-126175000D03*
D20*
%TO.N,/solar array verification/A_PANEL_CLOSE_SENSOR_I*%
X82750000Y-50925000D03*
X80200000Y-70225000D03*
D21*
%TO.N,/solar array deployment/C_PANEL_OPEEN_BTN_I*%
X104950000Y-96125000D03*
X97750000Y-58425000D03*
%TO.N,/solar array deployment/C_PANEL_CLOSE_BTN_I*%
X97850000Y-57725000D03*
X100500000Y-103025000D03*
D20*
%TO.N,/solar array verification/A_PANEL_OPEN_SENSOR_I*%
X76950000Y-56825000D03*
X80600000Y-50875000D03*
%TO.N,/solar array verification/A_RST_SET_2*%
X62450000Y-82475000D03*
X62400000Y-84475000D03*
D21*
%TO.N,/solar array verification/C_R_555*%
X74612500Y-79475000D03*
X64250000Y-96025000D03*
D20*
%TO.N,/thermal control/A_BIAS_LTHC_1*%
X116047849Y-116900000D03*
X119500000Y-123425000D03*
%TO.N,/solar array deployment/A_BASE_OPN*%
X100750000Y-95225000D03*
X100800000Y-97275000D03*
%TO.N,/solar array deployment/A_BASE_CLS*%
X95700000Y-97975000D03*
X99400000Y-89175000D03*
%TO.N,/thermal control/A_BIAS_LTHC_2*%
X116700000Y-126475000D03*
X114450000Y-123425000D03*
%TO.N,/thermal control/A_SETPOINT_LTHC*%
X117450000Y-131225000D03*
X102049000Y-96650000D03*
X100649441Y-87360000D03*
X112750000Y-102625000D03*
%TO.N,/solar eclipse/A_FEEDBACK_U403A*%
X92700000Y-106526000D03*
X82450000Y-105425000D03*
%TO.N,/thermal control/A_BIAS_HTAS_2*%
X113300000Y-129725000D03*
X112545604Y-127920604D03*
%TO.N,/thermal control/A_BIAS_HTAS_1*%
X111400000Y-128125000D03*
X111400000Y-129875000D03*
%TO.N,/solar array verification/A_IN-_ASL*%
X60550000Y-95525000D03*
X94350000Y-78825000D03*
X60900000Y-91525000D03*
X59456407Y-100975000D03*
%TO.N,/solar array verification/A_RST_SET_1*%
X75350000Y-73375000D03*
X71500000Y-78225000D03*
%TO.N,/solar array verification/A_IN-_STP_CLS*%
X114797793Y-94527207D03*
X105350000Y-91875000D03*
X113850000Y-90475000D03*
X66722549Y-101775000D03*
%TO.N,/power selector/A_SETPOINT_BATTERY*%
X71700000Y-70325000D03*
X49621469Y-125525000D03*
%TO.N,/solar eclipse/A_SETPOINT_LDR_N*%
X85350000Y-123925000D03*
X75950000Y-96175000D03*
X44900000Y-101425000D03*
X44900000Y-98975000D03*
%TO.N,/solar eclipse/A_SETPOINT_LDR_S*%
X82399000Y-104175000D03*
X84051000Y-112125000D03*
%TO.N,/solar eclipse/A_SETPOINT_LDR_W*%
X101850000Y-109475000D03*
X85150000Y-104175000D03*
X101850000Y-104275000D03*
X99400000Y-123925000D03*
D23*
%TO.N,/power selector/A_SETPOINT_SOLAR*%
X44850000Y-121975000D03*
D20*
X69050000Y-66425000D03*
D21*
%TO.N,/solar array deployment/C_PWM_FREQ_LEVEL*%
X96800000Y-66425000D03*
X96150000Y-73475000D03*
D20*
%TO.N,/thermal control/A_SETPOINT_HTAS*%
X99760666Y-84362500D03*
X84000000Y-104425000D03*
X106142000Y-123925000D03*
X92695524Y-96320524D03*
X106200000Y-131376000D03*
X106200000Y-139525000D03*
D22*
%TO.N,/solar array deployment/S_SERVO_PREFILTER_O*%
X56350000Y-130177000D03*
X113372793Y-76847793D03*
D20*
%TO.N,/solar array deployment/A_SETPOINT_CLOSE*%
X89900000Y-73425000D03*
X67100000Y-124725000D03*
%TO.N,/power selector/L_SOLAR_SELECT*%
X27450000Y-138025000D03*
X28600000Y-119775000D03*
%TO.N,/power selector/L_BATT_SELECT*%
X44200000Y-120775000D03*
X39450000Y-138075000D03*
%TD*%
D24*
%TO.N,/solar eclipse/C_ECLIPSE_O*%
X92300000Y-117275000D02*
X92401000Y-117376000D01*
X125700000Y-110925000D02*
X125700000Y-109475000D01*
X78358520Y-117275000D02*
X77400000Y-116316480D01*
X114509774Y-117376000D02*
X115760774Y-116125000D01*
X115760774Y-116125000D02*
X120500000Y-116125000D01*
X92300000Y-117275000D02*
X78358520Y-117275000D01*
X120500000Y-116125000D02*
X125700000Y-110925000D01*
X77400000Y-116316480D02*
X77400000Y-109275000D01*
X77400000Y-109275000D02*
X78950000Y-107725000D01*
X92401000Y-117376000D02*
X114509774Y-117376000D01*
%TO.N,/solar eclipse/C_LIGHT_N_O*%
X78400000Y-118025000D02*
X76899000Y-116524000D01*
X91300000Y-118025000D02*
X125250000Y-118025000D01*
X76899000Y-116524000D02*
X76899000Y-91826000D01*
X76899000Y-91826000D02*
X77550000Y-91175000D01*
X77550000Y-91175000D02*
X79950000Y-91175000D01*
X91300000Y-118025000D02*
X78400000Y-118025000D01*
%TO.N,/solar eclipse/C_LIGHT_E_O*%
X104650000Y-128975000D02*
X104650000Y-119325000D01*
X121601000Y-118526000D02*
X121700000Y-118625000D01*
X105449000Y-118526000D02*
X121601000Y-118526000D01*
X104650000Y-119325000D02*
X105449000Y-118526000D01*
%TO.N,/solar eclipse/C_LIGHT_S_O*%
X92850000Y-116775000D02*
X92749000Y-116674000D01*
X92850000Y-116775000D02*
X94054260Y-115570740D01*
X79000000Y-99425000D02*
X82350000Y-99425000D01*
X79800000Y-116674000D02*
X79700000Y-116774000D01*
X79700000Y-107627057D02*
X78949000Y-106876057D01*
X77500000Y-99425000D02*
X79000000Y-99425000D01*
X120345740Y-115379260D02*
X125000000Y-110725000D01*
X79700000Y-116774000D02*
X79700000Y-107627057D01*
X94054260Y-115570740D02*
X120345740Y-115570740D01*
X120345740Y-115570740D02*
X120345740Y-115379260D01*
X92749000Y-116674000D02*
X79800000Y-116674000D01*
X82350000Y-99425000D02*
X82450000Y-99525000D01*
X78949000Y-106876057D02*
X78949000Y-99476000D01*
X78949000Y-99476000D02*
X79000000Y-99425000D01*
%TO.N,/solar eclipse/C_LIGHT_W_O*%
X122400000Y-112616480D02*
X119946739Y-115069740D01*
X80450000Y-116025000D02*
X80201000Y-115776000D01*
X89900000Y-101375000D02*
X85850000Y-101375000D01*
X80201000Y-101974000D02*
X81300000Y-100875000D01*
X119946739Y-115069740D02*
X81405260Y-115069740D01*
X81300000Y-100875000D02*
X85350000Y-100875000D01*
X122400000Y-112475000D02*
X122400000Y-112616480D01*
X80201000Y-115776000D02*
X80201000Y-101974000D01*
X85850000Y-101375000D02*
X85350000Y-100875000D01*
X81405260Y-115069740D02*
X80450000Y-116025000D01*
D25*
%TO.N,/solar array deployment/C_PANEL_OPEN_LATCH_O*%
X57650000Y-140675000D02*
X70212190Y-140675000D01*
D24*
X74150000Y-97225000D02*
X74150000Y-85916480D01*
X74150000Y-99775000D02*
X74150000Y-97225000D01*
X74150000Y-99775000D02*
X65350000Y-99775000D01*
D25*
X57500000Y-140825000D02*
X57650000Y-140675000D01*
D24*
X95350000Y-100775000D02*
X94475000Y-99900000D01*
X94475000Y-99900000D02*
X94050000Y-99475000D01*
X95100000Y-72275000D02*
X93108521Y-72275000D01*
X74550000Y-100175000D02*
X74150000Y-99775000D01*
D25*
X70212190Y-140675000D02*
X72800000Y-138087190D01*
D24*
X79850000Y-82075000D02*
X79850000Y-77925000D01*
X94475000Y-99900000D02*
X93500000Y-98925000D01*
X78250000Y-76325000D02*
X77100000Y-75175000D01*
X74550000Y-104775000D02*
X74550000Y-100175000D01*
D25*
X72800000Y-138087190D02*
X72800000Y-104575000D01*
D24*
X87458521Y-77925000D02*
X79850000Y-77925000D01*
X93500000Y-98925000D02*
X78300000Y-98925000D01*
X93108521Y-72275000D02*
X87458521Y-77925000D01*
X74150000Y-85916480D02*
X77991480Y-82075000D01*
X97850000Y-100775000D02*
X95350000Y-100775000D01*
X77991480Y-82075000D02*
X79850000Y-82075000D01*
X79850000Y-77925000D02*
X78250000Y-76325000D01*
X77100000Y-75175000D02*
X77100000Y-73225000D01*
%TO.N,/solar array deployment/C_PANEL_CLOSE_LATCH_O*%
X112050000Y-88125000D02*
X111250000Y-87325000D01*
X93100000Y-78637075D02*
X93100000Y-74525000D01*
X93250000Y-107325000D02*
X93350000Y-107425000D01*
X111699000Y-79626000D02*
X94088925Y-79626000D01*
X111250000Y-87325000D02*
X110050000Y-87325000D01*
X100250000Y-100525000D02*
X100250000Y-99625000D01*
X100250000Y-99625000D02*
X103848000Y-96027000D01*
X100900000Y-101175000D02*
X100250000Y-100525000D01*
X103848000Y-96027000D02*
X103848000Y-95668537D01*
X105541537Y-93975000D02*
X112050000Y-93975000D01*
X81250000Y-74175000D02*
X81000000Y-74425000D01*
X81451000Y-107325000D02*
X93250000Y-107325000D01*
X112000000Y-79575000D02*
X112050000Y-79625000D01*
X93350000Y-107425000D02*
X100250000Y-100525000D01*
X103848000Y-95668537D02*
X105541537Y-93975000D01*
X112050000Y-88125000D02*
X112050000Y-79625000D01*
X81451000Y-113874000D02*
X81451000Y-107325000D01*
X113300000Y-101175000D02*
X100900000Y-101175000D01*
X111750000Y-79575000D02*
X112000000Y-79575000D01*
X81350000Y-113975000D02*
X81451000Y-113874000D01*
X94088925Y-79626000D02*
X93100000Y-78637075D01*
X90500000Y-74175000D02*
X81250000Y-74175000D01*
X112050000Y-93975000D02*
X112050000Y-88125000D01*
X111699000Y-79626000D02*
X111750000Y-79575000D01*
%TO.N,/solar array verification/C_TR_555*%
X76101000Y-83256960D02*
X73500000Y-85857960D01*
X76101000Y-72624000D02*
X76101000Y-83256960D01*
X77700000Y-71025000D02*
X76101000Y-72624000D01*
X72600000Y-94975000D02*
X64650000Y-94975000D01*
X73500000Y-94075000D02*
X72600000Y-94975000D01*
X73500000Y-85857960D02*
X73500000Y-94075000D01*
%TO.N,/solar array verification/C_PANEL_FAILURE_O*%
X113592480Y-57027000D02*
X95600000Y-57027000D01*
X97500000Y-83175000D02*
X97154000Y-82829000D01*
X61950000Y-142675000D02*
X61800000Y-142525000D01*
X115900000Y-94425057D02*
X115900000Y-59334520D01*
X95600000Y-57027000D02*
X95600000Y-78175000D01*
X95600000Y-78175000D02*
X95650000Y-78225000D01*
X75199000Y-85576000D02*
X77946000Y-82829000D01*
X75199000Y-142524000D02*
X75350000Y-142675000D01*
X97154000Y-82829000D02*
X77946000Y-82829000D01*
X117550000Y-96075057D02*
X115900000Y-94425057D01*
X117550000Y-97025000D02*
X117550000Y-96075057D01*
X75350000Y-142675000D02*
X61950000Y-142675000D01*
X75199000Y-85576000D02*
X75199000Y-142524000D01*
X115900000Y-59334520D02*
X113592480Y-57027000D01*
%TO.N,/power selector/C_SOLAR_SELECT*%
X61475000Y-85950000D02*
X61000000Y-85475000D01*
X61651000Y-86126000D02*
X61475000Y-85950000D01*
X73400000Y-135725000D02*
X73400000Y-101075000D01*
X74600000Y-136925000D02*
X73400000Y-135725000D01*
X73950000Y-73987075D02*
X73950000Y-63875000D01*
X73349000Y-101024000D02*
X65609075Y-101024000D01*
X73950000Y-56025000D02*
X73950000Y-63875000D01*
X61651000Y-86126000D02*
X61811075Y-86126000D01*
X44600000Y-141425000D02*
X70100000Y-141425000D01*
X70100000Y-141425000D02*
X74600000Y-136925000D01*
X65609075Y-101024000D02*
X61651000Y-97065925D01*
X52400000Y-76875000D02*
X42350000Y-76875000D01*
X61811075Y-86126000D02*
X73950000Y-73987075D01*
X61475000Y-85950000D02*
X52400000Y-76875000D01*
X117300000Y-56175000D02*
X117150000Y-56025000D01*
X117300000Y-94075000D02*
X117300000Y-56175000D01*
X73400000Y-101075000D02*
X73349000Y-101024000D01*
X61651000Y-97065925D02*
X61651000Y-86126000D01*
X117150000Y-56025000D02*
X73950000Y-56025000D01*
%TO.N,/power selector/C_BATT_SELECT*%
X31290364Y-97026000D02*
X39290364Y-97026000D01*
X39800000Y-96516364D02*
X39800000Y-90875000D01*
X39800000Y-90875000D02*
X44637500Y-90875000D01*
X27400000Y-100916364D02*
X31290364Y-97026000D01*
X44637500Y-90875000D02*
X44737500Y-90775000D01*
X39290364Y-97026000D02*
X39800000Y-96516364D01*
X27400000Y-125475000D02*
X27400000Y-100916364D01*
%TO.N,/solar array verification/C_PANEL_CLOSED_O*%
X78700000Y-58675000D02*
X80849000Y-56526000D01*
X116650000Y-94075000D02*
X116650000Y-59376000D01*
X78700000Y-58675000D02*
X78700000Y-74825000D01*
X116650000Y-59376000D02*
X113800000Y-56526000D01*
X80849000Y-56526000D02*
X113800000Y-56526000D01*
%TO.N,/solar array verification/C_PANEL_OPEN_O*%
X114397000Y-83778000D02*
X114397000Y-60380520D01*
X94550000Y-59275000D02*
X79950000Y-59275000D01*
X79449000Y-59776000D02*
X79950000Y-59275000D01*
X104349000Y-96373943D02*
X104349000Y-95876057D01*
X112650000Y-58926000D02*
X112301000Y-59275000D01*
X105200057Y-97225000D02*
X104349000Y-96373943D01*
X112550000Y-94575000D02*
X112550000Y-85625000D01*
X105650057Y-94575000D02*
X112550000Y-94575000D01*
X113300000Y-99475000D02*
X111050000Y-97225000D01*
X79449000Y-73874000D02*
X81000000Y-75425000D01*
X112942480Y-58926000D02*
X112650000Y-58926000D01*
X114397000Y-60380520D02*
X112942480Y-58926000D01*
X111050000Y-97225000D02*
X105200057Y-97225000D01*
X104349000Y-95876057D02*
X105650057Y-94575000D01*
X79449000Y-59776000D02*
X79449000Y-73874000D01*
X112301000Y-59275000D02*
X96350000Y-59275000D01*
X112550000Y-85625000D02*
X114397000Y-83778000D01*
%TO.N,/power selector/P_BATTERY_I*%
X25600000Y-100733636D02*
X25600000Y-127425000D01*
X30709636Y-95624000D02*
X38201000Y-95624000D01*
X38299000Y-73176000D02*
X38299000Y-95526000D01*
X30709636Y-95624000D02*
X25600000Y-100733636D01*
X38450000Y-73025000D02*
X38299000Y-73176000D01*
X38299000Y-95526000D02*
X38201000Y-95624000D01*
X25600000Y-127425000D02*
X40460662Y-127425000D01*
X40460662Y-127425000D02*
X41280331Y-126605331D01*
%TO.N,/power selector/P_SOLAR_I*%
X39000000Y-74975000D02*
X39000000Y-96325000D01*
X26400000Y-100925000D02*
X31000000Y-96325000D01*
X41900000Y-72075000D02*
X39000000Y-74975000D01*
X26400000Y-100925000D02*
X26400000Y-126175000D01*
X39000000Y-96325000D02*
X31000000Y-96325000D01*
%TO.N,/solar array deployment/C_PANEL_OPEEN_BTN_I*%
X114898000Y-60173000D02*
X114898000Y-92656405D01*
X113150000Y-58425000D02*
X114898000Y-60173000D01*
X113450000Y-94104405D02*
X114898000Y-92656405D01*
X113450000Y-96425000D02*
X105250000Y-96425000D01*
X113450000Y-94104405D02*
X113450000Y-96425000D01*
X97750000Y-58425000D02*
X113150000Y-58425000D01*
X105250000Y-96425000D02*
X104950000Y-96125000D01*
%TO.N,/solar array deployment/C_PANEL_CLOSE_BTN_I*%
X113600000Y-101875000D02*
X101650000Y-101875000D01*
X115399000Y-59824000D02*
X115399000Y-92863925D01*
X114046793Y-102321793D02*
X114150000Y-102425000D01*
X114046793Y-94216132D02*
X114046793Y-102321793D01*
X97850000Y-57725000D02*
X113300000Y-57725000D01*
X115399000Y-92863925D02*
X114046793Y-94216132D01*
X113300000Y-57725000D02*
X115399000Y-59824000D01*
X101650000Y-101875000D02*
X100500000Y-103025000D01*
X114150000Y-102425000D02*
X113600000Y-101875000D01*
D25*
%TO.N,/solar array verification/C_R_555*%
X64099000Y-94746768D02*
X64670768Y-94175000D01*
X75450000Y-82925000D02*
X75450000Y-80312500D01*
X75450000Y-80312500D02*
X74612500Y-79475000D01*
X72450000Y-94175000D02*
X72450000Y-85925000D01*
X64099000Y-95874000D02*
X64099000Y-94746768D01*
X72450000Y-85925000D02*
X75450000Y-82925000D01*
X64250000Y-96025000D02*
X64099000Y-95874000D01*
X64670768Y-94175000D02*
X72450000Y-94175000D01*
D24*
%TO.N,/solar array deployment/C_PWM_FREQ_LEVEL*%
X96300000Y-66925000D02*
X96800000Y-66425000D01*
X96150000Y-73475000D02*
X96150000Y-71875000D01*
X96300000Y-71725000D02*
X96300000Y-66925000D01*
X96150000Y-71875000D02*
X96300000Y-71725000D01*
%TD*%
M02*
