%TF.GenerationSoftware,KiCad,Pcbnew,9.0.7-9.0.7~ubuntu24.04.1*%
%TF.CreationDate,2026-01-30T18:11:09-03:00*%
%TF.ProjectId,Main board,4d61696e-2062-46f6-9172-642e6b696361,1*%
%TF.SameCoordinates,Original*%
%TF.FileFunction,Copper,L5,Inr*%
%TF.FilePolarity,Positive*%
%FSLAX46Y46*%
G04 Gerber Fmt 4.6, Leading zero omitted, Abs format (unit mm)*
G04 Created by KiCad (PCBNEW 9.0.7-9.0.7~ubuntu24.04.1) date 2026-01-30 18:11:09*
%MOMM*%
%LPD*%
G01*
G04 APERTURE LIST*
G04 Aperture macros list*
%AMRoundRect*
0 Rectangle with rounded corners*
0 $1 Rounding radius*
0 $2 $3 $4 $5 $6 $7 $8 $9 X,Y pos of 4 corners*
0 Add a 4 corners polygon primitive as box body*
4,1,4,$2,$3,$4,$5,$6,$7,$8,$9,$2,$3,0*
0 Add four circle primitives for the rounded corners*
1,1,$1+$1,$2,$3*
1,1,$1+$1,$4,$5*
1,1,$1+$1,$6,$7*
1,1,$1+$1,$8,$9*
0 Add four rect primitives between the rounded corners*
20,1,$1+$1,$2,$3,$4,$5,0*
20,1,$1+$1,$4,$5,$6,$7,0*
20,1,$1+$1,$6,$7,$8,$9,0*
20,1,$1+$1,$8,$9,$2,$3,0*%
G04 Aperture macros list end*
%TA.AperFunction,ComponentPad*%
%ADD10O,3.000000X2.000000*%
%TD*%
%TA.AperFunction,ComponentPad*%
%ADD11R,2.000000X3.000000*%
%TD*%
%TA.AperFunction,ComponentPad*%
%ADD12O,2.000000X3.000000*%
%TD*%
%TA.AperFunction,ComponentPad*%
%ADD13RoundRect,0.249999X0.850001X0.850001X-0.850001X0.850001X-0.850001X-0.850001X0.850001X-0.850001X0*%
%TD*%
%TA.AperFunction,ComponentPad*%
%ADD14C,2.200000*%
%TD*%
%TA.AperFunction,ComponentPad*%
%ADD15RoundRect,0.249999X0.850001X-0.850001X0.850001X0.850001X-0.850001X0.850001X-0.850001X-0.850001X0*%
%TD*%
%TA.AperFunction,ComponentPad*%
%ADD16RoundRect,0.250000X1.050000X1.050000X-1.050000X1.050000X-1.050000X-1.050000X1.050000X-1.050000X0*%
%TD*%
%TA.AperFunction,ComponentPad*%
%ADD17C,2.600000*%
%TD*%
%TA.AperFunction,ComponentPad*%
%ADD18RoundRect,0.250000X1.050000X-1.050000X1.050000X1.050000X-1.050000X1.050000X-1.050000X-1.050000X0*%
%TD*%
%TA.AperFunction,ViaPad*%
%ADD19C,2.000000*%
%TD*%
%TA.AperFunction,ViaPad*%
%ADD20C,0.800000*%
%TD*%
%TA.AperFunction,ViaPad*%
%ADD21C,0.300000*%
%TD*%
%TA.AperFunction,ViaPad*%
%ADD22C,1.000000*%
%TD*%
%TA.AperFunction,ViaPad*%
%ADD23C,0.600000*%
%TD*%
%TA.AperFunction,Conductor*%
%ADD24C,0.400000*%
%TD*%
%TA.AperFunction,Conductor*%
%ADD25C,0.300000*%
%TD*%
G04 APERTURE END LIST*
D10*
%TO.N,/power selector/P_SOLAR_I*%
%TO.C,K701*%
X56700000Y-65875000D03*
%TO.N,/power selector/P_MAIN_O*%
X56700000Y-60835000D03*
%TO.N,/power selector/P_SOLAR_I*%
X49200000Y-65875000D03*
%TO.N,/power selector/P_MAIN_O*%
X49200000Y-60835000D03*
D11*
%TO.N,/power selector/C_COIL_SOL*%
X56700000Y-86175000D03*
D12*
%TO.N,+9V*%
X49200000Y-86175000D03*
%TD*%
D13*
%TO.N,/solar array deployment/C_PANEL_CLOSE_BTN_I*%
%TO.C,J108*%
X97850000Y-38705000D03*
D14*
%TO.N,GND*%
X95310000Y-38705000D03*
%TO.N,/solar array deployment/C_PANEL_OPEEN_BTN_I*%
X92770000Y-38705000D03*
%TO.N,GND*%
X90230000Y-38705000D03*
%TO.N,/solar array verification/A_PANEL_CLOSE_SENSOR_I*%
X87690000Y-38705000D03*
%TO.N,GND*%
X85150000Y-38705000D03*
%TO.N,/solar array verification/A_PANEL_OPEN_SENSOR_I*%
X82610000Y-38705000D03*
%TO.N,GND*%
X80070000Y-38705000D03*
%TD*%
D13*
%TO.N,/active filter/A_LDR_N_I*%
%TO.C,J101*%
X123985000Y-38705000D03*
D14*
%TO.N,GND*%
X121445000Y-38705000D03*
%TO.N,/active filter/A_LDR_E_I*%
X118905000Y-38705000D03*
%TO.N,GND*%
X116365000Y-38705000D03*
%TO.N,/active filter/A_LDR_S_I*%
X113825000Y-38705000D03*
%TO.N,GND*%
X111285000Y-38705000D03*
%TO.N,/active filter/A_LDR_W_I*%
X108745000Y-38705000D03*
%TO.N,GND*%
X106205000Y-38705000D03*
%TD*%
D15*
%TO.N,/thermal control/A_HTAS_I*%
%TO.C,J109*%
X124783711Y-90151799D03*
D14*
%TO.N,GND*%
X124783711Y-87611799D03*
%TO.N,/thermal control/A_LTHC_I*%
X124783711Y-85071799D03*
%TO.N,GND*%
X124783711Y-82531799D03*
%TD*%
D10*
%TO.N,/power selector/P_BATTERY_I*%
%TO.C,K702*%
X34850000Y-66025000D03*
%TO.N,/power selector/P_MAIN_O*%
X34850000Y-60985000D03*
%TO.N,/power selector/P_BATTERY_I*%
X27350000Y-66025000D03*
%TO.N,/power selector/P_MAIN_O*%
X27350000Y-60985000D03*
D11*
%TO.N,/power selector/C_COIL_BATT*%
X34850000Y-86325000D03*
D12*
%TO.N,+9V*%
X27350000Y-86325000D03*
%TD*%
D16*
%TO.N,/thermal control/A_LTHC_O*%
%TO.C,J110*%
X72750000Y-40202500D03*
D17*
%TO.N,GND*%
X67750000Y-40202500D03*
%TO.N,/solar array deployment/S_SERVO_SIGNAL_O*%
X62750000Y-40202500D03*
%TO.N,GND*%
X57750000Y-40202500D03*
%TD*%
D18*
%TO.N,+9V*%
%TO.C,J103*%
X122350000Y-75725000D03*
D17*
%TO.N,+9VA*%
X122350000Y-70645000D03*
%TO.N,-9VA*%
X122350000Y-65565000D03*
%TO.N,GND*%
X122350000Y-60485000D03*
X122350000Y-55405000D03*
%TD*%
D16*
%TO.N,/power selector/P_SOLAR_I*%
%TO.C,J105*%
X48010000Y-40907500D03*
D17*
%TO.N,GND*%
X42930000Y-40907500D03*
%TO.N,/power selector/P_MAIN_O*%
X37850000Y-40907500D03*
%TO.N,GND*%
X32770000Y-40907500D03*
%TO.N,/power selector/P_BATTERY_I*%
X27690000Y-40907500D03*
%TD*%
D19*
%TO.N,+9V*%
X89250000Y-93426000D03*
X84150000Y-93425000D03*
D20*
%TO.N,/solar array verification/A_IN+_STP_CLS*%
X106142000Y-88425000D03*
X69700000Y-105575000D03*
%TO.N,/active filter/A_LDR_N_O*%
X29200000Y-108225000D03*
X79700000Y-96175000D03*
%TO.N,/active filter/A_LDR_E_O*%
X84209281Y-96175000D03*
X29065564Y-107209436D03*
%TO.N,/active filter/A_LDR_W_O*%
X53500000Y-101575000D03*
X88550000Y-102575000D03*
%TO.N,/active filter/A_IN-_W*%
X56400000Y-111125000D03*
X57100000Y-113201000D03*
%TO.N,/active filter/A_LDR_S_O*%
X58650000Y-101775000D03*
X79700000Y-100974000D03*
%TO.N,/thermal control/L_HTAS*%
X110750000Y-124575000D03*
X106700000Y-112275000D03*
%TO.N,/thermal control/A_HTAS_O*%
X112600000Y-106575000D03*
X111853000Y-99675000D03*
X115913186Y-123756814D03*
X81238652Y-83580000D03*
X102049000Y-91625000D03*
%TO.N,/thermal control/A_LTHC_O*%
X81400000Y-55175000D03*
X117500000Y-103544425D03*
X111950000Y-55175000D03*
X107200000Y-55175000D03*
X113375668Y-86457377D03*
%TO.N,/thermal control/L_LTHC*%
X115500000Y-104825000D03*
X121350000Y-124125000D03*
%TO.N,/solar eclipse/L_ECLIPSE*%
X86000000Y-128525000D03*
X70450000Y-112325000D03*
D21*
%TO.N,/solar eclipse/C_ECLIPSE_O*%
X78950000Y-107725000D03*
X80850000Y-107275000D03*
D20*
%TO.N,/solar eclipse/L_LIGHT_N*%
X94550000Y-113625000D03*
X89700000Y-122825000D03*
D21*
%TO.N,/solar eclipse/C_LIGHT_E_O*%
X121300000Y-112575000D03*
X95100000Y-91825000D03*
D20*
%TO.N,/solar eclipse/L_LIGHT_E*%
X104750000Y-131825000D03*
X104650000Y-108825000D03*
%TO.N,/solar eclipse/L_LIGHT_S*%
X65062500Y-110675000D03*
X93100000Y-140425000D03*
%TO.N,/solar eclipse/L_LIGHT_W*%
X64700000Y-112775000D03*
X82300000Y-131875000D03*
D21*
%TO.N,/solar eclipse/C_LIGHT_W_O*%
X122400000Y-112475000D03*
D22*
%TO.N,/solar array deployment/S_SERVO_SIGNAL_O*%
X81172860Y-57404222D03*
X107845000Y-63125000D03*
D20*
%TO.N,/solar array deployment/L_PANEL_OPEN*%
X48150000Y-115625000D03*
X49700000Y-135825000D03*
D21*
%TO.N,/solar array deployment/C_PANEL_OPEN_LATCH_O*%
X78300000Y-98925000D03*
X74150000Y-97225000D03*
D20*
%TO.N,/solar array deployment/L_PANEL_CLOSE*%
X69550000Y-116725000D03*
X63800000Y-133475000D03*
%TO.N,/solar array verification/A_STP_OPN_O*%
X91350000Y-79125000D03*
X54550000Y-96175000D03*
%TO.N,/solar array verification/L_ALARM*%
X54300000Y-142425000D03*
X44950000Y-115225000D03*
D21*
%TO.N,/power selector/C_BATT_SELECT*%
X44950000Y-89325000D03*
X116671418Y-95903583D03*
D20*
%TO.N,/active filter/A_LDR_S_I*%
X42300000Y-117675000D03*
%TO.N,/active filter/A_LDR_N_I*%
X36200000Y-108625000D03*
%TO.N,/active filter/A_LDR_W_I*%
X58150000Y-127275000D03*
%TO.N,/active filter/A_LDR_E_I*%
X40825000Y-111925000D03*
D19*
%TO.N,/power selector/P_BATTERY_I*%
X31450000Y-68825000D03*
X27250000Y-68975000D03*
%TO.N,/power selector/P_SOLAR_I*%
X56750000Y-68575000D03*
X49200000Y-68775000D03*
X52850000Y-68575000D03*
D20*
%TO.N,/solar array verification/A_PANEL_CLOSE_SENSOR_I*%
X82750000Y-50925000D03*
X80200000Y-70225000D03*
%TO.N,/solar array verification/A_PANEL_OPEN_SENSOR_I*%
X76950000Y-56825000D03*
X80600000Y-50875000D03*
%TO.N,/solar array verification/A_RST_SET_2*%
X62450000Y-82475000D03*
X62400000Y-84475000D03*
%TO.N,/thermal control/A_BIAS_LTHC_1*%
X116047849Y-116900000D03*
X119500000Y-123425000D03*
%TO.N,/solar array deployment/A_BASE_OPN*%
X100750000Y-95225000D03*
X100800000Y-97275000D03*
%TO.N,/solar array deployment/A_BASE_CLS*%
X95700000Y-97975000D03*
X99400000Y-89175000D03*
%TO.N,/thermal control/A_BIAS_LTHC_2*%
X116700000Y-126475000D03*
X114450000Y-123425000D03*
%TO.N,/thermal control/A_SETPOINT_LTHC*%
X117450000Y-131225000D03*
X102049000Y-96650000D03*
X100649441Y-87360000D03*
X112750000Y-102625000D03*
%TO.N,/solar eclipse/A_FEEDBACK_U403A*%
X92700000Y-106526000D03*
X82450000Y-105425000D03*
%TO.N,/thermal control/A_BIAS_HTAS_2*%
X113300000Y-129725000D03*
X112545604Y-127920604D03*
%TO.N,/thermal control/A_BIAS_HTAS_1*%
X111400000Y-128125000D03*
X111400000Y-129875000D03*
%TO.N,/solar array verification/A_IN-_ASL*%
X60550000Y-95525000D03*
X94350000Y-78825000D03*
X60900000Y-91525000D03*
X59456407Y-100975000D03*
%TO.N,/solar array verification/A_RST_SET_1*%
X75350000Y-73375000D03*
X71500000Y-78225000D03*
%TO.N,/solar array verification/A_IN-_STP_CLS*%
X114797793Y-94527207D03*
X105350000Y-91875000D03*
X113850000Y-90475000D03*
X66722549Y-101775000D03*
%TO.N,/power selector/A_SETPOINT_BATTERY*%
X71700000Y-70325000D03*
X49621469Y-125525000D03*
%TO.N,/solar eclipse/A_SETPOINT_LDR_N*%
X85350000Y-123925000D03*
X75950000Y-96175000D03*
X44900000Y-101425000D03*
X44900000Y-98975000D03*
%TO.N,/solar eclipse/A_SETPOINT_LDR_S*%
X82399000Y-104175000D03*
X84051000Y-112125000D03*
%TO.N,/solar eclipse/A_SETPOINT_LDR_W*%
X101850000Y-109475000D03*
X85150000Y-104175000D03*
X101850000Y-104275000D03*
X99400000Y-123925000D03*
D23*
%TO.N,/power selector/A_SETPOINT_SOLAR*%
X44850000Y-121975000D03*
D20*
X69050000Y-66425000D03*
%TO.N,/thermal control/A_SETPOINT_HTAS*%
X99760666Y-84362500D03*
X84000000Y-104425000D03*
X106142000Y-123925000D03*
X92695524Y-96320524D03*
X106200000Y-131376000D03*
X106200000Y-139525000D03*
D22*
%TO.N,/solar array deployment/S_SERVO_PREFILTER_O*%
X56350000Y-130177000D03*
X113372793Y-76847793D03*
D20*
%TO.N,/solar array deployment/A_SETPOINT_CLOSE*%
X89900000Y-73425000D03*
X67100000Y-124725000D03*
%TO.N,/power selector/L_SOLAR_SELECT*%
X27450000Y-138025000D03*
X28600000Y-119775000D03*
%TO.N,/power selector/L_BATT_SELECT*%
X44200000Y-120775000D03*
X39450000Y-138075000D03*
%TD*%
D24*
%TO.N,/thermal control/L_HTAS*%
X110750000Y-116325000D02*
X106700000Y-112275000D01*
X110750000Y-124575000D02*
X110750000Y-116325000D01*
%TO.N,/thermal control/L_LTHC*%
X115500000Y-115219365D02*
X115500000Y-104825000D01*
X121350000Y-124125000D02*
X121350000Y-121069365D01*
X121350000Y-121069365D02*
X115500000Y-115219365D01*
%TO.N,/solar eclipse/L_ECLIPSE*%
X86000000Y-128525000D02*
X86000000Y-127875000D01*
X86000000Y-127875000D02*
X70450000Y-112325000D01*
%TO.N,/solar eclipse/L_LIGHT_N*%
X94550000Y-117975000D02*
X94550000Y-113625000D01*
X89700000Y-122825000D02*
X94550000Y-117975000D01*
D25*
%TO.N,/solar eclipse/C_LIGHT_E_O*%
X96750000Y-93475000D02*
X95100000Y-91825000D01*
X121300000Y-97075000D02*
X117700000Y-93475000D01*
X117700000Y-93475000D02*
X96750000Y-93475000D01*
X121300000Y-112575000D02*
X121300000Y-97075000D01*
D24*
%TO.N,/solar eclipse/L_LIGHT_E*%
X104750000Y-108925000D02*
X104650000Y-108825000D01*
X104750000Y-131825000D02*
X104750000Y-108925000D01*
%TO.N,/solar eclipse/L_LIGHT_S*%
X67350000Y-110675000D02*
X65062500Y-110675000D01*
X93100000Y-140425000D02*
X84900000Y-132225000D01*
X84900000Y-128225000D02*
X67350000Y-110675000D01*
X84900000Y-132225000D02*
X84900000Y-128225000D01*
%TO.N,/solar eclipse/L_LIGHT_W*%
X82300000Y-126474942D02*
X68600029Y-112774971D01*
X68600000Y-112775000D02*
X64700000Y-112775000D01*
X68600029Y-112774971D02*
X68600000Y-112775000D01*
X82300000Y-131875000D02*
X82300000Y-126474942D01*
%TO.N,/solar array deployment/L_PANEL_OPEN*%
X47350000Y-116425000D02*
X48150000Y-115625000D01*
X47350000Y-133475000D02*
X47350000Y-116425000D01*
X49700000Y-135825000D02*
X47350000Y-133475000D01*
D25*
%TO.N,/solar array deployment/C_PANEL_OPEN_LATCH_O*%
X75850000Y-98925000D02*
X74150000Y-97225000D01*
X78300000Y-98925000D02*
X75850000Y-98925000D01*
D24*
%TO.N,/solar array deployment/L_PANEL_CLOSE*%
X69550000Y-127725000D02*
X69550000Y-116725000D01*
X63800000Y-133475000D02*
X69550000Y-127725000D01*
%TO.N,/solar array verification/L_ALARM*%
X45900000Y-134025000D02*
X45900000Y-119875000D01*
X45900000Y-119875000D02*
X44950000Y-118925000D01*
X54300000Y-142425000D02*
X45900000Y-134025000D01*
X44950000Y-118925000D02*
X44950000Y-115225000D01*
D25*
%TO.N,/power selector/C_BATT_SELECT*%
X116474000Y-95899000D02*
X116478583Y-95903583D01*
X92861075Y-95424000D02*
X83898206Y-95424000D01*
X101627476Y-96009449D02*
X93446524Y-96009449D01*
X93446524Y-96009449D02*
X92861075Y-95424000D01*
X77799206Y-89325000D02*
X44950000Y-89325000D01*
X116474000Y-95899000D02*
X101737925Y-95899000D01*
X83898206Y-95424000D02*
X77799206Y-89325000D01*
X116478583Y-95903583D02*
X116671418Y-95903583D01*
X101737925Y-95899000D02*
X101627476Y-96009449D01*
D24*
%TO.N,/power selector/L_SOLAR_SELECT*%
X27450000Y-120925000D02*
X28600000Y-119775000D01*
X27450000Y-138025000D02*
X27450000Y-120925000D01*
%TO.N,/power selector/L_BATT_SELECT*%
X44149000Y-120826000D02*
X44200000Y-120775000D01*
X44149000Y-133376000D02*
X44149000Y-120826000D01*
X39450000Y-138075000D02*
X44149000Y-133376000D01*
%TD*%
M02*
