%TF.GenerationSoftware,KiCad,Pcbnew,9.0.7-9.0.7~ubuntu24.04.1*%
%TF.CreationDate,2026-01-30T18:11:09-03:00*%
%TF.ProjectId,Main board,4d61696e-2062-46f6-9172-642e6b696361,1*%
%TF.SameCoordinates,Original*%
%TF.FileFunction,Copper,L6,Bot*%
%TF.FilePolarity,Positive*%
%FSLAX46Y46*%
G04 Gerber Fmt 4.6, Leading zero omitted, Abs format (unit mm)*
G04 Created by KiCad (PCBNEW 9.0.7-9.0.7~ubuntu24.04.1) date 2026-01-30 18:11:09*
%MOMM*%
%LPD*%
G01*
G04 APERTURE LIST*
G04 Aperture macros list*
%AMRoundRect*
0 Rectangle with rounded corners*
0 $1 Rounding radius*
0 $2 $3 $4 $5 $6 $7 $8 $9 X,Y pos of 4 corners*
0 Add a 4 corners polygon primitive as box body*
4,1,4,$2,$3,$4,$5,$6,$7,$8,$9,$2,$3,0*
0 Add four circle primitives for the rounded corners*
1,1,$1+$1,$2,$3*
1,1,$1+$1,$4,$5*
1,1,$1+$1,$6,$7*
1,1,$1+$1,$8,$9*
0 Add four rect primitives between the rounded corners*
20,1,$1+$1,$2,$3,$4,$5,0*
20,1,$1+$1,$4,$5,$6,$7,0*
20,1,$1+$1,$6,$7,$8,$9,0*
20,1,$1+$1,$8,$9,$2,$3,0*%
G04 Aperture macros list end*
%TA.AperFunction,ComponentPad*%
%ADD10O,3.000000X2.000000*%
%TD*%
%TA.AperFunction,ComponentPad*%
%ADD11R,2.000000X3.000000*%
%TD*%
%TA.AperFunction,ComponentPad*%
%ADD12O,2.000000X3.000000*%
%TD*%
%TA.AperFunction,ComponentPad*%
%ADD13RoundRect,0.249999X0.850001X0.850001X-0.850001X0.850001X-0.850001X-0.850001X0.850001X-0.850001X0*%
%TD*%
%TA.AperFunction,ComponentPad*%
%ADD14C,2.200000*%
%TD*%
%TA.AperFunction,ComponentPad*%
%ADD15RoundRect,0.249999X0.850001X-0.850001X0.850001X0.850001X-0.850001X0.850001X-0.850001X-0.850001X0*%
%TD*%
%TA.AperFunction,ComponentPad*%
%ADD16RoundRect,0.250000X1.050000X1.050000X-1.050000X1.050000X-1.050000X-1.050000X1.050000X-1.050000X0*%
%TD*%
%TA.AperFunction,ComponentPad*%
%ADD17C,2.600000*%
%TD*%
%TA.AperFunction,ComponentPad*%
%ADD18RoundRect,0.250000X1.050000X-1.050000X1.050000X1.050000X-1.050000X1.050000X-1.050000X-1.050000X0*%
%TD*%
%TA.AperFunction,ViaPad*%
%ADD19C,2.000000*%
%TD*%
%TA.AperFunction,ViaPad*%
%ADD20C,0.800000*%
%TD*%
%TA.AperFunction,ViaPad*%
%ADD21C,0.300000*%
%TD*%
%TA.AperFunction,ViaPad*%
%ADD22C,1.000000*%
%TD*%
%TA.AperFunction,ViaPad*%
%ADD23C,0.600000*%
%TD*%
%TA.AperFunction,Conductor*%
%ADD24C,2.000000*%
%TD*%
%TA.AperFunction,Conductor*%
%ADD25C,0.400000*%
%TD*%
%TA.AperFunction,Conductor*%
%ADD26C,0.300000*%
%TD*%
G04 APERTURE END LIST*
D10*
%TO.P,K701,11*%
%TO.N,/power selector/P_SOLAR_I*%
X56700000Y-65875000D03*
%TO.P,K701,14*%
%TO.N,/power selector/P_MAIN_O*%
X56700000Y-60835000D03*
%TO.P,K701,21*%
%TO.N,/power selector/P_SOLAR_I*%
X49200000Y-65875000D03*
%TO.P,K701,24*%
%TO.N,/power selector/P_MAIN_O*%
X49200000Y-60835000D03*
D11*
%TO.P,K701,A1*%
%TO.N,/power selector/C_COIL_SOL*%
X56700000Y-86175000D03*
D12*
%TO.P,K701,A2*%
%TO.N,+9V*%
X49200000Y-86175000D03*
%TD*%
D13*
%TO.P,J108,1,CLS_BTN*%
%TO.N,/solar array deployment/C_PANEL_CLOSE_BTN_I*%
X97850000Y-38705000D03*
D14*
%TO.P,J108,2,GND*%
%TO.N,GND*%
X95310000Y-38705000D03*
%TO.P,J108,3,OPN_BTN*%
%TO.N,/solar array deployment/C_PANEL_OPEEN_BTN_I*%
X92770000Y-38705000D03*
%TO.P,J108,4,GND*%
%TO.N,GND*%
X90230000Y-38705000D03*
%TO.P,J108,5,CLS_SEN*%
%TO.N,/solar array verification/A_PANEL_CLOSE_SENSOR_I*%
X87690000Y-38705000D03*
%TO.P,J108,6,GND*%
%TO.N,GND*%
X85150000Y-38705000D03*
%TO.P,J108,7,OPN_SEN*%
%TO.N,/solar array verification/A_PANEL_OPEN_SENSOR_I*%
X82610000Y-38705000D03*
%TO.P,J108,8,GND*%
%TO.N,GND*%
X80070000Y-38705000D03*
%TD*%
D13*
%TO.P,J101,1,LDR_N*%
%TO.N,/active filter/A_LDR_N_I*%
X123985000Y-38705000D03*
D14*
%TO.P,J101,2,GND*%
%TO.N,GND*%
X121445000Y-38705000D03*
%TO.P,J101,3,LDR_E*%
%TO.N,/active filter/A_LDR_E_I*%
X118905000Y-38705000D03*
%TO.P,J101,4,GND*%
%TO.N,GND*%
X116365000Y-38705000D03*
%TO.P,J101,5,LDR_S*%
%TO.N,/active filter/A_LDR_S_I*%
X113825000Y-38705000D03*
%TO.P,J101,6,GND*%
%TO.N,GND*%
X111285000Y-38705000D03*
%TO.P,J101,7,LDR_W*%
%TO.N,/active filter/A_LDR_W_I*%
X108745000Y-38705000D03*
%TO.P,J101,8,GND*%
%TO.N,GND*%
X106205000Y-38705000D03*
%TD*%
D15*
%TO.P,J109,1,THERM_IN1*%
%TO.N,/thermal control/A_HTAS_I*%
X124783711Y-90151799D03*
D14*
%TO.P,J109,2,GND*%
%TO.N,GND*%
X124783711Y-87611799D03*
%TO.P,J109,3,THERM_IN2*%
%TO.N,/thermal control/A_LTHC_I*%
X124783711Y-85071799D03*
%TO.P,J109,4,GND*%
%TO.N,GND*%
X124783711Y-82531799D03*
%TD*%
D10*
%TO.P,K702,11*%
%TO.N,/power selector/P_BATTERY_I*%
X34850000Y-66025000D03*
%TO.P,K702,14*%
%TO.N,/power selector/P_MAIN_O*%
X34850000Y-60985000D03*
%TO.P,K702,21*%
%TO.N,/power selector/P_BATTERY_I*%
X27350000Y-66025000D03*
%TO.P,K702,24*%
%TO.N,/power selector/P_MAIN_O*%
X27350000Y-60985000D03*
D11*
%TO.P,K702,A1*%
%TO.N,/power selector/C_COIL_BATT*%
X34850000Y-86325000D03*
D12*
%TO.P,K702,A2*%
%TO.N,+9V*%
X27350000Y-86325000D03*
%TD*%
D16*
%TO.P,J110,1,THERM*%
%TO.N,/thermal control/A_LTHC_O*%
X72750000Y-40202500D03*
D17*
%TO.P,J110,2,GND*%
%TO.N,GND*%
X67750000Y-40202500D03*
%TO.P,J110,3,SERVO*%
%TO.N,/solar array deployment/S_SERVO_SIGNAL_O*%
X62750000Y-40202500D03*
%TO.P,J110,4,GND*%
%TO.N,GND*%
X57750000Y-40202500D03*
%TD*%
D18*
%TO.P,J103,1,Pin_1*%
%TO.N,+9V*%
X122350000Y-75725000D03*
D17*
%TO.P,J103,2,Pin_2*%
%TO.N,+9VA*%
X122350000Y-70645000D03*
%TO.P,J103,3,Pin_3*%
%TO.N,-9VA*%
X122350000Y-65565000D03*
%TO.P,J103,4,Pin_4*%
%TO.N,GND*%
X122350000Y-60485000D03*
%TO.P,J103,5,Pin_5*%
X122350000Y-55405000D03*
%TD*%
D16*
%TO.P,J105,1,SOLAR*%
%TO.N,/power selector/P_SOLAR_I*%
X48010000Y-40907500D03*
D17*
%TO.P,J105,2,GND*%
%TO.N,GND*%
X42930000Y-40907500D03*
%TO.P,J105,3,VMAIN*%
%TO.N,/power selector/P_MAIN_O*%
X37850000Y-40907500D03*
%TO.P,J105,4,GND*%
%TO.N,GND*%
X32770000Y-40907500D03*
%TO.P,J105,5,BATTERY*%
%TO.N,/power selector/P_BATTERY_I*%
X27690000Y-40907500D03*
%TD*%
D19*
%TO.N,+9V*%
X89250000Y-93426000D03*
X84150000Y-93425000D03*
D20*
%TO.N,/solar array verification/A_IN+_STP_CLS*%
X106142000Y-88425000D03*
X69700000Y-105575000D03*
%TO.N,/active filter/A_LDR_N_O*%
X29200000Y-108225000D03*
X79700000Y-96175000D03*
%TO.N,/active filter/A_LDR_E_O*%
X84209281Y-96175000D03*
X29065564Y-107209436D03*
%TO.N,/active filter/A_LDR_W_O*%
X53500000Y-101575000D03*
X88550000Y-102575000D03*
%TO.N,/active filter/A_IN-_W*%
X56400000Y-111125000D03*
X57100000Y-113201000D03*
%TO.N,/active filter/A_LDR_S_O*%
X58650000Y-101775000D03*
X79700000Y-100974000D03*
%TO.N,/thermal control/A_HTAS_O*%
X112600000Y-106575000D03*
X111853000Y-99675000D03*
X115913186Y-123756814D03*
X81238652Y-83580000D03*
X102049000Y-91625000D03*
%TO.N,/thermal control/A_LTHC_O*%
X81400000Y-55175000D03*
X117500000Y-103544425D03*
X111950000Y-55175000D03*
X107200000Y-55175000D03*
X113375668Y-86457377D03*
D21*
%TO.N,/solar eclipse/C_ECLIPSE_O*%
X78950000Y-107725000D03*
X80850000Y-107275000D03*
D22*
%TO.N,/solar array deployment/S_SERVO_SIGNAL_O*%
X81172860Y-57404222D03*
X107845000Y-63125000D03*
D20*
%TO.N,/solar array verification/A_STP_OPN_O*%
X91350000Y-79125000D03*
X54550000Y-96175000D03*
%TO.N,/active filter/A_LDR_S_I*%
X42300000Y-117675000D03*
%TO.N,/active filter/A_LDR_N_I*%
X36200000Y-108625000D03*
%TO.N,/active filter/A_LDR_W_I*%
X58150000Y-127275000D03*
%TO.N,/active filter/A_LDR_E_I*%
X40825000Y-111925000D03*
D19*
%TO.N,/power selector/P_BATTERY_I*%
X31450000Y-68825000D03*
X27250000Y-68975000D03*
%TO.N,/power selector/P_SOLAR_I*%
X56750000Y-68575000D03*
X49200000Y-68775000D03*
X52850000Y-68575000D03*
D20*
%TO.N,/solar array verification/A_PANEL_CLOSE_SENSOR_I*%
X82750000Y-50925000D03*
X80200000Y-70225000D03*
%TO.N,/solar array verification/A_PANEL_OPEN_SENSOR_I*%
X76950000Y-56825000D03*
X80600000Y-50875000D03*
%TO.N,/solar array verification/A_RST_SET_2*%
X62450000Y-82475000D03*
X62400000Y-84475000D03*
%TO.N,/thermal control/A_BIAS_LTHC_1*%
X116047849Y-116900000D03*
X119500000Y-123425000D03*
%TO.N,/solar array deployment/A_BASE_OPN*%
X100750000Y-95225000D03*
X100800000Y-97275000D03*
%TO.N,/solar array deployment/A_BASE_CLS*%
X95700000Y-97975000D03*
X99400000Y-89175000D03*
%TO.N,/thermal control/A_BIAS_LTHC_2*%
X116700000Y-126475000D03*
X114450000Y-123425000D03*
%TO.N,/thermal control/A_SETPOINT_LTHC*%
X117450000Y-131225000D03*
X102049000Y-96650000D03*
X100649441Y-87360000D03*
X112750000Y-102625000D03*
%TO.N,/solar eclipse/A_FEEDBACK_U403A*%
X92700000Y-106526000D03*
X82450000Y-105425000D03*
%TO.N,/thermal control/A_BIAS_HTAS_2*%
X113300000Y-129725000D03*
X112545604Y-127920604D03*
%TO.N,/thermal control/A_BIAS_HTAS_1*%
X111400000Y-128125000D03*
X111400000Y-129875000D03*
%TO.N,/solar array verification/A_IN-_ASL*%
X60550000Y-95525000D03*
X94350000Y-78825000D03*
X60900000Y-91525000D03*
X59456407Y-100975000D03*
%TO.N,/solar array verification/A_RST_SET_1*%
X75350000Y-73375000D03*
X71500000Y-78225000D03*
%TO.N,/solar array verification/A_IN-_STP_CLS*%
X114797793Y-94527207D03*
X105350000Y-91875000D03*
X113850000Y-90475000D03*
X66722549Y-101775000D03*
%TO.N,/power selector/A_SETPOINT_BATTERY*%
X71700000Y-70325000D03*
X49621469Y-125525000D03*
%TO.N,/solar eclipse/A_SETPOINT_LDR_N*%
X85350000Y-123925000D03*
X75950000Y-96175000D03*
X44900000Y-101425000D03*
X44900000Y-98975000D03*
%TO.N,/solar eclipse/A_SETPOINT_LDR_S*%
X82399000Y-104175000D03*
X84051000Y-112125000D03*
%TO.N,/solar eclipse/A_SETPOINT_LDR_W*%
X101850000Y-109475000D03*
X85150000Y-104175000D03*
X101850000Y-104275000D03*
X99400000Y-123925000D03*
D23*
%TO.N,/power selector/A_SETPOINT_SOLAR*%
X44850000Y-121975000D03*
D20*
X69050000Y-66425000D03*
%TO.N,/thermal control/A_SETPOINT_HTAS*%
X99760666Y-84362500D03*
X84000000Y-104425000D03*
X106142000Y-123925000D03*
X92695524Y-96320524D03*
X106200000Y-131376000D03*
X106200000Y-139525000D03*
D22*
%TO.N,/solar array deployment/S_SERVO_PREFILTER_O*%
X56350000Y-130177000D03*
X113372793Y-76847793D03*
D20*
%TO.N,/solar array deployment/A_SETPOINT_CLOSE*%
X89900000Y-73425000D03*
X67100000Y-124725000D03*
%TD*%
D24*
%TO.N,+9V*%
X84151000Y-93426000D02*
X84150000Y-93425000D01*
X89250000Y-93426000D02*
X84151000Y-93426000D01*
D25*
%TO.N,/solar array verification/A_IN+_STP_CLS*%
X106142000Y-88425000D02*
X106250000Y-88533000D01*
X106250000Y-101866000D02*
X105695500Y-102420500D01*
X98950000Y-103375000D02*
X71900000Y-103375000D01*
X106250000Y-88533000D02*
X106250000Y-101866000D01*
X105695500Y-102420500D02*
X105650000Y-102375000D01*
X105650000Y-102375000D02*
X99050000Y-102375000D01*
X71900000Y-103375000D02*
X69700000Y-105575000D01*
X99050000Y-103275000D02*
X98950000Y-103375000D01*
X99050000Y-102375000D02*
X99050000Y-103275000D01*
%TO.N,/active filter/A_LDR_N_O*%
X58700000Y-96242214D02*
X58700000Y-100475000D01*
X79552000Y-96323000D02*
X79552000Y-98075000D01*
X79700000Y-96175000D02*
X79552000Y-96323000D01*
X61450000Y-95292214D02*
X60881786Y-94724000D01*
X61450000Y-98325000D02*
X61450000Y-95292214D01*
X60218214Y-94724000D02*
X58700000Y-96242214D01*
X60881786Y-94724000D02*
X60218214Y-94724000D01*
X58700000Y-100475000D02*
X36950000Y-100475000D01*
X36950000Y-100475000D02*
X29200000Y-108225000D01*
X61552000Y-98223000D02*
X61450000Y-98325000D01*
X61552000Y-98223000D02*
X79404000Y-98223000D01*
X79552000Y-98075000D02*
X79404000Y-98223000D01*
%TO.N,/active filter/A_LDR_E_O*%
X55400000Y-99775000D02*
X36500000Y-99775000D01*
X84209281Y-96175000D02*
X83408281Y-95374000D01*
X55400000Y-98692272D02*
X55400000Y-99775000D01*
X83408281Y-95374000D02*
X79368214Y-95374000D01*
X61130728Y-94123000D02*
X59969272Y-94123000D01*
X78900000Y-95842214D02*
X78900000Y-97622000D01*
X36500000Y-99775000D02*
X29065564Y-107209436D01*
X63100000Y-96092272D02*
X61130728Y-94123000D01*
X79368214Y-95374000D02*
X78900000Y-95842214D01*
X78900000Y-97622000D02*
X63100000Y-97622000D01*
X59969272Y-94123000D02*
X55400000Y-98692272D01*
X63100000Y-97622000D02*
X63100000Y-96092272D01*
%TO.N,/active filter/A_LDR_W_O*%
X88550000Y-102575000D02*
X54500000Y-102575000D01*
X54500000Y-102575000D02*
X53500000Y-101575000D01*
%TO.N,/active filter/A_IN-_W*%
X57100000Y-113201000D02*
X57100000Y-111825000D01*
X57100000Y-111825000D02*
X56400000Y-111125000D01*
%TO.N,/active filter/A_LDR_S_O*%
X66390763Y-100974000D02*
X79700000Y-100974000D01*
X65589763Y-101775000D02*
X66390763Y-100974000D01*
X58650000Y-101775000D02*
X65589763Y-101775000D01*
%TO.N,/thermal control/A_HTAS_O*%
X102150000Y-91524000D02*
X102150000Y-82376000D01*
X112200000Y-106975000D02*
X112600000Y-106575000D01*
X111853000Y-119696628D02*
X115913186Y-123756814D01*
X102049000Y-91625000D02*
X102150000Y-91524000D01*
X102150000Y-82376000D02*
X82442652Y-82376000D01*
X82442652Y-82376000D02*
X81238652Y-83580000D01*
X111853000Y-106975000D02*
X111853000Y-119696628D01*
X111853000Y-99675000D02*
X111853000Y-106975000D01*
X111853000Y-106975000D02*
X112200000Y-106975000D01*
%TO.N,/thermal control/A_LTHC_O*%
X107200000Y-55175000D02*
X81400000Y-55175000D01*
X113375668Y-86457377D02*
X112732377Y-86457377D01*
X115600000Y-88681709D02*
X115600000Y-101425000D01*
X117500000Y-103325000D02*
X117500000Y-103544425D01*
X111951000Y-80578000D02*
X111951000Y-55176000D01*
X115600000Y-101425000D02*
X117500000Y-103325000D01*
X111951000Y-55176000D02*
X111950000Y-55175000D01*
X113375668Y-86457377D02*
X115600000Y-88681709D01*
X111654000Y-85379000D02*
X111654000Y-80875000D01*
X111654000Y-80875000D02*
X111951000Y-80578000D01*
X112732377Y-86457377D02*
X111654000Y-85379000D01*
D26*
%TO.N,/solar eclipse/C_ECLIPSE_O*%
X78950000Y-107725000D02*
X80400000Y-107725000D01*
X80400000Y-107725000D02*
X80850000Y-107275000D01*
D25*
%TO.N,/solar array deployment/S_SERVO_SIGNAL_O*%
X82502082Y-56075000D02*
X107594000Y-56075000D01*
X82502082Y-56075000D02*
X81172860Y-57404222D01*
X107845000Y-63125000D02*
X108144000Y-62826000D01*
X108144000Y-62826000D02*
X108144000Y-56625000D01*
X108144000Y-56625000D02*
X107594000Y-56075000D01*
%TO.N,/solar array verification/A_STP_OPN_O*%
X69551000Y-81174000D02*
X54550000Y-96175000D01*
X69551000Y-81174000D02*
X89301000Y-81174000D01*
X91350000Y-79125000D02*
X89301000Y-81174000D01*
%TO.N,/active filter/A_LDR_S_I*%
X113825000Y-38705000D02*
X111255000Y-41275000D01*
X109350000Y-41279000D02*
X109350000Y-127624942D01*
X42300000Y-120425116D02*
X49949884Y-128075000D01*
X42300000Y-120425116D02*
X42300000Y-117675000D01*
X109350000Y-127624942D02*
X108899942Y-128075000D01*
X109346000Y-41275000D02*
X109350000Y-41279000D01*
X49949884Y-128075000D02*
X108899942Y-128075000D01*
X111255000Y-41275000D02*
X109346000Y-41275000D01*
%TO.N,/active filter/A_LDR_N_I*%
X120164000Y-42526000D02*
X110552000Y-42526000D01*
X110552000Y-42526000D02*
X110552000Y-128122826D01*
X123985000Y-38705000D02*
X120164000Y-42526000D01*
X49452000Y-129277000D02*
X36200000Y-116025000D01*
X110552000Y-128122826D02*
X109397826Y-129277000D01*
X36200000Y-116025000D02*
X36200000Y-108625000D01*
X109397826Y-129277000D02*
X49452000Y-129277000D01*
%TO.N,/active filter/A_LDR_W_I*%
X108640000Y-127275000D02*
X108745000Y-127380000D01*
X58150000Y-127275000D02*
X108640000Y-127275000D01*
X108745000Y-38705000D02*
X108745000Y-127380000D01*
%TO.N,/active filter/A_LDR_E_I*%
X109951000Y-127873884D02*
X109148884Y-128676000D01*
X40825000Y-119800058D02*
X40825000Y-111925000D01*
X109951000Y-41925000D02*
X109951000Y-127873884D01*
X115685000Y-41925000D02*
X109951000Y-41925000D01*
X49700942Y-128676000D02*
X40825000Y-119800058D01*
X118905000Y-38705000D02*
X115685000Y-41925000D01*
X109148884Y-128676000D02*
X49700942Y-128676000D01*
D24*
%TO.N,/power selector/P_BATTERY_I*%
X24267500Y-40907500D02*
X24100000Y-41075000D01*
%TO.N,/power selector/P_SOLAR_I*%
X50432500Y-40907500D02*
X53799000Y-44274000D01*
X48010000Y-40907500D02*
X46299000Y-42618500D01*
X48010000Y-40907500D02*
X50432500Y-40907500D01*
D25*
%TO.N,/solar array verification/A_PANEL_CLOSE_SENSOR_I*%
X80250000Y-70175000D02*
X80200000Y-70225000D01*
X80250000Y-53425000D02*
X82750000Y-50925000D01*
X80250000Y-53425000D02*
X80250000Y-70175000D01*
%TO.N,/solar array verification/A_PANEL_OPEN_SENSOR_I*%
X80600000Y-50875000D02*
X77700000Y-53775000D01*
X77700000Y-53775000D02*
X77700000Y-56075000D01*
X77700000Y-56075000D02*
X76950000Y-56825000D01*
%TO.N,/solar array verification/A_RST_SET_2*%
X62400000Y-82525000D02*
X62450000Y-82475000D01*
X62400000Y-84475000D02*
X62400000Y-82525000D01*
%TO.N,/thermal control/A_BIAS_LTHC_1*%
X119500000Y-120352151D02*
X116047849Y-116900000D01*
X119500000Y-123425000D02*
X119500000Y-120352151D01*
%TO.N,/solar array deployment/A_BASE_OPN*%
X100800000Y-95275000D02*
X100750000Y-95225000D01*
X100800000Y-97275000D02*
X100800000Y-95275000D01*
%TO.N,/solar array deployment/A_BASE_CLS*%
X95700000Y-97075000D02*
X99400000Y-93375000D01*
X95700000Y-97975000D02*
X95700000Y-97075000D01*
X99400000Y-89175000D02*
X99400000Y-93375000D01*
%TO.N,/thermal control/A_BIAS_LTHC_2*%
X116700000Y-126475000D02*
X116700000Y-125675000D01*
X116700000Y-125675000D02*
X114450000Y-123425000D01*
%TO.N,/thermal control/A_SETPOINT_LTHC*%
X112750000Y-102625000D02*
X113401000Y-103276000D01*
X117501000Y-124211842D02*
X117501000Y-131174000D01*
X101085000Y-87360000D02*
X101549000Y-87824000D01*
X113401000Y-103276000D02*
X113401000Y-120111842D01*
X101248000Y-94175000D02*
X102049000Y-94976000D01*
X101549000Y-88675000D02*
X101248000Y-88976000D01*
X101248000Y-88976000D02*
X101248000Y-94175000D01*
X117501000Y-131174000D02*
X117450000Y-131225000D01*
X113401000Y-120111842D02*
X117501000Y-124211842D01*
X102049000Y-94976000D02*
X102049000Y-96650000D01*
X100649441Y-87360000D02*
X101085000Y-87360000D01*
X101549000Y-87824000D02*
X101549000Y-88675000D01*
%TO.N,/solar eclipse/A_FEEDBACK_U403A*%
X82450000Y-105425000D02*
X83551000Y-106526000D01*
X83551000Y-106526000D02*
X92700000Y-106526000D01*
%TO.N,/thermal control/A_BIAS_HTAS_2*%
X113300000Y-128675000D02*
X112545604Y-127920604D01*
X113300000Y-129725000D02*
X113300000Y-128675000D01*
%TO.N,/thermal control/A_BIAS_HTAS_1*%
X111400000Y-129875000D02*
X111400000Y-128125000D01*
%TO.N,/solar array verification/A_IN-_ASL*%
X93900000Y-78825000D02*
X90950000Y-81775000D01*
X94350000Y-78825000D02*
X93900000Y-78825000D01*
X70650000Y-81775000D02*
X60900000Y-91525000D01*
X70650000Y-81775000D02*
X90950000Y-81775000D01*
X60400000Y-100975000D02*
X59456407Y-100975000D01*
X60550000Y-101125000D02*
X60400000Y-100975000D01*
X60550000Y-95525000D02*
X60550000Y-101125000D01*
%TO.N,/solar array verification/A_RST_SET_1*%
X72700000Y-77025000D02*
X72750000Y-77025000D01*
X72750000Y-75975000D02*
X72750000Y-77025000D01*
X75350000Y-73375000D02*
X72750000Y-75975000D01*
X71500000Y-78225000D02*
X72700000Y-77025000D01*
%TO.N,/solar array verification/A_IN-_STP_CLS*%
X113700000Y-90625000D02*
X113850000Y-90475000D01*
X105450000Y-91975000D02*
X105350000Y-91875000D01*
X105450000Y-100626000D02*
X105450000Y-91975000D01*
X113700000Y-93725000D02*
X113700000Y-90625000D01*
X66722549Y-101775000D02*
X66723549Y-101774000D01*
X114502207Y-94527207D02*
X113700000Y-93725000D01*
X105649000Y-100876000D02*
X105649000Y-100825000D01*
X104751000Y-101774000D02*
X105649000Y-100876000D01*
X114797793Y-94527207D02*
X114502207Y-94527207D01*
X105649000Y-100825000D02*
X105450000Y-100626000D01*
X66723549Y-101774000D02*
X104751000Y-101774000D01*
%TO.N,/power selector/A_SETPOINT_BATTERY*%
X72350000Y-71775000D02*
X71700000Y-71125000D01*
X49621469Y-125525000D02*
X107543000Y-125525000D01*
X71700000Y-71125000D02*
X71700000Y-70325000D01*
X107543000Y-71775000D02*
X72350000Y-71775000D01*
X107543000Y-125525000D02*
X107543000Y-71775000D01*
%TO.N,/solar eclipse/A_SETPOINT_LDR_N*%
X44949000Y-121274000D02*
X45949000Y-121274000D01*
X73297000Y-93522000D02*
X59502000Y-93522000D01*
X53850000Y-99174000D02*
X53651000Y-98975000D01*
X59502000Y-93522000D02*
X53850000Y-99174000D01*
X45949000Y-121274000D02*
X48900000Y-124225000D01*
X53651000Y-98975000D02*
X44900000Y-98975000D01*
X85349000Y-123924000D02*
X85350000Y-123925000D01*
X49201000Y-123924000D02*
X85349000Y-123924000D01*
X44900000Y-101425000D02*
X44900000Y-121225000D01*
X44900000Y-121225000D02*
X44949000Y-121274000D01*
X48900000Y-124225000D02*
X49201000Y-123924000D01*
X75950000Y-96175000D02*
X73297000Y-93522000D01*
%TO.N,/solar eclipse/A_SETPOINT_LDR_S*%
X83951000Y-112025000D02*
X84051000Y-112125000D01*
X82399000Y-104175000D02*
X81500000Y-105074000D01*
X81500000Y-112025000D02*
X83951000Y-112025000D01*
X81500000Y-105074000D02*
X81500000Y-112025000D01*
%TO.N,/solar eclipse/A_SETPOINT_LDR_W*%
X85150000Y-104175000D02*
X101750000Y-104175000D01*
X101750000Y-104175000D02*
X101850000Y-104275000D01*
X105690000Y-109475000D02*
X105740000Y-109525000D01*
X105341000Y-110174000D02*
X105341000Y-124124000D01*
X105740000Y-109525000D02*
X105740000Y-109775000D01*
X105142000Y-123925000D02*
X99400000Y-123925000D01*
X105740000Y-109775000D02*
X105341000Y-110174000D01*
X105341000Y-124124000D02*
X105142000Y-123925000D01*
X101850000Y-109475000D02*
X105690000Y-109475000D01*
%TO.N,/power selector/A_SETPOINT_SOLAR*%
X73650000Y-71025000D02*
X69050000Y-66425000D01*
X108144000Y-66125000D02*
X103244000Y-71025000D01*
X44850000Y-121975000D02*
X49200000Y-126325000D01*
X49200000Y-126325000D02*
X107750000Y-126325000D01*
X107750000Y-126325000D02*
X108144000Y-125931000D01*
X108144000Y-125931000D02*
X108144000Y-66125000D01*
X103244000Y-71025000D02*
X73650000Y-71025000D01*
%TO.N,/thermal control/A_SETPOINT_HTAS*%
X84000000Y-104425000D02*
X85301000Y-105726000D01*
X85301000Y-105726000D02*
X105951000Y-105726000D01*
X92695524Y-91427642D02*
X92695524Y-96320524D01*
X106341000Y-106116000D02*
X106341000Y-113625000D01*
X106341000Y-113625000D02*
X106142000Y-113824000D01*
X105951000Y-105726000D02*
X106341000Y-106116000D01*
X106200000Y-131376000D02*
X106200000Y-139525000D01*
X106142000Y-113824000D02*
X106142000Y-123925000D01*
X99760666Y-84362500D02*
X92695524Y-91427642D01*
%TO.N,/solar array deployment/S_SERVO_PREFILTER_O*%
X117781786Y-132026000D02*
X107982786Y-132026000D01*
X104900000Y-129878000D02*
X104601000Y-130177000D01*
X114002000Y-117225000D02*
X118251000Y-121474000D01*
X118251000Y-131556786D02*
X117781786Y-132026000D01*
X118251000Y-121474000D02*
X118251000Y-131556786D01*
X118301000Y-81776000D02*
X118301000Y-112926000D01*
X107982786Y-132026000D02*
X105834786Y-129878000D01*
X105834786Y-129878000D02*
X104900000Y-129878000D01*
X113372793Y-76847793D02*
X118301000Y-81776000D01*
X104601000Y-130177000D02*
X56350000Y-130177000D01*
X118301000Y-112926000D02*
X114002000Y-117225000D01*
%TO.N,/solar array deployment/A_SETPOINT_CLOSE*%
X106700000Y-124725000D02*
X106942000Y-124483000D01*
X67100000Y-124725000D02*
X106700000Y-124725000D01*
X90000000Y-73525000D02*
X89900000Y-73425000D01*
X106942000Y-73525000D02*
X90000000Y-73525000D01*
X106942000Y-124483000D02*
X106942000Y-73525000D01*
%TD*%
%TA.AperFunction,Conductor*%
%TO.N,/power selector/P_SOLAR_I*%
G36*
X56835738Y-38384587D02*
G01*
X56902651Y-38404698D01*
X56948068Y-38457792D01*
X56957571Y-38527012D01*
X56928142Y-38590382D01*
X56896949Y-38615971D01*
X56818017Y-38661542D01*
X56747550Y-38702227D01*
X56747547Y-38702228D01*
X56747542Y-38702232D01*
X56560302Y-38845906D01*
X56560295Y-38845912D01*
X56393412Y-39012795D01*
X56393406Y-39012802D01*
X56249730Y-39200045D01*
X56131719Y-39404443D01*
X56131714Y-39404454D01*
X56041394Y-39622506D01*
X55980306Y-39850489D01*
X55949501Y-40084479D01*
X55949500Y-40084495D01*
X55949500Y-40320504D01*
X55949501Y-40320520D01*
X55960308Y-40402612D01*
X55980307Y-40554514D01*
X56007902Y-40657500D01*
X56041394Y-40782493D01*
X56131714Y-41000545D01*
X56131719Y-41000556D01*
X56202677Y-41123457D01*
X56249727Y-41204950D01*
X56249729Y-41204953D01*
X56249730Y-41204954D01*
X56393406Y-41392197D01*
X56393412Y-41392204D01*
X56560295Y-41559087D01*
X56560301Y-41559092D01*
X56747550Y-41702773D01*
X56878918Y-41778618D01*
X56951943Y-41820780D01*
X56951948Y-41820782D01*
X56951951Y-41820784D01*
X57170007Y-41911106D01*
X57397986Y-41972193D01*
X57631989Y-42003000D01*
X57631996Y-42003000D01*
X57868004Y-42003000D01*
X57868011Y-42003000D01*
X58102014Y-41972193D01*
X58329993Y-41911106D01*
X58548049Y-41820784D01*
X58752450Y-41702773D01*
X58939699Y-41559092D01*
X59106592Y-41392199D01*
X59250273Y-41204950D01*
X59368284Y-41000549D01*
X59368613Y-40999980D01*
X59419180Y-40951764D01*
X59487787Y-40938542D01*
X59552652Y-40964510D01*
X59593180Y-41021424D01*
X59600000Y-41061980D01*
X59600000Y-71028588D01*
X59580315Y-71095627D01*
X59527511Y-71141382D01*
X59476395Y-71152587D01*
X44024395Y-71201797D01*
X43957293Y-71182326D01*
X43911370Y-71129668D01*
X43900000Y-71077798D01*
X43900000Y-65625000D01*
X47220898Y-65625000D01*
X48599999Y-65625000D01*
X48574979Y-65685402D01*
X48550000Y-65810981D01*
X48550000Y-65939019D01*
X48574979Y-66064598D01*
X48599999Y-66125000D01*
X47220898Y-66125000D01*
X47236934Y-66226247D01*
X47309897Y-66450802D01*
X47417085Y-66661171D01*
X47555866Y-66852186D01*
X47722813Y-67019133D01*
X47913828Y-67157914D01*
X48124197Y-67265102D01*
X48348752Y-67338065D01*
X48348751Y-67338065D01*
X48581948Y-67375000D01*
X48950000Y-67375000D01*
X48950000Y-66475001D01*
X49010402Y-66500021D01*
X49135981Y-66525000D01*
X49264019Y-66525000D01*
X49389598Y-66500021D01*
X49450000Y-66475001D01*
X49450000Y-67375000D01*
X49818052Y-67375000D01*
X50051247Y-67338065D01*
X50275802Y-67265102D01*
X50486171Y-67157914D01*
X50677186Y-67019133D01*
X50844133Y-66852186D01*
X50982914Y-66661171D01*
X51090102Y-66450802D01*
X51163065Y-66226247D01*
X51179102Y-66125000D01*
X49800001Y-66125000D01*
X49825021Y-66064598D01*
X49850000Y-65939019D01*
X49850000Y-65810981D01*
X49825021Y-65685402D01*
X49800001Y-65625000D01*
X51179102Y-65625000D01*
X54720898Y-65625000D01*
X56099999Y-65625000D01*
X56074979Y-65685402D01*
X56050000Y-65810981D01*
X56050000Y-65939019D01*
X56074979Y-66064598D01*
X56099999Y-66125000D01*
X54720898Y-66125000D01*
X54736934Y-66226247D01*
X54809897Y-66450802D01*
X54917085Y-66661171D01*
X55055866Y-66852186D01*
X55222813Y-67019133D01*
X55413828Y-67157914D01*
X55624197Y-67265102D01*
X55848752Y-67338065D01*
X55848751Y-67338065D01*
X56081948Y-67375000D01*
X56450000Y-67375000D01*
X56450000Y-66475001D01*
X56510402Y-66500021D01*
X56635981Y-66525000D01*
X56764019Y-66525000D01*
X56889598Y-66500021D01*
X56950000Y-66475001D01*
X56950000Y-67375000D01*
X57318052Y-67375000D01*
X57551247Y-67338065D01*
X57775802Y-67265102D01*
X57986171Y-67157914D01*
X58177186Y-67019133D01*
X58344133Y-66852186D01*
X58482914Y-66661171D01*
X58590102Y-66450802D01*
X58663065Y-66226247D01*
X58679102Y-66125000D01*
X57300001Y-66125000D01*
X57325021Y-66064598D01*
X57350000Y-65939019D01*
X57350000Y-65810981D01*
X57325021Y-65685402D01*
X57300001Y-65625000D01*
X58679102Y-65625000D01*
X58663065Y-65523752D01*
X58590102Y-65299197D01*
X58482914Y-65088828D01*
X58344133Y-64897813D01*
X58177186Y-64730866D01*
X57986171Y-64592085D01*
X57775802Y-64484897D01*
X57551247Y-64411934D01*
X57551248Y-64411934D01*
X57318052Y-64375000D01*
X56950000Y-64375000D01*
X56950000Y-65274998D01*
X56889598Y-65249979D01*
X56764019Y-65225000D01*
X56635981Y-65225000D01*
X56510402Y-65249979D01*
X56450000Y-65274998D01*
X56450000Y-64375000D01*
X56081948Y-64375000D01*
X55848752Y-64411934D01*
X55624197Y-64484897D01*
X55413828Y-64592085D01*
X55222813Y-64730866D01*
X55055866Y-64897813D01*
X54917085Y-65088828D01*
X54809897Y-65299197D01*
X54736934Y-65523752D01*
X54720898Y-65625000D01*
X51179102Y-65625000D01*
X51163065Y-65523752D01*
X51090102Y-65299197D01*
X50982914Y-65088828D01*
X50844133Y-64897813D01*
X50677186Y-64730866D01*
X50486171Y-64592085D01*
X50275802Y-64484897D01*
X50051247Y-64411934D01*
X50051248Y-64411934D01*
X49818052Y-64375000D01*
X49450000Y-64375000D01*
X49450000Y-65274998D01*
X49389598Y-65249979D01*
X49264019Y-65225000D01*
X49135981Y-65225000D01*
X49010402Y-65249979D01*
X48950000Y-65274998D01*
X48950000Y-64375000D01*
X48581948Y-64375000D01*
X48348752Y-64411934D01*
X48124197Y-64484897D01*
X47913828Y-64592085D01*
X47722813Y-64730866D01*
X47555866Y-64897813D01*
X47417085Y-65088828D01*
X47309897Y-65299197D01*
X47236934Y-65523752D01*
X47220898Y-65625000D01*
X43900000Y-65625000D01*
X43900000Y-60716902D01*
X47199500Y-60716902D01*
X47199500Y-60953097D01*
X47236446Y-61186368D01*
X47309433Y-61410996D01*
X47416657Y-61621433D01*
X47555483Y-61812510D01*
X47722490Y-61979517D01*
X47913567Y-62118343D01*
X48012991Y-62169002D01*
X48124003Y-62225566D01*
X48124005Y-62225566D01*
X48124008Y-62225568D01*
X48244412Y-62264689D01*
X48348631Y-62298553D01*
X48581903Y-62335500D01*
X48581908Y-62335500D01*
X49818097Y-62335500D01*
X50051368Y-62298553D01*
X50275992Y-62225568D01*
X50486433Y-62118343D01*
X50677510Y-61979517D01*
X50844517Y-61812510D01*
X50983343Y-61621433D01*
X51090568Y-61410992D01*
X51163553Y-61186368D01*
X51200500Y-60953097D01*
X51200500Y-60716902D01*
X54699500Y-60716902D01*
X54699500Y-60953097D01*
X54736446Y-61186368D01*
X54809433Y-61410996D01*
X54916657Y-61621433D01*
X55055483Y-61812510D01*
X55222490Y-61979517D01*
X55413567Y-62118343D01*
X55512991Y-62169002D01*
X55624003Y-62225566D01*
X55624005Y-62225566D01*
X55624008Y-62225568D01*
X55744412Y-62264689D01*
X55848631Y-62298553D01*
X56081903Y-62335500D01*
X56081908Y-62335500D01*
X57318097Y-62335500D01*
X57551368Y-62298553D01*
X57775992Y-62225568D01*
X57986433Y-62118343D01*
X58177510Y-61979517D01*
X58344517Y-61812510D01*
X58483343Y-61621433D01*
X58590568Y-61410992D01*
X58663553Y-61186368D01*
X58700500Y-60953097D01*
X58700500Y-60716902D01*
X58663553Y-60483631D01*
X58590566Y-60259003D01*
X58483342Y-60048566D01*
X58344517Y-59857490D01*
X58177510Y-59690483D01*
X57986433Y-59551657D01*
X57775996Y-59444433D01*
X57551368Y-59371446D01*
X57318097Y-59334500D01*
X57318092Y-59334500D01*
X56081908Y-59334500D01*
X56081903Y-59334500D01*
X55848631Y-59371446D01*
X55624003Y-59444433D01*
X55413566Y-59551657D01*
X55304550Y-59630862D01*
X55222490Y-59690483D01*
X55222488Y-59690485D01*
X55222487Y-59690485D01*
X55055485Y-59857487D01*
X55055485Y-59857488D01*
X55055483Y-59857490D01*
X54995862Y-59939550D01*
X54916657Y-60048566D01*
X54809433Y-60259003D01*
X54736446Y-60483631D01*
X54699500Y-60716902D01*
X51200500Y-60716902D01*
X51163553Y-60483631D01*
X51090566Y-60259003D01*
X50983342Y-60048566D01*
X50844517Y-59857490D01*
X50677510Y-59690483D01*
X50486433Y-59551657D01*
X50275996Y-59444433D01*
X50051368Y-59371446D01*
X49818097Y-59334500D01*
X49818092Y-59334500D01*
X48581908Y-59334500D01*
X48581903Y-59334500D01*
X48348631Y-59371446D01*
X48124003Y-59444433D01*
X47913566Y-59551657D01*
X47804550Y-59630862D01*
X47722490Y-59690483D01*
X47722488Y-59690485D01*
X47722487Y-59690485D01*
X47555485Y-59857487D01*
X47555485Y-59857488D01*
X47555483Y-59857490D01*
X47495862Y-59939550D01*
X47416657Y-60048566D01*
X47309433Y-60259003D01*
X47236446Y-60483631D01*
X47199500Y-60716902D01*
X43900000Y-60716902D01*
X43900000Y-42493822D01*
X43919685Y-42426783D01*
X43948511Y-42395448D01*
X44119699Y-42264092D01*
X44286592Y-42097199D01*
X44430273Y-41909950D01*
X44548284Y-41705549D01*
X44638606Y-41487493D01*
X44699693Y-41259514D01*
X44730500Y-41025511D01*
X44730500Y-40789489D01*
X44699693Y-40555486D01*
X44638606Y-40327507D01*
X44548284Y-40109451D01*
X44548282Y-40109448D01*
X44548280Y-40109443D01*
X44492510Y-40012848D01*
X44430273Y-39905050D01*
X44355442Y-39807528D01*
X44355430Y-39807513D01*
X46210000Y-39807513D01*
X46210000Y-40657500D01*
X47409999Y-40657500D01*
X47384979Y-40717902D01*
X47360000Y-40843481D01*
X47360000Y-40971519D01*
X47384979Y-41097098D01*
X47409999Y-41157500D01*
X46210001Y-41157500D01*
X46210001Y-42007486D01*
X46220494Y-42110197D01*
X46275641Y-42276619D01*
X46275643Y-42276624D01*
X46367684Y-42425845D01*
X46491654Y-42549815D01*
X46640875Y-42641856D01*
X46640880Y-42641858D01*
X46807302Y-42697005D01*
X46807309Y-42697006D01*
X46910019Y-42707499D01*
X47759999Y-42707499D01*
X47760000Y-42707498D01*
X47760000Y-41507501D01*
X47820402Y-41532521D01*
X47945981Y-41557500D01*
X48074019Y-41557500D01*
X48199598Y-41532521D01*
X48260000Y-41507501D01*
X48260000Y-42707499D01*
X49109972Y-42707499D01*
X49109986Y-42707498D01*
X49212697Y-42697005D01*
X49379119Y-42641858D01*
X49379124Y-42641856D01*
X49528345Y-42549815D01*
X49652315Y-42425845D01*
X49744356Y-42276624D01*
X49744358Y-42276619D01*
X49799505Y-42110197D01*
X49799506Y-42110190D01*
X49809999Y-42007486D01*
X49810000Y-42007473D01*
X49810000Y-41157500D01*
X48610001Y-41157500D01*
X48635021Y-41097098D01*
X48660000Y-40971519D01*
X48660000Y-40843481D01*
X48635021Y-40717902D01*
X48610001Y-40657500D01*
X49809999Y-40657500D01*
X49809999Y-39807528D01*
X49809998Y-39807513D01*
X49799505Y-39704802D01*
X49744358Y-39538380D01*
X49744356Y-39538375D01*
X49652315Y-39389154D01*
X49528345Y-39265184D01*
X49379124Y-39173143D01*
X49379119Y-39173141D01*
X49212697Y-39117994D01*
X49212690Y-39117993D01*
X49109986Y-39107500D01*
X48260000Y-39107500D01*
X48260000Y-40307498D01*
X48199598Y-40282479D01*
X48074019Y-40257500D01*
X47945981Y-40257500D01*
X47820402Y-40282479D01*
X47760000Y-40307498D01*
X47760000Y-39107500D01*
X46910028Y-39107500D01*
X46910012Y-39107501D01*
X46807302Y-39117994D01*
X46640880Y-39173141D01*
X46640875Y-39173143D01*
X46491654Y-39265184D01*
X46367684Y-39389154D01*
X46275643Y-39538375D01*
X46275641Y-39538380D01*
X46220494Y-39704802D01*
X46220493Y-39704809D01*
X46210000Y-39807513D01*
X44355430Y-39807513D01*
X44286593Y-39717802D01*
X44286587Y-39717795D01*
X44119704Y-39550912D01*
X44119697Y-39550906D01*
X43948514Y-39419553D01*
X43907311Y-39363125D01*
X43900000Y-39321177D01*
X43900000Y-38426985D01*
X43919685Y-38359946D01*
X43972489Y-38314191D01*
X44024786Y-38302988D01*
X56835738Y-38384587D01*
G37*
%TD.AperFunction*%
%TD*%
%TA.AperFunction,Conductor*%
%TO.N,/power selector/P_BATTERY_I*%
G36*
X39076790Y-38474215D02*
G01*
X39143703Y-38494326D01*
X39189120Y-38547420D01*
X39200000Y-38598212D01*
X39200000Y-39422463D01*
X39180315Y-39489502D01*
X39127511Y-39535257D01*
X39058353Y-39545201D01*
X39000514Y-39520839D01*
X38852454Y-39407230D01*
X38852453Y-39407229D01*
X38852450Y-39407227D01*
X38770957Y-39360177D01*
X38648056Y-39289219D01*
X38648045Y-39289214D01*
X38429993Y-39198894D01*
X38202010Y-39137806D01*
X37968020Y-39107001D01*
X37968017Y-39107000D01*
X37968011Y-39107000D01*
X37731989Y-39107000D01*
X37731983Y-39107000D01*
X37731979Y-39107001D01*
X37497989Y-39137806D01*
X37270006Y-39198894D01*
X37051954Y-39289214D01*
X37051943Y-39289219D01*
X36847545Y-39407230D01*
X36660302Y-39550906D01*
X36660295Y-39550912D01*
X36493412Y-39717795D01*
X36493406Y-39717802D01*
X36349730Y-39905045D01*
X36349727Y-39905049D01*
X36349727Y-39905050D01*
X36342014Y-39918409D01*
X36231719Y-40109443D01*
X36231714Y-40109454D01*
X36141394Y-40327506D01*
X36080306Y-40555489D01*
X36049501Y-40789479D01*
X36049500Y-40789495D01*
X36049500Y-41025504D01*
X36049501Y-41025520D01*
X36080306Y-41259510D01*
X36141394Y-41487493D01*
X36231714Y-41705545D01*
X36231719Y-41705556D01*
X36302677Y-41828457D01*
X36349727Y-41909950D01*
X36349729Y-41909953D01*
X36349730Y-41909954D01*
X36493406Y-42097197D01*
X36493412Y-42097204D01*
X36660295Y-42264087D01*
X36660302Y-42264093D01*
X36770306Y-42348501D01*
X36847550Y-42407773D01*
X36978918Y-42483618D01*
X37051943Y-42525780D01*
X37051948Y-42525782D01*
X37051951Y-42525784D01*
X37270007Y-42616106D01*
X37497986Y-42677193D01*
X37731989Y-42708000D01*
X37731996Y-42708000D01*
X37968004Y-42708000D01*
X37968011Y-42708000D01*
X38202014Y-42677193D01*
X38429993Y-42616106D01*
X38648049Y-42525784D01*
X38852450Y-42407773D01*
X39000514Y-42294160D01*
X39065683Y-42268966D01*
X39134128Y-42283004D01*
X39184117Y-42331818D01*
X39200000Y-42392536D01*
X39200000Y-71101394D01*
X39180315Y-71168433D01*
X39127511Y-71214188D01*
X39076395Y-71225393D01*
X23624395Y-71274603D01*
X23557293Y-71255132D01*
X23511370Y-71202474D01*
X23500000Y-71150604D01*
X23500000Y-65775000D01*
X25370898Y-65775000D01*
X26749999Y-65775000D01*
X26724979Y-65835402D01*
X26700000Y-65960981D01*
X26700000Y-66089019D01*
X26724979Y-66214598D01*
X26749999Y-66275000D01*
X25370898Y-66275000D01*
X25386934Y-66376247D01*
X25459897Y-66600802D01*
X25567085Y-66811171D01*
X25705866Y-67002186D01*
X25872813Y-67169133D01*
X26063828Y-67307914D01*
X26274197Y-67415102D01*
X26498752Y-67488065D01*
X26498751Y-67488065D01*
X26731948Y-67525000D01*
X27100000Y-67525000D01*
X27100000Y-66625001D01*
X27160402Y-66650021D01*
X27285981Y-66675000D01*
X27414019Y-66675000D01*
X27539598Y-66650021D01*
X27600000Y-66625001D01*
X27600000Y-67525000D01*
X27968052Y-67525000D01*
X28201247Y-67488065D01*
X28425802Y-67415102D01*
X28636171Y-67307914D01*
X28827186Y-67169133D01*
X28994133Y-67002186D01*
X29132914Y-66811171D01*
X29240102Y-66600802D01*
X29313065Y-66376247D01*
X29329102Y-66275000D01*
X27950001Y-66275000D01*
X27975021Y-66214598D01*
X28000000Y-66089019D01*
X28000000Y-65960981D01*
X27975021Y-65835402D01*
X27950001Y-65775000D01*
X29329102Y-65775000D01*
X32870898Y-65775000D01*
X34249999Y-65775000D01*
X34224979Y-65835402D01*
X34200000Y-65960981D01*
X34200000Y-66089019D01*
X34224979Y-66214598D01*
X34249999Y-66275000D01*
X32870898Y-66275000D01*
X32886934Y-66376247D01*
X32959897Y-66600802D01*
X33067085Y-66811171D01*
X33205866Y-67002186D01*
X33372813Y-67169133D01*
X33563828Y-67307914D01*
X33774197Y-67415102D01*
X33998752Y-67488065D01*
X33998751Y-67488065D01*
X34231948Y-67525000D01*
X34600000Y-67525000D01*
X34600000Y-66625001D01*
X34660402Y-66650021D01*
X34785981Y-66675000D01*
X34914019Y-66675000D01*
X35039598Y-66650021D01*
X35100000Y-66625001D01*
X35100000Y-67525000D01*
X35468052Y-67525000D01*
X35701247Y-67488065D01*
X35925802Y-67415102D01*
X36136171Y-67307914D01*
X36327186Y-67169133D01*
X36494133Y-67002186D01*
X36632914Y-66811171D01*
X36740102Y-66600802D01*
X36813065Y-66376247D01*
X36829102Y-66275000D01*
X35450001Y-66275000D01*
X35475021Y-66214598D01*
X35500000Y-66089019D01*
X35500000Y-65960981D01*
X35475021Y-65835402D01*
X35450001Y-65775000D01*
X36829102Y-65775000D01*
X36813065Y-65673752D01*
X36740102Y-65449197D01*
X36632914Y-65238828D01*
X36494133Y-65047813D01*
X36327186Y-64880866D01*
X36136171Y-64742085D01*
X35925802Y-64634897D01*
X35701247Y-64561934D01*
X35701248Y-64561934D01*
X35468052Y-64525000D01*
X35100000Y-64525000D01*
X35100000Y-65424998D01*
X35039598Y-65399979D01*
X34914019Y-65375000D01*
X34785981Y-65375000D01*
X34660402Y-65399979D01*
X34600000Y-65424998D01*
X34600000Y-64525000D01*
X34231948Y-64525000D01*
X33998752Y-64561934D01*
X33774197Y-64634897D01*
X33563828Y-64742085D01*
X33372813Y-64880866D01*
X33205866Y-65047813D01*
X33067085Y-65238828D01*
X32959897Y-65449197D01*
X32886934Y-65673752D01*
X32870898Y-65775000D01*
X29329102Y-65775000D01*
X29313065Y-65673752D01*
X29240102Y-65449197D01*
X29132914Y-65238828D01*
X28994133Y-65047813D01*
X28827186Y-64880866D01*
X28636171Y-64742085D01*
X28425802Y-64634897D01*
X28201247Y-64561934D01*
X28201248Y-64561934D01*
X27968052Y-64525000D01*
X27600000Y-64525000D01*
X27600000Y-65424998D01*
X27539598Y-65399979D01*
X27414019Y-65375000D01*
X27285981Y-65375000D01*
X27160402Y-65399979D01*
X27100000Y-65424998D01*
X27100000Y-64525000D01*
X26731948Y-64525000D01*
X26498752Y-64561934D01*
X26274197Y-64634897D01*
X26063828Y-64742085D01*
X25872813Y-64880866D01*
X25705866Y-65047813D01*
X25567085Y-65238828D01*
X25459897Y-65449197D01*
X25386934Y-65673752D01*
X25370898Y-65775000D01*
X23500000Y-65775000D01*
X23500000Y-60866902D01*
X25349500Y-60866902D01*
X25349500Y-61103097D01*
X25386446Y-61336368D01*
X25459433Y-61560996D01*
X25566657Y-61771433D01*
X25705483Y-61962510D01*
X25872490Y-62129517D01*
X26063567Y-62268343D01*
X26162991Y-62319002D01*
X26274003Y-62375566D01*
X26274005Y-62375566D01*
X26274008Y-62375568D01*
X26394412Y-62414689D01*
X26498631Y-62448553D01*
X26731903Y-62485500D01*
X26731908Y-62485500D01*
X27968097Y-62485500D01*
X28201368Y-62448553D01*
X28425992Y-62375568D01*
X28636433Y-62268343D01*
X28827510Y-62129517D01*
X28994517Y-61962510D01*
X29133343Y-61771433D01*
X29240568Y-61560992D01*
X29313553Y-61336368D01*
X29350500Y-61103097D01*
X29350500Y-60866902D01*
X32849500Y-60866902D01*
X32849500Y-61103097D01*
X32886446Y-61336368D01*
X32959433Y-61560996D01*
X33066657Y-61771433D01*
X33205483Y-61962510D01*
X33372490Y-62129517D01*
X33563567Y-62268343D01*
X33662991Y-62319002D01*
X33774003Y-62375566D01*
X33774005Y-62375566D01*
X33774008Y-62375568D01*
X33894412Y-62414689D01*
X33998631Y-62448553D01*
X34231903Y-62485500D01*
X34231908Y-62485500D01*
X35468097Y-62485500D01*
X35701368Y-62448553D01*
X35925992Y-62375568D01*
X36136433Y-62268343D01*
X36327510Y-62129517D01*
X36494517Y-61962510D01*
X36633343Y-61771433D01*
X36740568Y-61560992D01*
X36813553Y-61336368D01*
X36850500Y-61103097D01*
X36850500Y-60866902D01*
X36813553Y-60633631D01*
X36740566Y-60409003D01*
X36633342Y-60198566D01*
X36494517Y-60007490D01*
X36327510Y-59840483D01*
X36136433Y-59701657D01*
X35925996Y-59594433D01*
X35701368Y-59521446D01*
X35468097Y-59484500D01*
X35468092Y-59484500D01*
X34231908Y-59484500D01*
X34231903Y-59484500D01*
X33998631Y-59521446D01*
X33774003Y-59594433D01*
X33563566Y-59701657D01*
X33454550Y-59780862D01*
X33372490Y-59840483D01*
X33372488Y-59840485D01*
X33372487Y-59840485D01*
X33205485Y-60007487D01*
X33205485Y-60007488D01*
X33205483Y-60007490D01*
X33145862Y-60089550D01*
X33066657Y-60198566D01*
X32959433Y-60409003D01*
X32886446Y-60633631D01*
X32849500Y-60866902D01*
X29350500Y-60866902D01*
X29313553Y-60633631D01*
X29240566Y-60409003D01*
X29133342Y-60198566D01*
X28994517Y-60007490D01*
X28827510Y-59840483D01*
X28636433Y-59701657D01*
X28425996Y-59594433D01*
X28201368Y-59521446D01*
X27968097Y-59484500D01*
X27968092Y-59484500D01*
X26731908Y-59484500D01*
X26731903Y-59484500D01*
X26498631Y-59521446D01*
X26274003Y-59594433D01*
X26063566Y-59701657D01*
X25954550Y-59780862D01*
X25872490Y-59840483D01*
X25872488Y-59840485D01*
X25872487Y-59840485D01*
X25705485Y-60007487D01*
X25705485Y-60007488D01*
X25705483Y-60007490D01*
X25645862Y-60089550D01*
X25566657Y-60198566D01*
X25459433Y-60409003D01*
X25386446Y-60633631D01*
X25349500Y-60866902D01*
X23500000Y-60866902D01*
X23500000Y-40789514D01*
X25890000Y-40789514D01*
X25890000Y-41025485D01*
X25920799Y-41259414D01*
X25981870Y-41487337D01*
X26072160Y-41705319D01*
X26072165Y-41705328D01*
X26190144Y-41909671D01*
X26190145Y-41909672D01*
X26252721Y-41991223D01*
X27088958Y-41154987D01*
X27113978Y-41215390D01*
X27185112Y-41321851D01*
X27275649Y-41412388D01*
X27382110Y-41483522D01*
X27442511Y-41508541D01*
X26606275Y-42344777D01*
X26687827Y-42407354D01*
X26687828Y-42407355D01*
X26892171Y-42525334D01*
X26892180Y-42525339D01*
X27110163Y-42615629D01*
X27110161Y-42615629D01*
X27338085Y-42676700D01*
X27572014Y-42707499D01*
X27572029Y-42707500D01*
X27807971Y-42707500D01*
X27807985Y-42707499D01*
X28041914Y-42676700D01*
X28269837Y-42615629D01*
X28487819Y-42525339D01*
X28487828Y-42525334D01*
X28692181Y-42407350D01*
X28773723Y-42344779D01*
X28773723Y-42344776D01*
X27937487Y-41508541D01*
X27997890Y-41483522D01*
X28104351Y-41412388D01*
X28194888Y-41321851D01*
X28266022Y-41215390D01*
X28291041Y-41154987D01*
X29127276Y-41991223D01*
X29127279Y-41991223D01*
X29189850Y-41909681D01*
X29307834Y-41705328D01*
X29307839Y-41705319D01*
X29398129Y-41487337D01*
X29459200Y-41259414D01*
X29489999Y-41025485D01*
X29490000Y-41025471D01*
X29490000Y-40789521D01*
X29489997Y-40789495D01*
X30969500Y-40789495D01*
X30969500Y-41025504D01*
X30969501Y-41025520D01*
X31000306Y-41259510D01*
X31061394Y-41487493D01*
X31151714Y-41705545D01*
X31151719Y-41705556D01*
X31222677Y-41828457D01*
X31269727Y-41909950D01*
X31269729Y-41909953D01*
X31269730Y-41909954D01*
X31413406Y-42097197D01*
X31413412Y-42097204D01*
X31580295Y-42264087D01*
X31580302Y-42264093D01*
X31690306Y-42348501D01*
X31767550Y-42407773D01*
X31898918Y-42483618D01*
X31971943Y-42525780D01*
X31971948Y-42525782D01*
X31971951Y-42525784D01*
X32190007Y-42616106D01*
X32417986Y-42677193D01*
X32651989Y-42708000D01*
X32651996Y-42708000D01*
X32888004Y-42708000D01*
X32888011Y-42708000D01*
X33122014Y-42677193D01*
X33349993Y-42616106D01*
X33568049Y-42525784D01*
X33772450Y-42407773D01*
X33959699Y-42264092D01*
X34126592Y-42097199D01*
X34270273Y-41909950D01*
X34388284Y-41705549D01*
X34478606Y-41487493D01*
X34539693Y-41259514D01*
X34570500Y-41025511D01*
X34570500Y-40789489D01*
X34539693Y-40555486D01*
X34478606Y-40327507D01*
X34388284Y-40109451D01*
X34388282Y-40109448D01*
X34388280Y-40109443D01*
X34346118Y-40036418D01*
X34270273Y-39905050D01*
X34126592Y-39717801D01*
X34126587Y-39717795D01*
X33959704Y-39550912D01*
X33959697Y-39550906D01*
X33772454Y-39407230D01*
X33772453Y-39407229D01*
X33772450Y-39407227D01*
X33690957Y-39360177D01*
X33568056Y-39289219D01*
X33568045Y-39289214D01*
X33349993Y-39198894D01*
X33122010Y-39137806D01*
X32888020Y-39107001D01*
X32888017Y-39107000D01*
X32888011Y-39107000D01*
X32651989Y-39107000D01*
X32651983Y-39107000D01*
X32651979Y-39107001D01*
X32417989Y-39137806D01*
X32190006Y-39198894D01*
X31971954Y-39289214D01*
X31971943Y-39289219D01*
X31767545Y-39407230D01*
X31580302Y-39550906D01*
X31580295Y-39550912D01*
X31413412Y-39717795D01*
X31413406Y-39717802D01*
X31269730Y-39905045D01*
X31269727Y-39905049D01*
X31269727Y-39905050D01*
X31262014Y-39918409D01*
X31151719Y-40109443D01*
X31151714Y-40109454D01*
X31061394Y-40327506D01*
X31000306Y-40555489D01*
X30969501Y-40789479D01*
X30969500Y-40789495D01*
X29489997Y-40789495D01*
X29459200Y-40555585D01*
X29398129Y-40327662D01*
X29307839Y-40109680D01*
X29307834Y-40109671D01*
X29189855Y-39905328D01*
X29189854Y-39905327D01*
X29127277Y-39823775D01*
X28291041Y-40660011D01*
X28266022Y-40599610D01*
X28194888Y-40493149D01*
X28104351Y-40402612D01*
X27997890Y-40331478D01*
X27937488Y-40306458D01*
X28773723Y-39470221D01*
X28692172Y-39407645D01*
X28692171Y-39407644D01*
X28487828Y-39289665D01*
X28487819Y-39289660D01*
X28269836Y-39199370D01*
X28269838Y-39199370D01*
X28041914Y-39138299D01*
X27807985Y-39107500D01*
X27572014Y-39107500D01*
X27338085Y-39138299D01*
X27110162Y-39199370D01*
X26892180Y-39289660D01*
X26892171Y-39289665D01*
X26687828Y-39407644D01*
X26687818Y-39407650D01*
X26606275Y-39470220D01*
X26606275Y-39470221D01*
X27442512Y-40306458D01*
X27382110Y-40331478D01*
X27275649Y-40402612D01*
X27185112Y-40493149D01*
X27113978Y-40599610D01*
X27088958Y-40660012D01*
X26252721Y-39823775D01*
X26252720Y-39823775D01*
X26190150Y-39905318D01*
X26190144Y-39905328D01*
X26072165Y-40109671D01*
X26072160Y-40109680D01*
X25981870Y-40327662D01*
X25920799Y-40555585D01*
X25890000Y-40789514D01*
X23500000Y-40789514D01*
X23500000Y-38499791D01*
X23519685Y-38432752D01*
X23572489Y-38386997D01*
X23624786Y-38375794D01*
X39076790Y-38474215D01*
G37*
%TD.AperFunction*%
%TD*%
M02*
