%TF.GenerationSoftware,KiCad,Pcbnew,9.0.7-9.0.7~ubuntu24.04.1*%
%TF.CreationDate,2026-01-30T18:11:09-03:00*%
%TF.ProjectId,Main board,4d61696e-2062-46f6-9172-642e6b696361,1*%
%TF.SameCoordinates,Original*%
%TF.FileFunction,Copper,L1,Top*%
%TF.FilePolarity,Positive*%
%FSLAX46Y46*%
G04 Gerber Fmt 4.6, Leading zero omitted, Abs format (unit mm)*
G04 Created by KiCad (PCBNEW 9.0.7-9.0.7~ubuntu24.04.1) date 2026-01-30 18:11:09*
%MOMM*%
%LPD*%
G01*
G04 APERTURE LIST*
G04 Aperture macros list*
%AMRoundRect*
0 Rectangle with rounded corners*
0 $1 Rounding radius*
0 $2 $3 $4 $5 $6 $7 $8 $9 X,Y pos of 4 corners*
0 Add a 4 corners polygon primitive as box body*
4,1,4,$2,$3,$4,$5,$6,$7,$8,$9,$2,$3,0*
0 Add four circle primitives for the rounded corners*
1,1,$1+$1,$2,$3*
1,1,$1+$1,$4,$5*
1,1,$1+$1,$6,$7*
1,1,$1+$1,$8,$9*
0 Add four rect primitives between the rounded corners*
20,1,$1+$1,$2,$3,$4,$5,0*
20,1,$1+$1,$4,$5,$6,$7,0*
20,1,$1+$1,$6,$7,$8,$9,0*
20,1,$1+$1,$8,$9,$2,$3,0*%
G04 Aperture macros list end*
%TA.AperFunction,SMDPad,CuDef*%
%ADD10RoundRect,0.250000X-0.312500X-0.625000X0.312500X-0.625000X0.312500X0.625000X-0.312500X0.625000X0*%
%TD*%
%TA.AperFunction,SMDPad,CuDef*%
%ADD11RoundRect,0.250000X0.625000X-0.312500X0.625000X0.312500X-0.625000X0.312500X-0.625000X-0.312500X0*%
%TD*%
%TA.AperFunction,SMDPad,CuDef*%
%ADD12RoundRect,0.250000X-0.325000X-0.650000X0.325000X-0.650000X0.325000X0.650000X-0.325000X0.650000X0*%
%TD*%
%TA.AperFunction,SMDPad,CuDef*%
%ADD13RoundRect,0.250000X-0.375000X-0.625000X0.375000X-0.625000X0.375000X0.625000X-0.375000X0.625000X0*%
%TD*%
%TA.AperFunction,SMDPad,CuDef*%
%ADD14RoundRect,0.250000X0.312500X0.625000X-0.312500X0.625000X-0.312500X-0.625000X0.312500X-0.625000X0*%
%TD*%
%TA.AperFunction,ComponentPad*%
%ADD15O,3.000000X2.000000*%
%TD*%
%TA.AperFunction,ComponentPad*%
%ADD16R,2.000000X3.000000*%
%TD*%
%TA.AperFunction,ComponentPad*%
%ADD17O,2.000000X3.000000*%
%TD*%
%TA.AperFunction,SMDPad,CuDef*%
%ADD18RoundRect,0.125000X-0.487500X-0.125000X0.487500X-0.125000X0.487500X0.125000X-0.487500X0.125000X0*%
%TD*%
%TA.AperFunction,ComponentPad*%
%ADD19RoundRect,0.249999X0.850001X0.850001X-0.850001X0.850001X-0.850001X-0.850001X0.850001X-0.850001X0*%
%TD*%
%TA.AperFunction,ComponentPad*%
%ADD20C,2.200000*%
%TD*%
%TA.AperFunction,SMDPad,CuDef*%
%ADD21RoundRect,0.250000X-0.400000X-0.400000X0.400000X-0.400000X0.400000X0.400000X-0.400000X0.400000X0*%
%TD*%
%TA.AperFunction,SMDPad,CuDef*%
%ADD22RoundRect,0.250000X-0.750000X-0.400000X0.750000X-0.400000X0.750000X0.400000X-0.750000X0.400000X0*%
%TD*%
%TA.AperFunction,SMDPad,CuDef*%
%ADD23RoundRect,0.250000X0.625000X-0.375000X0.625000X0.375000X-0.625000X0.375000X-0.625000X-0.375000X0*%
%TD*%
%TA.AperFunction,SMDPad,CuDef*%
%ADD24RoundRect,0.125000X0.487500X0.125000X-0.487500X0.125000X-0.487500X-0.125000X0.487500X-0.125000X0*%
%TD*%
%TA.AperFunction,SMDPad,CuDef*%
%ADD25RoundRect,0.250000X0.325000X0.650000X-0.325000X0.650000X-0.325000X-0.650000X0.325000X-0.650000X0*%
%TD*%
%TA.AperFunction,SMDPad,CuDef*%
%ADD26R,1.454899X0.558000*%
%TD*%
%TA.AperFunction,SMDPad,CuDef*%
%ADD27R,2.000000X0.900000*%
%TD*%
%TA.AperFunction,SMDPad,CuDef*%
%ADD28RoundRect,0.150000X-0.825000X-0.150000X0.825000X-0.150000X0.825000X0.150000X-0.825000X0.150000X0*%
%TD*%
%TA.AperFunction,SMDPad,CuDef*%
%ADD29RoundRect,0.250001X0.462499X0.624999X-0.462499X0.624999X-0.462499X-0.624999X0.462499X-0.624999X0*%
%TD*%
%TA.AperFunction,SMDPad,CuDef*%
%ADD30R,0.406400X0.152400*%
%TD*%
%TA.AperFunction,SMDPad,CuDef*%
%ADD31RoundRect,0.250001X-0.462499X-0.624999X0.462499X-0.624999X0.462499X0.624999X-0.462499X0.624999X0*%
%TD*%
%TA.AperFunction,SMDPad,CuDef*%
%ADD32RoundRect,0.100000X-0.637500X-0.100000X0.637500X-0.100000X0.637500X0.100000X-0.637500X0.100000X0*%
%TD*%
%TA.AperFunction,SMDPad,CuDef*%
%ADD33RoundRect,0.125000X0.125000X-0.487500X0.125000X0.487500X-0.125000X0.487500X-0.125000X-0.487500X0*%
%TD*%
%TA.AperFunction,ComponentPad*%
%ADD34RoundRect,0.249999X0.850001X-0.850001X0.850001X0.850001X-0.850001X0.850001X-0.850001X-0.850001X0*%
%TD*%
%TA.AperFunction,SMDPad,CuDef*%
%ADD35RoundRect,0.250000X-0.650000X0.325000X-0.650000X-0.325000X0.650000X-0.325000X0.650000X0.325000X0*%
%TD*%
%TA.AperFunction,SMDPad,CuDef*%
%ADD36R,0.152400X0.406400*%
%TD*%
%TA.AperFunction,ComponentPad*%
%ADD37RoundRect,0.250000X1.050000X1.050000X-1.050000X1.050000X-1.050000X-1.050000X1.050000X-1.050000X0*%
%TD*%
%TA.AperFunction,ComponentPad*%
%ADD38C,2.600000*%
%TD*%
%TA.AperFunction,ComponentPad*%
%ADD39RoundRect,0.250000X1.050000X-1.050000X1.050000X1.050000X-1.050000X1.050000X-1.050000X-1.050000X0*%
%TD*%
%TA.AperFunction,SMDPad,CuDef*%
%ADD40RoundRect,0.250000X-0.625000X0.312500X-0.625000X-0.312500X0.625000X-0.312500X0.625000X0.312500X0*%
%TD*%
%TA.AperFunction,ViaPad*%
%ADD41C,0.800000*%
%TD*%
%TA.AperFunction,ViaPad*%
%ADD42C,2.000000*%
%TD*%
%TA.AperFunction,ViaPad*%
%ADD43C,0.600000*%
%TD*%
%TA.AperFunction,ViaPad*%
%ADD44C,1.000000*%
%TD*%
%TA.AperFunction,ViaPad*%
%ADD45C,0.300000*%
%TD*%
%TA.AperFunction,Conductor*%
%ADD46C,0.800000*%
%TD*%
%TA.AperFunction,Conductor*%
%ADD47C,2.000000*%
%TD*%
%TA.AperFunction,Conductor*%
%ADD48C,0.600000*%
%TD*%
%TA.AperFunction,Conductor*%
%ADD49C,1.000000*%
%TD*%
%TA.AperFunction,Conductor*%
%ADD50C,0.300000*%
%TD*%
%TA.AperFunction,Conductor*%
%ADD51C,0.200000*%
%TD*%
%TA.AperFunction,Conductor*%
%ADD52C,0.400000*%
%TD*%
%TA.AperFunction,Conductor*%
%ADD53C,0.100000*%
%TD*%
G04 APERTURE END LIST*
D10*
%TO.P,R805,1*%
%TO.N,/active filter/A_LDR_S_I*%
X40262500Y-107812500D03*
%TO.P,R805,2*%
%TO.N,/active filter/F_S*%
X43187500Y-107812500D03*
%TD*%
D11*
%TO.P,R702,1*%
%TO.N,/power selector/A_INVERTER_BASE*%
X40705178Y-79913923D03*
%TO.P,R702,2*%
%TO.N,/power selector/C_SOLAR_SELECT*%
X40705178Y-76988923D03*
%TD*%
D12*
%TO.P,C201,1*%
%TO.N,GND*%
X111275000Y-112375000D03*
%TO.P,C201,2*%
%TO.N,+9VA*%
X114225000Y-112375000D03*
%TD*%
D13*
%TO.P,D603,1,K*%
%TO.N,/solar array verification/L_ALARM*%
X57462500Y-142375000D03*
%TO.P,D603,2,A*%
%TO.N,/solar array verification/C_PANEL_FAILURE_O*%
X60262500Y-142375000D03*
%TD*%
D14*
%TO.P,R514,1*%
%TO.N,+9V*%
X97612500Y-107325000D03*
%TO.P,R514,2*%
%TO.N,/solar array deployment/C_PANEL_CLOSE_LATCH_O*%
X94687500Y-107325000D03*
%TD*%
D15*
%TO.P,K701,11*%
%TO.N,/power selector/P_SOLAR_I*%
X56700000Y-65875000D03*
%TO.P,K701,14*%
%TO.N,/power selector/P_MAIN_O*%
X56700000Y-60835000D03*
%TO.P,K701,21*%
%TO.N,/power selector/P_SOLAR_I*%
X49200000Y-65875000D03*
%TO.P,K701,24*%
%TO.N,/power selector/P_MAIN_O*%
X49200000Y-60835000D03*
D16*
%TO.P,K701,A1*%
%TO.N,/power selector/C_COIL_SOL*%
X56700000Y-86175000D03*
D17*
%TO.P,K701,A2*%
%TO.N,+9V*%
X49200000Y-86175000D03*
%TD*%
D14*
%TO.P,R807,1*%
%TO.N,/active filter/A_LDR_W_I*%
X55250000Y-113775000D03*
%TO.P,R807,2*%
%TO.N,/active filter/F_W*%
X52325000Y-113775000D03*
%TD*%
D12*
%TO.P,C601,1*%
%TO.N,GND*%
X72025000Y-110775000D03*
%TO.P,C601,2*%
%TO.N,/solar array verification/A_IN+_STP_OPN*%
X74975000Y-110775000D03*
%TD*%
D10*
%TO.P,R610,1*%
%TO.N,/solar array verification/A_RST_SET_2*%
X63137500Y-79875000D03*
%TO.P,R610,2*%
%TO.N,/solar array verification/A_RST_SET_1*%
X66062500Y-79875000D03*
%TD*%
D18*
%TO.P,Q601,1,E*%
%TO.N,GND*%
X63375000Y-83475000D03*
%TO.P,Q601,2,B*%
%TO.N,/solar array verification/A_RST_SET_2*%
X63375000Y-84775000D03*
%TO.P,Q601,3,C*%
%TO.N,/solar array verification/C_R_555*%
X65250000Y-84125000D03*
%TD*%
D10*
%TO.P,R615,1*%
%TO.N,/solar array deployment/C_PANEL_CLOSE_LATCH_O*%
X105987500Y-90375000D03*
%TO.P,R615,2*%
%TO.N,/solar array verification/A_IN-_STP_CLS*%
X108912500Y-90375000D03*
%TD*%
D19*
%TO.P,J108,1,CLS_BTN*%
%TO.N,/solar array deployment/C_PANEL_CLOSE_BTN_I*%
X97850000Y-38705000D03*
D20*
%TO.P,J108,2,GND*%
%TO.N,GND*%
X95310000Y-38705000D03*
%TO.P,J108,3,OPN_BTN*%
%TO.N,/solar array deployment/C_PANEL_OPEEN_BTN_I*%
X92770000Y-38705000D03*
%TO.P,J108,4,GND*%
%TO.N,GND*%
X90230000Y-38705000D03*
%TO.P,J108,5,CLS_SEN*%
%TO.N,/solar array verification/A_PANEL_CLOSE_SENSOR_I*%
X87690000Y-38705000D03*
%TO.P,J108,6,GND*%
%TO.N,GND*%
X85150000Y-38705000D03*
%TO.P,J108,7,OPN_SEN*%
%TO.N,/solar array verification/A_PANEL_OPEN_SENSOR_I*%
X82610000Y-38705000D03*
%TO.P,J108,8,GND*%
%TO.N,GND*%
X80070000Y-38705000D03*
%TD*%
D11*
%TO.P,R209,1*%
%TO.N,/thermal control/A_SETPOINT_LTHC*%
X90500000Y-88087500D03*
%TO.P,R209,2*%
%TO.N,/thermal control/A_LTHC_O*%
X90500000Y-85162500D03*
%TD*%
D10*
%TO.P,R507,1*%
%TO.N,+9V*%
X100137500Y-107325000D03*
%TO.P,R507,2*%
%TO.N,/solar array deployment/C_PANEL_OPEN_LATCH_O*%
X103062500Y-107325000D03*
%TD*%
%TO.P,R404,1*%
%TO.N,/solar eclipse/C_LIGHT_W_O*%
X89887500Y-102675000D03*
%TO.P,R404,2*%
%TO.N,/solar eclipse/A_FEEDBACK_U403A*%
X92812500Y-102675000D03*
%TD*%
D13*
%TO.P,D502,1,K*%
%TO.N,/solar array deployment/L_PANEL_OPEN*%
X52262500Y-135875000D03*
%TO.P,D502,2,A*%
%TO.N,/solar array deployment/C_PANEL_OPEN_LATCH_O*%
X55062500Y-135875000D03*
%TD*%
D10*
%TO.P,R515,1*%
%TO.N,GND*%
X47487500Y-113775000D03*
%TO.P,R515,2*%
%TO.N,/solar array deployment/L_PANEL_OPEN*%
X50412500Y-113775000D03*
%TD*%
D21*
%TO.P,RV404,1,1*%
%TO.N,+9V*%
X100550000Y-127675000D03*
D22*
%TO.P,RV404,2,2*%
%TO.N,/solar eclipse/A_SETPOINT_LDR_W*%
X99400000Y-133175000D03*
D21*
%TO.P,RV404,3,3*%
%TO.N,GND*%
X98250000Y-127675000D03*
%TD*%
D23*
%TO.P,D402,1,K*%
%TO.N,/solar eclipse/L_LIGHT_N*%
X91050000Y-123225000D03*
%TO.P,D402,2,A*%
%TO.N,/solar eclipse/C_LIGHT_N_O*%
X91050000Y-120425000D03*
%TD*%
D10*
%TO.P,R705,1*%
%TO.N,GND*%
X24337500Y-119525000D03*
%TO.P,R705,2*%
%TO.N,/power selector/L_SOLAR_SELECT*%
X27262500Y-119525000D03*
%TD*%
D21*
%TO.P,RV702,1,1*%
%TO.N,/power selector/P_BATTERY_I*%
X41950000Y-128325000D03*
D22*
%TO.P,RV702,2,2*%
%TO.N,/power selector/A_SETPOINT_BATTERY*%
X40800000Y-133825000D03*
D21*
%TO.P,RV702,3,3*%
%TO.N,GND*%
X39650000Y-128325000D03*
%TD*%
D24*
%TO.P,Q501,1,E*%
%TO.N,GND*%
X105737500Y-101552500D03*
%TO.P,Q501,2,B*%
%TO.N,/solar array deployment/A_BASE_OPN*%
X105737500Y-100252500D03*
%TO.P,Q501,3,C*%
%TO.N,/solar array deployment/C_PANEL_OPEN_LATCH_O*%
X103862500Y-100902500D03*
%TD*%
D14*
%TO.P,R502,1*%
%TO.N,/solar array deployment/F_WEINN_2*%
X84712500Y-68725000D03*
%TO.P,R502,2*%
%TO.N,GND*%
X81787500Y-68725000D03*
%TD*%
D12*
%TO.P,C701,1*%
%TO.N,+9VA*%
X81350000Y-65387500D03*
%TO.P,C701,2*%
%TO.N,GND*%
X84300000Y-65387500D03*
%TD*%
D10*
%TO.P,R503,1*%
%TO.N,/solar array deployment/F_WEINN_1*%
X87187500Y-64925000D03*
%TO.P,R503,2*%
%TO.N,/solar array deployment/A_WEINN_O*%
X90112500Y-64925000D03*
%TD*%
D21*
%TO.P,RV202,1,1*%
%TO.N,/thermal control/A_BIAS_LTHC_1*%
X123895000Y-134125000D03*
D22*
%TO.P,RV202,2,2*%
%TO.N,/thermal control/A_SETPOINT_LTHC*%
X122745000Y-139625000D03*
D21*
%TO.P,RV202,3,3*%
%TO.N,/thermal control/A_BIAS_LTHC_2*%
X121595000Y-134125000D03*
%TD*%
D25*
%TO.P,C801,1*%
%TO.N,/active filter/A_IN-_N*%
X27375000Y-112075000D03*
%TO.P,C801,2*%
%TO.N,GND*%
X24425000Y-112075000D03*
%TD*%
D10*
%TO.P,R406,1*%
%TO.N,GND*%
X66937500Y-110775000D03*
%TO.P,R406,2*%
%TO.N,/solar eclipse/L_ECLIPSE*%
X69862500Y-110775000D03*
%TD*%
%TO.P,R205,1*%
%TO.N,/thermal control/F_HTAS*%
X76846348Y-83580000D03*
%TO.P,R205,2*%
%TO.N,/thermal control/A_HTAS_O*%
X79771348Y-83580000D03*
%TD*%
D26*
%TO.P,U402,1*%
%TO.N,/solar eclipse/C_LIGHT_S_O*%
X81178652Y-98742500D03*
%TO.P,U402,2,-*%
%TO.N,/solar eclipse/A_SETPOINT_LDR_S*%
X81178652Y-100012500D03*
%TO.P,U402,3,+*%
%TO.N,/active filter/A_LDR_S_O*%
X81178652Y-101282500D03*
%TO.P,U402,4,V-*%
%TO.N,GND*%
X81178652Y-102552500D03*
%TO.P,U402,5,+*%
%TO.N,/active filter/A_LDR_W_O*%
X86621348Y-102552500D03*
%TO.P,U402,6,-*%
%TO.N,/solar eclipse/A_SETPOINT_LDR_W*%
X86621348Y-101282500D03*
%TO.P,U402,7*%
%TO.N,/solar eclipse/C_LIGHT_W_O*%
X86621348Y-100012500D03*
%TO.P,U402,8,V+*%
%TO.N,+9VA*%
X86621348Y-98742500D03*
%TD*%
D10*
%TO.P,R607,1*%
%TO.N,/solar array verification/C_R_555*%
X76137500Y-79475000D03*
%TO.P,R607,2*%
%TO.N,/solar array verification/A_IN+_ASL*%
X79062500Y-79475000D03*
%TD*%
%TO.P,R402,1*%
%TO.N,/solar eclipse/C_LIGHT_E_O*%
X93837500Y-93575000D03*
%TO.P,R402,2*%
%TO.N,/solar eclipse/A_FEEDBACK_U403A*%
X96762500Y-93575000D03*
%TD*%
D25*
%TO.P,C401,1*%
%TO.N,GND*%
X91575000Y-91775000D03*
%TO.P,C401,2*%
%TO.N,+9VA*%
X88625000Y-91775000D03*
%TD*%
D10*
%TO.P,R601,1*%
%TO.N,/solar array deployment/C_PANEL_OPEN_LATCH_O*%
X64300000Y-99725000D03*
%TO.P,R601,2*%
%TO.N,/solar array verification/A_IN-_STP_OPN*%
X67225000Y-99725000D03*
%TD*%
D26*
%TO.P,U801,1*%
%TO.N,/active filter/A_LDR_N_O*%
X29267651Y-110827100D03*
%TO.P,U801,2,-*%
%TO.N,/active filter/A_IN-_N*%
X29267651Y-112097100D03*
%TO.P,U801,3,+*%
%TO.N,/active filter/A_LDR_N_O*%
X29267651Y-113367100D03*
%TO.P,U801,4,V-*%
%TO.N,GND*%
X29267651Y-114637100D03*
%TO.P,U801,5,+*%
%TO.N,/active filter/A_LDR_E_O*%
X34710347Y-114637100D03*
%TO.P,U801,6,-*%
%TO.N,/active filter/A_IN-_E*%
X34710347Y-113367100D03*
%TO.P,U801,7*%
%TO.N,/active filter/A_LDR_E_O*%
X34710347Y-112097100D03*
%TO.P,U801,8,V+*%
%TO.N,+9VA*%
X34710347Y-110827100D03*
%TD*%
D25*
%TO.P,C803,1*%
%TO.N,/active filter/A_IN-_E*%
X33575000Y-116875000D03*
%TO.P,C803,2*%
%TO.N,GND*%
X30625000Y-116875000D03*
%TD*%
D13*
%TO.P,D201,1,K*%
%TO.N,/thermal control/L_HTAS*%
X110745000Y-126125000D03*
%TO.P,D201,2,A*%
%TO.N,/thermal control/A_HTAS_O*%
X113545000Y-126125000D03*
%TD*%
D11*
%TO.P,R405,1*%
%TO.N,/solar eclipse/A_FEEDBACK_U403A*%
X78250000Y-109737500D03*
%TO.P,R405,2*%
%TO.N,/solar eclipse/C_ECLIPSE_O*%
X78250000Y-106812500D03*
%TD*%
D26*
%TO.P,U401,1*%
%TO.N,/solar eclipse/C_LIGHT_N_O*%
X81178652Y-91182500D03*
%TO.P,U401,2,-*%
%TO.N,/solar eclipse/A_SETPOINT_LDR_N*%
X81178652Y-92452500D03*
%TO.P,U401,3,+*%
%TO.N,/active filter/A_LDR_N_O*%
X81178652Y-93722500D03*
%TO.P,U401,4,V-*%
%TO.N,GND*%
X81178652Y-94992500D03*
%TO.P,U401,5,+*%
%TO.N,/active filter/A_LDR_E_O*%
X86621348Y-94992500D03*
%TO.P,U401,6,-*%
%TO.N,/solar eclipse/A_SETPOINT_LDR_E*%
X86621348Y-93722500D03*
%TO.P,U401,7*%
%TO.N,/solar eclipse/C_LIGHT_E_O*%
X86621348Y-92452500D03*
%TO.P,U401,8,V+*%
%TO.N,+9VA*%
X86621348Y-91182500D03*
%TD*%
D12*
%TO.P,C603,1*%
%TO.N,/solar array verification/A_DIS_555*%
X71425000Y-95625000D03*
%TO.P,C603,2*%
%TO.N,GND*%
X74375000Y-95625000D03*
%TD*%
D14*
%TO.P,R511,1*%
%TO.N,GND*%
X101562500Y-88725000D03*
%TO.P,R511,2*%
%TO.N,/solar array deployment/A_BASE_CLS*%
X98637500Y-88725000D03*
%TD*%
D27*
%TO.P,J102,1,LIGHT_N*%
%TO.N,/solar eclipse/C_LIGHT_N_O*%
X125950000Y-116075000D03*
%TO.P,J102,2,LIGHT_E*%
%TO.N,/solar eclipse/C_LIGHT_E_O*%
X122750000Y-114075000D03*
%TO.P,J102,3,LIGHT_S*%
%TO.N,/solar eclipse/C_LIGHT_S_O*%
X125950000Y-112075000D03*
%TO.P,J102,4,LIGHT_W*%
%TO.N,/solar eclipse/C_LIGHT_W_O*%
X122750000Y-110075000D03*
%TO.P,J102,5,ECLIPSE*%
%TO.N,/solar eclipse/C_ECLIPSE_O*%
X125950000Y-108075000D03*
%TO.P,J102,6,THERM_1*%
%TO.N,/thermal control/A_HTAS_O*%
X122750000Y-106075000D03*
%TO.P,J102,7,THERM_2*%
%TO.N,/thermal control/A_LTHC_O*%
X125950000Y-104075000D03*
%TO.P,J102,8,PNL_C*%
%TO.N,/solar array verification/C_PANEL_CLOSED_O*%
X122750000Y-102075000D03*
%TO.P,J102,9,PNL_O*%
%TO.N,/solar array verification/C_PANEL_OPEN_O*%
X125950000Y-100075000D03*
%TO.P,J102,10,PNL_F*%
%TO.N,/solar array verification/C_PANEL_FAILURE_O*%
X122750000Y-98075000D03*
%TO.P,J102,11,BATT_SEL*%
%TO.N,/power selector/C_BATT_SELECT*%
X125950000Y-96075000D03*
%TO.P,J102,12,SOL_SEL*%
%TO.N,/power selector/C_SOLAR_SELECT*%
X122750000Y-94075000D03*
%TD*%
D25*
%TO.P,C502,1*%
%TO.N,-9VA*%
X90125000Y-68525000D03*
%TO.P,C502,2*%
%TO.N,GND*%
X87175000Y-68525000D03*
%TD*%
D12*
%TO.P,C503,1*%
%TO.N,/solar array deployment/F_WEINN_2*%
X104175000Y-72575000D03*
%TO.P,C503,2*%
%TO.N,GND*%
X107125000Y-72575000D03*
%TD*%
D23*
%TO.P,D404,1,K*%
%TO.N,/solar eclipse/L_LIGHT_S*%
X91050000Y-140575000D03*
%TO.P,D404,2,A*%
%TO.N,/solar eclipse/C_LIGHT_S_O*%
X91050000Y-137775000D03*
%TD*%
D13*
%TO.P,D202,1,K*%
%TO.N,/thermal control/L_LTHC*%
X121395000Y-126125000D03*
%TO.P,D202,2,A*%
%TO.N,/thermal control/A_LTHC_O*%
X124195000Y-126125000D03*
%TD*%
D10*
%TO.P,R602,1*%
%TO.N,GND*%
X57337500Y-99425000D03*
%TO.P,R602,2*%
%TO.N,/solar array verification/A_IN-_STP_OPN*%
X60262500Y-99425000D03*
%TD*%
%TO.P,R611,1*%
%TO.N,GND*%
X42025000Y-115225000D03*
%TO.P,R611,2*%
%TO.N,/solar array verification/L_ALARM*%
X44950000Y-115225000D03*
%TD*%
D13*
%TO.P,D704,1,K*%
%TO.N,/power selector/L_BATT_SELECT*%
X39400000Y-139675000D03*
%TO.P,D704,2,A*%
%TO.N,/power selector/C_BATT_SELECT*%
X42200000Y-139675000D03*
%TD*%
D10*
%TO.P,R510,1*%
%TO.N,GND*%
X99287500Y-93575000D03*
%TO.P,R510,2*%
%TO.N,/solar array deployment/A_BASE_OPN*%
X102212500Y-93575000D03*
%TD*%
D28*
%TO.P,U602,1,GND*%
%TO.N,GND*%
X62750000Y-92875000D03*
%TO.P,U602,2,TR*%
%TO.N,/solar array verification/C_TR_555*%
X62750000Y-94145000D03*
%TO.P,U602,3,Q*%
%TO.N,/solar array verification/D_Q_555*%
X62750000Y-95415000D03*
%TO.P,U602,4,R*%
%TO.N,/solar array verification/C_R_555*%
X62750000Y-96685000D03*
%TO.P,U602,5,CV*%
%TO.N,/solar array verification/A_CV_555*%
X67700000Y-96685000D03*
%TO.P,U602,6,THR*%
%TO.N,/solar array verification/A_DIS_555*%
X67700000Y-95415000D03*
%TO.P,U602,7,DIS*%
X67700000Y-94145000D03*
%TO.P,U602,8,VCC*%
%TO.N,+9V*%
X67700000Y-92875000D03*
%TD*%
D25*
%TO.P,C810,1*%
%TO.N,GND*%
X60389653Y-103236200D03*
%TO.P,C810,2*%
%TO.N,+9VA*%
X57439653Y-103236200D03*
%TD*%
D14*
%TO.P,R408,1*%
%TO.N,GND*%
X108812500Y-109375000D03*
%TO.P,R408,2*%
%TO.N,/solar eclipse/L_LIGHT_E*%
X105887500Y-109375000D03*
%TD*%
D12*
%TO.P,C606,1*%
%TO.N,GND*%
X106025000Y-82775000D03*
%TO.P,C606,2*%
%TO.N,/solar array verification/A_IN+_STP_CLS*%
X108975000Y-82775000D03*
%TD*%
D29*
%TO.P,D501,1,K*%
%TO.N,/solar array deployment/S_SERVO_SIGNAL_O*%
X107487500Y-65125000D03*
%TO.P,D501,2,A*%
%TO.N,/solar array deployment/S_PWM_O*%
X104512500Y-65125000D03*
%TD*%
D25*
%TO.P,C605,1*%
%TO.N,GND*%
X105975000Y-80375000D03*
%TO.P,C605,2*%
%TO.N,+9VA*%
X103025000Y-80375000D03*
%TD*%
D10*
%TO.P,R207,1*%
%TO.N,+9V*%
X111287500Y-108775000D03*
%TO.P,R207,2*%
%TO.N,/thermal control/A_BIAS_LTHC_1*%
X114212500Y-108775000D03*
%TD*%
D19*
%TO.P,J101,1,LDR_N*%
%TO.N,/active filter/A_LDR_N_I*%
X123985000Y-38705000D03*
D20*
%TO.P,J101,2,GND*%
%TO.N,GND*%
X121445000Y-38705000D03*
%TO.P,J101,3,LDR_E*%
%TO.N,/active filter/A_LDR_E_I*%
X118905000Y-38705000D03*
%TO.P,J101,4,GND*%
%TO.N,GND*%
X116365000Y-38705000D03*
%TO.P,J101,5,LDR_S*%
%TO.N,/active filter/A_LDR_S_I*%
X113825000Y-38705000D03*
%TO.P,J101,6,GND*%
%TO.N,GND*%
X111285000Y-38705000D03*
%TO.P,J101,7,LDR_W*%
%TO.N,/active filter/A_LDR_W_I*%
X108745000Y-38705000D03*
%TO.P,J101,8,GND*%
%TO.N,GND*%
X106205000Y-38705000D03*
%TD*%
D12*
%TO.P,C806,1*%
%TO.N,/active filter/F_S*%
X45075000Y-107825000D03*
%TO.P,C806,2*%
%TO.N,/active filter/A_LDR_W_O*%
X48025000Y-107825000D03*
%TD*%
D14*
%TO.P,R801,1*%
%TO.N,/active filter/A_LDR_N_I*%
X27562500Y-104575000D03*
%TO.P,R801,2*%
%TO.N,/active filter/F_N*%
X24637500Y-104575000D03*
%TD*%
D21*
%TO.P,RV201,1,1*%
%TO.N,/thermal control/A_BIAS_HTAS_2*%
X113250000Y-134125000D03*
D22*
%TO.P,RV201,2,2*%
%TO.N,/thermal control/A_SETPOINT_HTAS*%
X112100000Y-139625000D03*
D21*
%TO.P,RV201,3,3*%
%TO.N,/thermal control/A_BIAS_HTAS_1*%
X110950000Y-134125000D03*
%TD*%
D10*
%TO.P,R508,1*%
%TO.N,/solar array deployment/C_PANEL_OPEEN_BTN_I*%
X106137500Y-96375000D03*
%TO.P,R508,2*%
%TO.N,/solar array deployment/A_BASE_OPN*%
X109062500Y-96375000D03*
%TD*%
D26*
%TO.P,U605,1*%
%TO.N,/solar array verification/C_PANEL_FAILURE_O*%
X95578652Y-79820000D03*
%TO.P,U605,2,-*%
%TO.N,/solar array verification/A_IN-_ASL*%
X95578652Y-81090000D03*
%TO.P,U605,3,+*%
%TO.N,/solar array verification/A_IN+_ASL*%
X95578652Y-82360000D03*
%TO.P,U605,4,V-*%
%TO.N,GND*%
X95578652Y-83630000D03*
%TO.P,U605,5,+*%
X101021348Y-83630000D03*
%TO.P,U605,6,-*%
X101021348Y-82360000D03*
%TO.P,U605,7*%
X101021348Y-81090000D03*
%TO.P,U605,8,V+*%
%TO.N,+9VA*%
X101021348Y-79820000D03*
%TD*%
D30*
%TO.P,Q701,1,G*%
%TO.N,/power selector/C_SOLAR_SELECT*%
X60912500Y-84183000D03*
%TO.P,Q701,2,S*%
%TO.N,GND*%
X60912500Y-83675000D03*
%TO.P,Q701,3,D*%
%TO.N,/power selector/C_COIL_SOL*%
X60912500Y-83167000D03*
%TD*%
D18*
%TO.P,Q502,1,E*%
%TO.N,GND*%
X110162500Y-100325000D03*
%TO.P,Q502,2,B*%
%TO.N,/solar array deployment/A_BASE_CLS*%
X110162500Y-101625000D03*
%TO.P,Q502,3,C*%
%TO.N,/solar array deployment/C_PANEL_CLOSE_LATCH_O*%
X112037500Y-100975000D03*
%TD*%
D31*
%TO.P,D601,1,K*%
%TO.N,/solar array verification/C_TR_555*%
X89512500Y-80375000D03*
%TO.P,D601,2,A*%
%TO.N,/solar array verification/A_STP_OPN_O*%
X92487500Y-80375000D03*
%TD*%
%TO.P,D702,1,K*%
%TO.N,+9V*%
X29467678Y-91701423D03*
%TO.P,D702,2,A*%
%TO.N,/power selector/C_COIL_BATT*%
X32442678Y-91701423D03*
%TD*%
D10*
%TO.P,R516,1*%
%TO.N,GND*%
X66537500Y-114775000D03*
%TO.P,R516,2*%
%TO.N,/solar array deployment/L_PANEL_CLOSE*%
X69462500Y-114775000D03*
%TD*%
D32*
%TO.P,U603,1*%
%TO.N,/solar array verification/A_PANEL_OPEN_SENSOR_I*%
X73950000Y-72175000D03*
%TO.P,U603,2*%
%TO.N,/solar array verification/A_RST_SET_1*%
X73950000Y-72825000D03*
%TO.P,U603,3*%
X73950000Y-73475000D03*
%TO.P,U603,4*%
%TO.N,/solar array verification/A_PANEL_CLOSE_SENSOR_I*%
X73950000Y-74125000D03*
%TO.P,U603,5*%
%TO.N,/solar array deployment/C_PANEL_CLOSE_LATCH_O*%
X73950000Y-74775000D03*
%TO.P,U603,6*%
%TO.N,/solar array verification/A_PANEL_OPEN_SENSOR_I*%
X73950000Y-75425000D03*
%TO.P,U603,7,V_{SS}*%
%TO.N,GND*%
X73950000Y-76075000D03*
%TO.P,U603,8*%
%TO.N,/solar array deployment/C_PANEL_OPEN_LATCH_O*%
X79675000Y-76075000D03*
%TO.P,U603,9*%
%TO.N,/solar array verification/C_PANEL_OPEN_O*%
X79675000Y-75425000D03*
%TO.P,U603,10*%
%TO.N,/solar array verification/C_PANEL_CLOSED_O*%
X79675000Y-74775000D03*
%TO.P,U603,11*%
%TO.N,/solar array deployment/C_PANEL_CLOSE_LATCH_O*%
X79675000Y-74125000D03*
%TO.P,U603,12*%
%TO.N,/solar array verification/A_PANEL_CLOSE_SENSOR_I*%
X79675000Y-73475000D03*
%TO.P,U603,13*%
%TO.N,/solar array deployment/C_PANEL_OPEN_LATCH_O*%
X79675000Y-72825000D03*
%TO.P,U603,14,V_{DD}*%
%TO.N,+9VA*%
X79675000Y-72175000D03*
%TD*%
D14*
%TO.P,R605,1*%
%TO.N,/solar array verification/A_IN-_ASL*%
X61012500Y-107625000D03*
%TO.P,R605,2*%
%TO.N,+9V*%
X58087500Y-107625000D03*
%TD*%
D11*
%TO.P,R703,1*%
%TO.N,/power selector/F_PWR_SRC_COMPARATOR*%
X71250000Y-67937500D03*
%TO.P,R703,2*%
%TO.N,/power selector/C_SOLAR_SELECT*%
X71250000Y-65012500D03*
%TD*%
D25*
%TO.P,C809,1*%
%TO.N,GND*%
X39550000Y-111425000D03*
%TO.P,C809,2*%
%TO.N,+9VA*%
X36600000Y-111425000D03*
%TD*%
D33*
%TO.P,Q703,1,E*%
%TO.N,GND*%
X40300000Y-84762500D03*
%TO.P,Q703,2,B*%
%TO.N,/power selector/A_INVERTER_BASE*%
X41600000Y-84762500D03*
%TO.P,Q703,3,C*%
%TO.N,/power selector/C_BATT_SELECT*%
X40950000Y-82887500D03*
%TD*%
D10*
%TO.P,R409,1*%
%TO.N,GND*%
X62137500Y-110675000D03*
%TO.P,R409,2*%
%TO.N,/solar eclipse/L_LIGHT_S*%
X65062500Y-110675000D03*
%TD*%
D25*
%TO.P,C602,1*%
%TO.N,GND*%
X74375000Y-99225000D03*
%TO.P,C602,2*%
%TO.N,/solar array verification/A_CV_555*%
X71425000Y-99225000D03*
%TD*%
D10*
%TO.P,R504,1*%
%TO.N,/solar array deployment/F_WEINN_3*%
X100375000Y-68825000D03*
%TO.P,R504,2*%
%TO.N,/solar array deployment/A_WEINN_O*%
X103300000Y-68825000D03*
%TD*%
%TO.P,R603,1*%
%TO.N,/solar array verification/A_IN+_STP_OPN*%
X72037500Y-106375000D03*
%TO.P,R603,2*%
%TO.N,/solar array deployment/C_PANEL_OPEN_LATCH_O*%
X74962500Y-106375000D03*
%TD*%
D26*
%TO.P,U502,1*%
%TO.N,/solar array deployment/A_WEINN_O*%
X92041152Y-64420000D03*
%TO.P,U502,2,-*%
%TO.N,/solar array deployment/F_WEINN_1*%
X92041152Y-65690000D03*
%TO.P,U502,3,+*%
%TO.N,/solar array deployment/F_WEINN_2*%
X92041152Y-66960000D03*
%TO.P,U502,4,V-*%
%TO.N,-9VA*%
X92041152Y-68230000D03*
%TO.P,U502,5,+*%
%TO.N,/solar array deployment/A_WEINN_O*%
X97483848Y-68230000D03*
%TO.P,U502,6,-*%
%TO.N,/solar array deployment/C_PWM_FREQ_LEVEL*%
X97483848Y-66960000D03*
%TO.P,U502,7*%
%TO.N,/solar array deployment/S_PWM_O*%
X97483848Y-65690000D03*
%TO.P,U502,8,V+*%
%TO.N,+9VA*%
X97483848Y-64420000D03*
%TD*%
D34*
%TO.P,J109,1,THERM_IN1*%
%TO.N,/thermal control/A_HTAS_I*%
X124783711Y-90151799D03*
D20*
%TO.P,J109,2,GND*%
%TO.N,GND*%
X124783711Y-87611799D03*
%TO.P,J109,3,THERM_IN2*%
%TO.N,/thermal control/A_LTHC_I*%
X124783711Y-85071799D03*
%TO.P,J109,4,GND*%
%TO.N,GND*%
X124783711Y-82531799D03*
%TD*%
D13*
%TO.P,D503,1,K*%
%TO.N,/solar array deployment/L_PANEL_CLOSE*%
X62362500Y-135775000D03*
%TO.P,D503,2,A*%
%TO.N,/solar array deployment/C_PANEL_CLOSE_LATCH_O*%
X65162500Y-135775000D03*
%TD*%
D10*
%TO.P,R606,1*%
%TO.N,/solar array verification/D_Q_555*%
X56437500Y-95625000D03*
%TO.P,R606,2*%
%TO.N,/solar array verification/A_IN-_ASL*%
X59362500Y-95625000D03*
%TD*%
D31*
%TO.P,D701,1,K*%
%TO.N,+9V*%
X51725000Y-90375000D03*
%TO.P,D701,2,A*%
%TO.N,/power selector/C_COIL_SOL*%
X54700000Y-90375000D03*
%TD*%
D26*
%TO.P,U403,1*%
%TO.N,/solar eclipse/C_ECLIPSE_O*%
X81121348Y-106742500D03*
%TO.P,U403,2,-*%
%TO.N,/solar eclipse/A_FEEDBACK_U403A*%
X81121348Y-108012500D03*
%TO.P,U403,3,+*%
%TO.N,GND*%
X81121348Y-109282500D03*
%TO.P,U403,4,V-*%
X81121348Y-110552500D03*
%TO.P,U403,5,+*%
X86564044Y-110552500D03*
%TO.P,U403,6,-*%
X86564044Y-109282500D03*
%TO.P,U403,7*%
X86564044Y-108012500D03*
%TO.P,U403,8,V+*%
%TO.N,+9VA*%
X86564044Y-106742500D03*
%TD*%
D13*
%TO.P,D703,1,K*%
%TO.N,/power selector/L_SOLAR_SELECT*%
X27400000Y-139675000D03*
%TO.P,D703,2,A*%
%TO.N,/power selector/C_SOLAR_SELECT*%
X30200000Y-139675000D03*
%TD*%
D14*
%TO.P,R804,1*%
%TO.N,/active filter/F_E*%
X39487500Y-119225000D03*
%TO.P,R804,2*%
%TO.N,/active filter/A_IN-_E*%
X36562500Y-119225000D03*
%TD*%
D25*
%TO.P,C403,1*%
%TO.N,GND*%
X91425000Y-107325000D03*
%TO.P,C403,2*%
%TO.N,+9VA*%
X88475000Y-107325000D03*
%TD*%
D29*
%TO.P,D602,1,K*%
%TO.N,/solar array verification/C_TR_555*%
X84700000Y-72875000D03*
%TO.P,D602,2,A*%
%TO.N,/solar array verification/A_STP_CLS_O*%
X81725000Y-72875000D03*
%TD*%
D15*
%TO.P,K702,11*%
%TO.N,/power selector/P_BATTERY_I*%
X34850000Y-66025000D03*
%TO.P,K702,14*%
%TO.N,/power selector/P_MAIN_O*%
X34850000Y-60985000D03*
%TO.P,K702,21*%
%TO.N,/power selector/P_BATTERY_I*%
X27350000Y-66025000D03*
%TO.P,K702,24*%
%TO.N,/power selector/P_MAIN_O*%
X27350000Y-60985000D03*
D16*
%TO.P,K702,A1*%
%TO.N,/power selector/C_COIL_BATT*%
X34850000Y-86325000D03*
D17*
%TO.P,K702,A2*%
%TO.N,+9V*%
X27350000Y-86325000D03*
%TD*%
D12*
%TO.P,C808,1*%
%TO.N,/active filter/F_W*%
X52450000Y-109912500D03*
%TO.P,C808,2*%
%TO.N,/active filter/A_LDR_S_O*%
X55400000Y-109912500D03*
%TD*%
D25*
%TO.P,C805,1*%
%TO.N,/active filter/A_IN-_S*%
X48000000Y-104012500D03*
%TO.P,C805,2*%
%TO.N,GND*%
X45050000Y-104012500D03*
%TD*%
D10*
%TO.P,R407,1*%
%TO.N,GND*%
X91987500Y-111825000D03*
%TO.P,R407,2*%
%TO.N,/solar eclipse/L_LIGHT_N*%
X94912500Y-111825000D03*
%TD*%
%TO.P,R410,1*%
%TO.N,GND*%
X61737500Y-114775000D03*
%TO.P,R410,2*%
%TO.N,/solar eclipse/L_LIGHT_W*%
X64662500Y-114775000D03*
%TD*%
D25*
%TO.P,C804,1*%
%TO.N,/active filter/F_E*%
X39575000Y-115275000D03*
%TO.P,C804,2*%
%TO.N,/active filter/A_LDR_E_O*%
X36625000Y-115275000D03*
%TD*%
D35*
%TO.P,C504,1*%
%TO.N,/solar array deployment/F_WEINN_2*%
X101050000Y-72250000D03*
%TO.P,C504,2*%
%TO.N,/solar array deployment/F_WEINN_3*%
X101050000Y-75200000D03*
%TD*%
D21*
%TO.P,RV401,1,1*%
%TO.N,+9V*%
X88450000Y-118925000D03*
D22*
%TO.P,RV401,2,2*%
%TO.N,/solar eclipse/A_SETPOINT_LDR_N*%
X87300000Y-124425000D03*
D21*
%TO.P,RV401,3,3*%
%TO.N,GND*%
X86150000Y-118925000D03*
%TD*%
D10*
%TO.P,R204,1*%
%TO.N,/thermal control/A_HTAS_I*%
X76846348Y-87280000D03*
%TO.P,R204,2*%
%TO.N,/thermal control/F_HTAS*%
X79771348Y-87280000D03*
%TD*%
D21*
%TO.P,RV701,1,1*%
%TO.N,/power selector/P_SOLAR_I*%
X30200000Y-128375000D03*
D22*
%TO.P,RV701,2,2*%
%TO.N,/power selector/A_SETPOINT_SOLAR*%
X29050000Y-133875000D03*
D21*
%TO.P,RV701,3,3*%
%TO.N,GND*%
X27900000Y-128375000D03*
%TD*%
D23*
%TO.P,D403,1,K*%
%TO.N,/solar eclipse/L_LIGHT_E*%
X103050000Y-131825000D03*
%TO.P,D403,2,A*%
%TO.N,/solar eclipse/C_LIGHT_E_O*%
X103050000Y-129025000D03*
%TD*%
D10*
%TO.P,R206,1*%
%TO.N,GND*%
X111287500Y-104925000D03*
%TO.P,R206,2*%
%TO.N,/thermal control/L_LTHC*%
X114212500Y-104925000D03*
%TD*%
D13*
%TO.P,D401,1,K*%
%TO.N,/solar eclipse/L_ECLIPSE*%
X86150000Y-131425000D03*
%TO.P,D401,2,A*%
%TO.N,/solar eclipse/C_ECLIPSE_O*%
X88950000Y-131425000D03*
%TD*%
D10*
%TO.P,R509,1*%
%TO.N,/solar array deployment/C_PANEL_OPEN_LATCH_O*%
X93937500Y-98075000D03*
%TO.P,R509,2*%
%TO.N,/solar array deployment/A_BASE_CLS*%
X96862500Y-98075000D03*
%TD*%
%TO.P,R617,1*%
%TO.N,/solar array verification/A_IN+_STP_CLS*%
X106037500Y-87075000D03*
%TO.P,R617,2*%
%TO.N,/solar array deployment/C_PANEL_CLOSE_LATCH_O*%
X108962500Y-87075000D03*
%TD*%
D32*
%TO.P,U501,1*%
%TO.N,/solar array deployment/S_SERVO_PREFILTER_O*%
X91787500Y-71457500D03*
%TO.P,U501,2*%
%TO.N,/solar array deployment/C_PWM_FREQ_LEVEL*%
X91787500Y-72107500D03*
%TO.P,U501,3*%
X91787500Y-72757500D03*
%TO.P,U501,4*%
%TO.N,/solar array deployment/A_SETPOINT_CLOSE*%
X91787500Y-73407500D03*
%TO.P,U501,5*%
%TO.N,/solar array deployment/C_PANEL_CLOSE_LATCH_O*%
X91787500Y-74057500D03*
%TO.P,U501,6*%
%TO.N,GND*%
X91787500Y-74707500D03*
%TO.P,U501,7,V_{SS}*%
X91787500Y-75357500D03*
%TO.P,U501,8*%
X97512500Y-75357500D03*
%TO.P,U501,9*%
X97512500Y-74707500D03*
%TO.P,U501,10*%
X97512500Y-74057500D03*
%TO.P,U501,11*%
X97512500Y-73407500D03*
%TO.P,U501,12*%
X97512500Y-72757500D03*
%TO.P,U501,13*%
%TO.N,/solar array deployment/C_PANEL_OPEN_LATCH_O*%
X97512500Y-72107500D03*
%TO.P,U501,14,V_{DD}*%
%TO.N,+9VA*%
X97512500Y-71457500D03*
%TD*%
D25*
%TO.P,C402,1*%
%TO.N,GND*%
X91425000Y-99375000D03*
%TO.P,C402,2*%
%TO.N,+9VA*%
X88475000Y-99375000D03*
%TD*%
D10*
%TO.P,R513,1*%
%TO.N,/solar array deployment/A_BASE_CLS*%
X96437500Y-102525000D03*
%TO.P,R513,2*%
%TO.N,/solar array deployment/C_PANEL_CLOSE_BTN_I*%
X99362500Y-102525000D03*
%TD*%
D23*
%TO.P,D405,1,K*%
%TO.N,/solar eclipse/L_LIGHT_W*%
X79050000Y-131825000D03*
%TO.P,D405,2,A*%
%TO.N,/solar eclipse/C_LIGHT_W_O*%
X79050000Y-129025000D03*
%TD*%
D26*
%TO.P,U802,1*%
%TO.N,/active filter/A_LDR_W_O*%
X49982304Y-102602500D03*
%TO.P,U802,2,-*%
%TO.N,/active filter/A_IN-_S*%
X49982304Y-103872500D03*
%TO.P,U802,3,+*%
%TO.N,/active filter/A_LDR_W_O*%
X49982304Y-105142500D03*
%TO.P,U802,4,V-*%
%TO.N,GND*%
X49982304Y-106412500D03*
%TO.P,U802,5,+*%
%TO.N,/active filter/A_LDR_S_O*%
X55425000Y-106412500D03*
%TO.P,U802,6,-*%
%TO.N,/active filter/A_IN-_W*%
X55425000Y-105142500D03*
%TO.P,U802,7*%
%TO.N,/active filter/A_LDR_S_O*%
X55425000Y-103872500D03*
%TO.P,U802,8,V+*%
%TO.N,+9VA*%
X55425000Y-102602500D03*
%TD*%
D12*
%TO.P,C807,1*%
%TO.N,/active filter/A_IN-_W*%
X57075000Y-114775000D03*
%TO.P,C807,2*%
%TO.N,GND*%
X60025000Y-114775000D03*
%TD*%
D26*
%TO.P,U601,1*%
%TO.N,/solar array verification/A_STP_OPN_O*%
X62707304Y-101820000D03*
%TO.P,U601,2,-*%
%TO.N,/solar array verification/A_IN-_STP_OPN*%
X62707304Y-103090000D03*
%TO.P,U601,3,+*%
%TO.N,/solar array verification/A_IN+_STP_OPN*%
X62707304Y-104360000D03*
%TO.P,U601,4,V-*%
%TO.N,GND*%
X62707304Y-105630000D03*
%TO.P,U601,5,+*%
%TO.N,/solar array verification/A_IN+_STP_CLS*%
X68150000Y-105630000D03*
%TO.P,U601,6,-*%
%TO.N,/solar array verification/A_IN-_STP_CLS*%
X68150000Y-104360000D03*
%TO.P,U601,7*%
%TO.N,/solar array verification/A_STP_CLS_O*%
X68150000Y-103090000D03*
%TO.P,U601,8,V+*%
%TO.N,+9VA*%
X68150000Y-101820000D03*
%TD*%
D14*
%TO.P,R608,1*%
%TO.N,GND*%
X86012500Y-79725000D03*
%TO.P,R608,2*%
%TO.N,/solar array verification/A_IN+_ASL*%
X83087500Y-79725000D03*
%TD*%
D21*
%TO.P,RV501,1,1*%
%TO.N,+9V*%
X54462500Y-125875000D03*
D22*
%TO.P,RV501,2,2*%
%TO.N,/solar array deployment/S_SERVO_PREFILTER_O*%
X53312500Y-131375000D03*
D21*
%TO.P,RV501,3,3*%
%TO.N,GND*%
X52162500Y-125875000D03*
%TD*%
D26*
%TO.P,U201,1*%
%TO.N,/thermal control/A_HTAS_O*%
X81678652Y-84020000D03*
%TO.P,U201,2,-*%
%TO.N,/thermal control/A_SETPOINT_HTAS*%
X81678652Y-85290000D03*
%TO.P,U201,3,+*%
%TO.N,/thermal control/F_HTAS*%
X81678652Y-86560000D03*
%TO.P,U201,4,V-*%
%TO.N,GND*%
X81678652Y-87830000D03*
%TO.P,U201,5,+*%
%TO.N,/thermal control/A_SETPOINT_LTHC*%
X87121348Y-87830000D03*
%TO.P,U201,6,-*%
%TO.N,/thermal control/A_LTHC_I*%
X87121348Y-86560000D03*
%TO.P,U201,7*%
%TO.N,/thermal control/A_LTHC_O*%
X87121348Y-85290000D03*
%TO.P,U201,8,V+*%
%TO.N,+9VA*%
X87121348Y-84020000D03*
%TD*%
D12*
%TO.P,C802,1*%
%TO.N,/active filter/F_N*%
X24425000Y-115875000D03*
%TO.P,C802,2*%
%TO.N,/active filter/A_LDR_N_O*%
X27375000Y-115875000D03*
%TD*%
D36*
%TO.P,Q702,1,G*%
%TO.N,/power selector/C_BATT_SELECT*%
X41108000Y-86675000D03*
%TO.P,Q702,2,S*%
%TO.N,GND*%
X40600000Y-86675000D03*
%TO.P,Q702,3,D*%
%TO.N,/power selector/C_COIL_BATT*%
X40092000Y-86675000D03*
%TD*%
D14*
%TO.P,R701,1*%
%TO.N,/power selector/A_SETPOINT_BATTERY*%
X71675000Y-72175000D03*
%TO.P,R701,2*%
%TO.N,/power selector/F_PWR_SRC_COMPARATOR*%
X68750000Y-72175000D03*
%TD*%
%TO.P,R201,1*%
%TO.N,/thermal control/A_BIAS_HTAS_2*%
X110912500Y-118375000D03*
%TO.P,R201,2*%
%TO.N,+9V*%
X107987500Y-118375000D03*
%TD*%
D10*
%TO.P,R803,1*%
%TO.N,/active filter/A_LDR_E_I*%
X41825000Y-111575000D03*
%TO.P,R803,2*%
%TO.N,/active filter/F_E*%
X44750000Y-111575000D03*
%TD*%
D37*
%TO.P,J110,1,THERM*%
%TO.N,/thermal control/A_LTHC_O*%
X72750000Y-40202500D03*
D38*
%TO.P,J110,2,GND*%
%TO.N,GND*%
X67750000Y-40202500D03*
%TO.P,J110,3,SERVO*%
%TO.N,/solar array deployment/S_SERVO_SIGNAL_O*%
X62750000Y-40202500D03*
%TO.P,J110,4,GND*%
%TO.N,GND*%
X57750000Y-40202500D03*
%TD*%
D10*
%TO.P,R616,1*%
%TO.N,GND*%
X111537500Y-96425000D03*
%TO.P,R616,2*%
%TO.N,/solar array verification/A_IN-_STP_CLS*%
X114462500Y-96425000D03*
%TD*%
D12*
%TO.P,C501,1*%
%TO.N,+9VA*%
X99400000Y-65025000D03*
%TO.P,C501,2*%
%TO.N,GND*%
X102350000Y-65025000D03*
%TD*%
D26*
%TO.P,U701,1*%
%TO.N,/power selector/C_SOLAR_SELECT*%
X74050000Y-64787500D03*
%TO.P,U701,2,-*%
%TO.N,/power selector/A_SETPOINT_SOLAR*%
X74050000Y-66057500D03*
%TO.P,U701,3,+*%
%TO.N,/power selector/F_PWR_SRC_COMPARATOR*%
X74050000Y-67327500D03*
%TO.P,U701,4,V-*%
%TO.N,GND*%
X74050000Y-68597500D03*
%TO.P,U701,5,+*%
X79492696Y-68597500D03*
%TO.P,U701,6,-*%
X79492696Y-67327500D03*
%TO.P,U701,7*%
X79492696Y-66057500D03*
%TO.P,U701,8,V+*%
%TO.N,+9VA*%
X79492696Y-64787500D03*
%TD*%
D10*
%TO.P,R706,1*%
%TO.N,GND*%
X41600000Y-119225000D03*
%TO.P,R706,2*%
%TO.N,/power selector/L_BATT_SELECT*%
X44525000Y-119225000D03*
%TD*%
%TO.P,R609,1*%
%TO.N,+9V*%
X68487500Y-76275000D03*
%TO.P,R609,2*%
%TO.N,/solar array verification/C_R_555*%
X71412500Y-76275000D03*
%TD*%
%TO.P,R704,1*%
%TO.N,/power selector/C_BATT_SELECT*%
X44737500Y-90775000D03*
%TO.P,R704,2*%
%TO.N,+9V*%
X47662500Y-90775000D03*
%TD*%
D21*
%TO.P,RV502,1,1*%
%TO.N,+9V*%
X65212500Y-125625000D03*
D22*
%TO.P,RV502,2,2*%
%TO.N,/solar array deployment/A_SETPOINT_CLOSE*%
X64062500Y-131125000D03*
D21*
%TO.P,RV502,3,3*%
%TO.N,GND*%
X62912500Y-125625000D03*
%TD*%
D11*
%TO.P,R403,1*%
%TO.N,/solar eclipse/C_LIGHT_S_O*%
X77550000Y-100632500D03*
%TO.P,R403,2*%
%TO.N,/solar eclipse/A_FEEDBACK_U403A*%
X77550000Y-97707500D03*
%TD*%
D10*
%TO.P,R208,1*%
%TO.N,/thermal control/A_BIAS_LTHC_2*%
X112925000Y-118475000D03*
%TO.P,R208,2*%
%TO.N,GND*%
X115850000Y-118475000D03*
%TD*%
D14*
%TO.P,R512,1*%
%TO.N,/solar array deployment/A_BASE_OPN*%
X102162500Y-98125000D03*
%TO.P,R512,2*%
%TO.N,/solar array deployment/C_PANEL_CLOSE_LATCH_O*%
X99237500Y-98125000D03*
%TD*%
D39*
%TO.P,J103,1,Pin_1*%
%TO.N,+9V*%
X122350000Y-75725000D03*
D38*
%TO.P,J103,2,Pin_2*%
%TO.N,+9VA*%
X122350000Y-70645000D03*
%TO.P,J103,3,Pin_3*%
%TO.N,-9VA*%
X122350000Y-65565000D03*
%TO.P,J103,4,Pin_4*%
%TO.N,GND*%
X122350000Y-60485000D03*
%TO.P,J103,5,Pin_5*%
X122350000Y-55405000D03*
%TD*%
D10*
%TO.P,R806,1*%
%TO.N,/active filter/F_S*%
X40237500Y-104012500D03*
%TO.P,R806,2*%
%TO.N,/active filter/A_IN-_S*%
X43162500Y-104012500D03*
%TD*%
%TO.P,R202,1*%
%TO.N,GND*%
X105937500Y-105725000D03*
%TO.P,R202,2*%
%TO.N,/thermal control/A_BIAS_HTAS_1*%
X108862500Y-105725000D03*
%TD*%
%TO.P,R203,1*%
%TO.N,GND*%
X102537500Y-111725000D03*
%TO.P,R203,2*%
%TO.N,/thermal control/L_HTAS*%
X105462500Y-111725000D03*
%TD*%
D25*
%TO.P,C604,1*%
%TO.N,GND*%
X72975000Y-102325000D03*
%TO.P,C604,2*%
%TO.N,+9VA*%
X70025000Y-102325000D03*
%TD*%
D10*
%TO.P,R604,1*%
%TO.N,+9VA*%
X71837500Y-91475000D03*
%TO.P,R604,2*%
%TO.N,/solar array verification/A_DIS_555*%
X74762500Y-91475000D03*
%TD*%
D37*
%TO.P,J105,1,SOLAR*%
%TO.N,/power selector/P_SOLAR_I*%
X48010000Y-40907500D03*
D38*
%TO.P,J105,2,GND*%
%TO.N,GND*%
X42930000Y-40907500D03*
%TO.P,J105,3,VMAIN*%
%TO.N,/power selector/P_MAIN_O*%
X37850000Y-40907500D03*
%TO.P,J105,4,GND*%
%TO.N,GND*%
X32770000Y-40907500D03*
%TO.P,J105,5,BATTERY*%
%TO.N,/power selector/P_BATTERY_I*%
X27690000Y-40907500D03*
%TD*%
D10*
%TO.P,R802,1*%
%TO.N,/active filter/F_N*%
X24537500Y-108375000D03*
%TO.P,R802,2*%
%TO.N,/active filter/A_IN-_N*%
X27462500Y-108375000D03*
%TD*%
D40*
%TO.P,R401,1*%
%TO.N,/solar eclipse/C_LIGHT_N_O*%
X77550000Y-93007500D03*
%TO.P,R401,2*%
%TO.N,/solar eclipse/A_FEEDBACK_U403A*%
X77550000Y-95932500D03*
%TD*%
D21*
%TO.P,RV402,1,1*%
%TO.N,+9V*%
X76550000Y-127675000D03*
D22*
%TO.P,RV402,2,2*%
%TO.N,/solar eclipse/A_SETPOINT_LDR_E*%
X75400000Y-133175000D03*
D21*
%TO.P,RV402,3,3*%
%TO.N,GND*%
X74250000Y-127675000D03*
%TD*%
D14*
%TO.P,R808,1*%
%TO.N,/active filter/F_W*%
X60262500Y-110825000D03*
%TO.P,R808,2*%
%TO.N,/active filter/A_IN-_W*%
X57337500Y-110825000D03*
%TD*%
%TO.P,R501,1*%
%TO.N,GND*%
X90012500Y-61025000D03*
%TO.P,R501,2*%
%TO.N,/solar array deployment/F_WEINN_1*%
X87087500Y-61025000D03*
%TD*%
D21*
%TO.P,RV403,1,1*%
%TO.N,+9V*%
X88450000Y-136425000D03*
D22*
%TO.P,RV403,2,2*%
%TO.N,/solar eclipse/A_SETPOINT_LDR_S*%
X87300000Y-141925000D03*
D21*
%TO.P,RV403,3,3*%
%TO.N,GND*%
X86150000Y-136425000D03*
%TD*%
D41*
%TO.N,+9V*%
X98950000Y-107325000D03*
D42*
X117450000Y-75725000D03*
D41*
X49250000Y-88275000D03*
X68450000Y-78075000D03*
X58500000Y-109225000D03*
X67700000Y-91675000D03*
X90200000Y-118475000D03*
X49650000Y-90775000D03*
X88500000Y-135025000D03*
X28550000Y-89075000D03*
X54500000Y-124525000D03*
X65250000Y-124325000D03*
X76550000Y-125775000D03*
X100600000Y-126075000D03*
X106300000Y-118375000D03*
X112650000Y-108825000D03*
D43*
%TO.N,GND*%
X88700000Y-61025000D03*
X90450000Y-107325000D03*
X96700000Y-83625000D03*
X75150000Y-129975000D03*
X77000000Y-68575000D03*
X90300000Y-91825000D03*
X102350000Y-66275000D03*
D42*
X46850000Y-37625000D03*
D43*
X99350000Y-129675000D03*
X51800000Y-105775000D03*
X80470285Y-102162500D03*
X116350000Y-41225000D03*
X75500000Y-75875000D03*
X53100000Y-127925000D03*
D44*
X85150000Y-41025000D03*
X90200000Y-40975000D03*
D43*
X40800000Y-85775000D03*
D42*
X30200000Y-37625000D03*
D43*
X93250000Y-111825000D03*
X82450000Y-110525000D03*
X104800000Y-80375000D03*
X30650000Y-114425000D03*
X25700000Y-112175000D03*
X121450000Y-41375000D03*
X107550000Y-109475000D03*
D42*
X34600000Y-37625000D03*
D43*
X100700000Y-93575000D03*
D42*
X43000000Y-44075000D03*
D43*
X28550000Y-130375000D03*
X40550000Y-130025000D03*
X88250000Y-68525000D03*
X48850000Y-113775000D03*
X110824000Y-100774000D03*
X68250000Y-110775000D03*
X63800000Y-127425000D03*
X57700000Y-42875000D03*
X90300000Y-99425000D03*
X64100000Y-92825000D03*
X84600000Y-79725000D03*
D42*
X122450000Y-82575000D03*
X122300000Y-87575000D03*
D43*
X95500000Y-74375000D03*
X112850000Y-96425000D03*
X43300000Y-115325000D03*
X42750000Y-119225000D03*
X73500000Y-95575000D03*
X99850000Y-81075000D03*
X64038950Y-83945993D03*
X71850000Y-102325000D03*
X58500000Y-99475000D03*
X85300000Y-110525000D03*
X105073550Y-101081506D03*
X73500000Y-99225000D03*
X73200000Y-110775000D03*
X87150000Y-139125000D03*
X25600000Y-119575000D03*
X83100000Y-65425000D03*
D42*
X42950000Y-37575000D03*
D43*
X46300000Y-103925000D03*
X112600000Y-104925000D03*
X105950000Y-41425000D03*
D44*
X80050000Y-41025000D03*
D43*
X100650000Y-88675000D03*
D42*
X119350000Y-55425000D03*
D43*
X82350000Y-94975000D03*
X86850000Y-121325000D03*
X63450000Y-110725000D03*
X67900000Y-114775000D03*
D44*
X95400000Y-40975000D03*
D43*
X114600000Y-118475000D03*
X107000000Y-105725000D03*
X63150000Y-114775000D03*
D42*
X119300000Y-60525000D03*
D43*
X111350000Y-41625000D03*
D42*
X37950000Y-37625000D03*
D43*
X83000000Y-87875000D03*
X64000000Y-105625000D03*
X103750000Y-111675000D03*
X61250000Y-103225000D03*
X38350000Y-111425000D03*
X106200000Y-72575000D03*
X67650000Y-42775000D03*
X112450000Y-112375000D03*
D41*
%TO.N,/solar array verification/A_IN+_STP_CLS*%
X106142000Y-88425000D03*
X69700000Y-105575000D03*
%TO.N,/active filter/A_LDR_N_O*%
X29200000Y-108225000D03*
X79700000Y-96175000D03*
%TO.N,/active filter/A_LDR_E_O*%
X84209281Y-96175000D03*
X29065564Y-107209436D03*
%TO.N,/active filter/A_LDR_W_O*%
X53500000Y-101575000D03*
X88550000Y-102575000D03*
%TO.N,/active filter/A_IN-_W*%
X56400000Y-111125000D03*
X57100000Y-113201000D03*
%TO.N,/active filter/A_LDR_S_O*%
X58650000Y-101775000D03*
X79700000Y-100974000D03*
%TO.N,/thermal control/L_HTAS*%
X110750000Y-124575000D03*
X106700000Y-112275000D03*
%TO.N,/thermal control/A_HTAS_O*%
X112600000Y-106575000D03*
X111853000Y-99675000D03*
X115913186Y-123756814D03*
X81238652Y-83580000D03*
X102049000Y-91625000D03*
%TO.N,/thermal control/A_LTHC_O*%
X81400000Y-55175000D03*
X117500000Y-103544425D03*
X111950000Y-55175000D03*
X107200000Y-55175000D03*
X113375668Y-86457377D03*
%TO.N,/thermal control/L_LTHC*%
X115500000Y-104825000D03*
X121350000Y-124125000D03*
%TO.N,/solar eclipse/L_ECLIPSE*%
X86000000Y-128525000D03*
X70450000Y-112325000D03*
D45*
%TO.N,/solar eclipse/C_ECLIPSE_O*%
X125700000Y-109475000D03*
X92300000Y-117275000D03*
X78950000Y-107725000D03*
X80850000Y-107275000D03*
D41*
%TO.N,/solar eclipse/L_LIGHT_N*%
X94550000Y-113625000D03*
X89700000Y-122825000D03*
D45*
%TO.N,/solar eclipse/C_LIGHT_N_O*%
X125250000Y-118025000D03*
X91300000Y-118025000D03*
X77550000Y-91175000D03*
X79950000Y-91175000D03*
%TO.N,/solar eclipse/C_LIGHT_E_O*%
X121300000Y-112575000D03*
X95100000Y-91825000D03*
X121700000Y-118625000D03*
X104650000Y-128975000D03*
D41*
%TO.N,/solar eclipse/L_LIGHT_E*%
X104750000Y-131825000D03*
X104650000Y-108825000D03*
%TO.N,/solar eclipse/L_LIGHT_S*%
X65062500Y-110675000D03*
X93100000Y-140425000D03*
D45*
%TO.N,/solar eclipse/C_LIGHT_S_O*%
X92850000Y-116775000D03*
X82450000Y-99525000D03*
X125000000Y-110725000D03*
X77500000Y-99425000D03*
D41*
%TO.N,/solar eclipse/L_LIGHT_W*%
X64700000Y-112775000D03*
X82300000Y-131875000D03*
D45*
%TO.N,/solar eclipse/C_LIGHT_W_O*%
X89900000Y-101375000D03*
X85350000Y-100875000D03*
X80450000Y-116025000D03*
X122400000Y-112475000D03*
D44*
%TO.N,/solar array deployment/S_SERVO_SIGNAL_O*%
X81172860Y-57404222D03*
X107845000Y-63125000D03*
D41*
%TO.N,/solar array deployment/L_PANEL_OPEN*%
X48150000Y-115625000D03*
X49700000Y-135825000D03*
D45*
%TO.N,/solar array deployment/C_PANEL_OPEN_LATCH_O*%
X97850000Y-100775000D03*
X95100000Y-72275000D03*
X72800000Y-104575000D03*
X65350000Y-99775000D03*
X74550000Y-104775000D03*
X77100000Y-73225000D03*
X57500000Y-140825000D03*
X78250000Y-76325000D03*
X94050000Y-99475000D03*
D41*
%TO.N,/solar array deployment/L_PANEL_CLOSE*%
X69550000Y-116725000D03*
X63800000Y-133475000D03*
D45*
%TO.N,/solar array deployment/C_PANEL_CLOSE_LATCH_O*%
X100250000Y-99625000D03*
X81000000Y-74425000D03*
X110050000Y-87325000D03*
X93350000Y-107425000D03*
X93100000Y-74525000D03*
X81350000Y-113975000D03*
X90500000Y-74175000D03*
X113300000Y-101175000D03*
%TO.N,/solar array verification/C_TR_555*%
X64650000Y-94975000D03*
X77700000Y-71025000D03*
D41*
%TO.N,/solar array verification/A_STP_OPN_O*%
X91350000Y-79125000D03*
X54550000Y-96175000D03*
%TO.N,/solar array verification/L_ALARM*%
X54300000Y-142425000D03*
X44950000Y-115225000D03*
D45*
%TO.N,/solar array verification/C_PANEL_FAILURE_O*%
X97500000Y-83175000D03*
X117550000Y-97025000D03*
X61800000Y-142525000D03*
X95650000Y-78225000D03*
%TO.N,/power selector/C_SOLAR_SELECT*%
X117300000Y-94075000D03*
X73950000Y-63875000D03*
X61000000Y-85475000D03*
X42350000Y-76875000D03*
X44600000Y-141425000D03*
%TO.N,/power selector/C_BATT_SELECT*%
X44950000Y-89325000D03*
X116671418Y-95903583D03*
X44737500Y-90775000D03*
X27400000Y-125475000D03*
D41*
%TO.N,/active filter/A_LDR_S_I*%
X42300000Y-117675000D03*
%TO.N,/active filter/A_LDR_N_I*%
X36200000Y-108625000D03*
%TO.N,/active filter/A_LDR_W_I*%
X58150000Y-127275000D03*
%TO.N,/active filter/A_LDR_E_I*%
X40825000Y-111925000D03*
D45*
%TO.N,/solar array verification/C_PANEL_CLOSED_O*%
X116650000Y-94075000D03*
X78700000Y-74825000D03*
%TO.N,/solar array verification/C_PANEL_OPEN_O*%
X81000000Y-75425000D03*
X113300000Y-99475000D03*
X96350000Y-59275000D03*
X94550000Y-59275000D03*
D42*
%TO.N,/power selector/P_BATTERY_I*%
X31450000Y-68825000D03*
D45*
X41280331Y-126605331D03*
D42*
X27250000Y-68975000D03*
D45*
X38450000Y-73025000D03*
D42*
%TO.N,/power selector/P_MAIN_O*%
X52950000Y-58675000D03*
X31450000Y-58775000D03*
X40150000Y-40925000D03*
X56700000Y-58625000D03*
X35550000Y-40875000D03*
X37750000Y-43525000D03*
X27400000Y-58525000D03*
X49250000Y-58575000D03*
D45*
%TO.N,/power selector/P_SOLAR_I*%
X41900000Y-72075000D03*
D42*
X56750000Y-68575000D03*
X49200000Y-68775000D03*
X52850000Y-68575000D03*
D45*
X26400000Y-126175000D03*
D41*
%TO.N,/solar array verification/A_PANEL_CLOSE_SENSOR_I*%
X82750000Y-50925000D03*
X80200000Y-70225000D03*
D45*
%TO.N,/solar array deployment/C_PANEL_OPEEN_BTN_I*%
X104950000Y-96125000D03*
X97750000Y-58425000D03*
%TO.N,/solar array deployment/C_PANEL_CLOSE_BTN_I*%
X97850000Y-57725000D03*
X100500000Y-103025000D03*
D41*
%TO.N,/solar array verification/A_PANEL_OPEN_SENSOR_I*%
X76950000Y-56825000D03*
X80600000Y-50875000D03*
%TO.N,/solar array verification/A_RST_SET_2*%
X62450000Y-82475000D03*
X62400000Y-84475000D03*
D45*
%TO.N,/solar array verification/C_R_555*%
X74612500Y-79475000D03*
X64250000Y-96025000D03*
D41*
%TO.N,/thermal control/A_BIAS_LTHC_1*%
X116047849Y-116900000D03*
X119500000Y-123425000D03*
%TO.N,/solar array deployment/A_BASE_OPN*%
X100750000Y-95225000D03*
X100800000Y-97275000D03*
%TO.N,/solar array deployment/A_BASE_CLS*%
X95700000Y-97975000D03*
X99400000Y-89175000D03*
%TO.N,/thermal control/A_BIAS_LTHC_2*%
X116700000Y-126475000D03*
X114450000Y-123425000D03*
%TO.N,/thermal control/A_SETPOINT_LTHC*%
X117450000Y-131225000D03*
X102049000Y-96650000D03*
X100649441Y-87360000D03*
X112750000Y-102625000D03*
%TO.N,/solar eclipse/A_FEEDBACK_U403A*%
X92700000Y-106526000D03*
X82450000Y-105425000D03*
%TO.N,/thermal control/A_BIAS_HTAS_2*%
X113300000Y-129725000D03*
X112545604Y-127920604D03*
%TO.N,/thermal control/A_BIAS_HTAS_1*%
X111400000Y-128125000D03*
X111400000Y-129875000D03*
%TO.N,/solar array verification/A_IN-_ASL*%
X60550000Y-95525000D03*
X94350000Y-78825000D03*
X60900000Y-91525000D03*
X59456407Y-100975000D03*
%TO.N,/solar array verification/A_RST_SET_1*%
X75350000Y-73375000D03*
X71500000Y-78225000D03*
%TO.N,/solar array verification/A_IN-_STP_CLS*%
X114797793Y-94527207D03*
X105350000Y-91875000D03*
X113850000Y-90475000D03*
X66722549Y-101775000D03*
%TO.N,/power selector/A_SETPOINT_BATTERY*%
X71700000Y-70325000D03*
X49621469Y-125525000D03*
%TO.N,/solar eclipse/A_SETPOINT_LDR_N*%
X85350000Y-123925000D03*
X75950000Y-96175000D03*
X44900000Y-101425000D03*
X44900000Y-98975000D03*
%TO.N,/solar eclipse/A_SETPOINT_LDR_S*%
X82399000Y-104175000D03*
X84051000Y-112125000D03*
%TO.N,/solar eclipse/A_SETPOINT_LDR_W*%
X101850000Y-109475000D03*
X85150000Y-104175000D03*
X101850000Y-104275000D03*
X99400000Y-123925000D03*
D43*
%TO.N,/power selector/A_SETPOINT_SOLAR*%
X44850000Y-121975000D03*
D41*
X69050000Y-66425000D03*
D45*
%TO.N,/solar array deployment/C_PWM_FREQ_LEVEL*%
X96800000Y-66425000D03*
X96150000Y-73475000D03*
D41*
%TO.N,/thermal control/A_SETPOINT_HTAS*%
X99760666Y-84362500D03*
X84000000Y-104425000D03*
X106142000Y-123925000D03*
X92695524Y-96320524D03*
X106200000Y-131376000D03*
X106200000Y-139525000D03*
D44*
%TO.N,/solar array deployment/S_SERVO_PREFILTER_O*%
X56350000Y-130177000D03*
X113372793Y-76847793D03*
D41*
%TO.N,/solar array deployment/A_SETPOINT_CLOSE*%
X89900000Y-73425000D03*
X67100000Y-124725000D03*
%TO.N,/power selector/L_SOLAR_SELECT*%
X27450000Y-138025000D03*
X28600000Y-119775000D03*
%TO.N,/power selector/L_BATT_SELECT*%
X44200000Y-120775000D03*
X39450000Y-138075000D03*
D44*
%TO.N,+9VA*%
X69913513Y-95225000D03*
X95550000Y-64525000D03*
X114350000Y-110925000D03*
X85250000Y-91225000D03*
X102950000Y-78675000D03*
X77450000Y-65575000D03*
X54000000Y-102675000D03*
X32700000Y-111525000D03*
X85139063Y-99468500D03*
D42*
X117050000Y-70625000D03*
D44*
X70000000Y-100875000D03*
X85500000Y-84075000D03*
X77800000Y-72025000D03*
D43*
X96050000Y-71475000D03*
D44*
X85000000Y-106875000D03*
%TO.N,-9VA*%
X94350000Y-68175000D03*
X115800000Y-65675000D03*
%TD*%
D46*
%TO.N,+9V*%
X27350000Y-87875000D02*
X28550000Y-89075000D01*
X100550000Y-127675000D02*
X100550000Y-126125000D01*
X89750000Y-118925000D02*
X90200000Y-118475000D01*
D47*
X122350000Y-75725000D02*
X117450000Y-75725000D01*
D46*
X68487500Y-78037500D02*
X68450000Y-78075000D01*
X98950000Y-107325000D02*
X100137500Y-107325000D01*
X49200000Y-86175000D02*
X49200000Y-88225000D01*
X111287500Y-108775000D02*
X112600000Y-108775000D01*
X29467678Y-91701423D02*
X29467678Y-89992678D01*
X88450000Y-118925000D02*
X89750000Y-118925000D01*
X88450000Y-135075000D02*
X88500000Y-135025000D01*
X67700000Y-92875000D02*
X67700000Y-91675000D01*
X65212500Y-125625000D02*
X65212500Y-124362500D01*
X47662500Y-90775000D02*
X51325000Y-90775000D01*
X54462500Y-124562500D02*
X54500000Y-124525000D01*
X29467678Y-89992678D02*
X28550000Y-89075000D01*
X58087500Y-108812500D02*
X58500000Y-109225000D01*
X100550000Y-126125000D02*
X100600000Y-126075000D01*
X68487500Y-76275000D02*
X68487500Y-78037500D01*
X76550000Y-127675000D02*
X76550000Y-125775000D01*
X49200000Y-88225000D02*
X49250000Y-88275000D01*
X112600000Y-108775000D02*
X112650000Y-108825000D01*
X88450000Y-136425000D02*
X88450000Y-135075000D01*
X97612500Y-107325000D02*
X98950000Y-107325000D01*
X65212500Y-124362500D02*
X65250000Y-124325000D01*
X54462500Y-125875000D02*
X54462500Y-124562500D01*
X51325000Y-90775000D02*
X51725000Y-90375000D01*
X107987500Y-118375000D02*
X106300000Y-118375000D01*
X27350000Y-86325000D02*
X27350000Y-87875000D01*
X58087500Y-107625000D02*
X58087500Y-108812500D01*
D48*
%TO.N,GND*%
X86150000Y-118925000D02*
X86150000Y-120625000D01*
X58450000Y-99425000D02*
X58500000Y-99475000D01*
X91425000Y-99375000D02*
X90350000Y-99375000D01*
X87175000Y-68525000D02*
X88250000Y-68525000D01*
X27900000Y-128375000D02*
X27900000Y-129725000D01*
X63567957Y-83475000D02*
X64038950Y-83945993D01*
X86150000Y-136425000D02*
X86150000Y-138125000D01*
X107650000Y-109375000D02*
X107550000Y-109475000D01*
X40300000Y-85275000D02*
X40800000Y-85775000D01*
D49*
X90230000Y-38705000D02*
X90230000Y-40945000D01*
D48*
X77022500Y-68597500D02*
X77000000Y-68575000D01*
X105937500Y-105725000D02*
X107000000Y-105725000D01*
D49*
X80070000Y-38705000D02*
X80070000Y-41005000D01*
D47*
X42950000Y-37575000D02*
X46800000Y-37575000D01*
X32770000Y-39455000D02*
X32770000Y-40907500D01*
X122350000Y-60485000D02*
X119340000Y-60485000D01*
D49*
X80070000Y-41005000D02*
X80050000Y-41025000D01*
D47*
X122350000Y-55405000D02*
X119370000Y-55405000D01*
D48*
X61737500Y-114775000D02*
X60025000Y-114775000D01*
X91787500Y-75357500D02*
X94517500Y-75357500D01*
X82332500Y-94992500D02*
X82350000Y-94975000D01*
X41600000Y-119225000D02*
X42750000Y-119225000D01*
X101562500Y-88725000D02*
X100700000Y-88725000D01*
X73550000Y-95625000D02*
X73500000Y-95575000D01*
D47*
X42930000Y-40907500D02*
X42930000Y-37595000D01*
D50*
X97512500Y-74057500D02*
X97512500Y-73407500D01*
D48*
X81178652Y-102552500D02*
X80860285Y-102552500D01*
X105975000Y-80375000D02*
X104800000Y-80375000D01*
X62912500Y-125625000D02*
X62912500Y-126537500D01*
X63995000Y-105630000D02*
X64000000Y-105625000D01*
X79620196Y-68725000D02*
X79492696Y-68597500D01*
X74250000Y-129075000D02*
X75150000Y-129975000D01*
X83137500Y-65387500D02*
X83100000Y-65425000D01*
D49*
X90230000Y-40945000D02*
X90200000Y-40975000D01*
D48*
X25600000Y-112075000D02*
X25700000Y-112175000D01*
D47*
X38000000Y-37575000D02*
X37950000Y-37625000D01*
D48*
X100700000Y-88725000D02*
X100650000Y-88675000D01*
X105737500Y-101552500D02*
X105544544Y-101552500D01*
D47*
X122493201Y-82531799D02*
X122450000Y-82575000D01*
D48*
X30437900Y-114637100D02*
X30650000Y-114425000D01*
X24425000Y-112075000D02*
X25600000Y-112075000D01*
D47*
X124783711Y-82531799D02*
X122493201Y-82531799D01*
D48*
X121445000Y-38705000D02*
X121445000Y-41370000D01*
X63400000Y-110675000D02*
X63450000Y-110725000D01*
X101021348Y-81090000D02*
X99865000Y-81090000D01*
X81121348Y-110552500D02*
X82422500Y-110552500D01*
D47*
X42930000Y-44005000D02*
X43000000Y-44075000D01*
D48*
X74250000Y-127675000D02*
X74250000Y-129075000D01*
X66537500Y-114775000D02*
X67900000Y-114775000D01*
X81787500Y-68725000D02*
X79620196Y-68725000D01*
X79492696Y-68597500D02*
X79492696Y-67327500D01*
D47*
X34600000Y-37625000D02*
X32770000Y-39455000D01*
D48*
X102350000Y-65025000D02*
X102350000Y-66275000D01*
X86564044Y-109282500D02*
X86564044Y-110552500D01*
D51*
X60912500Y-83675000D02*
X63175000Y-83675000D01*
D48*
X86564044Y-108012500D02*
X86564044Y-109282500D01*
X62912500Y-126537500D02*
X63800000Y-127425000D01*
X72025000Y-110775000D02*
X73200000Y-110775000D01*
X39650000Y-129125000D02*
X40550000Y-130025000D01*
X74375000Y-99225000D02*
X73500000Y-99225000D01*
D47*
X42930000Y-40907500D02*
X42930000Y-44005000D01*
D48*
X57750000Y-42825000D02*
X57700000Y-42875000D01*
X45050000Y-104012500D02*
X46212500Y-104012500D01*
X81121348Y-109282500D02*
X81121348Y-110552500D01*
X110375000Y-100325000D02*
X110824000Y-100774000D01*
X85327500Y-110552500D02*
X85300000Y-110525000D01*
X96695000Y-83630000D02*
X96700000Y-83625000D01*
X106205000Y-38705000D02*
X106205000Y-41170000D01*
X61238800Y-103236200D02*
X61250000Y-103225000D01*
X108812500Y-109375000D02*
X107650000Y-109375000D01*
X103700000Y-111725000D02*
X103750000Y-111675000D01*
X80860285Y-102552500D02*
X80470285Y-102162500D01*
X52162500Y-125875000D02*
X52162500Y-126987500D01*
X91425000Y-107325000D02*
X90450000Y-107325000D01*
X62750000Y-92875000D02*
X64050000Y-92875000D01*
D47*
X42950000Y-37575000D02*
X38000000Y-37575000D01*
D48*
X90012500Y-61025000D02*
X88700000Y-61025000D01*
X101021348Y-83630000D02*
X101021348Y-82360000D01*
D51*
X40600000Y-85975000D02*
X40800000Y-85775000D01*
D48*
X39650000Y-128325000D02*
X39650000Y-129125000D01*
X43200000Y-115225000D02*
X43300000Y-115325000D01*
X111537500Y-96425000D02*
X112850000Y-96425000D01*
X84300000Y-65387500D02*
X83137500Y-65387500D01*
X29267651Y-114637100D02*
X30437900Y-114637100D01*
X91575000Y-91775000D02*
X90350000Y-91775000D01*
X51162500Y-106412500D02*
X51800000Y-105775000D01*
X67750000Y-42675000D02*
X67650000Y-42775000D01*
D51*
X40600000Y-86675000D02*
X40600000Y-85975000D01*
D50*
X97512500Y-73407500D02*
X97512500Y-72757500D01*
D48*
X24337500Y-119525000D02*
X25550000Y-119525000D01*
X30625000Y-114450000D02*
X30650000Y-114425000D01*
X95578652Y-83630000D02*
X96695000Y-83630000D01*
X106025000Y-82775000D02*
X106025000Y-80425000D01*
X111285000Y-41560000D02*
X111350000Y-41625000D01*
X62137500Y-110675000D02*
X63400000Y-110675000D01*
X82422500Y-110552500D02*
X82450000Y-110525000D01*
X25550000Y-119525000D02*
X25600000Y-119575000D01*
X116365000Y-41210000D02*
X116350000Y-41225000D01*
X74072500Y-68575000D02*
X74050000Y-68597500D01*
X97195000Y-74375000D02*
X97512500Y-74057500D01*
D47*
X122350000Y-55405000D02*
X122350000Y-60485000D01*
D49*
X95310000Y-40885000D02*
X95400000Y-40975000D01*
D48*
X27900000Y-129725000D02*
X28550000Y-130375000D01*
D51*
X63175000Y-83675000D02*
X63375000Y-83475000D01*
D47*
X37950000Y-37625000D02*
X34600000Y-37625000D01*
D48*
X63375000Y-83475000D02*
X63567957Y-83475000D01*
D49*
X85150000Y-38705000D02*
X85150000Y-41025000D01*
D48*
X94517500Y-75357500D02*
X95500000Y-74375000D01*
X66937500Y-110775000D02*
X68250000Y-110775000D01*
X98250000Y-128575000D02*
X99350000Y-129675000D01*
X86012500Y-79725000D02*
X84600000Y-79725000D01*
X81678652Y-87830000D02*
X82955000Y-87830000D01*
X116365000Y-38705000D02*
X116365000Y-41210000D01*
X91987500Y-111825000D02*
X93250000Y-111825000D01*
D47*
X46800000Y-37575000D02*
X46850000Y-37625000D01*
D48*
X106205000Y-41170000D02*
X105950000Y-41425000D01*
X86564044Y-110552500D02*
X85327500Y-110552500D01*
X82955000Y-87830000D02*
X83000000Y-87875000D01*
D50*
X97512500Y-74707500D02*
X97512500Y-74057500D01*
D48*
X106025000Y-80425000D02*
X105975000Y-80375000D01*
X39550000Y-111425000D02*
X38350000Y-111425000D01*
D47*
X42930000Y-37595000D02*
X42950000Y-37575000D01*
D48*
X86150000Y-120625000D02*
X86850000Y-121325000D01*
X52162500Y-126987500D02*
X53100000Y-127925000D01*
X81178652Y-94992500D02*
X82332500Y-94992500D01*
X110162500Y-100325000D02*
X110375000Y-100325000D01*
D50*
X75300000Y-76075000D02*
X75500000Y-75875000D01*
D48*
X90350000Y-91775000D02*
X90300000Y-91825000D01*
X121445000Y-41370000D02*
X121450000Y-41375000D01*
X79492696Y-67327500D02*
X79492696Y-66057500D01*
D50*
X73950000Y-76075000D02*
X75300000Y-76075000D01*
D48*
X46212500Y-104012500D02*
X46300000Y-103925000D01*
X91787500Y-75357500D02*
X91787500Y-74858500D01*
X102537500Y-111725000D02*
X103700000Y-111725000D01*
X115850000Y-118475000D02*
X114600000Y-118475000D01*
X72975000Y-102325000D02*
X71850000Y-102325000D01*
D47*
X124783711Y-87611799D02*
X122336799Y-87611799D01*
D48*
X79492696Y-68597500D02*
X77022500Y-68597500D01*
X57337500Y-99425000D02*
X58450000Y-99425000D01*
X111275000Y-112375000D02*
X112450000Y-112375000D01*
D47*
X122336799Y-87611799D02*
X122300000Y-87575000D01*
D48*
X30625000Y-116875000D02*
X30625000Y-114450000D01*
X40300000Y-84762500D02*
X40300000Y-85275000D01*
X47487500Y-113775000D02*
X48850000Y-113775000D01*
X101021348Y-82360000D02*
X101021348Y-81090000D01*
X62707304Y-105630000D02*
X63995000Y-105630000D01*
X74375000Y-95625000D02*
X73550000Y-95625000D01*
X67750000Y-40202500D02*
X67750000Y-42675000D01*
X64050000Y-92875000D02*
X64100000Y-92825000D01*
D47*
X32770000Y-39455000D02*
X30940000Y-37625000D01*
D48*
X49982304Y-106412500D02*
X51162500Y-106412500D01*
X60389653Y-103236200D02*
X61238800Y-103236200D01*
D47*
X119370000Y-55405000D02*
X119350000Y-55425000D01*
D48*
X61737500Y-114775000D02*
X63150000Y-114775000D01*
D49*
X95310000Y-38705000D02*
X95310000Y-40885000D01*
D48*
X42025000Y-115225000D02*
X43200000Y-115225000D01*
X77000000Y-68575000D02*
X74072500Y-68575000D01*
X99865000Y-81090000D02*
X99850000Y-81075000D01*
D47*
X30940000Y-37625000D02*
X30200000Y-37625000D01*
D48*
X95500000Y-74375000D02*
X97195000Y-74375000D01*
X86150000Y-138125000D02*
X87150000Y-139125000D01*
D47*
X119340000Y-60485000D02*
X119300000Y-60525000D01*
D48*
X57750000Y-40202500D02*
X57750000Y-42825000D01*
X111285000Y-38705000D02*
X111285000Y-41560000D01*
X111287500Y-104925000D02*
X112600000Y-104925000D01*
X105544544Y-101552500D02*
X105073550Y-101081506D01*
D50*
X97512500Y-75357500D02*
X97512500Y-74707500D01*
D48*
X90350000Y-99375000D02*
X90300000Y-99425000D01*
X98250000Y-127675000D02*
X98250000Y-128575000D01*
X99287500Y-93575000D02*
X100700000Y-93575000D01*
X107125000Y-72575000D02*
X106200000Y-72575000D01*
D50*
%TO.N,/solar array deployment/F_WEINN_2*%
X96016661Y-69226000D02*
X96016661Y-68355322D01*
X94621339Y-66960000D02*
X92041152Y-66960000D01*
X84712500Y-68725000D02*
X86363500Y-67074000D01*
X103850000Y-72250000D02*
X104175000Y-72575000D01*
X98762297Y-68360491D02*
X98762297Y-69060000D01*
X98596297Y-69226000D02*
X96016661Y-69226000D01*
X104175000Y-72575000D02*
X101488500Y-69888500D01*
X101026212Y-67399000D02*
X99723788Y-67399000D01*
X101488500Y-69888500D02*
X101488500Y-67861288D01*
X99723788Y-67399000D02*
X98762297Y-68360491D01*
X101050000Y-72250000D02*
X103850000Y-72250000D01*
X96016661Y-68355322D02*
X94621339Y-66960000D01*
X86363500Y-67074000D02*
X91927152Y-67074000D01*
X101488500Y-67861288D02*
X101026212Y-67399000D01*
X98762297Y-69060000D02*
X98596297Y-69226000D01*
X91927152Y-67074000D02*
X92041152Y-66960000D01*
%TO.N,/solar array deployment/F_WEINN_3*%
X100375000Y-69950000D02*
X100375000Y-68825000D01*
X99599000Y-70726000D02*
X100375000Y-69950000D01*
X101050000Y-75200000D02*
X99599000Y-73749000D01*
X99599000Y-73749000D02*
X99599000Y-70726000D01*
D52*
%TO.N,/solar array verification/A_IN+_STP_OPN*%
X67086551Y-106375000D02*
X72037500Y-106375000D01*
X65071551Y-104360000D02*
X67086551Y-106375000D01*
X72037500Y-106375000D02*
X72037500Y-107837500D01*
X72037500Y-107837500D02*
X74975000Y-110775000D01*
X62707304Y-104360000D02*
X65071551Y-104360000D01*
%TO.N,/solar array verification/A_CV_555*%
X71425000Y-99225000D02*
X68885000Y-96685000D01*
X68885000Y-96685000D02*
X67700000Y-96685000D01*
%TO.N,/solar array verification/A_DIS_555*%
X71425000Y-95625000D02*
X70824000Y-96226000D01*
X69498885Y-96226000D02*
X68687885Y-95415000D01*
X70824000Y-96226000D02*
X69498885Y-96226000D01*
X71425000Y-95625000D02*
X71425000Y-94812500D01*
X68687885Y-95415000D02*
X67700000Y-95415000D01*
X67700000Y-95415000D02*
X67700000Y-94145000D01*
X71425000Y-94812500D02*
X74762500Y-91475000D01*
%TO.N,/solar array verification/A_IN+_STP_CLS*%
X106142000Y-87179500D02*
X106037500Y-87075000D01*
X108975000Y-82775000D02*
X108975000Y-84137500D01*
X68150000Y-105630000D02*
X69645000Y-105630000D01*
X108975000Y-84137500D02*
X106037500Y-87075000D01*
X69645000Y-105630000D02*
X69700000Y-105575000D01*
X106142000Y-88425000D02*
X106142000Y-87179500D01*
%TO.N,/active filter/A_IN-_N*%
X27375000Y-112075000D02*
X27375000Y-108462500D01*
X29245551Y-112075000D02*
X29267651Y-112097100D01*
X27375000Y-108462500D02*
X27462500Y-108375000D01*
X27375000Y-112075000D02*
X29245551Y-112075000D01*
D50*
%TO.N,/active filter/F_N*%
X23299000Y-114749000D02*
X23299000Y-109613500D01*
X24537500Y-108375000D02*
X24537500Y-108262500D01*
X24637500Y-108162500D02*
X24637500Y-104575000D01*
X23299000Y-109613500D02*
X24537500Y-108375000D01*
X24537500Y-108262500D02*
X24637500Y-108162500D01*
X24425000Y-115875000D02*
X23299000Y-114749000D01*
D52*
%TO.N,/active filter/A_LDR_N_O*%
X29267651Y-113367100D02*
X29806100Y-113367100D01*
X30396100Y-111417100D02*
X29806100Y-110827100D01*
X29806100Y-113367100D02*
X30396100Y-112777100D01*
X29200000Y-108225000D02*
X29200000Y-110759449D01*
X27375000Y-114521302D02*
X28529202Y-113367100D01*
X79700000Y-94752703D02*
X79700000Y-96175000D01*
X30396100Y-112777100D02*
X30396100Y-111417100D01*
X28529202Y-113367100D02*
X29267651Y-113367100D01*
X80730203Y-93722500D02*
X79700000Y-94752703D01*
X81178652Y-93722500D02*
X80730203Y-93722500D01*
X29200000Y-110759449D02*
X29267651Y-110827100D01*
X27375000Y-115875000D02*
X27375000Y-114521302D01*
X29806100Y-110827100D02*
X29267651Y-110827100D01*
%TO.N,/active filter/A_IN-_E*%
X33575000Y-116875000D02*
X33575000Y-113963998D01*
X33575000Y-113963998D02*
X34171898Y-113367100D01*
X36562500Y-119225000D02*
X35925000Y-119225000D01*
X34171898Y-113367100D02*
X34710347Y-113367100D01*
X35925000Y-119225000D02*
X33575000Y-116875000D01*
D50*
%TO.N,/active filter/F_E*%
X42526000Y-113799000D02*
X44750000Y-111575000D01*
X39487500Y-119225000D02*
X39487500Y-115362500D01*
X39487500Y-115362500D02*
X39575000Y-115275000D01*
X39575000Y-115275000D02*
X41051000Y-113799000D01*
X41051000Y-113799000D02*
X42526000Y-113799000D01*
D52*
%TO.N,/active filter/A_LDR_E_O*%
X31699000Y-109591214D02*
X31699000Y-111939628D01*
X34710347Y-112097100D02*
X35300347Y-112687100D01*
X34281447Y-112526000D02*
X34710347Y-112097100D01*
X29317222Y-107209436D02*
X31699000Y-109591214D01*
X32285372Y-112526000D02*
X34281447Y-112526000D01*
X85391781Y-94992500D02*
X84209281Y-96175000D01*
X35348247Y-115275000D02*
X34710347Y-114637100D01*
X35838796Y-112687100D02*
X36625000Y-113473304D01*
X36625000Y-113473304D02*
X36625000Y-115275000D01*
X86621348Y-94992500D02*
X85391781Y-94992500D01*
X36625000Y-115275000D02*
X35348247Y-115275000D01*
X29065564Y-107209436D02*
X29317222Y-107209436D01*
X35300347Y-112687100D02*
X35838796Y-112687100D01*
X31699000Y-111939628D02*
X32285372Y-112526000D01*
%TO.N,/active filter/A_IN-_S*%
X46599000Y-105413500D02*
X43688500Y-105413500D01*
X48000000Y-104012500D02*
X46599000Y-105413500D01*
X48140000Y-103872500D02*
X48000000Y-104012500D01*
X43162500Y-104887500D02*
X43162500Y-104012500D01*
X43688500Y-105413500D02*
X43162500Y-104887500D01*
X49982304Y-103872500D02*
X48140000Y-103872500D01*
D50*
%TO.N,/active filter/F_S*%
X45075000Y-107825000D02*
X43200000Y-107825000D01*
X43187500Y-107812500D02*
X40237500Y-104862500D01*
X40237500Y-104862500D02*
X40237500Y-104012500D01*
X43200000Y-107825000D02*
X43187500Y-107812500D01*
D52*
%TO.N,/active filter/A_LDR_W_O*%
X48000000Y-106386355D02*
X49243855Y-105142500D01*
X51110753Y-103282500D02*
X50430753Y-102602500D01*
X49982304Y-105142500D02*
X50520753Y-105142500D01*
X51110753Y-104552500D02*
X51110753Y-103282500D01*
X86621348Y-102552500D02*
X88527500Y-102552500D01*
X53500000Y-101575000D02*
X51009804Y-101575000D01*
X50520753Y-105142500D02*
X51110753Y-104552500D01*
X50430753Y-102602500D02*
X49982304Y-102602500D01*
X51009804Y-101575000D02*
X49982304Y-102602500D01*
X48025000Y-106411355D02*
X48000000Y-106386355D01*
X49243855Y-105142500D02*
X49982304Y-105142500D01*
X88527500Y-102552500D02*
X88550000Y-102575000D01*
X48025000Y-107825000D02*
X48025000Y-106411355D01*
%TO.N,/active filter/A_IN-_W*%
X57337500Y-110825000D02*
X56553449Y-110040949D01*
X56553449Y-105732500D02*
X55963449Y-105142500D01*
X56553449Y-110040949D02*
X56553449Y-105732500D01*
X57037500Y-111125000D02*
X57337500Y-110825000D01*
X55963449Y-105142500D02*
X55425000Y-105142500D01*
X57075000Y-113226000D02*
X57100000Y-113201000D01*
X56400000Y-111125000D02*
X57037500Y-111125000D01*
X57075000Y-114775000D02*
X57075000Y-113226000D01*
D50*
%TO.N,/active filter/F_W*%
X58836500Y-112251000D02*
X60262500Y-110825000D01*
X52325000Y-110037500D02*
X52450000Y-109912500D01*
X52325000Y-113775000D02*
X52325000Y-110037500D01*
X52450000Y-109912500D02*
X54788500Y-112251000D01*
X54788500Y-112251000D02*
X58836500Y-112251000D01*
D52*
%TO.N,/active filter/A_LDR_S_O*%
X80870152Y-100974000D02*
X81178652Y-101282500D01*
X58599000Y-104120855D02*
X58599000Y-101826000D01*
X54976551Y-106412500D02*
X54296551Y-105732500D01*
X54886551Y-103872500D02*
X55425000Y-103872500D01*
X55400000Y-106437500D02*
X55425000Y-106412500D01*
X54296551Y-104462500D02*
X54886551Y-103872500D01*
X55425000Y-103872500D02*
X55873449Y-103872500D01*
X54296551Y-105732500D02*
X54296551Y-104462500D01*
X58082655Y-104637200D02*
X58599000Y-104120855D01*
X55873449Y-103872500D02*
X56638149Y-104637200D01*
X55400000Y-109912500D02*
X55400000Y-106437500D01*
X56638149Y-104637200D02*
X58082655Y-104637200D01*
X58599000Y-101826000D02*
X58650000Y-101775000D01*
X79700000Y-100974000D02*
X80870152Y-100974000D01*
X55425000Y-106412500D02*
X54976551Y-106412500D01*
%TO.N,/thermal control/L_HTAS*%
X110745000Y-126125000D02*
X110745000Y-124580000D01*
X110745000Y-124580000D02*
X110750000Y-124575000D01*
X106012500Y-112275000D02*
X105462500Y-111725000D01*
X106700000Y-112275000D02*
X106012500Y-112275000D01*
%TO.N,/thermal control/A_HTAS_O*%
X109651580Y-95099000D02*
X109651580Y-93976580D01*
X111524580Y-99524000D02*
X111702000Y-99524000D01*
X110026000Y-98025420D02*
X110026000Y-95473420D01*
X104380580Y-93878000D02*
X102127580Y-91625000D01*
X111524580Y-99524000D02*
X110026000Y-98025420D01*
X79771348Y-83580000D02*
X81238652Y-83580000D01*
X122250000Y-106575000D02*
X122750000Y-106075000D01*
X110026000Y-95473420D02*
X109651580Y-95099000D01*
X109651580Y-93976580D02*
X109553000Y-93878000D01*
X102127580Y-91625000D02*
X102049000Y-91625000D01*
X115913186Y-123756814D02*
X113545000Y-126125000D01*
X111702000Y-99524000D02*
X111853000Y-99675000D01*
X112600000Y-106575000D02*
X122250000Y-106575000D01*
X109553000Y-93878000D02*
X104380580Y-93878000D01*
X81238652Y-83580000D02*
X81678652Y-84020000D01*
%TO.N,/thermal control/A_LTHC_O*%
X124195000Y-104220000D02*
X124050000Y-104075000D01*
X90500000Y-85162500D02*
X87248848Y-85162500D01*
X124050000Y-104075000D02*
X125950000Y-104075000D01*
X107100058Y-85162500D02*
X107100058Y-82747362D01*
X117500000Y-103544425D02*
X123519425Y-103544425D01*
X81400000Y-55175000D02*
X78772442Y-55175000D01*
X111950000Y-55175000D02*
X107200000Y-55175000D01*
X107100058Y-82747362D02*
X108373420Y-81474000D01*
X113375668Y-85273088D02*
X113375668Y-86457377D01*
X78672442Y-55275000D02*
X72750000Y-49352558D01*
X108373420Y-81474000D02*
X109576580Y-81474000D01*
X78700000Y-55275000D02*
X78672442Y-55275000D01*
X123519425Y-103544425D02*
X124050000Y-104075000D01*
X87248848Y-85162500D02*
X87121348Y-85290000D01*
X109576580Y-81474000D02*
X113375668Y-85273088D01*
X72750000Y-49352558D02*
X72750000Y-40202500D01*
X124195000Y-126125000D02*
X124195000Y-104220000D01*
X78772442Y-55175000D02*
X78672442Y-55275000D01*
X90500000Y-85162500D02*
X107100058Y-85162500D01*
%TO.N,/thermal control/L_LTHC*%
X121395000Y-124170000D02*
X121350000Y-124125000D01*
X121395000Y-126125000D02*
X121395000Y-124170000D01*
X114312500Y-104825000D02*
X114212500Y-104925000D01*
X115500000Y-104825000D02*
X114312500Y-104825000D01*
%TO.N,/solar eclipse/L_ECLIPSE*%
X70450000Y-112325000D02*
X70450000Y-111362500D01*
X86150000Y-128675000D02*
X86000000Y-128525000D01*
X86150000Y-131425000D02*
X86150000Y-128675000D01*
X70450000Y-111362500D02*
X69862500Y-110775000D01*
D50*
%TO.N,/solar eclipse/C_ECLIPSE_O*%
X125700000Y-109475000D02*
X125700000Y-108325000D01*
X92300000Y-128075000D02*
X92300000Y-117275000D01*
X88950000Y-131425000D02*
X92300000Y-128075000D01*
X80850000Y-107275000D02*
X80850000Y-107013848D01*
X80850000Y-107013848D02*
X81121348Y-106742500D01*
X78250000Y-106812500D02*
X78250000Y-107025000D01*
X78250000Y-107025000D02*
X78950000Y-107725000D01*
X125700000Y-108325000D02*
X125950000Y-108075000D01*
%TO.N,/solar array deployment/S_PWM_O*%
X94599000Y-64918918D02*
X95370082Y-65690000D01*
X94599000Y-64131082D02*
X94599000Y-64918918D01*
X104512500Y-65125000D02*
X102956500Y-63569000D01*
X102956500Y-63569000D02*
X95161082Y-63569000D01*
X95161082Y-63569000D02*
X94599000Y-64131082D01*
X95370082Y-65690000D02*
X97483848Y-65690000D01*
D52*
%TO.N,/solar eclipse/L_LIGHT_N*%
X94550000Y-113625000D02*
X94550000Y-112187500D01*
X91050000Y-123225000D02*
X90100000Y-123225000D01*
X94550000Y-112187500D02*
X94912500Y-111825000D01*
X90100000Y-123225000D02*
X89700000Y-122825000D01*
D50*
%TO.N,/solar eclipse/C_LIGHT_N_O*%
X91300000Y-120175000D02*
X91300000Y-118025000D01*
X125250000Y-116775000D02*
X125950000Y-116075000D01*
X81171152Y-91175000D02*
X81178652Y-91182500D01*
X77550000Y-93007500D02*
X77550000Y-91175000D01*
X125250000Y-118025000D02*
X125250000Y-116775000D01*
X91050000Y-120425000D02*
X91300000Y-120175000D01*
X79950000Y-91175000D02*
X81171152Y-91175000D01*
%TO.N,/solar eclipse/C_LIGHT_E_O*%
X121700000Y-118625000D02*
X122750000Y-117575000D01*
X93837500Y-93575000D02*
X88451708Y-93575000D01*
X122750000Y-117575000D02*
X122750000Y-114075000D01*
X95100000Y-91825000D02*
X95100000Y-92312500D01*
X122750000Y-114075000D02*
X122750000Y-114025000D01*
X103050000Y-129025000D02*
X104600000Y-129025000D01*
X87329208Y-92452500D02*
X86621348Y-92452500D01*
X104600000Y-129025000D02*
X104650000Y-128975000D01*
X95100000Y-92312500D02*
X93837500Y-93575000D01*
X88451708Y-93575000D02*
X87329208Y-92452500D01*
X122750000Y-114025000D02*
X121300000Y-112575000D01*
D52*
%TO.N,/solar eclipse/L_LIGHT_E*%
X105337500Y-108825000D02*
X105887500Y-109375000D01*
X104650000Y-108825000D02*
X105337500Y-108825000D01*
X103050000Y-131825000D02*
X104750000Y-131825000D01*
%TO.N,/solar eclipse/L_LIGHT_S*%
X92950000Y-140575000D02*
X93100000Y-140425000D01*
X91050000Y-140575000D02*
X92950000Y-140575000D01*
D50*
%TO.N,/solar eclipse/C_LIGHT_S_O*%
X77550000Y-100632500D02*
X77550000Y-99475000D01*
X81667500Y-98742500D02*
X81178652Y-98742500D01*
X82450000Y-99525000D02*
X81667500Y-98742500D01*
X125000000Y-111125000D02*
X125950000Y-112075000D01*
X125000000Y-110725000D02*
X125000000Y-111125000D01*
X77550000Y-99475000D02*
X77500000Y-99425000D01*
X91050000Y-137775000D02*
X92900000Y-135925000D01*
X92900000Y-135925000D02*
X92900000Y-116825000D01*
X92900000Y-116825000D02*
X92850000Y-116775000D01*
D52*
%TO.N,/solar eclipse/L_LIGHT_W*%
X79050000Y-131825000D02*
X82250000Y-131825000D01*
X64700000Y-112775000D02*
X64700000Y-114737500D01*
X82250000Y-131825000D02*
X82300000Y-131875000D01*
X64700000Y-114737500D02*
X64662500Y-114775000D01*
D50*
%TO.N,/solar eclipse/C_LIGHT_W_O*%
X89887500Y-101387500D02*
X89900000Y-101375000D01*
X79050000Y-117425000D02*
X80450000Y-116025000D01*
X122750000Y-110075000D02*
X122750000Y-112125000D01*
X79050000Y-129025000D02*
X79050000Y-117425000D01*
X89887500Y-102675000D02*
X89887500Y-101387500D01*
X85350000Y-100875000D02*
X86212500Y-100012500D01*
X86212500Y-100012500D02*
X86621348Y-100012500D01*
X122750000Y-112125000D02*
X122400000Y-112475000D01*
D52*
%TO.N,/solar array deployment/S_SERVO_SIGNAL_O*%
X79743638Y-55975000D02*
X78522500Y-55975000D01*
X107487500Y-63482500D02*
X107845000Y-63125000D01*
X107487500Y-65125000D02*
X107487500Y-63482500D01*
X81172860Y-57404222D02*
X79743638Y-55975000D01*
X78522500Y-55975000D02*
X62750000Y-40202500D01*
%TO.N,/solar array deployment/L_PANEL_OPEN*%
X49750000Y-135875000D02*
X49700000Y-135825000D01*
X48562500Y-115625000D02*
X50412500Y-113775000D01*
X48150000Y-115625000D02*
X48562500Y-115625000D01*
X52262500Y-135875000D02*
X49750000Y-135875000D01*
D50*
%TO.N,/solar array deployment/C_PANEL_OPEN_LATCH_O*%
X79425000Y-76325000D02*
X79675000Y-76075000D01*
X77100000Y-73225000D02*
X77891593Y-73225000D01*
X94050000Y-98187500D02*
X93937500Y-98075000D01*
X74962500Y-106375000D02*
X74962500Y-105187500D01*
X96713708Y-72107500D02*
X96546208Y-72275000D01*
X65350000Y-99775000D02*
X64350000Y-99775000D01*
X103862500Y-100902500D02*
X97977500Y-100902500D01*
D51*
X55062500Y-138387500D02*
X57500000Y-140825000D01*
X78140593Y-72976000D02*
X78291593Y-72825000D01*
X78291593Y-72825000D02*
X79675000Y-72825000D01*
D50*
X77891593Y-73225000D02*
X78140593Y-72976000D01*
D51*
X72800000Y-104575000D02*
X74350000Y-104575000D01*
D50*
X64350000Y-99775000D02*
X64300000Y-99725000D01*
X94050000Y-99475000D02*
X94050000Y-98187500D01*
X74962500Y-105187500D02*
X74550000Y-104775000D01*
X97512500Y-72107500D02*
X96713708Y-72107500D01*
D51*
X74350000Y-104575000D02*
X74550000Y-104775000D01*
D50*
X103062500Y-101702500D02*
X103862500Y-100902500D01*
X103062500Y-107325000D02*
X103062500Y-101702500D01*
D51*
X55062500Y-135875000D02*
X55062500Y-138387500D01*
D50*
X96546208Y-72275000D02*
X95100000Y-72275000D01*
X78250000Y-76325000D02*
X79425000Y-76325000D01*
X97977500Y-100902500D02*
X97850000Y-100775000D01*
D52*
%TO.N,/solar array deployment/L_PANEL_CLOSE*%
X62362500Y-134912500D02*
X63800000Y-133475000D01*
X62362500Y-135775000D02*
X62362500Y-134912500D01*
X69550000Y-114862500D02*
X69462500Y-114775000D01*
X69550000Y-116725000D02*
X69550000Y-114862500D01*
D50*
%TO.N,/solar array deployment/C_PANEL_CLOSE_LATCH_O*%
X70412074Y-124912926D02*
X81350000Y-113975000D01*
X100250000Y-99137500D02*
X99237500Y-98125000D01*
X93100000Y-74525000D02*
X93100000Y-74500496D01*
X100250000Y-99625000D02*
X100250000Y-99137500D01*
X109212500Y-87325000D02*
X108962500Y-87075000D01*
X110050000Y-87325000D02*
X109212500Y-87325000D01*
X113100000Y-100975000D02*
X113300000Y-101175000D01*
X79673000Y-74127000D02*
X79675000Y-74125000D01*
X93100000Y-74500496D02*
X92657004Y-74057500D01*
X105987500Y-90050000D02*
X105987500Y-90375000D01*
X70412074Y-130525426D02*
X70412074Y-124912926D01*
X92657004Y-74057500D02*
X91787500Y-74057500D01*
X81000000Y-74425000D02*
X80700000Y-74125000D01*
X80700000Y-74125000D02*
X79675000Y-74125000D01*
X90617500Y-74057500D02*
X90500000Y-74175000D01*
X73950000Y-74775000D02*
X77900057Y-74775000D01*
X94587500Y-107425000D02*
X94687500Y-107325000D01*
X108962500Y-87075000D02*
X105987500Y-90050000D01*
X93350000Y-107425000D02*
X94587500Y-107425000D01*
X65162500Y-135775000D02*
X70412074Y-130525426D01*
X91787500Y-74057500D02*
X90617500Y-74057500D01*
X78548057Y-74127000D02*
X79673000Y-74127000D01*
X77900057Y-74775000D02*
X78548057Y-74127000D01*
X112037500Y-100975000D02*
X113100000Y-100975000D01*
%TO.N,/solar array verification/C_TR_555*%
X64650000Y-94975000D02*
X63820000Y-94145000D01*
X77750000Y-70975000D02*
X77700000Y-71025000D01*
X82800000Y-70975000D02*
X77750000Y-70975000D01*
X89512500Y-80375000D02*
X89512500Y-77687500D01*
X89512500Y-77687500D02*
X84700000Y-72875000D01*
X63820000Y-94145000D02*
X62750000Y-94145000D01*
X84700000Y-72875000D02*
X82800000Y-70975000D01*
D52*
%TO.N,/solar array verification/A_STP_OPN_O*%
X92487500Y-80375000D02*
X92487500Y-80262500D01*
X59777580Y-97075000D02*
X62707304Y-100004724D01*
X54550000Y-96175000D02*
X55450000Y-97075000D01*
X62707304Y-100004724D02*
X62707304Y-101820000D01*
X92487500Y-80262500D02*
X91350000Y-79125000D01*
X55450000Y-97075000D02*
X59777580Y-97075000D01*
%TO.N,/solar array verification/A_STP_CLS_O*%
X75351580Y-82607792D02*
X75351580Y-90199000D01*
X68598449Y-103090000D02*
X68150000Y-103090000D01*
X74348420Y-92751000D02*
X72401000Y-94698420D01*
X77518272Y-80441100D02*
X75351580Y-82607792D01*
X81725000Y-77175000D02*
X79497420Y-77175000D01*
X74051000Y-103293002D02*
X73575002Y-103769000D01*
X75351580Y-92751000D02*
X74348420Y-92751000D01*
X73575002Y-103769000D02*
X69277449Y-103769000D01*
X75726000Y-92376580D02*
X75351580Y-92751000D01*
X69277449Y-103769000D02*
X68598449Y-103090000D01*
X74051000Y-101356998D02*
X74051000Y-103293002D01*
X75726000Y-90573420D02*
X75726000Y-92376580D01*
X72401000Y-99706998D02*
X74051000Y-101356998D01*
X77518272Y-79154148D02*
X77518272Y-80441100D01*
X81725000Y-72875000D02*
X81725000Y-77175000D01*
X75351580Y-90199000D02*
X75726000Y-90573420D01*
X72401000Y-94698420D02*
X72401000Y-99706998D01*
X79497420Y-77175000D02*
X77518272Y-79154148D01*
%TO.N,/solar array verification/L_ALARM*%
X54350000Y-142375000D02*
X54300000Y-142425000D01*
X57462500Y-142375000D02*
X54350000Y-142375000D01*
D50*
%TO.N,/solar array verification/C_PANEL_FAILURE_O*%
X95650000Y-78225000D02*
X95650000Y-79748652D01*
X95578652Y-79820000D02*
X96017101Y-79820000D01*
X95650000Y-79748652D02*
X95578652Y-79820000D01*
X122750000Y-98075000D02*
X117850057Y-98075000D01*
X117850057Y-98075000D02*
X117850057Y-97325057D01*
X96017101Y-79820000D02*
X97500000Y-81302899D01*
X97500000Y-81302899D02*
X97500000Y-83175000D01*
X60412500Y-142525000D02*
X60262500Y-142375000D01*
X117850057Y-97325057D02*
X117550000Y-97025000D01*
X61800000Y-142525000D02*
X60412500Y-142525000D01*
D51*
%TO.N,/power selector/C_COIL_SOL*%
X54700000Y-90375000D02*
X54700000Y-88175000D01*
X54700000Y-88175000D02*
X56700000Y-86175000D01*
X56700000Y-86175000D02*
X60650000Y-82225000D01*
X60912500Y-83167000D02*
X60912500Y-82387500D01*
X60650000Y-82225000D02*
X60750000Y-82225000D01*
X60912500Y-82387500D02*
X60750000Y-82225000D01*
D50*
%TO.N,/power selector/C_COIL_BATT*%
X39200000Y-86325000D02*
X39550000Y-86675000D01*
D53*
X40092000Y-86675000D02*
X39550000Y-86675000D01*
D50*
X32442678Y-91701423D02*
X32442678Y-88732322D01*
X34850000Y-86325000D02*
X39200000Y-86325000D01*
X32442678Y-88732322D02*
X34850000Y-86325000D01*
%TO.N,/power selector/C_SOLAR_SELECT*%
X31950000Y-141425000D02*
X44600000Y-141425000D01*
X30200000Y-139675000D02*
X31950000Y-141425000D01*
D51*
X60912500Y-85387500D02*
X61000000Y-85475000D01*
D50*
X40819101Y-76875000D02*
X40705178Y-76988923D01*
D51*
X60912500Y-84183000D02*
X60912500Y-85387500D01*
D50*
X122750000Y-94075000D02*
X117300000Y-94075000D01*
X42350000Y-76875000D02*
X40819101Y-76875000D01*
X73950000Y-64887500D02*
X74050000Y-64787500D01*
X73950000Y-63875000D02*
X73950000Y-64887500D01*
X71475000Y-64787500D02*
X71250000Y-65012500D01*
X74050000Y-64787500D02*
X71475000Y-64787500D01*
%TO.N,/power selector/C_BATT_SELECT*%
X41250000Y-86675000D02*
X41151000Y-86675000D01*
X39479178Y-81416678D02*
X40950000Y-82887500D01*
X116842835Y-96075000D02*
X125950000Y-96075000D01*
X116671418Y-95903583D02*
X116842835Y-96075000D01*
X41250000Y-86675000D02*
X42201000Y-85724000D01*
X37401000Y-134876000D02*
X28044130Y-134876000D01*
X44950000Y-90562500D02*
X44737500Y-90775000D01*
X44950000Y-89325000D02*
X44950000Y-90562500D01*
X25699000Y-125884636D02*
X26108636Y-125475000D01*
X42200000Y-139675000D02*
X37401000Y-134876000D01*
X39824308Y-79000423D02*
X39479178Y-79345553D01*
X26108636Y-125475000D02*
X27400000Y-125475000D01*
X39479178Y-79345553D02*
X39479178Y-81416678D01*
X42300000Y-86675000D02*
X41250000Y-86675000D01*
X25699000Y-132530870D02*
X25699000Y-125884636D01*
X44950000Y-89325000D02*
X42300000Y-86675000D01*
X42201000Y-79615375D02*
X41586048Y-79000423D01*
X42201000Y-85724000D02*
X42201000Y-79615375D01*
X28044130Y-134876000D02*
X25699000Y-132530870D01*
X41586048Y-79000423D02*
X39824308Y-79000423D01*
D52*
%TO.N,/active filter/A_LDR_S_I*%
X41863500Y-109413500D02*
X40262500Y-107812500D01*
X42300000Y-117675000D02*
X44452000Y-117675000D01*
X44938500Y-109413500D02*
X41863500Y-109413500D01*
X46226000Y-115901000D02*
X46226000Y-110701000D01*
X46226000Y-110701000D02*
X44938500Y-109413500D01*
X44452000Y-117675000D02*
X46226000Y-115901000D01*
%TO.N,/active filter/A_LDR_N_I*%
X36200000Y-108625000D02*
X31612500Y-108625000D01*
X31612500Y-108625000D02*
X27562500Y-104575000D01*
%TO.N,/active filter/A_LDR_W_I*%
X58100000Y-127225000D02*
X58150000Y-127275000D01*
X58100000Y-121825000D02*
X55250000Y-118975000D01*
X55250000Y-118975000D02*
X55250000Y-113775000D01*
X58100000Y-121825000D02*
X58100000Y-127225000D01*
%TO.N,/active filter/A_LDR_E_I*%
X41475000Y-111925000D02*
X41825000Y-111575000D01*
X40825000Y-111925000D02*
X41475000Y-111925000D01*
D50*
%TO.N,/solar array verification/C_PANEL_CLOSED_O*%
X116099000Y-97740984D02*
X116099000Y-94626000D01*
X78700000Y-74825000D02*
X79625000Y-74825000D01*
X116099000Y-94626000D02*
X116650000Y-94075000D01*
X79625000Y-74825000D02*
X79675000Y-74775000D01*
X120433016Y-102075000D02*
X116099000Y-97740984D01*
X122750000Y-102075000D02*
X120433016Y-102075000D01*
%TO.N,/solar array verification/C_PANEL_OPEN_O*%
X117893650Y-102876000D02*
X114492650Y-99475000D01*
X125950000Y-100075000D02*
X125950000Y-101027000D01*
X125950000Y-101027000D02*
X124101000Y-102876000D01*
X96350000Y-59275000D02*
X94550000Y-59275000D01*
X124101000Y-102876000D02*
X117893650Y-102876000D01*
X114492650Y-99475000D02*
X113300000Y-99475000D01*
X81000000Y-75425000D02*
X79675000Y-75425000D01*
D47*
%TO.N,/power selector/P_BATTERY_I*%
X27350000Y-68875000D02*
X27250000Y-68975000D01*
X31450000Y-66025000D02*
X31450000Y-68825000D01*
D50*
X41280331Y-126605331D02*
X41280331Y-127655331D01*
X41280331Y-127655331D02*
X41950000Y-128325000D01*
D47*
X27350000Y-66025000D02*
X27350000Y-68875000D01*
D50*
X35650000Y-73025000D02*
X38450000Y-73025000D01*
D47*
X31450000Y-66025000D02*
X27350000Y-66025000D01*
D50*
X31450000Y-68825000D02*
X35650000Y-73025000D01*
D47*
X34850000Y-66025000D02*
X31450000Y-66025000D01*
%TO.N,/power selector/P_MAIN_O*%
X37850000Y-40907500D02*
X37850000Y-43425000D01*
X27350000Y-60985000D02*
X27350000Y-58575000D01*
X35582500Y-40907500D02*
X35550000Y-40875000D01*
X31450000Y-60985000D02*
X31450000Y-58825000D01*
X37850000Y-40907500D02*
X40132500Y-40907500D01*
X52950000Y-60835000D02*
X56700000Y-60835000D01*
X49200000Y-60835000D02*
X52950000Y-60835000D01*
X37850000Y-43425000D02*
X37750000Y-43525000D01*
X49200000Y-60835000D02*
X49200000Y-58625000D01*
X31450000Y-60985000D02*
X34850000Y-60985000D01*
X49200000Y-58625000D02*
X49250000Y-58575000D01*
X27350000Y-60985000D02*
X31450000Y-60985000D01*
X27350000Y-58575000D02*
X27400000Y-58525000D01*
X31450000Y-58825000D02*
X31400000Y-58775000D01*
X52950000Y-60835000D02*
X52950000Y-58675000D01*
X56700000Y-60835000D02*
X56700000Y-58625000D01*
X40132500Y-40907500D02*
X40150000Y-40925000D01*
X37850000Y-40907500D02*
X35582500Y-40907500D01*
%TO.N,/power selector/P_SOLAR_I*%
X49200000Y-65875000D02*
X49200000Y-68775000D01*
X52900000Y-65875000D02*
X49200000Y-65875000D01*
X56700000Y-68525000D02*
X56750000Y-68575000D01*
D50*
X28000000Y-126175000D02*
X30200000Y-128375000D01*
D47*
X52900000Y-65875000D02*
X52900000Y-68525000D01*
D50*
X26400000Y-126175000D02*
X28000000Y-126175000D01*
X45900000Y-72075000D02*
X41900000Y-72075000D01*
D47*
X56700000Y-65875000D02*
X52900000Y-65875000D01*
X56700000Y-65875000D02*
X56700000Y-68525000D01*
X52900000Y-68525000D02*
X52850000Y-68575000D01*
D50*
X49200000Y-68775000D02*
X45900000Y-72075000D01*
D52*
%TO.N,/solar array verification/A_PANEL_CLOSE_SENSOR_I*%
X80200000Y-70225000D02*
X76900000Y-70225000D01*
X82750000Y-50925000D02*
X83757214Y-49917786D01*
X76900000Y-70225000D02*
X76799000Y-70326000D01*
D50*
X75663628Y-74125000D02*
X76151000Y-73637628D01*
D52*
X83757214Y-49917786D02*
X87690000Y-49917786D01*
D50*
X73950000Y-74125000D02*
X75663628Y-74125000D01*
D52*
X76799000Y-72160372D02*
X76151000Y-72808372D01*
X87690000Y-38705000D02*
X87690000Y-49917786D01*
X78420825Y-73475000D02*
X77671825Y-74224000D01*
X77671825Y-74224000D02*
X77623825Y-74176000D01*
X76799000Y-70326000D02*
X76799000Y-72160372D01*
X76151000Y-72808372D02*
X76151000Y-73637628D01*
X77623825Y-74176000D02*
X75450000Y-74176000D01*
X79675000Y-73475000D02*
X78420825Y-73475000D01*
D50*
%TO.N,/solar array deployment/C_PANEL_OPEEN_BTN_I*%
X97700057Y-58425000D02*
X97750000Y-58425000D01*
X105887500Y-96125000D02*
X106137500Y-96375000D01*
X92770000Y-38705000D02*
X92770000Y-53494943D01*
X92770000Y-53494943D02*
X97700057Y-58425000D01*
X104950000Y-96125000D02*
X105887500Y-96125000D01*
%TO.N,/solar array deployment/C_PANEL_CLOSE_BTN_I*%
X100500000Y-103025000D02*
X99862500Y-103025000D01*
X97850000Y-38705000D02*
X97850000Y-57725000D01*
X99862500Y-103025000D02*
X99362500Y-102525000D01*
D52*
%TO.N,/solar array verification/A_PANEL_OPEN_SENSOR_I*%
X67586500Y-73159424D02*
X68078076Y-73651000D01*
X76950000Y-56825000D02*
X67586500Y-66188500D01*
X72638500Y-72536500D02*
X73000000Y-72175000D01*
X82610000Y-38705000D02*
X82610000Y-48865000D01*
X72064080Y-73651000D02*
X72638500Y-73076580D01*
X73000000Y-72175000D02*
X73950000Y-72175000D01*
D50*
X73950000Y-75425000D02*
X72650000Y-75425000D01*
D52*
X72638500Y-73076580D02*
X72638500Y-72536500D01*
D50*
X72064080Y-74839080D02*
X72650000Y-75425000D01*
X72064080Y-73651000D02*
X72064080Y-74839080D01*
D52*
X67586500Y-66188500D02*
X67586500Y-73159424D01*
X82610000Y-48865000D02*
X80600000Y-50875000D01*
X68078076Y-73651000D02*
X72064080Y-73651000D01*
%TO.N,/thermal control/A_HTAS_I*%
X79667348Y-90101000D02*
X103476000Y-90101000D01*
X124474201Y-90151799D02*
X124783711Y-90151799D01*
X104769272Y-93277000D02*
X121349000Y-93277000D01*
X76846348Y-87280000D02*
X79667348Y-90101000D01*
X103476000Y-90101000D02*
X103476000Y-91983728D01*
X121349000Y-93277000D02*
X124474201Y-90151799D01*
X103476000Y-91983728D02*
X104769272Y-93277000D01*
%TO.N,/thermal control/A_LTHC_I*%
X87121348Y-86560000D02*
X101464346Y-86560000D01*
X112781786Y-92676000D02*
X114650000Y-90807786D01*
X114953201Y-85071799D02*
X124783711Y-85071799D01*
X104549000Y-92206786D02*
X105018214Y-92676000D01*
X114650000Y-85125000D02*
X114900000Y-85125000D01*
X114900000Y-85125000D02*
X114953201Y-85071799D01*
X114650000Y-90807786D02*
X114650000Y-85125000D01*
X101464346Y-86560000D02*
X104549000Y-89644654D01*
X105018214Y-92676000D02*
X112781786Y-92676000D01*
X104549000Y-89644654D02*
X104549000Y-92206786D01*
%TO.N,/solar array verification/A_RST_SET_2*%
X63375000Y-84775000D02*
X62700000Y-84775000D01*
X62450000Y-80562500D02*
X63137500Y-79875000D01*
X62450000Y-82475000D02*
X62450000Y-80562500D01*
X62700000Y-84775000D02*
X62400000Y-84475000D01*
D50*
%TO.N,/solar array verification/C_R_555*%
X76137500Y-79475000D02*
X74612500Y-79475000D01*
D51*
X63590000Y-96685000D02*
X64250000Y-96025000D01*
X70050000Y-84125000D02*
X65250000Y-84125000D01*
D50*
X74612500Y-79475000D02*
X71412500Y-76275000D01*
D51*
X74550000Y-79625000D02*
X70050000Y-84125000D01*
X62750000Y-96685000D02*
X63590000Y-96685000D01*
D52*
%TO.N,/power selector/A_INVERTER_BASE*%
X40705178Y-79913923D02*
X41600000Y-80808745D01*
X41600000Y-80808745D02*
X41600000Y-84762500D01*
D50*
%TO.N,/thermal control/F_HTAS*%
X79771348Y-87280000D02*
X76846348Y-84355000D01*
X80491348Y-86560000D02*
X81678652Y-86560000D01*
X76846348Y-84355000D02*
X76846348Y-83580000D01*
X79771348Y-87280000D02*
X80491348Y-86560000D01*
D52*
%TO.N,/thermal control/A_BIAS_LTHC_1*%
X116047849Y-116900000D02*
X116047849Y-110610349D01*
X123895000Y-134125000D02*
X119500000Y-129730000D01*
X116047849Y-110610349D02*
X114212500Y-108775000D01*
X119500000Y-129730000D02*
X119500000Y-123425000D01*
%TO.N,/solar array deployment/A_BASE_OPN*%
X100750000Y-95037500D02*
X102212500Y-93575000D01*
X102162500Y-98125000D02*
X101650000Y-98125000D01*
X101650000Y-98125000D02*
X100800000Y-97275000D01*
X109050580Y-96363080D02*
X109062500Y-96375000D01*
X105737500Y-100252500D02*
X104290000Y-100252500D01*
X100750000Y-95225000D02*
X100750000Y-95037500D01*
X109050580Y-94625000D02*
X109050580Y-96363080D01*
X103262500Y-94625000D02*
X109050580Y-94625000D01*
X104290000Y-100252500D02*
X102162500Y-98125000D01*
X102212500Y-93575000D02*
X103262500Y-94625000D01*
%TO.N,/solar array deployment/A_BASE_CLS*%
X98637500Y-88725000D02*
X98950000Y-88725000D01*
X96862500Y-98075000D02*
X95800000Y-98075000D01*
X96437500Y-100550000D02*
X96437500Y-102525000D01*
X103543782Y-95849000D02*
X101717214Y-95849000D01*
X95800000Y-98075000D02*
X95700000Y-97975000D01*
X98950000Y-88725000D02*
X99400000Y-89175000D01*
X96862500Y-100125000D02*
X96437500Y-100550000D01*
X101092214Y-96474000D02*
X98463500Y-96474000D01*
X110162500Y-101625000D02*
X109319782Y-101625000D01*
X98463500Y-96474000D02*
X96862500Y-98075000D01*
X96862500Y-100125000D02*
X96862500Y-98075000D01*
X109319782Y-101625000D02*
X103543782Y-95849000D01*
X101717214Y-95849000D02*
X101092214Y-96474000D01*
%TO.N,/thermal control/A_BIAS_LTHC_2*%
X114450000Y-123425000D02*
X114450000Y-120000000D01*
X114450000Y-120000000D02*
X112925000Y-118475000D01*
X121595000Y-134125000D02*
X116700000Y-129230000D01*
X116700000Y-129230000D02*
X116700000Y-126475000D01*
%TO.N,/thermal control/A_SETPOINT_LTHC*%
X117450000Y-131225000D02*
X117450000Y-134330000D01*
X107950000Y-102625000D02*
X112750000Y-102625000D01*
X91227500Y-87360000D02*
X100649441Y-87360000D01*
X102049000Y-96650000D02*
X102239080Y-96840080D01*
X90500000Y-88087500D02*
X87378848Y-88087500D01*
X90500000Y-88087500D02*
X91227500Y-87360000D01*
X107650000Y-100805160D02*
X107650000Y-102325000D01*
X103684920Y-96840080D02*
X107650000Y-100805160D01*
X107650000Y-102325000D02*
X107950000Y-102625000D01*
X117450000Y-134330000D02*
X122745000Y-139625000D01*
X102239080Y-96840080D02*
X103684920Y-96840080D01*
X87378848Y-88087500D02*
X87121348Y-87830000D01*
%TO.N,/solar eclipse/A_FEEDBACK_U403A*%
X78250000Y-109737500D02*
X79975000Y-108012500D01*
X79950203Y-102775203D02*
X79050000Y-101875000D01*
X82500000Y-105375000D02*
X82450000Y-105425000D01*
X92812500Y-102675000D02*
X92812500Y-97334920D01*
X79975000Y-108012500D02*
X81121348Y-108012500D01*
X92700000Y-102787500D02*
X92812500Y-102675000D01*
X79975000Y-108012500D02*
X79950203Y-107987703D01*
X92700000Y-106526000D02*
X92700000Y-102787500D01*
X77550000Y-97707500D02*
X77550000Y-95932500D01*
X81121348Y-108012500D02*
X81659797Y-108012500D01*
X77550000Y-97707500D02*
X76274000Y-98983500D01*
X92812500Y-97334920D02*
X96572420Y-93575000D01*
X82500000Y-107172297D02*
X82500000Y-105325000D01*
X82500000Y-105325000D02*
X82500000Y-105375000D01*
X76927420Y-101875000D02*
X79050000Y-101875000D01*
X79950203Y-107987703D02*
X79950203Y-102775203D01*
X76274000Y-101221580D02*
X76927420Y-101875000D01*
X96572420Y-93575000D02*
X96762500Y-93575000D01*
X76274000Y-98983500D02*
X76274000Y-101221580D01*
X81659797Y-108012500D02*
X82500000Y-107172297D01*
%TO.N,/thermal control/A_BIAS_HTAS_2*%
X113250000Y-129775000D02*
X113300000Y-129725000D01*
X112519000Y-127894000D02*
X112519000Y-119981500D01*
X112519000Y-119981500D02*
X110912500Y-118375000D01*
X112545604Y-127920604D02*
X112519000Y-127894000D01*
X113250000Y-134125000D02*
X113250000Y-129775000D01*
%TO.N,/thermal control/A_BIAS_HTAS_1*%
X111771000Y-121098580D02*
X109876000Y-119203580D01*
X110950000Y-130325000D02*
X111400000Y-129875000D01*
X111771000Y-127254000D02*
X111771000Y-121098580D01*
X110950000Y-134125000D02*
X110950000Y-130325000D01*
X109876000Y-119203580D02*
X109876000Y-106738500D01*
X109876000Y-106738500D02*
X108862500Y-105725000D01*
X111400000Y-128125000D02*
X111400000Y-127625000D01*
X111400000Y-127625000D02*
X111771000Y-127254000D01*
D50*
%TO.N,/solar array deployment/F_WEINN_1*%
X90762703Y-66351000D02*
X91423703Y-65690000D01*
X91423703Y-65690000D02*
X92041152Y-65690000D01*
X87187500Y-64925000D02*
X88613500Y-66351000D01*
X87087500Y-61025000D02*
X87087500Y-64825000D01*
X88613500Y-66351000D02*
X90762703Y-66351000D01*
X87087500Y-64825000D02*
X87187500Y-64925000D01*
D52*
%TO.N,/solar array deployment/A_WEINN_O*%
X103300000Y-68610714D02*
X103300000Y-68825000D01*
X97830714Y-68230000D02*
X99412714Y-66648000D01*
X101337286Y-66648000D02*
X103300000Y-68610714D01*
X99412714Y-66648000D02*
X101337286Y-66648000D01*
X97483848Y-68230000D02*
X97830714Y-68230000D01*
X90617500Y-64420000D02*
X92041152Y-64420000D01*
X96953413Y-68230000D02*
X97483848Y-68230000D01*
X90112500Y-64925000D02*
X90617500Y-64420000D01*
X92041152Y-64420000D02*
X93143413Y-64420000D01*
X93143413Y-64420000D02*
X96953413Y-68230000D01*
%TO.N,/solar array verification/A_IN-_STP_OPN*%
X62707304Y-103090000D02*
X62287455Y-103090000D01*
X60262500Y-101065045D02*
X60262500Y-99425000D01*
X62707304Y-103090000D02*
X63860000Y-103090000D01*
X63860000Y-103090000D02*
X67225000Y-99725000D01*
X62287455Y-103090000D02*
X60262500Y-101065045D01*
%TO.N,/solar array verification/A_IN-_ASL*%
X94350000Y-80399797D02*
X94350000Y-78825000D01*
X59313653Y-102268198D02*
X59313653Y-105926153D01*
X95578652Y-81090000D02*
X95040203Y-81090000D01*
X59313653Y-105926153D02*
X61012500Y-107625000D01*
X59456407Y-100975000D02*
X59456407Y-102125444D01*
X59456407Y-102125444D02*
X59313653Y-102268198D01*
X95040203Y-81090000D02*
X94350000Y-80399797D01*
X60450000Y-95625000D02*
X60550000Y-95525000D01*
X60900000Y-95175000D02*
X60550000Y-95525000D01*
X60900000Y-91525000D02*
X60900000Y-95175000D01*
X59362500Y-95625000D02*
X60450000Y-95625000D01*
D50*
%TO.N,/solar array verification/D_Q_555*%
X61671900Y-97436000D02*
X61324000Y-97088100D01*
X65301000Y-95963100D02*
X63828100Y-97436000D01*
X65301000Y-92963926D02*
X65301000Y-95963100D01*
X63828100Y-97436000D02*
X61671900Y-97436000D01*
X61324000Y-97088100D02*
X61324000Y-96281900D01*
X62190900Y-95415000D02*
X62750000Y-95415000D01*
X56437500Y-95625000D02*
X56437500Y-94784004D01*
X61324000Y-96281900D02*
X62190900Y-95415000D01*
X56437500Y-94784004D02*
X60547504Y-90674000D01*
X63011074Y-90674000D02*
X65301000Y-92963926D01*
X60547504Y-90674000D02*
X63011074Y-90674000D01*
D52*
%TO.N,/solar array verification/A_IN+_ASL*%
X89482420Y-82360000D02*
X88150000Y-81027580D01*
X84463500Y-81101000D02*
X83087500Y-79725000D01*
X88150000Y-81027580D02*
X88150000Y-81025000D01*
X88150000Y-81025000D02*
X88074000Y-81101000D01*
X79062500Y-79475000D02*
X82837500Y-79475000D01*
X95578652Y-82360000D02*
X89482420Y-82360000D01*
X88074000Y-81101000D02*
X84463500Y-81101000D01*
X82837500Y-79475000D02*
X83087500Y-79725000D01*
%TO.N,/solar array verification/A_RST_SET_1*%
X73950000Y-72825000D02*
X73950000Y-73475000D01*
X71500000Y-78275000D02*
X71500000Y-78225000D01*
X69900000Y-79875000D02*
X71500000Y-78275000D01*
X69900000Y-79875000D02*
X66062500Y-79875000D01*
X75250000Y-73475000D02*
X75350000Y-73375000D01*
X73950000Y-73475000D02*
X75250000Y-73475000D01*
%TO.N,/solar array verification/A_IN-_STP_CLS*%
X113850000Y-90475000D02*
X113750000Y-90375000D01*
X105350000Y-91875000D02*
X107412500Y-91875000D01*
X67701551Y-104360000D02*
X66722549Y-103380998D01*
X114462500Y-96425000D02*
X114462500Y-94862500D01*
X68150000Y-104360000D02*
X67701551Y-104360000D01*
X66722549Y-103380998D02*
X66722549Y-101775000D01*
X114462500Y-94862500D02*
X114797793Y-94527207D01*
X107412500Y-91875000D02*
X108912500Y-90375000D01*
X113750000Y-90375000D02*
X108912500Y-90375000D01*
%TO.N,/power selector/A_SETPOINT_BATTERY*%
X71700000Y-70325000D02*
X71700000Y-72150000D01*
X71700000Y-72150000D02*
X71675000Y-72175000D01*
X40800000Y-133825000D02*
X49100000Y-125525000D01*
X49100000Y-125525000D02*
X49621469Y-125525000D01*
D50*
%TO.N,/power selector/F_PWR_SRC_COMPARATOR*%
X68750000Y-72175000D02*
X68750000Y-70437500D01*
X71860000Y-67327500D02*
X74050000Y-67327500D01*
X68750000Y-70437500D02*
X71250000Y-67937500D01*
X71250000Y-67937500D02*
X71860000Y-67327500D01*
D52*
%TO.N,/solar eclipse/A_SETPOINT_LDR_N*%
X80730203Y-92452500D02*
X78750000Y-94432703D01*
X75950000Y-95667420D02*
X75950000Y-96175000D01*
X86800000Y-123925000D02*
X87300000Y-124425000D01*
X81178652Y-92452500D02*
X80730203Y-92452500D01*
X85350000Y-123925000D02*
X86800000Y-123925000D01*
X44900000Y-98975000D02*
X44900000Y-101425000D01*
X77184717Y-94432703D02*
X75950000Y-95667420D01*
X78750000Y-94432703D02*
X77184717Y-94432703D01*
%TO.N,/solar eclipse/A_SETPOINT_LDR_E*%
X83199000Y-104756786D02*
X83251000Y-104808786D01*
X86669493Y-95672500D02*
X83199000Y-99142993D01*
X83251000Y-132324000D02*
X82400000Y-133175000D01*
X87749797Y-94312500D02*
X87749797Y-95672500D01*
X87749797Y-95672500D02*
X86669493Y-95672500D01*
X87159797Y-93722500D02*
X87749797Y-94312500D01*
X82400000Y-133175000D02*
X75400000Y-133175000D01*
X86621348Y-93722500D02*
X87159797Y-93722500D01*
X83199000Y-99142993D02*
X83199000Y-104756786D01*
X83251000Y-104808786D02*
X83251000Y-132324000D01*
%TO.N,/solar eclipse/A_SETPOINT_LDR_S*%
X84051000Y-112125000D02*
X84051000Y-133026000D01*
X81178652Y-100012500D02*
X81717101Y-100012500D01*
X84100000Y-133075000D02*
X84100000Y-138725000D01*
X81717101Y-100012500D02*
X82407101Y-100702500D01*
X82407101Y-104166899D02*
X82399000Y-104175000D01*
X82407101Y-100702500D02*
X82407101Y-104166899D01*
X84100000Y-138725000D02*
X87300000Y-141925000D01*
X84051000Y-133026000D02*
X84100000Y-133075000D01*
%TO.N,/solar eclipse/A_SETPOINT_LDR_W*%
X97099000Y-126226000D02*
X97099000Y-130874000D01*
X85150000Y-102215399D02*
X85150000Y-104175000D01*
X86621348Y-101282500D02*
X86082899Y-101282500D01*
X86082899Y-101282500D02*
X85150000Y-102215399D01*
X99400000Y-123925000D02*
X97099000Y-126226000D01*
X97099000Y-130874000D02*
X99400000Y-133175000D01*
X101850000Y-104275000D02*
X101850000Y-109475000D01*
%TO.N,/power selector/A_SETPOINT_SOLAR*%
X39651000Y-127174000D02*
X44850000Y-121975000D01*
X69050000Y-66425000D02*
X69417500Y-66057500D01*
X69417500Y-66057500D02*
X74050000Y-66057500D01*
X35751000Y-127174000D02*
X39651000Y-127174000D01*
X29050000Y-133875000D02*
X35751000Y-127174000D01*
D50*
%TO.N,/solar array deployment/C_PWM_FREQ_LEVEL*%
X96800000Y-66425000D02*
X96948848Y-66425000D01*
X91787500Y-72757500D02*
X92524999Y-72757500D01*
X91787500Y-72757500D02*
X91787500Y-72107500D01*
X93150000Y-73475000D02*
X96150000Y-73475000D01*
X96948848Y-66425000D02*
X97483848Y-66960000D01*
X93150000Y-73382501D02*
X93150000Y-73475000D01*
X92524999Y-72757500D02*
X93150000Y-73382501D01*
D52*
%TO.N,/thermal control/A_SETPOINT_HTAS*%
X106300000Y-139625000D02*
X112100000Y-139625000D01*
X84001000Y-99190935D02*
X84001000Y-104424000D01*
X99561666Y-84561500D02*
X99760666Y-84362500D01*
X106200000Y-139525000D02*
X106300000Y-139625000D01*
X91764080Y-84561500D02*
X99561666Y-84561500D01*
X82869372Y-85290000D02*
X85085372Y-83074000D01*
X81678652Y-85290000D02*
X82869372Y-85290000D01*
X84001000Y-104424000D02*
X84000000Y-104425000D01*
X90276580Y-83074000D02*
X91764080Y-84561500D01*
X85085372Y-83074000D02*
X90276580Y-83074000D01*
X106142000Y-127617000D02*
X106200000Y-127675000D01*
X106142000Y-123925000D02*
X106142000Y-127617000D01*
X86871411Y-96320524D02*
X84001000Y-99190935D01*
X92695524Y-96320524D02*
X86871411Y-96320524D01*
X106200000Y-127675000D02*
X106200000Y-131376000D01*
%TO.N,/solar array deployment/S_SERVO_PREFILTER_O*%
X54510500Y-130177000D02*
X53312500Y-131375000D01*
X89099000Y-74259214D02*
X91687579Y-76847793D01*
X90734714Y-71457500D02*
X89099000Y-73093214D01*
X89099000Y-73093214D02*
X89099000Y-74259214D01*
X91687579Y-76847793D02*
X113372793Y-76847793D01*
X91787500Y-71457500D02*
X90734714Y-71457500D01*
X56350000Y-130177000D02*
X54510500Y-130177000D01*
%TO.N,/solar array deployment/A_SETPOINT_CLOSE*%
X67100000Y-128087500D02*
X67100000Y-124725000D01*
X89900000Y-73425000D02*
X91770000Y-73425000D01*
X64062500Y-131125000D02*
X67100000Y-128087500D01*
X91770000Y-73425000D02*
X91787500Y-73407500D01*
%TO.N,/power selector/L_SOLAR_SELECT*%
X27400000Y-138075000D02*
X27450000Y-138025000D01*
X28600000Y-119775000D02*
X27512500Y-119775000D01*
X27512500Y-119775000D02*
X27262500Y-119525000D01*
X27400000Y-139675000D02*
X27400000Y-138075000D01*
%TO.N,/power selector/L_BATT_SELECT*%
X44200000Y-119550000D02*
X44525000Y-119225000D01*
X39400000Y-139675000D02*
X39400000Y-138125000D01*
X39400000Y-138125000D02*
X39450000Y-138075000D01*
X44200000Y-120775000D02*
X44200000Y-119550000D01*
D48*
%TO.N,+9VA*%
X88475000Y-99375000D02*
X87842500Y-98742500D01*
X85865063Y-98742500D02*
X85139063Y-99468500D01*
X36002100Y-110827100D02*
X36600000Y-111425000D01*
X103025000Y-80375000D02*
X102470000Y-79820000D01*
X33397900Y-110827100D02*
X32700000Y-111525000D01*
X71837500Y-91475000D02*
X69913513Y-93398987D01*
D47*
X122350000Y-70645000D02*
X117070000Y-70645000D01*
D48*
X86621348Y-91182500D02*
X85292500Y-91182500D01*
X86621348Y-98742500D02*
X85865063Y-98742500D01*
D47*
X117070000Y-70645000D02*
X117050000Y-70625000D01*
D48*
X95655000Y-64420000D02*
X95550000Y-64525000D01*
X70025000Y-100900000D02*
X70000000Y-100875000D01*
D50*
X77950000Y-72175000D02*
X77827513Y-72052513D01*
D48*
X88032500Y-91182500D02*
X86621348Y-91182500D01*
X87892500Y-106742500D02*
X86564044Y-106742500D01*
X69913513Y-93398987D02*
X69913513Y-95225000D01*
X34710347Y-110827100D02*
X33397900Y-110827100D01*
X85555000Y-84020000D02*
X85500000Y-84075000D01*
X103025000Y-78750000D02*
X102950000Y-78675000D01*
X81350000Y-65387500D02*
X80750000Y-64787500D01*
D50*
X97512500Y-71457500D02*
X96067500Y-71457500D01*
D48*
X86564044Y-106742500D02*
X85132500Y-106742500D01*
X55425000Y-102602500D02*
X54072500Y-102602500D01*
X88625000Y-91775000D02*
X88032500Y-91182500D01*
D46*
X98795000Y-64420000D02*
X99400000Y-65025000D01*
D48*
X97483848Y-64420000D02*
X95655000Y-64420000D01*
X87121348Y-84020000D02*
X85555000Y-84020000D01*
X70025000Y-102325000D02*
X69520000Y-101820000D01*
X34710347Y-110827100D02*
X36002100Y-110827100D01*
D50*
X79675000Y-72175000D02*
X77950000Y-72175000D01*
D48*
X78237500Y-64787500D02*
X77450000Y-65575000D01*
X79492696Y-64787500D02*
X78237500Y-64787500D01*
X56805953Y-102602500D02*
X55425000Y-102602500D01*
D50*
X96067500Y-71457500D02*
X96050000Y-71475000D01*
D48*
X69520000Y-101820000D02*
X68150000Y-101820000D01*
X85132500Y-106742500D02*
X85000000Y-106875000D01*
X87842500Y-98742500D02*
X86621348Y-98742500D01*
X103025000Y-80375000D02*
X103025000Y-78750000D01*
X70025000Y-102325000D02*
X70025000Y-100900000D01*
X88475000Y-107325000D02*
X87892500Y-106742500D01*
X80750000Y-64787500D02*
X79492696Y-64787500D01*
X85292500Y-91182500D02*
X85250000Y-91225000D01*
X114225000Y-112375000D02*
X114225000Y-111050000D01*
X102470000Y-79820000D02*
X101021348Y-79820000D01*
X54072500Y-102602500D02*
X54000000Y-102675000D01*
X114225000Y-111050000D02*
X114350000Y-110925000D01*
D46*
X97483848Y-64420000D02*
X98795000Y-64420000D01*
D48*
%TO.N,-9VA*%
X92041152Y-68230000D02*
X90420000Y-68230000D01*
X115910000Y-65565000D02*
X115800000Y-65675000D01*
X92096152Y-68175000D02*
X92041152Y-68230000D01*
X94350000Y-68175000D02*
X92096152Y-68175000D01*
X90420000Y-68230000D02*
X90125000Y-68525000D01*
X122350000Y-65565000D02*
X115910000Y-65565000D01*
%TD*%
M02*
