M48
; DRILL file {KiCad 9.0.7-9.0.7~ubuntu24.04.1} date 2026-01-30T18:17:56-0300
; FORMAT={-:-/ absolute / metric / decimal}
; #@! TF.CreationDate,2026-01-30T18:17:56-03:00
; #@! TF.GenerationSoftware,Kicad,Pcbnew,9.0.7-9.0.7~ubuntu24.04.1
; #@! TF.FileFunction,Plated,1,3,Blind
FMAT,2
METRIC
; #@! TA.AperFunction,Plated,Buried,ViaDrill
T1C0.300
; #@! TA.AperFunction,Plated,Buried,ViaDrill
T2C0.600
; #@! TA.AperFunction,Plated,Buried,ViaDrill
T3C1.500
%
G90
G05
T1
X96.05Y-71.475
T2
X28.55Y-89.075
X32.7Y-111.525
X49.25Y-88.275
X49.65Y-90.775
X54.0Y-102.675
X54.5Y-124.525
X58.5Y-109.225
X65.25Y-124.325
X67.7Y-91.675
X68.45Y-78.075
X69.914Y-95.225
X70.0Y-100.875
X76.55Y-125.775
X77.45Y-65.575
X77.8Y-72.025
X85.0Y-106.875
X85.139Y-99.468
X85.25Y-91.225
X85.5Y-84.075
X88.5Y-135.025
X90.2Y-118.475
X94.35Y-68.175
X95.55Y-64.525
X98.95Y-107.325
X100.6Y-126.075
X102.95Y-78.675
X106.3Y-118.375
X112.65Y-108.825
X114.35Y-110.925
X115.8Y-65.675
T3
X27.4Y-58.525
X31.45Y-58.775
X35.55Y-40.875
X37.75Y-43.525
X40.15Y-40.925
X49.25Y-58.575
X52.95Y-58.675
X56.7Y-58.625
X117.05Y-70.625
X117.45Y-75.725
M30
