<?xml version="1.0" standalone="no"?>
 <!DOCTYPE svg PUBLIC "-//W3C//DTD SVG 1.1//EN" 
 "http://www.w3.org/Graphics/SVG/1.1/DTD/svg11.dtd"> 
<svg
  xmlns:svg="http://www.w3.org/2000/svg"
  xmlns="http://www.w3.org/2000/svg"
  xmlns:xlink="http://www.w3.org/1999/xlink"
  version="1.1"
  width="148.0058mm" height="210.0072mm" viewBox="0.0000 0.0000 148.0058 210.0072">
<title>SVG Image created as Main board-front-in4-drl_map.svg date 2026/01/30 18:17:37 </title>
  <desc>Image generated by PCBNEW </desc>
<g style="fill:#000000; fill-opacity:1.0000;stroke:#000000; stroke-opacity:1.0000;
stroke-linecap:round; stroke-linejoin:round;"
 transform="translate(0 0) scale(1 1)">
<path style="fill:none; 
stroke:#000000; stroke-width:0.0524; stroke-opacity:1; 
stroke-linecap:round; stroke-linejoin:round;fill:none"
d="M 18.8256,5.0262
129.1802,5.0262
129.1802,120.9781
18.8256,120.9781
Z" /> 
</g>
<g style="fill:none; 
stroke:#000000; stroke-width:0.1047; stroke-opacity:1; 
stroke-linecap:round; stroke-linejoin:round;">
<path d="M42.6143 61.4310
L42.7190 61.5357
" />
<path d="M42.7190 61.4310
L42.6143 61.5357
" />
<path d="M95.1436 64.0496
L95.2483 64.1543
" />
<path d="M95.2483 64.0496
L95.1436 64.1543
" />
<path d="M117.7384 68.3217
L117.8432 68.4264
" />
<path d="M117.8432 68.3217
L117.7384 68.4264
" />
<path d="M122.5866 85.7840
L122.6913 85.8888
" />
<path d="M122.6913 85.7840
L122.5866 85.8888
" />
<path d="M123.7388 85.6793
L123.8435 85.7840
" />
<path d="M123.8435 85.6793
L123.7388 85.7840
" />
<circle cx="24.3364" cy="112.4938" r="0.2095" /> 
<circle cx="25.5410" cy="93.3780" r="0.2095" /> 
<circle cx="36.9057" cy="112.5462" r="0.2095" /> 
<circle cx="41.8811" cy="94.4255" r="0.2095" /> 
<circle cx="42.6667" cy="88.6121" r="0.2095" /> 
<circle cx="46.0185" cy="89.0311" r="0.2095" /> 
<circle cx="47.6420" cy="110.1895" r="0.2095" /> 
<circle cx="52.4603" cy="117.1026" r="0.2095" /> 
<circle cx="62.4110" cy="107.7280" r="0.2095" /> 
<circle cx="63.3537" cy="86.0459" r="0.2095" /> 
<circle cx="63.7334" cy="83.8463" r="0.2095" /> 
<circle cx="68.4338" cy="90.1833" r="0.2095" /> 
<circle cx="69.3765" cy="85.5746" r="0.2095" /> 
<circle cx="81.7887" cy="106.0521" r="0.2095" /> 
<circle cx="85.6642" cy="102.5431" r="0.2095" /> 
<circle cx="89.5398" cy="96.5727" r="0.2095" /> 
<circle cx="93.1011" cy="115.0077" r="0.2095" /> 
<circle cx="94.6199" cy="86.9362" r="0.2095" /> 
<circle cx="105.1990" cy="81.9085" r="0.2095" /> 
<circle cx="105.3038" cy="105.9997" r="0.2095" /> 
<circle cx="107.3463" cy="85.5222" r="0.2095" /> 
<circle cx="111.5884" cy="98.4057" r="0.2095" /> 
<circle cx="116.5638" cy="77.7187" r="0.2095" /> 
<circle cx="122.6913" cy="97.9344" r="0.2095" /> 
</g>
<g style="fill:none; 
stroke:#000000; stroke-width:0.2000; stroke-opacity:1; 
stroke-linecap:round; stroke-linejoin:round;">
<text x="20.7994" y="124.2043"
textLength="14.8667" font-size="2.6667" lengthAdjust="spacingAndGlyphs"
text-anchor="start" opacity="0" stroke-opacity="0">Drill Map:</text>
<g class="stroked-text"><desc>Drill Map:</desc>
<path d="M21.4071 124.1192
L21.4071 122.1192
" />
<path d="M21.4071 122.1192
L21.8833 122.1192
" />
<path d="M21.8833 122.1192
L22.1691 122.2144
" />
<path d="M22.1691 122.2144
L22.3595 122.4049
" />
<path d="M22.3595 122.4049
L22.4548 122.5953
" />
<path d="M22.4548 122.5953
L22.5500 122.9763
" />
<path d="M22.5500 122.9763
L22.5500 123.2620
" />
<path d="M22.5500 123.2620
L22.4548 123.6430
" />
<path d="M22.4548 123.6430
L22.3595 123.8334
" />
<path d="M22.3595 123.8334
L22.1691 124.0239
" />
<path d="M22.1691 124.0239
L21.8833 124.1192
" />
<path d="M21.8833 124.1192
L21.4071 124.1192
" />
<path d="M23.4071 124.1192
L23.4071 122.7858
" />
<path d="M23.4071 123.1668
L23.5024 122.9763
" />
<path d="M23.5024 122.9763
L23.5976 122.8811
" />
<path d="M23.5976 122.8811
L23.7881 122.7858
" />
<path d="M23.7881 122.7858
L23.9786 122.7858
" />
<path d="M24.6452 124.1192
L24.6452 122.7858
" />
<path d="M24.6452 122.1192
L24.5500 122.2144
" />
<path d="M24.5500 122.2144
L24.6452 122.3096
" />
<path d="M24.6452 122.3096
L24.7405 122.2144
" />
<path d="M24.7405 122.2144
L24.6452 122.1192
" />
<path d="M24.6452 122.1192
L24.6452 122.3096
" />
<path d="M25.8833 124.1192
L25.6929 124.0239
" />
<path d="M25.6929 124.0239
L25.5976 123.8334
" />
<path d="M25.5976 123.8334
L25.5976 122.1192
" />
<path d="M26.9310 124.1192
L26.7405 124.0239
" />
<path d="M26.7405 124.0239
L26.6452 123.8334
" />
<path d="M26.6452 123.8334
L26.6452 122.1192
" />
<path d="M29.2167 124.1192
L29.2167 122.1192
" />
<path d="M29.2167 122.1192
L29.8833 123.5477
" />
<path d="M29.8833 123.5477
L30.5500 122.1192
" />
<path d="M30.5500 122.1192
L30.5500 124.1192
" />
<path d="M32.3595 124.1192
L32.3595 123.0715
" />
<path d="M32.3595 123.0715
L32.2643 122.8811
" />
<path d="M32.2643 122.8811
L32.0738 122.7858
" />
<path d="M32.0738 122.7858
L31.6929 122.7858
" />
<path d="M31.6929 122.7858
L31.5024 122.8811
" />
<path d="M32.3595 124.0239
L32.1691 124.1192
" />
<path d="M32.1691 124.1192
L31.6929 124.1192
" />
<path d="M31.6929 124.1192
L31.5024 124.0239
" />
<path d="M31.5024 124.0239
L31.4071 123.8334
" />
<path d="M31.4071 123.8334
L31.4071 123.6430
" />
<path d="M31.4071 123.6430
L31.5024 123.4525
" />
<path d="M31.5024 123.4525
L31.6929 123.3573
" />
<path d="M31.6929 123.3573
L32.1691 123.3573
" />
<path d="M32.1691 123.3573
L32.3595 123.2620
" />
<path d="M33.3119 122.7858
L33.3119 124.7858
" />
<path d="M33.3119 122.8811
L33.5024 122.7858
" />
<path d="M33.5024 122.7858
L33.8833 122.7858
" />
<path d="M33.8833 122.7858
L34.0738 122.8811
" />
<path d="M34.0738 122.8811
L34.1691 122.9763
" />
<path d="M34.1691 122.9763
L34.2643 123.1668
" />
<path d="M34.2643 123.1668
L34.2643 123.7382
" />
<path d="M34.2643 123.7382
L34.1691 123.9287
" />
<path d="M34.1691 123.9287
L34.0738 124.0239
" />
<path d="M34.0738 124.0239
L33.8833 124.1192
" />
<path d="M33.8833 124.1192
L33.5024 124.1192
" />
<path d="M33.5024 124.1192
L33.3119 124.0239
" />
<path d="M35.1214 123.9287
L35.2167 124.0239
" />
<path d="M35.2167 124.0239
L35.1214 124.1192
" />
<path d="M35.1214 124.1192
L35.0262 124.0239
" />
<path d="M35.0262 124.0239
L35.1214 123.9287
" />
<path d="M35.1214 123.9287
L35.1214 124.1192
" />
<path d="M35.1214 122.8811
L35.2167 122.9763
" />
<path d="M35.2167 122.9763
L35.1214 123.0715
" />
<path d="M35.1214 123.0715
L35.0262 122.9763
" />
<path d="M35.0262 122.9763
L35.1214 122.8811
" />
<path d="M35.1214 122.8811
L35.1214 123.0715
" />
</g></g>
<g style="fill:none; 
stroke:#000000; stroke-width:0.1047; stroke-opacity:1; 
stroke-linecap:round; stroke-linejoin:round;">
<path d="M18.6946 127.3519
L18.7994 127.4567
" />
<path d="M18.7994 127.3519
L18.6946 127.4567
" />
</g>
<g style="fill:none; 
stroke:#000000; stroke-width:0.2000; stroke-opacity:1; 
stroke-linecap:round; stroke-linejoin:round;">
<text x="20.7994" y="128.4043"
textLength="46.8667" font-size="2.6667" lengthAdjust="spacingAndGlyphs"
text-anchor="start" opacity="0" stroke-opacity="0">0.100mm / 0.0039" (5 holes)</text>
<g class="stroked-text"><desc>0.100mm / 0.0039" (5 holes)</desc>
<path d="M21.7881 126.3192
L21.9786 126.3192
" />
<path d="M21.9786 126.3192
L22.1691 126.4144
" />
<path d="M22.1691 126.4144
L22.2643 126.5096
" />
<path d="M22.2643 126.5096
L22.3595 126.7001
" />
<path d="M22.3595 126.7001
L22.4548 127.0811
" />
<path d="M22.4548 127.0811
L22.4548 127.5573
" />
<path d="M22.4548 127.5573
L22.3595 127.9382
" />
<path d="M22.3595 127.9382
L22.2643 128.1287
" />
<path d="M22.2643 128.1287
L22.1691 128.2239
" />
<path d="M22.1691 128.2239
L21.9786 128.3192
" />
<path d="M21.9786 128.3192
L21.7881 128.3192
" />
<path d="M21.7881 128.3192
L21.5976 128.2239
" />
<path d="M21.5976 128.2239
L21.5024 128.1287
" />
<path d="M21.5024 128.1287
L21.4071 127.9382
" />
<path d="M21.4071 127.9382
L21.3119 127.5573
" />
<path d="M21.3119 127.5573
L21.3119 127.0811
" />
<path d="M21.3119 127.0811
L21.4071 126.7001
" />
<path d="M21.4071 126.7001
L21.5024 126.5096
" />
<path d="M21.5024 126.5096
L21.5976 126.4144
" />
<path d="M21.5976 126.4144
L21.7881 126.3192
" />
<path d="M23.3119 128.1287
L23.4071 128.2239
" />
<path d="M23.4071 128.2239
L23.3119 128.3192
" />
<path d="M23.3119 128.3192
L23.2167 128.2239
" />
<path d="M23.2167 128.2239
L23.3119 128.1287
" />
<path d="M23.3119 128.1287
L23.3119 128.3192
" />
<path d="M25.3119 128.3192
L24.1691 128.3192
" />
<path d="M24.7405 128.3192
L24.7405 126.3192
" />
<path d="M24.7405 126.3192
L24.5500 126.6049
" />
<path d="M24.5500 126.6049
L24.3595 126.7953
" />
<path d="M24.3595 126.7953
L24.1691 126.8906
" />
<path d="M26.5500 126.3192
L26.7405 126.3192
" />
<path d="M26.7405 126.3192
L26.9310 126.4144
" />
<path d="M26.9310 126.4144
L27.0262 126.5096
" />
<path d="M27.0262 126.5096
L27.1214 126.7001
" />
<path d="M27.1214 126.7001
L27.2167 127.0811
" />
<path d="M27.2167 127.0811
L27.2167 127.5573
" />
<path d="M27.2167 127.5573
L27.1214 127.9382
" />
<path d="M27.1214 127.9382
L27.0262 128.1287
" />
<path d="M27.0262 128.1287
L26.9310 128.2239
" />
<path d="M26.9310 128.2239
L26.7405 128.3192
" />
<path d="M26.7405 128.3192
L26.5500 128.3192
" />
<path d="M26.5500 128.3192
L26.3595 128.2239
" />
<path d="M26.3595 128.2239
L26.2643 128.1287
" />
<path d="M26.2643 128.1287
L26.1691 127.9382
" />
<path d="M26.1691 127.9382
L26.0738 127.5573
" />
<path d="M26.0738 127.5573
L26.0738 127.0811
" />
<path d="M26.0738 127.0811
L26.1691 126.7001
" />
<path d="M26.1691 126.7001
L26.2643 126.5096
" />
<path d="M26.2643 126.5096
L26.3595 126.4144
" />
<path d="M26.3595 126.4144
L26.5500 126.3192
" />
<path d="M28.4548 126.3192
L28.6452 126.3192
" />
<path d="M28.6452 126.3192
L28.8357 126.4144
" />
<path d="M28.8357 126.4144
L28.9310 126.5096
" />
<path d="M28.9310 126.5096
L29.0262 126.7001
" />
<path d="M29.0262 126.7001
L29.1214 127.0811
" />
<path d="M29.1214 127.0811
L29.1214 127.5573
" />
<path d="M29.1214 127.5573
L29.0262 127.9382
" />
<path d="M29.0262 127.9382
L28.9310 128.1287
" />
<path d="M28.9310 128.1287
L28.8357 128.2239
" />
<path d="M28.8357 128.2239
L28.6452 128.3192
" />
<path d="M28.6452 128.3192
L28.4548 128.3192
" />
<path d="M28.4548 128.3192
L28.2643 128.2239
" />
<path d="M28.2643 128.2239
L28.1691 128.1287
" />
<path d="M28.1691 128.1287
L28.0738 127.9382
" />
<path d="M28.0738 127.9382
L27.9786 127.5573
" />
<path d="M27.9786 127.5573
L27.9786 127.0811
" />
<path d="M27.9786 127.0811
L28.0738 126.7001
" />
<path d="M28.0738 126.7001
L28.1691 126.5096
" />
<path d="M28.1691 126.5096
L28.2643 126.4144
" />
<path d="M28.2643 126.4144
L28.4548 126.3192
" />
<path d="M29.9786 128.3192
L29.9786 126.9858
" />
<path d="M29.9786 127.1763
L30.0738 127.0811
" />
<path d="M30.0738 127.0811
L30.2643 126.9858
" />
<path d="M30.2643 126.9858
L30.5500 126.9858
" />
<path d="M30.5500 126.9858
L30.7405 127.0811
" />
<path d="M30.7405 127.0811
L30.8357 127.2715
" />
<path d="M30.8357 127.2715
L30.8357 128.3192
" />
<path d="M30.8357 127.2715
L30.9310 127.0811
" />
<path d="M30.9310 127.0811
L31.1214 126.9858
" />
<path d="M31.1214 126.9858
L31.4071 126.9858
" />
<path d="M31.4071 126.9858
L31.5976 127.0811
" />
<path d="M31.5976 127.0811
L31.6929 127.2715
" />
<path d="M31.6929 127.2715
L31.6929 128.3192
" />
<path d="M32.6452 128.3192
L32.6452 126.9858
" />
<path d="M32.6452 127.1763
L32.7405 127.0811
" />
<path d="M32.7405 127.0811
L32.9310 126.9858
" />
<path d="M32.9310 126.9858
L33.2167 126.9858
" />
<path d="M33.2167 126.9858
L33.4072 127.0811
" />
<path d="M33.4072 127.0811
L33.5024 127.2715
" />
<path d="M33.5024 127.2715
L33.5024 128.3192
" />
<path d="M33.5024 127.2715
L33.5976 127.0811
" />
<path d="M33.5976 127.0811
L33.7881 126.9858
" />
<path d="M33.7881 126.9858
L34.0738 126.9858
" />
<path d="M34.0738 126.9858
L34.2643 127.0811
" />
<path d="M34.2643 127.0811
L34.3595 127.2715
" />
<path d="M34.3595 127.2715
L34.3595 128.3192
" />
<path d="M38.2643 126.2239
L36.5500 128.7953
" />
<path d="M40.8357 126.3192
L41.0262 126.3192
" />
<path d="M41.0262 126.3192
L41.2167 126.4144
" />
<path d="M41.2167 126.4144
L41.3119 126.5096
" />
<path d="M41.3119 126.5096
L41.4072 126.7001
" />
<path d="M41.4072 126.7001
L41.5024 127.0811
" />
<path d="M41.5024 127.0811
L41.5024 127.5573
" />
<path d="M41.5024 127.5573
L41.4072 127.9382
" />
<path d="M41.4072 127.9382
L41.3119 128.1287
" />
<path d="M41.3119 128.1287
L41.2167 128.2239
" />
<path d="M41.2167 128.2239
L41.0262 128.3192
" />
<path d="M41.0262 128.3192
L40.8357 128.3192
" />
<path d="M40.8357 128.3192
L40.6452 128.2239
" />
<path d="M40.6452 128.2239
L40.5500 128.1287
" />
<path d="M40.5500 128.1287
L40.4548 127.9382
" />
<path d="M40.4548 127.9382
L40.3595 127.5573
" />
<path d="M40.3595 127.5573
L40.3595 127.0811
" />
<path d="M40.3595 127.0811
L40.4548 126.7001
" />
<path d="M40.4548 126.7001
L40.5500 126.5096
" />
<path d="M40.5500 126.5096
L40.6452 126.4144
" />
<path d="M40.6452 126.4144
L40.8357 126.3192
" />
<path d="M42.3595 128.1287
L42.4548 128.2239
" />
<path d="M42.4548 128.2239
L42.3595 128.3192
" />
<path d="M42.3595 128.3192
L42.2643 128.2239
" />
<path d="M42.2643 128.2239
L42.3595 128.1287
" />
<path d="M42.3595 128.1287
L42.3595 128.3192
" />
<path d="M43.6929 126.3192
L43.8833 126.3192
" />
<path d="M43.8833 126.3192
L44.0738 126.4144
" />
<path d="M44.0738 126.4144
L44.1691 126.5096
" />
<path d="M44.1691 126.5096
L44.2643 126.7001
" />
<path d="M44.2643 126.7001
L44.3595 127.0811
" />
<path d="M44.3595 127.0811
L44.3595 127.5573
" />
<path d="M44.3595 127.5573
L44.2643 127.9382
" />
<path d="M44.2643 127.9382
L44.1691 128.1287
" />
<path d="M44.1691 128.1287
L44.0738 128.2239
" />
<path d="M44.0738 128.2239
L43.8833 128.3192
" />
<path d="M43.8833 128.3192
L43.6929 128.3192
" />
<path d="M43.6929 128.3192
L43.5024 128.2239
" />
<path d="M43.5024 128.2239
L43.4072 128.1287
" />
<path d="M43.4072 128.1287
L43.3119 127.9382
" />
<path d="M43.3119 127.9382
L43.2167 127.5573
" />
<path d="M43.2167 127.5573
L43.2167 127.0811
" />
<path d="M43.2167 127.0811
L43.3119 126.7001
" />
<path d="M43.3119 126.7001
L43.4072 126.5096
" />
<path d="M43.4072 126.5096
L43.5024 126.4144
" />
<path d="M43.5024 126.4144
L43.6929 126.3192
" />
<path d="M45.5976 126.3192
L45.7881 126.3192
" />
<path d="M45.7881 126.3192
L45.9786 126.4144
" />
<path d="M45.9786 126.4144
L46.0738 126.5096
" />
<path d="M46.0738 126.5096
L46.1691 126.7001
" />
<path d="M46.1691 126.7001
L46.2643 127.0811
" />
<path d="M46.2643 127.0811
L46.2643 127.5573
" />
<path d="M46.2643 127.5573
L46.1691 127.9382
" />
<path d="M46.1691 127.9382
L46.0738 128.1287
" />
<path d="M46.0738 128.1287
L45.9786 128.2239
" />
<path d="M45.9786 128.2239
L45.7881 128.3192
" />
<path d="M45.7881 128.3192
L45.5976 128.3192
" />
<path d="M45.5976 128.3192
L45.4072 128.2239
" />
<path d="M45.4072 128.2239
L45.3119 128.1287
" />
<path d="M45.3119 128.1287
L45.2167 127.9382
" />
<path d="M45.2167 127.9382
L45.1214 127.5573
" />
<path d="M45.1214 127.5573
L45.1214 127.0811
" />
<path d="M45.1214 127.0811
L45.2167 126.7001
" />
<path d="M45.2167 126.7001
L45.3119 126.5096
" />
<path d="M45.3119 126.5096
L45.4072 126.4144
" />
<path d="M45.4072 126.4144
L45.5976 126.3192
" />
<path d="M46.9310 126.3192
L48.1691 126.3192
" />
<path d="M48.1691 126.3192
L47.5024 127.0811
" />
<path d="M47.5024 127.0811
L47.7881 127.0811
" />
<path d="M47.7881 127.0811
L47.9786 127.1763
" />
<path d="M47.9786 127.1763
L48.0738 127.2715
" />
<path d="M48.0738 127.2715
L48.1691 127.4620
" />
<path d="M48.1691 127.4620
L48.1691 127.9382
" />
<path d="M48.1691 127.9382
L48.0738 128.1287
" />
<path d="M48.0738 128.1287
L47.9786 128.2239
" />
<path d="M47.9786 128.2239
L47.7881 128.3192
" />
<path d="M47.7881 128.3192
L47.2167 128.3192
" />
<path d="M47.2167 128.3192
L47.0262 128.2239
" />
<path d="M47.0262 128.2239
L46.9310 128.1287
" />
<path d="M49.1214 128.3192
L49.5024 128.3192
" />
<path d="M49.5024 128.3192
L49.6929 128.2239
" />
<path d="M49.6929 128.2239
L49.7881 128.1287
" />
<path d="M49.7881 128.1287
L49.9786 127.8430
" />
<path d="M49.9786 127.8430
L50.0738 127.4620
" />
<path d="M50.0738 127.4620
L50.0738 126.7001
" />
<path d="M50.0738 126.7001
L49.9786 126.5096
" />
<path d="M49.9786 126.5096
L49.8833 126.4144
" />
<path d="M49.8833 126.4144
L49.6929 126.3192
" />
<path d="M49.6929 126.3192
L49.3119 126.3192
" />
<path d="M49.3119 126.3192
L49.1214 126.4144
" />
<path d="M49.1214 126.4144
L49.0262 126.5096
" />
<path d="M49.0262 126.5096
L48.9310 126.7001
" />
<path d="M48.9310 126.7001
L48.9310 127.1763
" />
<path d="M48.9310 127.1763
L49.0262 127.3668
" />
<path d="M49.0262 127.3668
L49.1214 127.4620
" />
<path d="M49.1214 127.4620
L49.3119 127.5573
" />
<path d="M49.3119 127.5573
L49.6929 127.5573
" />
<path d="M49.6929 127.5573
L49.8833 127.4620
" />
<path d="M49.8833 127.4620
L49.9786 127.3668
" />
<path d="M49.9786 127.3668
L50.0738 127.1763
" />
<path d="M50.8357 126.3192
L50.8357 126.7001
" />
<path d="M51.5976 126.3192
L51.5976 126.7001
" />
<path d="M54.5500 129.0811
L54.4548 128.9858
" />
<path d="M54.4548 128.9858
L54.2643 128.7001
" />
<path d="M54.2643 128.7001
L54.1691 128.5096
" />
<path d="M54.1691 128.5096
L54.0738 128.2239
" />
<path d="M54.0738 128.2239
L53.9786 127.7477
" />
<path d="M53.9786 127.7477
L53.9786 127.3668
" />
<path d="M53.9786 127.3668
L54.0738 126.8906
" />
<path d="M54.0738 126.8906
L54.1691 126.6049
" />
<path d="M54.1691 126.6049
L54.2643 126.4144
" />
<path d="M54.2643 126.4144
L54.4548 126.1287
" />
<path d="M54.4548 126.1287
L54.5500 126.0334
" />
<path d="M56.2643 126.3192
L55.3119 126.3192
" />
<path d="M55.3119 126.3192
L55.2167 127.2715
" />
<path d="M55.2167 127.2715
L55.3119 127.1763
" />
<path d="M55.3119 127.1763
L55.5024 127.0811
" />
<path d="M55.5024 127.0811
L55.9786 127.0811
" />
<path d="M55.9786 127.0811
L56.1691 127.1763
" />
<path d="M56.1691 127.1763
L56.2643 127.2715
" />
<path d="M56.2643 127.2715
L56.3595 127.4620
" />
<path d="M56.3595 127.4620
L56.3595 127.9382
" />
<path d="M56.3595 127.9382
L56.2643 128.1287
" />
<path d="M56.2643 128.1287
L56.1691 128.2239
" />
<path d="M56.1691 128.2239
L55.9786 128.3192
" />
<path d="M55.9786 128.3192
L55.5024 128.3192
" />
<path d="M55.5024 128.3192
L55.3119 128.2239
" />
<path d="M55.3119 128.2239
L55.2167 128.1287
" />
<path d="M58.7405 128.3192
L58.7405 126.3192
" />
<path d="M59.5976 128.3192
L59.5976 127.2715
" />
<path d="M59.5976 127.2715
L59.5024 127.0811
" />
<path d="M59.5024 127.0811
L59.3119 126.9858
" />
<path d="M59.3119 126.9858
L59.0262 126.9858
" />
<path d="M59.0262 126.9858
L58.8357 127.0811
" />
<path d="M58.8357 127.0811
L58.7405 127.1763
" />
<path d="M60.8357 128.3192
L60.6453 128.2239
" />
<path d="M60.6453 128.2239
L60.5500 128.1287
" />
<path d="M60.5500 128.1287
L60.4548 127.9382
" />
<path d="M60.4548 127.9382
L60.4548 127.3668
" />
<path d="M60.4548 127.3668
L60.5500 127.1763
" />
<path d="M60.5500 127.1763
L60.6453 127.0811
" />
<path d="M60.6453 127.0811
L60.8357 126.9858
" />
<path d="M60.8357 126.9858
L61.1214 126.9858
" />
<path d="M61.1214 126.9858
L61.3119 127.0811
" />
<path d="M61.3119 127.0811
L61.4072 127.1763
" />
<path d="M61.4072 127.1763
L61.5024 127.3668
" />
<path d="M61.5024 127.3668
L61.5024 127.9382
" />
<path d="M61.5024 127.9382
L61.4072 128.1287
" />
<path d="M61.4072 128.1287
L61.3119 128.2239
" />
<path d="M61.3119 128.2239
L61.1214 128.3192
" />
<path d="M61.1214 128.3192
L60.8357 128.3192
" />
<path d="M62.6453 128.3192
L62.4548 128.2239
" />
<path d="M62.4548 128.2239
L62.3595 128.0334
" />
<path d="M62.3595 128.0334
L62.3595 126.3192
" />
<path d="M64.1691 128.2239
L63.9786 128.3192
" />
<path d="M63.9786 128.3192
L63.5976 128.3192
" />
<path d="M63.5976 128.3192
L63.4072 128.2239
" />
<path d="M63.4072 128.2239
L63.3119 128.0334
" />
<path d="M63.3119 128.0334
L63.3119 127.2715
" />
<path d="M63.3119 127.2715
L63.4072 127.0811
" />
<path d="M63.4072 127.0811
L63.5976 126.9858
" />
<path d="M63.5976 126.9858
L63.9786 126.9858
" />
<path d="M63.9786 126.9858
L64.1691 127.0811
" />
<path d="M64.1691 127.0811
L64.2643 127.2715
" />
<path d="M64.2643 127.2715
L64.2643 127.4620
" />
<path d="M64.2643 127.4620
L63.3119 127.6525
" />
<path d="M65.0262 128.2239
L65.2167 128.3192
" />
<path d="M65.2167 128.3192
L65.5976 128.3192
" />
<path d="M65.5976 128.3192
L65.7881 128.2239
" />
<path d="M65.7881 128.2239
L65.8833 128.0334
" />
<path d="M65.8833 128.0334
L65.8833 127.9382
" />
<path d="M65.8833 127.9382
L65.7881 127.7477
" />
<path d="M65.7881 127.7477
L65.5976 127.6525
" />
<path d="M65.5976 127.6525
L65.3119 127.6525
" />
<path d="M65.3119 127.6525
L65.1214 127.5573
" />
<path d="M65.1214 127.5573
L65.0262 127.3668
" />
<path d="M65.0262 127.3668
L65.0262 127.2715
" />
<path d="M65.0262 127.2715
L65.1214 127.0811
" />
<path d="M65.1214 127.0811
L65.3119 126.9858
" />
<path d="M65.3119 126.9858
L65.5976 126.9858
" />
<path d="M65.5976 126.9858
L65.7881 127.0811
" />
<path d="M66.5500 129.0811
L66.6453 128.9858
" />
<path d="M66.6453 128.9858
L66.8357 128.7001
" />
<path d="M66.8357 128.7001
L66.9310 128.5096
" />
<path d="M66.9310 128.5096
L67.0262 128.2239
" />
<path d="M67.0262 128.2239
L67.1214 127.7477
" />
<path d="M67.1214 127.7477
L67.1214 127.3668
" />
<path d="M67.1214 127.3668
L67.0262 126.8906
" />
<path d="M67.0262 126.8906
L66.9310 126.6049
" />
<path d="M66.9310 126.6049
L66.8357 126.4144
" />
<path d="M66.8357 126.4144
L66.6453 126.1287
" />
<path d="M66.6453 126.1287
L66.5500 126.0334
" />
</g></g>
<g style="fill:none; 
stroke:#000000; stroke-width:0.1047; stroke-opacity:1; 
stroke-linecap:round; stroke-linejoin:round;">
<circle cx="18.5899" cy="130.0443" r="0.2095" /> 
</g>
<g style="fill:none; 
stroke:#000000; stroke-width:0.2000; stroke-opacity:1; 
stroke-linecap:round; stroke-linejoin:round;">
<text x="20.7994" y="131.0443"
textLength="48.7714" font-size="2.6667" lengthAdjust="spacingAndGlyphs"
text-anchor="start" opacity="0" stroke-opacity="0">0.400mm / 0.0157" (24 holes)</text>
<g class="stroked-text"><desc>0.400mm / 0.0157" (24 holes)</desc>
<path d="M21.7881 128.9592
L21.9786 128.9592
" />
<path d="M21.9786 128.9592
L22.1691 129.0544
" />
<path d="M22.1691 129.0544
L22.2643 129.1496
" />
<path d="M22.2643 129.1496
L22.3595 129.3401
" />
<path d="M22.3595 129.3401
L22.4548 129.7211
" />
<path d="M22.4548 129.7211
L22.4548 130.1973
" />
<path d="M22.4548 130.1973
L22.3595 130.5782
" />
<path d="M22.3595 130.5782
L22.2643 130.7687
" />
<path d="M22.2643 130.7687
L22.1691 130.8639
" />
<path d="M22.1691 130.8639
L21.9786 130.9592
" />
<path d="M21.9786 130.9592
L21.7881 130.9592
" />
<path d="M21.7881 130.9592
L21.5976 130.8639
" />
<path d="M21.5976 130.8639
L21.5024 130.7687
" />
<path d="M21.5024 130.7687
L21.4071 130.5782
" />
<path d="M21.4071 130.5782
L21.3119 130.1973
" />
<path d="M21.3119 130.1973
L21.3119 129.7211
" />
<path d="M21.3119 129.7211
L21.4071 129.3401
" />
<path d="M21.4071 129.3401
L21.5024 129.1496
" />
<path d="M21.5024 129.1496
L21.5976 129.0544
" />
<path d="M21.5976 129.0544
L21.7881 128.9592
" />
<path d="M23.3119 130.7687
L23.4071 130.8639
" />
<path d="M23.4071 130.8639
L23.3119 130.9592
" />
<path d="M23.3119 130.9592
L23.2167 130.8639
" />
<path d="M23.2167 130.8639
L23.3119 130.7687
" />
<path d="M23.3119 130.7687
L23.3119 130.9592
" />
<path d="M25.1214 129.6258
L25.1214 130.9592
" />
<path d="M24.6452 128.8639
L24.1691 130.2925
" />
<path d="M24.1691 130.2925
L25.4071 130.2925
" />
<path d="M26.5500 128.9592
L26.7405 128.9592
" />
<path d="M26.7405 128.9592
L26.9310 129.0544
" />
<path d="M26.9310 129.0544
L27.0262 129.1496
" />
<path d="M27.0262 129.1496
L27.1214 129.3401
" />
<path d="M27.1214 129.3401
L27.2167 129.7211
" />
<path d="M27.2167 129.7211
L27.2167 130.1973
" />
<path d="M27.2167 130.1973
L27.1214 130.5782
" />
<path d="M27.1214 130.5782
L27.0262 130.7687
" />
<path d="M27.0262 130.7687
L26.9310 130.8639
" />
<path d="M26.9310 130.8639
L26.7405 130.9592
" />
<path d="M26.7405 130.9592
L26.5500 130.9592
" />
<path d="M26.5500 130.9592
L26.3595 130.8639
" />
<path d="M26.3595 130.8639
L26.2643 130.7687
" />
<path d="M26.2643 130.7687
L26.1691 130.5782
" />
<path d="M26.1691 130.5782
L26.0738 130.1973
" />
<path d="M26.0738 130.1973
L26.0738 129.7211
" />
<path d="M26.0738 129.7211
L26.1691 129.3401
" />
<path d="M26.1691 129.3401
L26.2643 129.1496
" />
<path d="M26.2643 129.1496
L26.3595 129.0544
" />
<path d="M26.3595 129.0544
L26.5500 128.9592
" />
<path d="M28.4548 128.9592
L28.6452 128.9592
" />
<path d="M28.6452 128.9592
L28.8357 129.0544
" />
<path d="M28.8357 129.0544
L28.9310 129.1496
" />
<path d="M28.9310 129.1496
L29.0262 129.3401
" />
<path d="M29.0262 129.3401
L29.1214 129.7211
" />
<path d="M29.1214 129.7211
L29.1214 130.1973
" />
<path d="M29.1214 130.1973
L29.0262 130.5782
" />
<path d="M29.0262 130.5782
L28.9310 130.7687
" />
<path d="M28.9310 130.7687
L28.8357 130.8639
" />
<path d="M28.8357 130.8639
L28.6452 130.9592
" />
<path d="M28.6452 130.9592
L28.4548 130.9592
" />
<path d="M28.4548 130.9592
L28.2643 130.8639
" />
<path d="M28.2643 130.8639
L28.1691 130.7687
" />
<path d="M28.1691 130.7687
L28.0738 130.5782
" />
<path d="M28.0738 130.5782
L27.9786 130.1973
" />
<path d="M27.9786 130.1973
L27.9786 129.7211
" />
<path d="M27.9786 129.7211
L28.0738 129.3401
" />
<path d="M28.0738 129.3401
L28.1691 129.1496
" />
<path d="M28.1691 129.1496
L28.2643 129.0544
" />
<path d="M28.2643 129.0544
L28.4548 128.9592
" />
<path d="M29.9786 130.9592
L29.9786 129.6258
" />
<path d="M29.9786 129.8163
L30.0738 129.7211
" />
<path d="M30.0738 129.7211
L30.2643 129.6258
" />
<path d="M30.2643 129.6258
L30.5500 129.6258
" />
<path d="M30.5500 129.6258
L30.7405 129.7211
" />
<path d="M30.7405 129.7211
L30.8357 129.9115
" />
<path d="M30.8357 129.9115
L30.8357 130.9592
" />
<path d="M30.8357 129.9115
L30.9310 129.7211
" />
<path d="M30.9310 129.7211
L31.1214 129.6258
" />
<path d="M31.1214 129.6258
L31.4071 129.6258
" />
<path d="M31.4071 129.6258
L31.5976 129.7211
" />
<path d="M31.5976 129.7211
L31.6929 129.9115
" />
<path d="M31.6929 129.9115
L31.6929 130.9592
" />
<path d="M32.6452 130.9592
L32.6452 129.6258
" />
<path d="M32.6452 129.8163
L32.7405 129.7211
" />
<path d="M32.7405 129.7211
L32.9310 129.6258
" />
<path d="M32.9310 129.6258
L33.2167 129.6258
" />
<path d="M33.2167 129.6258
L33.4072 129.7211
" />
<path d="M33.4072 129.7211
L33.5024 129.9115
" />
<path d="M33.5024 129.9115
L33.5024 130.9592
" />
<path d="M33.5024 129.9115
L33.5976 129.7211
" />
<path d="M33.5976 129.7211
L33.7881 129.6258
" />
<path d="M33.7881 129.6258
L34.0738 129.6258
" />
<path d="M34.0738 129.6258
L34.2643 129.7211
" />
<path d="M34.2643 129.7211
L34.3595 129.9115
" />
<path d="M34.3595 129.9115
L34.3595 130.9592
" />
<path d="M38.2643 128.8639
L36.5500 131.4353
" />
<path d="M40.8357 128.9592
L41.0262 128.9592
" />
<path d="M41.0262 128.9592
L41.2167 129.0544
" />
<path d="M41.2167 129.0544
L41.3119 129.1496
" />
<path d="M41.3119 129.1496
L41.4072 129.3401
" />
<path d="M41.4072 129.3401
L41.5024 129.7211
" />
<path d="M41.5024 129.7211
L41.5024 130.1973
" />
<path d="M41.5024 130.1973
L41.4072 130.5782
" />
<path d="M41.4072 130.5782
L41.3119 130.7687
" />
<path d="M41.3119 130.7687
L41.2167 130.8639
" />
<path d="M41.2167 130.8639
L41.0262 130.9592
" />
<path d="M41.0262 130.9592
L40.8357 130.9592
" />
<path d="M40.8357 130.9592
L40.6452 130.8639
" />
<path d="M40.6452 130.8639
L40.5500 130.7687
" />
<path d="M40.5500 130.7687
L40.4548 130.5782
" />
<path d="M40.4548 130.5782
L40.3595 130.1973
" />
<path d="M40.3595 130.1973
L40.3595 129.7211
" />
<path d="M40.3595 129.7211
L40.4548 129.3401
" />
<path d="M40.4548 129.3401
L40.5500 129.1496
" />
<path d="M40.5500 129.1496
L40.6452 129.0544
" />
<path d="M40.6452 129.0544
L40.8357 128.9592
" />
<path d="M42.3595 130.7687
L42.4548 130.8639
" />
<path d="M42.4548 130.8639
L42.3595 130.9592
" />
<path d="M42.3595 130.9592
L42.2643 130.8639
" />
<path d="M42.2643 130.8639
L42.3595 130.7687
" />
<path d="M42.3595 130.7687
L42.3595 130.9592
" />
<path d="M43.6929 128.9592
L43.8833 128.9592
" />
<path d="M43.8833 128.9592
L44.0738 129.0544
" />
<path d="M44.0738 129.0544
L44.1691 129.1496
" />
<path d="M44.1691 129.1496
L44.2643 129.3401
" />
<path d="M44.2643 129.3401
L44.3595 129.7211
" />
<path d="M44.3595 129.7211
L44.3595 130.1973
" />
<path d="M44.3595 130.1973
L44.2643 130.5782
" />
<path d="M44.2643 130.5782
L44.1691 130.7687
" />
<path d="M44.1691 130.7687
L44.0738 130.8639
" />
<path d="M44.0738 130.8639
L43.8833 130.9592
" />
<path d="M43.8833 130.9592
L43.6929 130.9592
" />
<path d="M43.6929 130.9592
L43.5024 130.8639
" />
<path d="M43.5024 130.8639
L43.4072 130.7687
" />
<path d="M43.4072 130.7687
L43.3119 130.5782
" />
<path d="M43.3119 130.5782
L43.2167 130.1973
" />
<path d="M43.2167 130.1973
L43.2167 129.7211
" />
<path d="M43.2167 129.7211
L43.3119 129.3401
" />
<path d="M43.3119 129.3401
L43.4072 129.1496
" />
<path d="M43.4072 129.1496
L43.5024 129.0544
" />
<path d="M43.5024 129.0544
L43.6929 128.9592
" />
<path d="M46.2643 130.9592
L45.1214 130.9592
" />
<path d="M45.6929 130.9592
L45.6929 128.9592
" />
<path d="M45.6929 128.9592
L45.5024 129.2449
" />
<path d="M45.5024 129.2449
L45.3119 129.4353
" />
<path d="M45.3119 129.4353
L45.1214 129.5306
" />
<path d="M48.0738 128.9592
L47.1214 128.9592
" />
<path d="M47.1214 128.9592
L47.0262 129.9115
" />
<path d="M47.0262 129.9115
L47.1214 129.8163
" />
<path d="M47.1214 129.8163
L47.3119 129.7211
" />
<path d="M47.3119 129.7211
L47.7881 129.7211
" />
<path d="M47.7881 129.7211
L47.9786 129.8163
" />
<path d="M47.9786 129.8163
L48.0738 129.9115
" />
<path d="M48.0738 129.9115
L48.1691 130.1020
" />
<path d="M48.1691 130.1020
L48.1691 130.5782
" />
<path d="M48.1691 130.5782
L48.0738 130.7687
" />
<path d="M48.0738 130.7687
L47.9786 130.8639
" />
<path d="M47.9786 130.8639
L47.7881 130.9592
" />
<path d="M47.7881 130.9592
L47.3119 130.9592
" />
<path d="M47.3119 130.9592
L47.1214 130.8639
" />
<path d="M47.1214 130.8639
L47.0262 130.7687
" />
<path d="M48.8357 128.9592
L50.1691 128.9592
" />
<path d="M50.1691 128.9592
L49.3119 130.9592
" />
<path d="M50.8357 128.9592
L50.8357 129.3401
" />
<path d="M51.5976 128.9592
L51.5976 129.3401
" />
<path d="M54.5500 131.7211
L54.4548 131.6258
" />
<path d="M54.4548 131.6258
L54.2643 131.3401
" />
<path d="M54.2643 131.3401
L54.1691 131.1496
" />
<path d="M54.1691 131.1496
L54.0738 130.8639
" />
<path d="M54.0738 130.8639
L53.9786 130.3877
" />
<path d="M53.9786 130.3877
L53.9786 130.0068
" />
<path d="M53.9786 130.0068
L54.0738 129.5306
" />
<path d="M54.0738 129.5306
L54.1691 129.2449
" />
<path d="M54.1691 129.2449
L54.2643 129.0544
" />
<path d="M54.2643 129.0544
L54.4548 128.7687
" />
<path d="M54.4548 128.7687
L54.5500 128.6734
" />
<path d="M55.2167 129.1496
L55.3119 129.0544
" />
<path d="M55.3119 129.0544
L55.5024 128.9592
" />
<path d="M55.5024 128.9592
L55.9786 128.9592
" />
<path d="M55.9786 128.9592
L56.1691 129.0544
" />
<path d="M56.1691 129.0544
L56.2643 129.1496
" />
<path d="M56.2643 129.1496
L56.3595 129.3401
" />
<path d="M56.3595 129.3401
L56.3595 129.5306
" />
<path d="M56.3595 129.5306
L56.2643 129.8163
" />
<path d="M56.2643 129.8163
L55.1214 130.9592
" />
<path d="M55.1214 130.9592
L56.3595 130.9592
" />
<path d="M58.0738 129.6258
L58.0738 130.9592
" />
<path d="M57.5976 128.8639
L57.1214 130.2925
" />
<path d="M57.1214 130.2925
L58.3595 130.2925
" />
<path d="M60.6453 130.9592
L60.6453 128.9592
" />
<path d="M61.5024 130.9592
L61.5024 129.9115
" />
<path d="M61.5024 129.9115
L61.4072 129.7211
" />
<path d="M61.4072 129.7211
L61.2167 129.6258
" />
<path d="M61.2167 129.6258
L60.9310 129.6258
" />
<path d="M60.9310 129.6258
L60.7405 129.7211
" />
<path d="M60.7405 129.7211
L60.6453 129.8163
" />
<path d="M62.7405 130.9592
L62.5500 130.8639
" />
<path d="M62.5500 130.8639
L62.4548 130.7687
" />
<path d="M62.4548 130.7687
L62.3595 130.5782
" />
<path d="M62.3595 130.5782
L62.3595 130.0068
" />
<path d="M62.3595 130.0068
L62.4548 129.8163
" />
<path d="M62.4548 129.8163
L62.5500 129.7211
" />
<path d="M62.5500 129.7211
L62.7405 129.6258
" />
<path d="M62.7405 129.6258
L63.0262 129.6258
" />
<path d="M63.0262 129.6258
L63.2167 129.7211
" />
<path d="M63.2167 129.7211
L63.3119 129.8163
" />
<path d="M63.3119 129.8163
L63.4072 130.0068
" />
<path d="M63.4072 130.0068
L63.4072 130.5782
" />
<path d="M63.4072 130.5782
L63.3119 130.7687
" />
<path d="M63.3119 130.7687
L63.2167 130.8639
" />
<path d="M63.2167 130.8639
L63.0262 130.9592
" />
<path d="M63.0262 130.9592
L62.7405 130.9592
" />
<path d="M64.5500 130.9592
L64.3595 130.8639
" />
<path d="M64.3595 130.8639
L64.2643 130.6734
" />
<path d="M64.2643 130.6734
L64.2643 128.9592
" />
<path d="M66.0738 130.8639
L65.8833 130.9592
" />
<path d="M65.8833 130.9592
L65.5024 130.9592
" />
<path d="M65.5024 130.9592
L65.3119 130.8639
" />
<path d="M65.3119 130.8639
L65.2167 130.6734
" />
<path d="M65.2167 130.6734
L65.2167 129.9115
" />
<path d="M65.2167 129.9115
L65.3119 129.7211
" />
<path d="M65.3119 129.7211
L65.5024 129.6258
" />
<path d="M65.5024 129.6258
L65.8833 129.6258
" />
<path d="M65.8833 129.6258
L66.0738 129.7211
" />
<path d="M66.0738 129.7211
L66.1691 129.9115
" />
<path d="M66.1691 129.9115
L66.1691 130.1020
" />
<path d="M66.1691 130.1020
L65.2167 130.2925
" />
<path d="M66.9310 130.8639
L67.1214 130.9592
" />
<path d="M67.1214 130.9592
L67.5024 130.9592
" />
<path d="M67.5024 130.9592
L67.6929 130.8639
" />
<path d="M67.6929 130.8639
L67.7881 130.6734
" />
<path d="M67.7881 130.6734
L67.7881 130.5782
" />
<path d="M67.7881 130.5782
L67.6929 130.3877
" />
<path d="M67.6929 130.3877
L67.5024 130.2925
" />
<path d="M67.5024 130.2925
L67.2167 130.2925
" />
<path d="M67.2167 130.2925
L67.0262 130.1973
" />
<path d="M67.0262 130.1973
L66.9310 130.0068
" />
<path d="M66.9310 130.0068
L66.9310 129.9115
" />
<path d="M66.9310 129.9115
L67.0262 129.7211
" />
<path d="M67.0262 129.7211
L67.2167 129.6258
" />
<path d="M67.2167 129.6258
L67.5024 129.6258
" />
<path d="M67.5024 129.6258
L67.6929 129.7211
" />
<path d="M68.4548 131.7211
L68.5500 131.6258
" />
<path d="M68.5500 131.6258
L68.7405 131.3401
" />
<path d="M68.7405 131.3401
L68.8357 131.1496
" />
<path d="M68.8357 131.1496
L68.9310 130.8639
" />
<path d="M68.9310 130.8639
L69.0262 130.3877
" />
<path d="M69.0262 130.3877
L69.0262 130.0068
" />
<path d="M69.0262 130.0068
L68.9310 129.5306
" />
<path d="M68.9310 129.5306
L68.8357 129.2449
" />
<path d="M68.8357 129.2449
L68.7405 129.0544
" />
<path d="M68.7405 129.0544
L68.5500 128.7687
" />
<path d="M68.5500 128.7687
L68.4548 128.6734
" />
</g></g> 
</svg>
