M48
; DRILL file {KiCad 9.0.7-9.0.7~ubuntu24.04.1} date 2026-01-30T18:17:56-0300
; FORMAT={-:-/ absolute / metric / decimal}
; #@! TF.CreationDate,2026-01-30T18:17:56-03:00
; #@! TF.GenerationSoftware,Kicad,Pcbnew,9.0.7-9.0.7~ubuntu24.04.1
; #@! TF.FileFunction,Plated,1,6,PTH
FMAT,2
METRIC
; #@! TA.AperFunction,Plated,PTH,ViaDrill
T1C0.100
; #@! TA.AperFunction,Plated,PTH,ViaDrill
T2C0.300
; #@! TA.AperFunction,Plated,PTH,ViaDrill
T3C0.400
; #@! TA.AperFunction,Plated,PTH,ViaDrill
T4C0.600
; #@! TA.AperFunction,Plated,PTH,ComponentDrill
T5C1.100
; #@! TA.AperFunction,Plated,PTH,ComponentDrill
T6C1.300
; #@! TA.AperFunction,Plated,PTH,ViaDrill
T7C1.500
%
G90
G05
T1
X78.95Y-107.725
X80.85Y-107.275
T2
X44.85Y-121.975
T3
X29.066Y-107.209
X29.2Y-108.225
X36.2Y-108.625
X40.825Y-111.925
X42.3Y-117.675
X44.9Y-98.975
X44.9Y-101.425
X49.621Y-125.525
X53.5Y-101.575
X54.55Y-96.175
X56.4Y-111.125
X57.1Y-113.201
X58.15Y-127.275
X58.65Y-101.775
X59.456Y-100.975
X60.55Y-95.525
X60.9Y-91.525
X62.4Y-84.475
X62.45Y-82.475
X66.723Y-101.775
X67.1Y-124.725
X69.05Y-66.425
X69.7Y-105.575
X71.5Y-78.225
X71.7Y-70.325
X75.35Y-73.375
X75.95Y-96.175
X76.95Y-56.825
X79.7Y-96.175
X79.7Y-100.974
X80.2Y-70.225
X80.6Y-50.875
X81.239Y-83.58
X81.4Y-55.175
X82.399Y-104.175
X82.45Y-105.425
X82.75Y-50.925
X84.0Y-104.425
X84.051Y-112.125
X84.209Y-96.175
X85.15Y-104.175
X85.35Y-123.925
X88.55Y-102.575
X89.9Y-73.425
X91.35Y-79.125
X92.696Y-96.321
X92.7Y-106.526
X94.35Y-78.825
X95.7Y-97.975
X99.4Y-89.175
X99.4Y-123.925
X99.761Y-84.362
X100.649Y-87.36
X100.75Y-95.225
X100.8Y-97.275
X101.85Y-104.275
X101.85Y-109.475
X102.049Y-91.625
X102.049Y-96.65
X105.35Y-91.875
X106.142Y-88.425
X106.142Y-123.925
X106.2Y-131.376
X106.2Y-139.525
X107.2Y-55.175
X111.4Y-128.125
X111.4Y-129.875
X111.853Y-99.675
X111.95Y-55.175
X112.546Y-127.921
X112.6Y-106.575
X112.75Y-102.625
X113.3Y-129.725
X113.376Y-86.457
X113.85Y-90.475
X114.45Y-123.425
X114.798Y-94.527
X115.913Y-123.757
X116.048Y-116.9
X116.7Y-126.475
X117.45Y-131.225
X117.5Y-103.544
X119.5Y-123.425
T4
X56.35Y-130.177
X81.173Y-57.404
X107.845Y-63.125
X113.373Y-76.848
T5
X80.07Y-38.705
X82.61Y-38.705
X85.15Y-38.705
X87.69Y-38.705
X90.23Y-38.705
X92.77Y-38.705
X95.31Y-38.705
X97.85Y-38.705
X106.205Y-38.705
X108.745Y-38.705
X111.285Y-38.705
X113.825Y-38.705
X116.365Y-38.705
X118.905Y-38.705
X121.445Y-38.705
X123.985Y-38.705
X124.784Y-82.532
X124.784Y-85.072
X124.784Y-87.612
X124.784Y-90.152
T6
X27.35Y-60.985
X27.35Y-66.025
X27.35Y-86.325
X27.69Y-40.907
X32.77Y-40.907
X34.85Y-60.985
X34.85Y-66.025
X34.85Y-86.325
X37.85Y-40.907
X42.93Y-40.907
X48.01Y-40.907
X49.2Y-60.835
X49.2Y-65.875
X49.2Y-86.175
X56.7Y-60.835
X56.7Y-65.875
X56.7Y-86.175
X57.75Y-40.203
X62.75Y-40.203
X67.75Y-40.203
X72.75Y-40.203
X122.35Y-55.405
X122.35Y-60.485
X122.35Y-65.565
X122.35Y-70.645
X122.35Y-75.725
T7
X27.25Y-68.975
X31.45Y-68.825
X49.2Y-68.775
X52.85Y-68.575
X56.75Y-68.575
M30
