%TF.GenerationSoftware,KiCad,Pcbnew,9.0.7-9.0.7~ubuntu24.04.1*%
%TF.CreationDate,2026-01-30T18:11:10-03:00*%
%TF.ProjectId,Main board,4d61696e-2062-46f6-9172-642e6b696361,1*%
%TF.SameCoordinates,Original*%
%TF.FileFunction,Soldermask,Top*%
%TF.FilePolarity,Negative*%
%FSLAX46Y46*%
G04 Gerber Fmt 4.6, Leading zero omitted, Abs format (unit mm)*
G04 Created by KiCad (PCBNEW 9.0.7-9.0.7~ubuntu24.04.1) date 2026-01-30 18:11:10*
%MOMM*%
%LPD*%
G01*
G04 APERTURE LIST*
G04 Aperture macros list*
%AMRoundRect*
0 Rectangle with rounded corners*
0 $1 Rounding radius*
0 $2 $3 $4 $5 $6 $7 $8 $9 X,Y pos of 4 corners*
0 Add a 4 corners polygon primitive as box body*
4,1,4,$2,$3,$4,$5,$6,$7,$8,$9,$2,$3,0*
0 Add four circle primitives for the rounded corners*
1,1,$1+$1,$2,$3*
1,1,$1+$1,$4,$5*
1,1,$1+$1,$6,$7*
1,1,$1+$1,$8,$9*
0 Add four rect primitives between the rounded corners*
20,1,$1+$1,$2,$3,$4,$5,0*
20,1,$1+$1,$4,$5,$6,$7,0*
20,1,$1+$1,$6,$7,$8,$9,0*
20,1,$1+$1,$8,$9,$2,$3,0*%
G04 Aperture macros list end*
%ADD10RoundRect,0.250000X-0.312500X-0.625000X0.312500X-0.625000X0.312500X0.625000X-0.312500X0.625000X0*%
%ADD11RoundRect,0.250000X0.625000X-0.312500X0.625000X0.312500X-0.625000X0.312500X-0.625000X-0.312500X0*%
%ADD12RoundRect,0.250000X-0.325000X-0.650000X0.325000X-0.650000X0.325000X0.650000X-0.325000X0.650000X0*%
%ADD13RoundRect,0.250000X-0.375000X-0.625000X0.375000X-0.625000X0.375000X0.625000X-0.375000X0.625000X0*%
%ADD14RoundRect,0.250000X0.312500X0.625000X-0.312500X0.625000X-0.312500X-0.625000X0.312500X-0.625000X0*%
%ADD15O,3.000000X2.000000*%
%ADD16R,2.000000X3.000000*%
%ADD17O,2.000000X3.000000*%
%ADD18RoundRect,0.125000X-0.487500X-0.125000X0.487500X-0.125000X0.487500X0.125000X-0.487500X0.125000X0*%
%ADD19RoundRect,0.249999X0.850001X0.850001X-0.850001X0.850001X-0.850001X-0.850001X0.850001X-0.850001X0*%
%ADD20C,2.200000*%
%ADD21RoundRect,0.250000X-0.400000X-0.400000X0.400000X-0.400000X0.400000X0.400000X-0.400000X0.400000X0*%
%ADD22RoundRect,0.250000X-0.750000X-0.400000X0.750000X-0.400000X0.750000X0.400000X-0.750000X0.400000X0*%
%ADD23RoundRect,0.250000X0.625000X-0.375000X0.625000X0.375000X-0.625000X0.375000X-0.625000X-0.375000X0*%
%ADD24RoundRect,0.125000X0.487500X0.125000X-0.487500X0.125000X-0.487500X-0.125000X0.487500X-0.125000X0*%
%ADD25RoundRect,0.250000X0.325000X0.650000X-0.325000X0.650000X-0.325000X-0.650000X0.325000X-0.650000X0*%
%ADD26R,1.454899X0.558000*%
%ADD27R,2.000000X0.900000*%
%ADD28RoundRect,0.150000X-0.825000X-0.150000X0.825000X-0.150000X0.825000X0.150000X-0.825000X0.150000X0*%
%ADD29RoundRect,0.250001X0.462499X0.624999X-0.462499X0.624999X-0.462499X-0.624999X0.462499X-0.624999X0*%
%ADD30R,0.406400X0.152400*%
%ADD31RoundRect,0.250001X-0.462499X-0.624999X0.462499X-0.624999X0.462499X0.624999X-0.462499X0.624999X0*%
%ADD32RoundRect,0.100000X-0.637500X-0.100000X0.637500X-0.100000X0.637500X0.100000X-0.637500X0.100000X0*%
%ADD33RoundRect,0.125000X0.125000X-0.487500X0.125000X0.487500X-0.125000X0.487500X-0.125000X-0.487500X0*%
%ADD34RoundRect,0.249999X0.850001X-0.850001X0.850001X0.850001X-0.850001X0.850001X-0.850001X-0.850001X0*%
%ADD35RoundRect,0.250000X-0.650000X0.325000X-0.650000X-0.325000X0.650000X-0.325000X0.650000X0.325000X0*%
%ADD36R,0.152400X0.406400*%
%ADD37RoundRect,0.250000X1.050000X1.050000X-1.050000X1.050000X-1.050000X-1.050000X1.050000X-1.050000X0*%
%ADD38C,2.600000*%
%ADD39RoundRect,0.250000X1.050000X-1.050000X1.050000X1.050000X-1.050000X1.050000X-1.050000X-1.050000X0*%
%ADD40RoundRect,0.250000X-0.625000X0.312500X-0.625000X-0.312500X0.625000X-0.312500X0.625000X0.312500X0*%
G04 APERTURE END LIST*
D10*
%TO.C,R805*%
X40262500Y-107812500D03*
X43187500Y-107812500D03*
%TD*%
D11*
%TO.C,R702*%
X40705178Y-79913923D03*
X40705178Y-76988923D03*
%TD*%
D12*
%TO.C,C201*%
X111275000Y-112375000D03*
X114225000Y-112375000D03*
%TD*%
D13*
%TO.C,D603*%
X57462500Y-142375000D03*
X60262500Y-142375000D03*
%TD*%
D14*
%TO.C,R514*%
X97612500Y-107325000D03*
X94687500Y-107325000D03*
%TD*%
D15*
%TO.C,K701*%
X56700000Y-65875000D03*
X56700000Y-60835000D03*
X49200000Y-65875000D03*
X49200000Y-60835000D03*
D16*
X56700000Y-86175000D03*
D17*
X49200000Y-86175000D03*
%TD*%
D14*
%TO.C,R807*%
X55250000Y-113775000D03*
X52325000Y-113775000D03*
%TD*%
D12*
%TO.C,C601*%
X72025000Y-110775000D03*
X74975000Y-110775000D03*
%TD*%
D10*
%TO.C,R610*%
X63137500Y-79875000D03*
X66062500Y-79875000D03*
%TD*%
D18*
%TO.C,Q601*%
X63375000Y-83475000D03*
X63375000Y-84775000D03*
X65250000Y-84125000D03*
%TD*%
D10*
%TO.C,R615*%
X105987500Y-90375000D03*
X108912500Y-90375000D03*
%TD*%
D19*
%TO.C,J108*%
X97850000Y-38705000D03*
D20*
X95310000Y-38705000D03*
X92770000Y-38705000D03*
X90230000Y-38705000D03*
X87690000Y-38705000D03*
X85150000Y-38705000D03*
X82610000Y-38705000D03*
X80070000Y-38705000D03*
%TD*%
D11*
%TO.C,R209*%
X90500000Y-88087500D03*
X90500000Y-85162500D03*
%TD*%
D10*
%TO.C,R507*%
X100137500Y-107325000D03*
X103062500Y-107325000D03*
%TD*%
%TO.C,R404*%
X89887500Y-102675000D03*
X92812500Y-102675000D03*
%TD*%
D13*
%TO.C,D502*%
X52262500Y-135875000D03*
X55062500Y-135875000D03*
%TD*%
D10*
%TO.C,R515*%
X47487500Y-113775000D03*
X50412500Y-113775000D03*
%TD*%
D21*
%TO.C,RV404*%
X100550000Y-127675000D03*
D22*
X99400000Y-133175000D03*
D21*
X98250000Y-127675000D03*
%TD*%
D23*
%TO.C,D402*%
X91050000Y-123225000D03*
X91050000Y-120425000D03*
%TD*%
D10*
%TO.C,R705*%
X24337500Y-119525000D03*
X27262500Y-119525000D03*
%TD*%
D21*
%TO.C,RV702*%
X41950000Y-128325000D03*
D22*
X40800000Y-133825000D03*
D21*
X39650000Y-128325000D03*
%TD*%
D24*
%TO.C,Q501*%
X105737500Y-101552500D03*
X105737500Y-100252500D03*
X103862500Y-100902500D03*
%TD*%
D14*
%TO.C,R502*%
X84712500Y-68725000D03*
X81787500Y-68725000D03*
%TD*%
D12*
%TO.C,C701*%
X81350000Y-65387500D03*
X84300000Y-65387500D03*
%TD*%
D10*
%TO.C,R503*%
X87187500Y-64925000D03*
X90112500Y-64925000D03*
%TD*%
D21*
%TO.C,RV202*%
X123895000Y-134125000D03*
D22*
X122745000Y-139625000D03*
D21*
X121595000Y-134125000D03*
%TD*%
D25*
%TO.C,C801*%
X27375000Y-112075000D03*
X24425000Y-112075000D03*
%TD*%
D10*
%TO.C,R406*%
X66937500Y-110775000D03*
X69862500Y-110775000D03*
%TD*%
%TO.C,R205*%
X76846348Y-83580000D03*
X79771348Y-83580000D03*
%TD*%
D26*
%TO.C,U402*%
X81178652Y-98742500D03*
X81178652Y-100012500D03*
X81178652Y-101282500D03*
X81178652Y-102552500D03*
X86621348Y-102552500D03*
X86621348Y-101282500D03*
X86621348Y-100012500D03*
X86621348Y-98742500D03*
%TD*%
D10*
%TO.C,R607*%
X76137500Y-79475000D03*
X79062500Y-79475000D03*
%TD*%
%TO.C,R402*%
X93837500Y-93575000D03*
X96762500Y-93575000D03*
%TD*%
D25*
%TO.C,C401*%
X91575000Y-91775000D03*
X88625000Y-91775000D03*
%TD*%
D10*
%TO.C,R601*%
X64300000Y-99725000D03*
X67225000Y-99725000D03*
%TD*%
D26*
%TO.C,U801*%
X29267651Y-110827100D03*
X29267651Y-112097100D03*
X29267651Y-113367100D03*
X29267651Y-114637100D03*
X34710347Y-114637100D03*
X34710347Y-113367100D03*
X34710347Y-112097100D03*
X34710347Y-110827100D03*
%TD*%
D25*
%TO.C,C803*%
X33575000Y-116875000D03*
X30625000Y-116875000D03*
%TD*%
D13*
%TO.C,D201*%
X110745000Y-126125000D03*
X113545000Y-126125000D03*
%TD*%
D11*
%TO.C,R405*%
X78250000Y-109737500D03*
X78250000Y-106812500D03*
%TD*%
D26*
%TO.C,U401*%
X81178652Y-91182500D03*
X81178652Y-92452500D03*
X81178652Y-93722500D03*
X81178652Y-94992500D03*
X86621348Y-94992500D03*
X86621348Y-93722500D03*
X86621348Y-92452500D03*
X86621348Y-91182500D03*
%TD*%
D12*
%TO.C,C603*%
X71425000Y-95625000D03*
X74375000Y-95625000D03*
%TD*%
D14*
%TO.C,R511*%
X101562500Y-88725000D03*
X98637500Y-88725000D03*
%TD*%
D27*
%TO.C,J102*%
X125950000Y-116075000D03*
X122750000Y-114075000D03*
X125950000Y-112075000D03*
X122750000Y-110075000D03*
X125950000Y-108075000D03*
X122750000Y-106075000D03*
X125950000Y-104075000D03*
X122750000Y-102075000D03*
X125950000Y-100075000D03*
X122750000Y-98075000D03*
X125950000Y-96075000D03*
X122750000Y-94075000D03*
%TD*%
D25*
%TO.C,C502*%
X90125000Y-68525000D03*
X87175000Y-68525000D03*
%TD*%
D12*
%TO.C,C503*%
X104175000Y-72575000D03*
X107125000Y-72575000D03*
%TD*%
D23*
%TO.C,D404*%
X91050000Y-140575000D03*
X91050000Y-137775000D03*
%TD*%
D13*
%TO.C,D202*%
X121395000Y-126125000D03*
X124195000Y-126125000D03*
%TD*%
D10*
%TO.C,R602*%
X57337500Y-99425000D03*
X60262500Y-99425000D03*
%TD*%
%TO.C,R611*%
X42025000Y-115225000D03*
X44950000Y-115225000D03*
%TD*%
D13*
%TO.C,D704*%
X39400000Y-139675000D03*
X42200000Y-139675000D03*
%TD*%
D10*
%TO.C,R510*%
X99287500Y-93575000D03*
X102212500Y-93575000D03*
%TD*%
D28*
%TO.C,U602*%
X62750000Y-92875000D03*
X62750000Y-94145000D03*
X62750000Y-95415000D03*
X62750000Y-96685000D03*
X67700000Y-96685000D03*
X67700000Y-95415000D03*
X67700000Y-94145000D03*
X67700000Y-92875000D03*
%TD*%
D25*
%TO.C,C810*%
X60389653Y-103236200D03*
X57439653Y-103236200D03*
%TD*%
D14*
%TO.C,R408*%
X108812500Y-109375000D03*
X105887500Y-109375000D03*
%TD*%
D12*
%TO.C,C606*%
X106025000Y-82775000D03*
X108975000Y-82775000D03*
%TD*%
D29*
%TO.C,D501*%
X107487500Y-65125000D03*
X104512500Y-65125000D03*
%TD*%
D25*
%TO.C,C605*%
X105975000Y-80375000D03*
X103025000Y-80375000D03*
%TD*%
D10*
%TO.C,R207*%
X111287500Y-108775000D03*
X114212500Y-108775000D03*
%TD*%
D19*
%TO.C,J101*%
X123985000Y-38705000D03*
D20*
X121445000Y-38705000D03*
X118905000Y-38705000D03*
X116365000Y-38705000D03*
X113825000Y-38705000D03*
X111285000Y-38705000D03*
X108745000Y-38705000D03*
X106205000Y-38705000D03*
%TD*%
D12*
%TO.C,C806*%
X45075000Y-107825000D03*
X48025000Y-107825000D03*
%TD*%
D14*
%TO.C,R801*%
X27562500Y-104575000D03*
X24637500Y-104575000D03*
%TD*%
D21*
%TO.C,RV201*%
X113250000Y-134125000D03*
D22*
X112100000Y-139625000D03*
D21*
X110950000Y-134125000D03*
%TD*%
D10*
%TO.C,R508*%
X106137500Y-96375000D03*
X109062500Y-96375000D03*
%TD*%
D26*
%TO.C,U605*%
X95578652Y-79820000D03*
X95578652Y-81090000D03*
X95578652Y-82360000D03*
X95578652Y-83630000D03*
X101021348Y-83630000D03*
X101021348Y-82360000D03*
X101021348Y-81090000D03*
X101021348Y-79820000D03*
%TD*%
D30*
%TO.C,Q701*%
X60912500Y-84183000D03*
X60912500Y-83675000D03*
X60912500Y-83167000D03*
%TD*%
D18*
%TO.C,Q502*%
X110162500Y-100325000D03*
X110162500Y-101625000D03*
X112037500Y-100975000D03*
%TD*%
D31*
%TO.C,D601*%
X89512500Y-80375000D03*
X92487500Y-80375000D03*
%TD*%
%TO.C,D702*%
X29467678Y-91701423D03*
X32442678Y-91701423D03*
%TD*%
D10*
%TO.C,R516*%
X66537500Y-114775000D03*
X69462500Y-114775000D03*
%TD*%
D32*
%TO.C,U603*%
X73950000Y-72175000D03*
X73950000Y-72825000D03*
X73950000Y-73475000D03*
X73950000Y-74125000D03*
X73950000Y-74775000D03*
X73950000Y-75425000D03*
X73950000Y-76075000D03*
X79675000Y-76075000D03*
X79675000Y-75425000D03*
X79675000Y-74775000D03*
X79675000Y-74125000D03*
X79675000Y-73475000D03*
X79675000Y-72825000D03*
X79675000Y-72175000D03*
%TD*%
D14*
%TO.C,R605*%
X61012500Y-107625000D03*
X58087500Y-107625000D03*
%TD*%
D11*
%TO.C,R703*%
X71250000Y-67937500D03*
X71250000Y-65012500D03*
%TD*%
D25*
%TO.C,C809*%
X39550000Y-111425000D03*
X36600000Y-111425000D03*
%TD*%
D33*
%TO.C,Q703*%
X40300000Y-84762500D03*
X41600000Y-84762500D03*
X40950000Y-82887500D03*
%TD*%
D10*
%TO.C,R409*%
X62137500Y-110675000D03*
X65062500Y-110675000D03*
%TD*%
D25*
%TO.C,C602*%
X74375000Y-99225000D03*
X71425000Y-99225000D03*
%TD*%
D10*
%TO.C,R504*%
X100375000Y-68825000D03*
X103300000Y-68825000D03*
%TD*%
%TO.C,R603*%
X72037500Y-106375000D03*
X74962500Y-106375000D03*
%TD*%
D26*
%TO.C,U502*%
X92041152Y-64420000D03*
X92041152Y-65690000D03*
X92041152Y-66960000D03*
X92041152Y-68230000D03*
X97483848Y-68230000D03*
X97483848Y-66960000D03*
X97483848Y-65690000D03*
X97483848Y-64420000D03*
%TD*%
D34*
%TO.C,J109*%
X124783711Y-90151799D03*
D20*
X124783711Y-87611799D03*
X124783711Y-85071799D03*
X124783711Y-82531799D03*
%TD*%
D13*
%TO.C,D503*%
X62362500Y-135775000D03*
X65162500Y-135775000D03*
%TD*%
D10*
%TO.C,R606*%
X56437500Y-95625000D03*
X59362500Y-95625000D03*
%TD*%
D31*
%TO.C,D701*%
X51725000Y-90375000D03*
X54700000Y-90375000D03*
%TD*%
D26*
%TO.C,U403*%
X81121348Y-106742500D03*
X81121348Y-108012500D03*
X81121348Y-109282500D03*
X81121348Y-110552500D03*
X86564044Y-110552500D03*
X86564044Y-109282500D03*
X86564044Y-108012500D03*
X86564044Y-106742500D03*
%TD*%
D13*
%TO.C,D703*%
X27400000Y-139675000D03*
X30200000Y-139675000D03*
%TD*%
D14*
%TO.C,R804*%
X39487500Y-119225000D03*
X36562500Y-119225000D03*
%TD*%
D25*
%TO.C,C403*%
X91425000Y-107325000D03*
X88475000Y-107325000D03*
%TD*%
D29*
%TO.C,D602*%
X84700000Y-72875000D03*
X81725000Y-72875000D03*
%TD*%
D15*
%TO.C,K702*%
X34850000Y-66025000D03*
X34850000Y-60985000D03*
X27350000Y-66025000D03*
X27350000Y-60985000D03*
D16*
X34850000Y-86325000D03*
D17*
X27350000Y-86325000D03*
%TD*%
D12*
%TO.C,C808*%
X52450000Y-109912500D03*
X55400000Y-109912500D03*
%TD*%
D25*
%TO.C,C805*%
X48000000Y-104012500D03*
X45050000Y-104012500D03*
%TD*%
D10*
%TO.C,R407*%
X91987500Y-111825000D03*
X94912500Y-111825000D03*
%TD*%
%TO.C,R410*%
X61737500Y-114775000D03*
X64662500Y-114775000D03*
%TD*%
D25*
%TO.C,C804*%
X39575000Y-115275000D03*
X36625000Y-115275000D03*
%TD*%
D35*
%TO.C,C504*%
X101050000Y-72250000D03*
X101050000Y-75200000D03*
%TD*%
D21*
%TO.C,RV401*%
X88450000Y-118925000D03*
D22*
X87300000Y-124425000D03*
D21*
X86150000Y-118925000D03*
%TD*%
D10*
%TO.C,R204*%
X76846348Y-87280000D03*
X79771348Y-87280000D03*
%TD*%
D21*
%TO.C,RV701*%
X30200000Y-128375000D03*
D22*
X29050000Y-133875000D03*
D21*
X27900000Y-128375000D03*
%TD*%
D23*
%TO.C,D403*%
X103050000Y-131825000D03*
X103050000Y-129025000D03*
%TD*%
D10*
%TO.C,R206*%
X111287500Y-104925000D03*
X114212500Y-104925000D03*
%TD*%
D13*
%TO.C,D401*%
X86150000Y-131425000D03*
X88950000Y-131425000D03*
%TD*%
D10*
%TO.C,R509*%
X93937500Y-98075000D03*
X96862500Y-98075000D03*
%TD*%
%TO.C,R617*%
X106037500Y-87075000D03*
X108962500Y-87075000D03*
%TD*%
D32*
%TO.C,U501*%
X91787500Y-71457500D03*
X91787500Y-72107500D03*
X91787500Y-72757500D03*
X91787500Y-73407500D03*
X91787500Y-74057500D03*
X91787500Y-74707500D03*
X91787500Y-75357500D03*
X97512500Y-75357500D03*
X97512500Y-74707500D03*
X97512500Y-74057500D03*
X97512500Y-73407500D03*
X97512500Y-72757500D03*
X97512500Y-72107500D03*
X97512500Y-71457500D03*
%TD*%
D25*
%TO.C,C402*%
X91425000Y-99375000D03*
X88475000Y-99375000D03*
%TD*%
D10*
%TO.C,R513*%
X96437500Y-102525000D03*
X99362500Y-102525000D03*
%TD*%
D23*
%TO.C,D405*%
X79050000Y-131825000D03*
X79050000Y-129025000D03*
%TD*%
D26*
%TO.C,U802*%
X49982304Y-102602500D03*
X49982304Y-103872500D03*
X49982304Y-105142500D03*
X49982304Y-106412500D03*
X55425000Y-106412500D03*
X55425000Y-105142500D03*
X55425000Y-103872500D03*
X55425000Y-102602500D03*
%TD*%
D12*
%TO.C,C807*%
X57075000Y-114775000D03*
X60025000Y-114775000D03*
%TD*%
D26*
%TO.C,U601*%
X62707304Y-101820000D03*
X62707304Y-103090000D03*
X62707304Y-104360000D03*
X62707304Y-105630000D03*
X68150000Y-105630000D03*
X68150000Y-104360000D03*
X68150000Y-103090000D03*
X68150000Y-101820000D03*
%TD*%
D14*
%TO.C,R608*%
X86012500Y-79725000D03*
X83087500Y-79725000D03*
%TD*%
D21*
%TO.C,RV501*%
X54462500Y-125875000D03*
D22*
X53312500Y-131375000D03*
D21*
X52162500Y-125875000D03*
%TD*%
D26*
%TO.C,U201*%
X81678652Y-84020000D03*
X81678652Y-85290000D03*
X81678652Y-86560000D03*
X81678652Y-87830000D03*
X87121348Y-87830000D03*
X87121348Y-86560000D03*
X87121348Y-85290000D03*
X87121348Y-84020000D03*
%TD*%
D12*
%TO.C,C802*%
X24425000Y-115875000D03*
X27375000Y-115875000D03*
%TD*%
D36*
%TO.C,Q702*%
X41108000Y-86675000D03*
X40600000Y-86675000D03*
X40092000Y-86675000D03*
%TD*%
D14*
%TO.C,R701*%
X71675000Y-72175000D03*
X68750000Y-72175000D03*
%TD*%
%TO.C,R201*%
X110912500Y-118375000D03*
X107987500Y-118375000D03*
%TD*%
D10*
%TO.C,R803*%
X41825000Y-111575000D03*
X44750000Y-111575000D03*
%TD*%
D37*
%TO.C,J110*%
X72750000Y-40202500D03*
D38*
X67750000Y-40202500D03*
X62750000Y-40202500D03*
X57750000Y-40202500D03*
%TD*%
D10*
%TO.C,R616*%
X111537500Y-96425000D03*
X114462500Y-96425000D03*
%TD*%
D12*
%TO.C,C501*%
X99400000Y-65025000D03*
X102350000Y-65025000D03*
%TD*%
D26*
%TO.C,U701*%
X74050000Y-64787500D03*
X74050000Y-66057500D03*
X74050000Y-67327500D03*
X74050000Y-68597500D03*
X79492696Y-68597500D03*
X79492696Y-67327500D03*
X79492696Y-66057500D03*
X79492696Y-64787500D03*
%TD*%
D10*
%TO.C,R706*%
X41600000Y-119225000D03*
X44525000Y-119225000D03*
%TD*%
%TO.C,R609*%
X68487500Y-76275000D03*
X71412500Y-76275000D03*
%TD*%
%TO.C,R704*%
X44737500Y-90775000D03*
X47662500Y-90775000D03*
%TD*%
D21*
%TO.C,RV502*%
X65212500Y-125625000D03*
D22*
X64062500Y-131125000D03*
D21*
X62912500Y-125625000D03*
%TD*%
D11*
%TO.C,R403*%
X77550000Y-100632500D03*
X77550000Y-97707500D03*
%TD*%
D10*
%TO.C,R208*%
X112925000Y-118475000D03*
X115850000Y-118475000D03*
%TD*%
D14*
%TO.C,R512*%
X102162500Y-98125000D03*
X99237500Y-98125000D03*
%TD*%
D39*
%TO.C,J103*%
X122350000Y-75725000D03*
D38*
X122350000Y-70645000D03*
X122350000Y-65565000D03*
X122350000Y-60485000D03*
X122350000Y-55405000D03*
%TD*%
D10*
%TO.C,R806*%
X40237500Y-104012500D03*
X43162500Y-104012500D03*
%TD*%
%TO.C,R202*%
X105937500Y-105725000D03*
X108862500Y-105725000D03*
%TD*%
%TO.C,R203*%
X102537500Y-111725000D03*
X105462500Y-111725000D03*
%TD*%
D25*
%TO.C,C604*%
X72975000Y-102325000D03*
X70025000Y-102325000D03*
%TD*%
D10*
%TO.C,R604*%
X71837500Y-91475000D03*
X74762500Y-91475000D03*
%TD*%
D37*
%TO.C,J105*%
X48010000Y-40907500D03*
D38*
X42930000Y-40907500D03*
X37850000Y-40907500D03*
X32770000Y-40907500D03*
X27690000Y-40907500D03*
%TD*%
D10*
%TO.C,R802*%
X24537500Y-108375000D03*
X27462500Y-108375000D03*
%TD*%
D40*
%TO.C,R401*%
X77550000Y-93007500D03*
X77550000Y-95932500D03*
%TD*%
D21*
%TO.C,RV402*%
X76550000Y-127675000D03*
D22*
X75400000Y-133175000D03*
D21*
X74250000Y-127675000D03*
%TD*%
D14*
%TO.C,R808*%
X60262500Y-110825000D03*
X57337500Y-110825000D03*
%TD*%
%TO.C,R501*%
X90012500Y-61025000D03*
X87087500Y-61025000D03*
%TD*%
D21*
%TO.C,RV403*%
X88450000Y-136425000D03*
D22*
X87300000Y-141925000D03*
D21*
X86150000Y-136425000D03*
%TD*%
M02*
