M48
; DRILL file {KiCad 9.0.7-9.0.7~ubuntu24.04.1} date 2026-01-30T18:17:56-0300
; FORMAT={-:-/ absolute / metric / decimal}
; #@! TF.CreationDate,2026-01-30T18:17:56-03:00
; #@! TF.GenerationSoftware,Kicad,Pcbnew,9.0.7-9.0.7~ubuntu24.04.1
; #@! TF.FileFunction,Plated,1,4,Blind
FMAT,2
METRIC
; #@! TA.AperFunction,Plated,Buried,ViaDrill
T1C0.100
; #@! TA.AperFunction,Plated,Buried,ViaDrill
T2C0.110
; #@! TA.AperFunction,Plated,Buried,ViaDrill
T3C0.200
%
G90
G05
T1
X42.35Y-76.875
X44.6Y-141.425
X57.5Y-140.825
X61.0Y-85.475
X61.8Y-142.525
X64.25Y-96.025
X64.65Y-94.975
X65.35Y-99.775
X72.8Y-104.575
X73.95Y-63.875
X74.55Y-104.775
X74.612Y-79.475
X77.1Y-73.225
X77.5Y-99.425
X77.55Y-91.175
X77.7Y-71.025
X78.25Y-76.325
X78.7Y-74.825
X79.95Y-91.175
X80.45Y-116.025
X81.0Y-74.425
X81.0Y-75.425
X81.35Y-113.975
X82.45Y-99.525
X85.35Y-100.875
X89.9Y-101.375
X90.5Y-74.175
X91.3Y-118.025
X92.3Y-117.275
X92.85Y-116.775
X93.1Y-74.525
X93.35Y-107.425
X94.05Y-99.475
X94.55Y-59.275
X95.1Y-72.275
X95.65Y-78.225
X96.35Y-59.275
X96.8Y-66.425
X97.5Y-83.175
X97.75Y-58.425
X97.85Y-57.725
X97.85Y-100.775
X100.25Y-99.625
X100.5Y-103.025
X104.65Y-128.975
X104.95Y-96.125
X110.05Y-87.325
X113.3Y-101.175
X121.7Y-118.625
X125.0Y-110.725
X125.25Y-118.025
X125.7Y-109.475
T2
X113.3Y-99.475
X116.65Y-94.075
X117.3Y-94.075
X117.55Y-97.025
T3
X26.4Y-126.175
X27.4Y-125.475
X38.45Y-73.025
X41.28Y-126.605
X41.9Y-72.075
X44.737Y-90.775
X96.15Y-73.475
M30
