M48
; DRILL file {KiCad 9.0.7-9.0.7~ubuntu24.04.1} date 2026-01-30T18:17:56-0300
; FORMAT={-:-/ absolute / metric / decimal}
; #@! TF.CreationDate,2026-01-30T18:17:56-03:00
; #@! TF.GenerationSoftware,Kicad,Pcbnew,9.0.7-9.0.7~ubuntu24.04.1
; #@! TF.FileFunction,Plated,1,5,Blind
FMAT,2
METRIC
; #@! TA.AperFunction,Plated,Buried,ViaDrill
T1C0.100
; #@! TA.AperFunction,Plated,Buried,ViaDrill
T2C0.400
%
G90
G05
T1
X44.95Y-89.325
X95.1Y-91.825
X116.671Y-95.904
X121.3Y-112.575
X122.4Y-112.475
T2
X27.45Y-138.025
X28.6Y-119.775
X39.45Y-138.075
X44.2Y-120.775
X44.95Y-115.225
X48.15Y-115.625
X49.7Y-135.825
X54.3Y-142.425
X63.8Y-133.475
X64.7Y-112.775
X65.062Y-110.675
X69.55Y-116.725
X70.45Y-112.325
X82.3Y-131.875
X86.0Y-128.525
X89.7Y-122.825
X93.1Y-140.425
X94.55Y-113.625
X104.65Y-108.825
X104.75Y-131.825
X106.7Y-112.275
X110.75Y-124.575
X115.5Y-104.825
X121.35Y-124.125
M30
