<?xml version="1.0" standalone="no"?>
 <!DOCTYPE svg PUBLIC "-//W3C//DTD SVG 1.1//EN" 
 "http://www.w3.org/Graphics/SVG/1.1/DTD/svg11.dtd"> 
<svg
  xmlns:svg="http://www.w3.org/2000/svg"
  xmlns="http://www.w3.org/2000/svg"
  xmlns:xlink="http://www.w3.org/1999/xlink"
  version="1.1"
  width="148.0058mm" height="210.0072mm" viewBox="0.0000 0.0000 148.0058 210.0072">
<title>SVG Image created as Main board-in3-in4-drl_map.svg date 2026/01/30 18:17:37 </title>
  <desc>Image generated by PCBNEW </desc>
<g style="fill:#000000; fill-opacity:1.0000;stroke:#000000; stroke-opacity:1.0000;
stroke-linecap:round; stroke-linejoin:round;"
 transform="translate(0 0) scale(1 1)">
<path style="fill:none; 
stroke:#000000; stroke-width:0.0524; stroke-opacity:1; 
stroke-linecap:round; stroke-linejoin:round;fill:none"
d="M 18.8256,5.0262
129.1802,5.0262
129.1802,120.9781
18.8256,120.9781
Z" /> 
</g>
<g style="fill:none; 
stroke:#000000; stroke-width:0.1047; stroke-opacity:1; 
stroke-linecap:round; stroke-linejoin:round;">
<path d="M73.1473 69.6534
L73.3568 69.8629
" />
<path d="M73.3568 69.6534
L73.1473 69.8629
" />
<path d="M77.4942 71.4341
L77.7036 71.6436
" />
<path d="M77.7036 71.4341
L77.4942 71.6436
" />
</g>
<g style="fill:none; 
stroke:#000000; stroke-width:0.2000; stroke-opacity:1; 
stroke-linecap:round; stroke-linejoin:round;">
<text x="20.7994" y="124.2043"
textLength="14.8667" font-size="2.6667" lengthAdjust="spacingAndGlyphs"
text-anchor="start" opacity="0" stroke-opacity="0">Drill Map:</text>
<g class="stroked-text"><desc>Drill Map:</desc>
<path d="M21.4071 124.1192
L21.4071 122.1192
" />
<path d="M21.4071 122.1192
L21.8833 122.1192
" />
<path d="M21.8833 122.1192
L22.1691 122.2144
" />
<path d="M22.1691 122.2144
L22.3595 122.4049
" />
<path d="M22.3595 122.4049
L22.4548 122.5953
" />
<path d="M22.4548 122.5953
L22.5500 122.9763
" />
<path d="M22.5500 122.9763
L22.5500 123.2620
" />
<path d="M22.5500 123.2620
L22.4548 123.6430
" />
<path d="M22.4548 123.6430
L22.3595 123.8334
" />
<path d="M22.3595 123.8334
L22.1691 124.0239
" />
<path d="M22.1691 124.0239
L21.8833 124.1192
" />
<path d="M21.8833 124.1192
L21.4071 124.1192
" />
<path d="M23.4071 124.1192
L23.4071 122.7858
" />
<path d="M23.4071 123.1668
L23.5024 122.9763
" />
<path d="M23.5024 122.9763
L23.5976 122.8811
" />
<path d="M23.5976 122.8811
L23.7881 122.7858
" />
<path d="M23.7881 122.7858
L23.9786 122.7858
" />
<path d="M24.6452 124.1192
L24.6452 122.7858
" />
<path d="M24.6452 122.1192
L24.5500 122.2144
" />
<path d="M24.5500 122.2144
L24.6452 122.3096
" />
<path d="M24.6452 122.3096
L24.7405 122.2144
" />
<path d="M24.7405 122.2144
L24.6452 122.1192
" />
<path d="M24.6452 122.1192
L24.6452 122.3096
" />
<path d="M25.8833 124.1192
L25.6929 124.0239
" />
<path d="M25.6929 124.0239
L25.5976 123.8334
" />
<path d="M25.5976 123.8334
L25.5976 122.1192
" />
<path d="M26.9310 124.1192
L26.7405 124.0239
" />
<path d="M26.7405 124.0239
L26.6452 123.8334
" />
<path d="M26.6452 123.8334
L26.6452 122.1192
" />
<path d="M29.2167 124.1192
L29.2167 122.1192
" />
<path d="M29.2167 122.1192
L29.8833 123.5477
" />
<path d="M29.8833 123.5477
L30.5500 122.1192
" />
<path d="M30.5500 122.1192
L30.5500 124.1192
" />
<path d="M32.3595 124.1192
L32.3595 123.0715
" />
<path d="M32.3595 123.0715
L32.2643 122.8811
" />
<path d="M32.2643 122.8811
L32.0738 122.7858
" />
<path d="M32.0738 122.7858
L31.6929 122.7858
" />
<path d="M31.6929 122.7858
L31.5024 122.8811
" />
<path d="M32.3595 124.0239
L32.1691 124.1192
" />
<path d="M32.1691 124.1192
L31.6929 124.1192
" />
<path d="M31.6929 124.1192
L31.5024 124.0239
" />
<path d="M31.5024 124.0239
L31.4071 123.8334
" />
<path d="M31.4071 123.8334
L31.4071 123.6430
" />
<path d="M31.4071 123.6430
L31.5024 123.4525
" />
<path d="M31.5024 123.4525
L31.6929 123.3573
" />
<path d="M31.6929 123.3573
L32.1691 123.3573
" />
<path d="M32.1691 123.3573
L32.3595 123.2620
" />
<path d="M33.3119 122.7858
L33.3119 124.7858
" />
<path d="M33.3119 122.8811
L33.5024 122.7858
" />
<path d="M33.5024 122.7858
L33.8833 122.7858
" />
<path d="M33.8833 122.7858
L34.0738 122.8811
" />
<path d="M34.0738 122.8811
L34.1691 122.9763
" />
<path d="M34.1691 122.9763
L34.2643 123.1668
" />
<path d="M34.2643 123.1668
L34.2643 123.7382
" />
<path d="M34.2643 123.7382
L34.1691 123.9287
" />
<path d="M34.1691 123.9287
L34.0738 124.0239
" />
<path d="M34.0738 124.0239
L33.8833 124.1192
" />
<path d="M33.8833 124.1192
L33.5024 124.1192
" />
<path d="M33.5024 124.1192
L33.3119 124.0239
" />
<path d="M35.1214 123.9287
L35.2167 124.0239
" />
<path d="M35.2167 124.0239
L35.1214 124.1192
" />
<path d="M35.1214 124.1192
L35.0262 124.0239
" />
<path d="M35.0262 124.0239
L35.1214 123.9287
" />
<path d="M35.1214 123.9287
L35.1214 124.1192
" />
<path d="M35.1214 122.8811
L35.2167 122.9763
" />
<path d="M35.2167 122.9763
L35.1214 123.0715
" />
<path d="M35.1214 123.0715
L35.0262 122.9763
" />
<path d="M35.0262 122.9763
L35.1214 122.8811
" />
<path d="M35.1214 122.8811
L35.1214 123.0715
" />
</g></g>
<g style="fill:none; 
stroke:#000000; stroke-width:0.1047; stroke-opacity:1; 
stroke-linecap:round; stroke-linejoin:round;">
<path d="M18.5899 127.2996
L18.7994 127.5091
" />
<path d="M18.7994 127.2996
L18.5899 127.5091
" />
</g>
<g style="fill:none; 
stroke:#000000; stroke-width:0.2000; stroke-opacity:1; 
stroke-linecap:round; stroke-linejoin:round;">
<text x="20.7994" y="128.4043"
textLength="46.8667" font-size="2.6667" lengthAdjust="spacingAndGlyphs"
text-anchor="start" opacity="0" stroke-opacity="0">0.200mm / 0.0079" (2 holes)</text>
<g class="stroked-text"><desc>0.200mm / 0.0079" (2 holes)</desc>
<path d="M21.7881 126.3192
L21.9786 126.3192
" />
<path d="M21.9786 126.3192
L22.1691 126.4144
" />
<path d="M22.1691 126.4144
L22.2643 126.5096
" />
<path d="M22.2643 126.5096
L22.3595 126.7001
" />
<path d="M22.3595 126.7001
L22.4548 127.0811
" />
<path d="M22.4548 127.0811
L22.4548 127.5573
" />
<path d="M22.4548 127.5573
L22.3595 127.9382
" />
<path d="M22.3595 127.9382
L22.2643 128.1287
" />
<path d="M22.2643 128.1287
L22.1691 128.2239
" />
<path d="M22.1691 128.2239
L21.9786 128.3192
" />
<path d="M21.9786 128.3192
L21.7881 128.3192
" />
<path d="M21.7881 128.3192
L21.5976 128.2239
" />
<path d="M21.5976 128.2239
L21.5024 128.1287
" />
<path d="M21.5024 128.1287
L21.4071 127.9382
" />
<path d="M21.4071 127.9382
L21.3119 127.5573
" />
<path d="M21.3119 127.5573
L21.3119 127.0811
" />
<path d="M21.3119 127.0811
L21.4071 126.7001
" />
<path d="M21.4071 126.7001
L21.5024 126.5096
" />
<path d="M21.5024 126.5096
L21.5976 126.4144
" />
<path d="M21.5976 126.4144
L21.7881 126.3192
" />
<path d="M23.3119 128.1287
L23.4071 128.2239
" />
<path d="M23.4071 128.2239
L23.3119 128.3192
" />
<path d="M23.3119 128.3192
L23.2167 128.2239
" />
<path d="M23.2167 128.2239
L23.3119 128.1287
" />
<path d="M23.3119 128.1287
L23.3119 128.3192
" />
<path d="M24.1691 126.5096
L24.2643 126.4144
" />
<path d="M24.2643 126.4144
L24.4548 126.3192
" />
<path d="M24.4548 126.3192
L24.9310 126.3192
" />
<path d="M24.9310 126.3192
L25.1214 126.4144
" />
<path d="M25.1214 126.4144
L25.2167 126.5096
" />
<path d="M25.2167 126.5096
L25.3119 126.7001
" />
<path d="M25.3119 126.7001
L25.3119 126.8906
" />
<path d="M25.3119 126.8906
L25.2167 127.1763
" />
<path d="M25.2167 127.1763
L24.0738 128.3192
" />
<path d="M24.0738 128.3192
L25.3119 128.3192
" />
<path d="M26.5500 126.3192
L26.7405 126.3192
" />
<path d="M26.7405 126.3192
L26.9310 126.4144
" />
<path d="M26.9310 126.4144
L27.0262 126.5096
" />
<path d="M27.0262 126.5096
L27.1214 126.7001
" />
<path d="M27.1214 126.7001
L27.2167 127.0811
" />
<path d="M27.2167 127.0811
L27.2167 127.5573
" />
<path d="M27.2167 127.5573
L27.1214 127.9382
" />
<path d="M27.1214 127.9382
L27.0262 128.1287
" />
<path d="M27.0262 128.1287
L26.9310 128.2239
" />
<path d="M26.9310 128.2239
L26.7405 128.3192
" />
<path d="M26.7405 128.3192
L26.5500 128.3192
" />
<path d="M26.5500 128.3192
L26.3595 128.2239
" />
<path d="M26.3595 128.2239
L26.2643 128.1287
" />
<path d="M26.2643 128.1287
L26.1691 127.9382
" />
<path d="M26.1691 127.9382
L26.0738 127.5573
" />
<path d="M26.0738 127.5573
L26.0738 127.0811
" />
<path d="M26.0738 127.0811
L26.1691 126.7001
" />
<path d="M26.1691 126.7001
L26.2643 126.5096
" />
<path d="M26.2643 126.5096
L26.3595 126.4144
" />
<path d="M26.3595 126.4144
L26.5500 126.3192
" />
<path d="M28.4548 126.3192
L28.6452 126.3192
" />
<path d="M28.6452 126.3192
L28.8357 126.4144
" />
<path d="M28.8357 126.4144
L28.9310 126.5096
" />
<path d="M28.9310 126.5096
L29.0262 126.7001
" />
<path d="M29.0262 126.7001
L29.1214 127.0811
" />
<path d="M29.1214 127.0811
L29.1214 127.5573
" />
<path d="M29.1214 127.5573
L29.0262 127.9382
" />
<path d="M29.0262 127.9382
L28.9310 128.1287
" />
<path d="M28.9310 128.1287
L28.8357 128.2239
" />
<path d="M28.8357 128.2239
L28.6452 128.3192
" />
<path d="M28.6452 128.3192
L28.4548 128.3192
" />
<path d="M28.4548 128.3192
L28.2643 128.2239
" />
<path d="M28.2643 128.2239
L28.1691 128.1287
" />
<path d="M28.1691 128.1287
L28.0738 127.9382
" />
<path d="M28.0738 127.9382
L27.9786 127.5573
" />
<path d="M27.9786 127.5573
L27.9786 127.0811
" />
<path d="M27.9786 127.0811
L28.0738 126.7001
" />
<path d="M28.0738 126.7001
L28.1691 126.5096
" />
<path d="M28.1691 126.5096
L28.2643 126.4144
" />
<path d="M28.2643 126.4144
L28.4548 126.3192
" />
<path d="M29.9786 128.3192
L29.9786 126.9858
" />
<path d="M29.9786 127.1763
L30.0738 127.0811
" />
<path d="M30.0738 127.0811
L30.2643 126.9858
" />
<path d="M30.2643 126.9858
L30.5500 126.9858
" />
<path d="M30.5500 126.9858
L30.7405 127.0811
" />
<path d="M30.7405 127.0811
L30.8357 127.2715
" />
<path d="M30.8357 127.2715
L30.8357 128.3192
" />
<path d="M30.8357 127.2715
L30.9310 127.0811
" />
<path d="M30.9310 127.0811
L31.1214 126.9858
" />
<path d="M31.1214 126.9858
L31.4071 126.9858
" />
<path d="M31.4071 126.9858
L31.5976 127.0811
" />
<path d="M31.5976 127.0811
L31.6929 127.2715
" />
<path d="M31.6929 127.2715
L31.6929 128.3192
" />
<path d="M32.6452 128.3192
L32.6452 126.9858
" />
<path d="M32.6452 127.1763
L32.7405 127.0811
" />
<path d="M32.7405 127.0811
L32.9310 126.9858
" />
<path d="M32.9310 126.9858
L33.2167 126.9858
" />
<path d="M33.2167 126.9858
L33.4072 127.0811
" />
<path d="M33.4072 127.0811
L33.5024 127.2715
" />
<path d="M33.5024 127.2715
L33.5024 128.3192
" />
<path d="M33.5024 127.2715
L33.5976 127.0811
" />
<path d="M33.5976 127.0811
L33.7881 126.9858
" />
<path d="M33.7881 126.9858
L34.0738 126.9858
" />
<path d="M34.0738 126.9858
L34.2643 127.0811
" />
<path d="M34.2643 127.0811
L34.3595 127.2715
" />
<path d="M34.3595 127.2715
L34.3595 128.3192
" />
<path d="M38.2643 126.2239
L36.5500 128.7953
" />
<path d="M40.8357 126.3192
L41.0262 126.3192
" />
<path d="M41.0262 126.3192
L41.2167 126.4144
" />
<path d="M41.2167 126.4144
L41.3119 126.5096
" />
<path d="M41.3119 126.5096
L41.4072 126.7001
" />
<path d="M41.4072 126.7001
L41.5024 127.0811
" />
<path d="M41.5024 127.0811
L41.5024 127.5573
" />
<path d="M41.5024 127.5573
L41.4072 127.9382
" />
<path d="M41.4072 127.9382
L41.3119 128.1287
" />
<path d="M41.3119 128.1287
L41.2167 128.2239
" />
<path d="M41.2167 128.2239
L41.0262 128.3192
" />
<path d="M41.0262 128.3192
L40.8357 128.3192
" />
<path d="M40.8357 128.3192
L40.6452 128.2239
" />
<path d="M40.6452 128.2239
L40.5500 128.1287
" />
<path d="M40.5500 128.1287
L40.4548 127.9382
" />
<path d="M40.4548 127.9382
L40.3595 127.5573
" />
<path d="M40.3595 127.5573
L40.3595 127.0811
" />
<path d="M40.3595 127.0811
L40.4548 126.7001
" />
<path d="M40.4548 126.7001
L40.5500 126.5096
" />
<path d="M40.5500 126.5096
L40.6452 126.4144
" />
<path d="M40.6452 126.4144
L40.8357 126.3192
" />
<path d="M42.3595 128.1287
L42.4548 128.2239
" />
<path d="M42.4548 128.2239
L42.3595 128.3192
" />
<path d="M42.3595 128.3192
L42.2643 128.2239
" />
<path d="M42.2643 128.2239
L42.3595 128.1287
" />
<path d="M42.3595 128.1287
L42.3595 128.3192
" />
<path d="M43.6929 126.3192
L43.8833 126.3192
" />
<path d="M43.8833 126.3192
L44.0738 126.4144
" />
<path d="M44.0738 126.4144
L44.1691 126.5096
" />
<path d="M44.1691 126.5096
L44.2643 126.7001
" />
<path d="M44.2643 126.7001
L44.3595 127.0811
" />
<path d="M44.3595 127.0811
L44.3595 127.5573
" />
<path d="M44.3595 127.5573
L44.2643 127.9382
" />
<path d="M44.2643 127.9382
L44.1691 128.1287
" />
<path d="M44.1691 128.1287
L44.0738 128.2239
" />
<path d="M44.0738 128.2239
L43.8833 128.3192
" />
<path d="M43.8833 128.3192
L43.6929 128.3192
" />
<path d="M43.6929 128.3192
L43.5024 128.2239
" />
<path d="M43.5024 128.2239
L43.4072 128.1287
" />
<path d="M43.4072 128.1287
L43.3119 127.9382
" />
<path d="M43.3119 127.9382
L43.2167 127.5573
" />
<path d="M43.2167 127.5573
L43.2167 127.0811
" />
<path d="M43.2167 127.0811
L43.3119 126.7001
" />
<path d="M43.3119 126.7001
L43.4072 126.5096
" />
<path d="M43.4072 126.5096
L43.5024 126.4144
" />
<path d="M43.5024 126.4144
L43.6929 126.3192
" />
<path d="M45.5976 126.3192
L45.7881 126.3192
" />
<path d="M45.7881 126.3192
L45.9786 126.4144
" />
<path d="M45.9786 126.4144
L46.0738 126.5096
" />
<path d="M46.0738 126.5096
L46.1691 126.7001
" />
<path d="M46.1691 126.7001
L46.2643 127.0811
" />
<path d="M46.2643 127.0811
L46.2643 127.5573
" />
<path d="M46.2643 127.5573
L46.1691 127.9382
" />
<path d="M46.1691 127.9382
L46.0738 128.1287
" />
<path d="M46.0738 128.1287
L45.9786 128.2239
" />
<path d="M45.9786 128.2239
L45.7881 128.3192
" />
<path d="M45.7881 128.3192
L45.5976 128.3192
" />
<path d="M45.5976 128.3192
L45.4072 128.2239
" />
<path d="M45.4072 128.2239
L45.3119 128.1287
" />
<path d="M45.3119 128.1287
L45.2167 127.9382
" />
<path d="M45.2167 127.9382
L45.1214 127.5573
" />
<path d="M45.1214 127.5573
L45.1214 127.0811
" />
<path d="M45.1214 127.0811
L45.2167 126.7001
" />
<path d="M45.2167 126.7001
L45.3119 126.5096
" />
<path d="M45.3119 126.5096
L45.4072 126.4144
" />
<path d="M45.4072 126.4144
L45.5976 126.3192
" />
<path d="M46.9310 126.3192
L48.2643 126.3192
" />
<path d="M48.2643 126.3192
L47.4072 128.3192
" />
<path d="M49.1214 128.3192
L49.5024 128.3192
" />
<path d="M49.5024 128.3192
L49.6929 128.2239
" />
<path d="M49.6929 128.2239
L49.7881 128.1287
" />
<path d="M49.7881 128.1287
L49.9786 127.8430
" />
<path d="M49.9786 127.8430
L50.0738 127.4620
" />
<path d="M50.0738 127.4620
L50.0738 126.7001
" />
<path d="M50.0738 126.7001
L49.9786 126.5096
" />
<path d="M49.9786 126.5096
L49.8833 126.4144
" />
<path d="M49.8833 126.4144
L49.6929 126.3192
" />
<path d="M49.6929 126.3192
L49.3119 126.3192
" />
<path d="M49.3119 126.3192
L49.1214 126.4144
" />
<path d="M49.1214 126.4144
L49.0262 126.5096
" />
<path d="M49.0262 126.5096
L48.9310 126.7001
" />
<path d="M48.9310 126.7001
L48.9310 127.1763
" />
<path d="M48.9310 127.1763
L49.0262 127.3668
" />
<path d="M49.0262 127.3668
L49.1214 127.4620
" />
<path d="M49.1214 127.4620
L49.3119 127.5573
" />
<path d="M49.3119 127.5573
L49.6929 127.5573
" />
<path d="M49.6929 127.5573
L49.8833 127.4620
" />
<path d="M49.8833 127.4620
L49.9786 127.3668
" />
<path d="M49.9786 127.3668
L50.0738 127.1763
" />
<path d="M50.8357 126.3192
L50.8357 126.7001
" />
<path d="M51.5976 126.3192
L51.5976 126.7001
" />
<path d="M54.5500 129.0811
L54.4548 128.9858
" />
<path d="M54.4548 128.9858
L54.2643 128.7001
" />
<path d="M54.2643 128.7001
L54.1691 128.5096
" />
<path d="M54.1691 128.5096
L54.0738 128.2239
" />
<path d="M54.0738 128.2239
L53.9786 127.7477
" />
<path d="M53.9786 127.7477
L53.9786 127.3668
" />
<path d="M53.9786 127.3668
L54.0738 126.8906
" />
<path d="M54.0738 126.8906
L54.1691 126.6049
" />
<path d="M54.1691 126.6049
L54.2643 126.4144
" />
<path d="M54.2643 126.4144
L54.4548 126.1287
" />
<path d="M54.4548 126.1287
L54.5500 126.0334
" />
<path d="M55.2167 126.5096
L55.3119 126.4144
" />
<path d="M55.3119 126.4144
L55.5024 126.3192
" />
<path d="M55.5024 126.3192
L55.9786 126.3192
" />
<path d="M55.9786 126.3192
L56.1691 126.4144
" />
<path d="M56.1691 126.4144
L56.2643 126.5096
" />
<path d="M56.2643 126.5096
L56.3595 126.7001
" />
<path d="M56.3595 126.7001
L56.3595 126.8906
" />
<path d="M56.3595 126.8906
L56.2643 127.1763
" />
<path d="M56.2643 127.1763
L55.1214 128.3192
" />
<path d="M55.1214 128.3192
L56.3595 128.3192
" />
<path d="M58.7405 128.3192
L58.7405 126.3192
" />
<path d="M59.5976 128.3192
L59.5976 127.2715
" />
<path d="M59.5976 127.2715
L59.5024 127.0811
" />
<path d="M59.5024 127.0811
L59.3119 126.9858
" />
<path d="M59.3119 126.9858
L59.0262 126.9858
" />
<path d="M59.0262 126.9858
L58.8357 127.0811
" />
<path d="M58.8357 127.0811
L58.7405 127.1763
" />
<path d="M60.8357 128.3192
L60.6453 128.2239
" />
<path d="M60.6453 128.2239
L60.5500 128.1287
" />
<path d="M60.5500 128.1287
L60.4548 127.9382
" />
<path d="M60.4548 127.9382
L60.4548 127.3668
" />
<path d="M60.4548 127.3668
L60.5500 127.1763
" />
<path d="M60.5500 127.1763
L60.6453 127.0811
" />
<path d="M60.6453 127.0811
L60.8357 126.9858
" />
<path d="M60.8357 126.9858
L61.1214 126.9858
" />
<path d="M61.1214 126.9858
L61.3119 127.0811
" />
<path d="M61.3119 127.0811
L61.4072 127.1763
" />
<path d="M61.4072 127.1763
L61.5024 127.3668
" />
<path d="M61.5024 127.3668
L61.5024 127.9382
" />
<path d="M61.5024 127.9382
L61.4072 128.1287
" />
<path d="M61.4072 128.1287
L61.3119 128.2239
" />
<path d="M61.3119 128.2239
L61.1214 128.3192
" />
<path d="M61.1214 128.3192
L60.8357 128.3192
" />
<path d="M62.6453 128.3192
L62.4548 128.2239
" />
<path d="M62.4548 128.2239
L62.3595 128.0334
" />
<path d="M62.3595 128.0334
L62.3595 126.3192
" />
<path d="M64.1691 128.2239
L63.9786 128.3192
" />
<path d="M63.9786 128.3192
L63.5976 128.3192
" />
<path d="M63.5976 128.3192
L63.4072 128.2239
" />
<path d="M63.4072 128.2239
L63.3119 128.0334
" />
<path d="M63.3119 128.0334
L63.3119 127.2715
" />
<path d="M63.3119 127.2715
L63.4072 127.0811
" />
<path d="M63.4072 127.0811
L63.5976 126.9858
" />
<path d="M63.5976 126.9858
L63.9786 126.9858
" />
<path d="M63.9786 126.9858
L64.1691 127.0811
" />
<path d="M64.1691 127.0811
L64.2643 127.2715
" />
<path d="M64.2643 127.2715
L64.2643 127.4620
" />
<path d="M64.2643 127.4620
L63.3119 127.6525
" />
<path d="M65.0262 128.2239
L65.2167 128.3192
" />
<path d="M65.2167 128.3192
L65.5976 128.3192
" />
<path d="M65.5976 128.3192
L65.7881 128.2239
" />
<path d="M65.7881 128.2239
L65.8833 128.0334
" />
<path d="M65.8833 128.0334
L65.8833 127.9382
" />
<path d="M65.8833 127.9382
L65.7881 127.7477
" />
<path d="M65.7881 127.7477
L65.5976 127.6525
" />
<path d="M65.5976 127.6525
L65.3119 127.6525
" />
<path d="M65.3119 127.6525
L65.1214 127.5573
" />
<path d="M65.1214 127.5573
L65.0262 127.3668
" />
<path d="M65.0262 127.3668
L65.0262 127.2715
" />
<path d="M65.0262 127.2715
L65.1214 127.0811
" />
<path d="M65.1214 127.0811
L65.3119 126.9858
" />
<path d="M65.3119 126.9858
L65.5976 126.9858
" />
<path d="M65.5976 126.9858
L65.7881 127.0811
" />
<path d="M66.5500 129.0811
L66.6453 128.9858
" />
<path d="M66.6453 128.9858
L66.8357 128.7001
" />
<path d="M66.8357 128.7001
L66.9310 128.5096
" />
<path d="M66.9310 128.5096
L67.0262 128.2239
" />
<path d="M67.0262 128.2239
L67.1214 127.7477
" />
<path d="M67.1214 127.7477
L67.1214 127.3668
" />
<path d="M67.1214 127.3668
L67.0262 126.8906
" />
<path d="M67.0262 126.8906
L66.9310 126.6049
" />
<path d="M66.9310 126.6049
L66.8357 126.4144
" />
<path d="M66.8357 126.4144
L66.6453 126.1287
" />
<path d="M66.6453 126.1287
L66.5500 126.0334
" />
</g></g> 
</svg>
