<?xml version="1.0" standalone="no"?>
 <!DOCTYPE svg PUBLIC "-//W3C//DTD SVG 1.1//EN" 
 "http://www.w3.org/Graphics/SVG/1.1/DTD/svg11.dtd"> 
<svg
  xmlns:svg="http://www.w3.org/2000/svg"
  xmlns="http://www.w3.org/2000/svg"
  xmlns:xlink="http://www.w3.org/1999/xlink"
  version="1.1"
  width="148.0058mm" height="210.0072mm" viewBox="0.0000 0.0000 148.0058 210.0072">
<title>SVG Image created as Main board-NPTH-drl_map.svg date 2026/01/30 18:17:37 </title>
  <desc>Image generated by PCBNEW </desc>
<g style="fill:#000000; fill-opacity:1.0000;stroke:#000000; stroke-opacity:1.0000;
stroke-linecap:round; stroke-linejoin:round;"
 transform="translate(0 0) scale(1 1)">
<path style="fill:none; 
stroke:#000000; stroke-width:0.0524; stroke-opacity:1; 
stroke-linecap:round; stroke-linejoin:round;fill:none"
d="M 18.8256,5.0262
129.1802,5.0262
129.1802,120.9781
18.8256,120.9781
Z" /> 
</g>
<g style="fill:none; 
stroke:#000000; stroke-width:0.2000; stroke-opacity:1; 
stroke-linecap:round; stroke-linejoin:round;">
<text x="20.7994" y="124.2043"
textLength="14.8667" font-size="2.6667" lengthAdjust="spacingAndGlyphs"
text-anchor="start" opacity="0" stroke-opacity="0">Drill Map:</text>
<g class="stroked-text"><desc>Drill Map:</desc>
<path d="M21.4071 124.1192
L21.4071 122.1192
" />
<path d="M21.4071 122.1192
L21.8833 122.1192
" />
<path d="M21.8833 122.1192
L22.1691 122.2144
" />
<path d="M22.1691 122.2144
L22.3595 122.4049
" />
<path d="M22.3595 122.4049
L22.4548 122.5953
" />
<path d="M22.4548 122.5953
L22.5500 122.9763
" />
<path d="M22.5500 122.9763
L22.5500 123.2620
" />
<path d="M22.5500 123.2620
L22.4548 123.6430
" />
<path d="M22.4548 123.6430
L22.3595 123.8334
" />
<path d="M22.3595 123.8334
L22.1691 124.0239
" />
<path d="M22.1691 124.0239
L21.8833 124.1192
" />
<path d="M21.8833 124.1192
L21.4071 124.1192
" />
<path d="M23.4071 124.1192
L23.4071 122.7858
" />
<path d="M23.4071 123.1668
L23.5024 122.9763
" />
<path d="M23.5024 122.9763
L23.5976 122.8811
" />
<path d="M23.5976 122.8811
L23.7881 122.7858
" />
<path d="M23.7881 122.7858
L23.9786 122.7858
" />
<path d="M24.6452 124.1192
L24.6452 122.7858
" />
<path d="M24.6452 122.1192
L24.5500 122.2144
" />
<path d="M24.5500 122.2144
L24.6452 122.3096
" />
<path d="M24.6452 122.3096
L24.7405 122.2144
" />
<path d="M24.7405 122.2144
L24.6452 122.1192
" />
<path d="M24.6452 122.1192
L24.6452 122.3096
" />
<path d="M25.8833 124.1192
L25.6929 124.0239
" />
<path d="M25.6929 124.0239
L25.5976 123.8334
" />
<path d="M25.5976 123.8334
L25.5976 122.1192
" />
<path d="M26.9310 124.1192
L26.7405 124.0239
" />
<path d="M26.7405 124.0239
L26.6452 123.8334
" />
<path d="M26.6452 123.8334
L26.6452 122.1192
" />
<path d="M29.2167 124.1192
L29.2167 122.1192
" />
<path d="M29.2167 122.1192
L29.8833 123.5477
" />
<path d="M29.8833 123.5477
L30.5500 122.1192
" />
<path d="M30.5500 122.1192
L30.5500 124.1192
" />
<path d="M32.3595 124.1192
L32.3595 123.0715
" />
<path d="M32.3595 123.0715
L32.2643 122.8811
" />
<path d="M32.2643 122.8811
L32.0738 122.7858
" />
<path d="M32.0738 122.7858
L31.6929 122.7858
" />
<path d="M31.6929 122.7858
L31.5024 122.8811
" />
<path d="M32.3595 124.0239
L32.1691 124.1192
" />
<path d="M32.1691 124.1192
L31.6929 124.1192
" />
<path d="M31.6929 124.1192
L31.5024 124.0239
" />
<path d="M31.5024 124.0239
L31.4071 123.8334
" />
<path d="M31.4071 123.8334
L31.4071 123.6430
" />
<path d="M31.4071 123.6430
L31.5024 123.4525
" />
<path d="M31.5024 123.4525
L31.6929 123.3573
" />
<path d="M31.6929 123.3573
L32.1691 123.3573
" />
<path d="M32.1691 123.3573
L32.3595 123.2620
" />
<path d="M33.3119 122.7858
L33.3119 124.7858
" />
<path d="M33.3119 122.8811
L33.5024 122.7858
" />
<path d="M33.5024 122.7858
L33.8833 122.7858
" />
<path d="M33.8833 122.7858
L34.0738 122.8811
" />
<path d="M34.0738 122.8811
L34.1691 122.9763
" />
<path d="M34.1691 122.9763
L34.2643 123.1668
" />
<path d="M34.2643 123.1668
L34.2643 123.7382
" />
<path d="M34.2643 123.7382
L34.1691 123.9287
" />
<path d="M34.1691 123.9287
L34.0738 124.0239
" />
<path d="M34.0738 124.0239
L33.8833 124.1192
" />
<path d="M33.8833 124.1192
L33.5024 124.1192
" />
<path d="M33.5024 124.1192
L33.3119 124.0239
" />
<path d="M35.1214 123.9287
L35.2167 124.0239
" />
<path d="M35.2167 124.0239
L35.1214 124.1192
" />
<path d="M35.1214 124.1192
L35.0262 124.0239
" />
<path d="M35.0262 124.0239
L35.1214 123.9287
" />
<path d="M35.1214 123.9287
L35.1214 124.1192
" />
<path d="M35.1214 122.8811
L35.2167 122.9763
" />
<path d="M35.2167 122.9763
L35.1214 123.0715
" />
<path d="M35.1214 123.0715
L35.0262 122.9763
" />
<path d="M35.0262 122.9763
L35.1214 122.8811
" />
<path d="M35.1214 122.8811
L35.1214 123.0715
" />
</g></g> 
</svg>
