M48
; DRILL file {KiCad 9.0.7-9.0.7~ubuntu24.04.1} date 2026-01-30T18:17:56-0300
; FORMAT={-:-/ absolute / metric / decimal}
; #@! TF.CreationDate,2026-01-30T18:17:56-03:00
; #@! TF.GenerationSoftware,Kicad,Pcbnew,9.0.7-9.0.7~ubuntu24.04.1
; #@! TF.FileFunction,Plated,1,2,Blind
FMAT,2
METRIC
; #@! TA.AperFunction,Plated,Buried,ViaDrill
T1C0.300
; #@! TA.AperFunction,Plated,Buried,ViaDrill
T2C0.800
; #@! TA.AperFunction,Plated,Buried,ViaDrill
T3C1.500
%
G90
G05
T1
X25.6Y-119.575
X25.7Y-112.175
X28.55Y-130.375
X30.65Y-114.425
X38.35Y-111.425
X40.55Y-130.025
X40.8Y-85.775
X42.75Y-119.225
X43.3Y-115.325
X46.3Y-103.925
X48.85Y-113.775
X51.8Y-105.775
X53.1Y-127.925
X57.7Y-42.875
X58.5Y-99.475
X61.25Y-103.225
X63.15Y-114.775
X63.45Y-110.725
X63.8Y-127.425
X64.0Y-105.625
X64.039Y-83.946
X64.1Y-92.825
X67.65Y-42.775
X67.9Y-114.775
X68.25Y-110.775
X71.85Y-102.325
X73.2Y-110.775
X73.5Y-95.575
X73.5Y-99.225
X75.15Y-129.975
X75.5Y-75.875
X77.0Y-68.575
X80.47Y-102.162
X82.35Y-94.975
X82.45Y-110.525
X83.0Y-87.875
X83.1Y-65.425
X84.6Y-79.725
X85.3Y-110.525
X86.85Y-121.325
X87.15Y-139.125
X88.25Y-68.525
X88.7Y-61.025
X90.3Y-91.825
X90.3Y-99.425
X90.45Y-107.325
X93.25Y-111.825
X95.5Y-74.375
X96.7Y-83.625
X99.35Y-129.675
X99.85Y-81.075
X100.65Y-88.675
X100.7Y-93.575
X102.35Y-66.275
X103.75Y-111.675
X104.8Y-80.375
X105.074Y-101.082
X105.95Y-41.425
X106.2Y-72.575
X107.0Y-105.725
X107.55Y-109.475
X110.824Y-100.774
X111.35Y-41.625
X112.45Y-112.375
X112.6Y-104.925
X112.85Y-96.425
X114.6Y-118.475
X116.35Y-41.225
X121.45Y-41.375
T2
X80.05Y-41.025
X85.15Y-41.025
X90.2Y-40.975
X95.4Y-40.975
T3
X30.2Y-37.625
X34.6Y-37.625
X37.95Y-37.625
X42.95Y-37.575
X43.0Y-44.075
X46.85Y-37.625
X119.3Y-60.525
X119.35Y-55.425
X122.3Y-87.575
X122.45Y-82.575
M30
