<?xml version="1.0" standalone="no"?>
 <!DOCTYPE svg PUBLIC "-//W3C//DTD SVG 1.1//EN" 
 "http://www.w3.org/Graphics/SVG/1.1/DTD/svg11.dtd"> 
<svg
  xmlns:svg="http://www.w3.org/2000/svg"
  xmlns="http://www.w3.org/2000/svg"
  xmlns:xlink="http://www.w3.org/1999/xlink"
  version="1.1"
  width="148.0058mm" height="210.0072mm" viewBox="0.0000 0.0000 148.0058 210.0072">
<title>SVG Image created as Main board-front-in3-drl_map.svg date 2026/01/30 18:17:37 </title>
  <desc>Image generated by PCBNEW </desc>
<g style="fill:#000000; fill-opacity:1.0000;stroke:#000000; stroke-opacity:1.0000;
stroke-linecap:round; stroke-linejoin:round;"
 transform="translate(0 0) scale(1 1)">
<path style="fill:none; 
stroke:#000000; stroke-width:0.0524; stroke-opacity:1; 
stroke-linecap:round; stroke-linejoin:round;fill:none"
d="M 18.8256,5.0262
129.1802,5.0262
129.1802,120.9781
18.8256,120.9781
Z" /> 
</g>
<g style="fill:none; 
stroke:#000000; stroke-width:0.1047; stroke-opacity:1; 
stroke-linecap:round; stroke-linejoin:round;">
<path d="M39.8910 48.3903
L39.9957 48.4951
" />
<path d="M39.9957 48.3903
L39.8910 48.4951
" />
<path d="M42.2477 116.0028
L42.3524 116.1075
" />
<path d="M42.3524 116.0028
L42.2477 116.1075
" />
<path d="M55.7597 115.3743
L55.8645 115.4791
" />
<path d="M55.8645 115.3743
L55.7597 115.4791
" />
<path d="M59.4258 57.3983
L59.5305 57.5031
" />
<path d="M59.5305 57.3983
L59.4258 57.5031
" />
<path d="M60.2637 117.1550
L60.3685 117.2597
" />
<path d="M60.3685 117.1550
L60.2637 117.2597
" />
<path d="M62.8300 68.4489
L62.9347 68.5536
" />
<path d="M62.9347 68.4489
L62.8300 68.5536
" />
<path d="M63.2489 67.3490
L63.3537 67.4538
" />
<path d="M63.3537 67.3490
L63.2489 67.4538
" />
<path d="M63.9821 72.3768
L64.0869 72.4815
" />
<path d="M64.0869 72.3768
L63.9821 72.4815
" />
<path d="M71.7856 77.4045
L71.8903 77.5092
" />
<path d="M71.8903 77.4045
L71.7856 77.5092
" />
<path d="M72.9902 34.7736
L73.0949 34.8783
" />
<path d="M73.0949 34.7736
L72.9902 34.8783
" />
<path d="M73.6186 77.6140
L73.7234 77.7187
" />
<path d="M73.7234 77.6140
L73.6186 77.7187
" />
<path d="M73.6841 51.1137
L73.7888 51.2184
" />
<path d="M73.7888 51.1137
L73.6841 51.2184
" />
<path d="M76.2896 44.5672
L76.3943 44.6719
" />
<path d="M76.3943 44.5672
L76.2896 44.6719
" />
<path d="M76.7086 72.0102
L76.8133 72.1149
" />
<path d="M76.8133 72.0102
L76.7086 72.1149
" />
<path d="M76.7609 63.3688
L76.8657 63.4735
" />
<path d="M76.8657 63.3688
L76.7609 63.4735
" />
<path d="M76.9181 42.2628
L77.0228 42.3675
" />
<path d="M77.0228 42.2628
L76.9181 42.3675
" />
<path d="M77.4942 47.8142
L77.5989 47.9190
" />
<path d="M77.5989 47.8142
L77.4942 47.9190
" />
<path d="M77.9655 46.2431
L78.0703 46.3478
" />
<path d="M78.0703 46.2431
L77.9655 46.3478
" />
<path d="M79.2748 63.3688
L79.3796 63.4735
" />
<path d="M79.3796 63.3688
L79.2748 63.4735
" />
<path d="M79.7985 89.3977
L79.9033 89.5025
" />
<path d="M79.9033 89.3977
L79.7985 89.5025
" />
<path d="M80.3746 45.8241
L80.4794 45.9288
" />
<path d="M80.4794 45.8241
L80.3746 45.9288
" />
<path d="M80.3746 46.8715
L80.4794 46.9763
" />
<path d="M80.4794 46.8715
L80.3746 46.9763
" />
<path d="M80.7412 87.2505
L80.8460 87.3552
" />
<path d="M80.8460 87.2505
L80.7412 87.3552
" />
<path d="M81.8934 72.1149
L81.9982 72.2197
" />
<path d="M81.9982 72.1149
L81.8934 72.2197
" />
<path d="M84.9310 73.5290
L85.0357 73.6337
" />
<path d="M85.0357 73.5290
L84.9310 73.6337
" />
<path d="M89.6969 74.0527
L89.8016 74.1574
" />
<path d="M89.8016 74.0527
L89.6969 74.1574
" />
<path d="M90.3253 45.5622
L90.4301 45.6670
" />
<path d="M90.4301 45.5622
L90.3253 45.6670
" />
<path d="M91.1633 91.4926
L91.2680 91.5974
" />
<path d="M91.2680 91.4926
L91.1633 91.5974
" />
<path d="M92.2107 90.7070
L92.3155 90.8118
" />
<path d="M92.3155 90.7070
L92.2107 90.8118
" />
<path d="M92.7868 90.1833
L92.8916 90.2881
" />
<path d="M92.8916 90.1833
L92.7868 90.2881
" />
<path d="M93.0487 45.9288
L93.1534 46.0336
" />
<path d="M93.1534 45.9288
L93.0487 46.0336
" />
<path d="M93.3105 80.3897
L93.4153 80.4945
" />
<path d="M93.4153 80.3897
L93.3105 80.4945
" />
<path d="M94.0438 72.0625
L94.1485 72.1673
" />
<path d="M94.1485 72.0625
L94.0438 72.1673
" />
<path d="M94.5675 29.9553
L94.6722 30.0601
" />
<path d="M94.6722 29.9553
L94.5675 30.0601
" />
<path d="M95.1436 43.5721
L95.2483 43.6768
" />
<path d="M95.2483 43.5721
L95.1436 43.6768
" />
<path d="M95.7197 49.8044
L95.8244 49.9091
" />
<path d="M95.8244 49.8044
L95.7197 49.9091
" />
<path d="M96.4529 29.9553
L96.5576 30.0601
" />
<path d="M96.5576 29.9553
L96.4529 30.0601
" />
<path d="M96.9242 37.4445
L97.0290 37.5493
" />
<path d="M97.0290 37.4445
L96.9242 37.5493
" />
<path d="M97.6574 54.9892
L97.7622 55.0940
" />
<path d="M97.7622 54.9892
L97.6574 55.0940
" />
<path d="M97.9193 29.0650
L98.0240 29.1697
" />
<path d="M98.0240 29.0650
L97.9193 29.1697
" />
<path d="M98.0240 28.3318
L98.1288 28.4365
" />
<path d="M98.1288 28.3318
L98.0240 28.4365
" />
<path d="M98.0240 73.4242
L98.1288 73.5290
" />
<path d="M98.1288 73.4242
L98.0240 73.5290
" />
<path d="M100.5379 72.2197
L100.6427 72.3244
" />
<path d="M100.6427 72.2197
L100.5379 72.3244
" />
<path d="M100.7998 75.7810
L100.9045 75.8857
" />
<path d="M100.9045 75.7810
L100.7998 75.8857
" />
<path d="M105.1467 102.9621
L105.2514 103.0669
" />
<path d="M105.2514 102.9621
L105.1467 103.0669
" />
<path d="M105.4609 68.5536
L105.5656 68.6584
" />
<path d="M105.5656 68.5536
L105.4609 68.6584
" />
<path d="M110.8028 59.3361
L110.9076 59.4409
" />
<path d="M110.9076 59.3361
L110.8028 59.4409
" />
<path d="M114.2070 73.8432
L114.3118 73.9479
" />
<path d="M114.3118 73.8432
L114.2070 73.9479
" />
<path d="M123.0056 92.1211
L123.1103 92.2258
" />
<path d="M123.1103 92.1211
L123.0056 92.2258
" />
<path d="M126.4621 83.8463
L126.5669 83.9510
" />
<path d="M126.5669 83.8463
L126.4621 83.9510
" />
<path d="M126.7240 91.4926
L126.8287 91.5974
" />
<path d="M126.8287 91.4926
L126.7240 91.5974
" />
<path d="M127.1953 82.5370
L127.3001 82.6417
" />
<path d="M127.3001 82.5370
L127.1953 82.6417
" />
<circle cx="114.2594" cy="72.1149" r="0.0576" /> 
<circle cx="117.7683" cy="66.4587" r="0.0576" /> 
<circle cx="118.4492" cy="66.4587" r="0.0576" /> 
<circle cx="118.7110" cy="69.5487" r="0.0576" /> 
<path d="M23.2366 99.9769
L23.2366 100.1864
" />
<path d="M23.1319 100.0816
L23.3414 100.0816
" />
<path d="M24.2841 99.2437
L24.2841 99.4532
" />
<path d="M24.1793 99.3484
L24.3888 99.3484
" />
<path d="M35.8583 44.3053
L35.8583 44.5148
" />
<path d="M35.7536 44.4100
L35.9630 44.4100
" />
<path d="M38.8229 100.4276
L38.8229 100.6371
" />
<path d="M38.7182 100.5324
L38.9277 100.5324
" />
<path d="M39.4720 43.3102
L39.4720 43.5197
" />
<path d="M39.3672 43.4150
L39.5767 43.4150
" />
<path d="M42.4441 62.8974
L42.4441 63.1069
" />
<path d="M42.3394 63.0022
L42.5488 63.0022
" />
<path d="M96.2958 44.7767
L96.2958 44.9861
" />
<path d="M96.1910 44.8814
L96.4005 44.8814
" />
</g>
<g style="fill:none; 
stroke:#000000; stroke-width:0.2000; stroke-opacity:1; 
stroke-linecap:round; stroke-linejoin:round;">
<text x="20.7994" y="124.2043"
textLength="14.8667" font-size="2.6667" lengthAdjust="spacingAndGlyphs"
text-anchor="start" opacity="0" stroke-opacity="0">Drill Map:</text>
<g class="stroked-text"><desc>Drill Map:</desc>
<path d="M21.4071 124.1192
L21.4071 122.1192
" />
<path d="M21.4071 122.1192
L21.8833 122.1192
" />
<path d="M21.8833 122.1192
L22.1691 122.2144
" />
<path d="M22.1691 122.2144
L22.3595 122.4049
" />
<path d="M22.3595 122.4049
L22.4548 122.5953
" />
<path d="M22.4548 122.5953
L22.5500 122.9763
" />
<path d="M22.5500 122.9763
L22.5500 123.2620
" />
<path d="M22.5500 123.2620
L22.4548 123.6430
" />
<path d="M22.4548 123.6430
L22.3595 123.8334
" />
<path d="M22.3595 123.8334
L22.1691 124.0239
" />
<path d="M22.1691 124.0239
L21.8833 124.1192
" />
<path d="M21.8833 124.1192
L21.4071 124.1192
" />
<path d="M23.4071 124.1192
L23.4071 122.7858
" />
<path d="M23.4071 123.1668
L23.5024 122.9763
" />
<path d="M23.5024 122.9763
L23.5976 122.8811
" />
<path d="M23.5976 122.8811
L23.7881 122.7858
" />
<path d="M23.7881 122.7858
L23.9786 122.7858
" />
<path d="M24.6452 124.1192
L24.6452 122.7858
" />
<path d="M24.6452 122.1192
L24.5500 122.2144
" />
<path d="M24.5500 122.2144
L24.6452 122.3096
" />
<path d="M24.6452 122.3096
L24.7405 122.2144
" />
<path d="M24.7405 122.2144
L24.6452 122.1192
" />
<path d="M24.6452 122.1192
L24.6452 122.3096
" />
<path d="M25.8833 124.1192
L25.6929 124.0239
" />
<path d="M25.6929 124.0239
L25.5976 123.8334
" />
<path d="M25.5976 123.8334
L25.5976 122.1192
" />
<path d="M26.9310 124.1192
L26.7405 124.0239
" />
<path d="M26.7405 124.0239
L26.6452 123.8334
" />
<path d="M26.6452 123.8334
L26.6452 122.1192
" />
<path d="M29.2167 124.1192
L29.2167 122.1192
" />
<path d="M29.2167 122.1192
L29.8833 123.5477
" />
<path d="M29.8833 123.5477
L30.5500 122.1192
" />
<path d="M30.5500 122.1192
L30.5500 124.1192
" />
<path d="M32.3595 124.1192
L32.3595 123.0715
" />
<path d="M32.3595 123.0715
L32.2643 122.8811
" />
<path d="M32.2643 122.8811
L32.0738 122.7858
" />
<path d="M32.0738 122.7858
L31.6929 122.7858
" />
<path d="M31.6929 122.7858
L31.5024 122.8811
" />
<path d="M32.3595 124.0239
L32.1691 124.1192
" />
<path d="M32.1691 124.1192
L31.6929 124.1192
" />
<path d="M31.6929 124.1192
L31.5024 124.0239
" />
<path d="M31.5024 124.0239
L31.4071 123.8334
" />
<path d="M31.4071 123.8334
L31.4071 123.6430
" />
<path d="M31.4071 123.6430
L31.5024 123.4525
" />
<path d="M31.5024 123.4525
L31.6929 123.3573
" />
<path d="M31.6929 123.3573
L32.1691 123.3573
" />
<path d="M32.1691 123.3573
L32.3595 123.2620
" />
<path d="M33.3119 122.7858
L33.3119 124.7858
" />
<path d="M33.3119 122.8811
L33.5024 122.7858
" />
<path d="M33.5024 122.7858
L33.8833 122.7858
" />
<path d="M33.8833 122.7858
L34.0738 122.8811
" />
<path d="M34.0738 122.8811
L34.1691 122.9763
" />
<path d="M34.1691 122.9763
L34.2643 123.1668
" />
<path d="M34.2643 123.1668
L34.2643 123.7382
" />
<path d="M34.2643 123.7382
L34.1691 123.9287
" />
<path d="M34.1691 123.9287
L34.0738 124.0239
" />
<path d="M34.0738 124.0239
L33.8833 124.1192
" />
<path d="M33.8833 124.1192
L33.5024 124.1192
" />
<path d="M33.5024 124.1192
L33.3119 124.0239
" />
<path d="M35.1214 123.9287
L35.2167 124.0239
" />
<path d="M35.2167 124.0239
L35.1214 124.1192
" />
<path d="M35.1214 124.1192
L35.0262 124.0239
" />
<path d="M35.0262 124.0239
L35.1214 123.9287
" />
<path d="M35.1214 123.9287
L35.1214 124.1192
" />
<path d="M35.1214 122.8811
L35.2167 122.9763
" />
<path d="M35.2167 122.9763
L35.1214 123.0715
" />
<path d="M35.1214 123.0715
L35.0262 122.9763
" />
<path d="M35.0262 122.9763
L35.1214 122.8811
" />
<path d="M35.1214 122.8811
L35.1214 123.0715
" />
</g></g>
<g style="fill:none; 
stroke:#000000; stroke-width:0.1047; stroke-opacity:1; 
stroke-linecap:round; stroke-linejoin:round;">
<path d="M18.6946 127.3519
L18.7994 127.4567
" />
<path d="M18.7994 127.3519
L18.6946 127.4567
" />
</g>
<g style="fill:none; 
stroke:#000000; stroke-width:0.2000; stroke-opacity:1; 
stroke-linecap:round; stroke-linejoin:round;">
<text x="20.7994" y="128.4043"
textLength="48.7714" font-size="2.6667" lengthAdjust="spacingAndGlyphs"
text-anchor="start" opacity="0" stroke-opacity="0">0.100mm / 0.0039" (52 holes)</text>
<g class="stroked-text"><desc>0.100mm / 0.0039" (52 holes)</desc>
<path d="M21.7881 126.3192
L21.9786 126.3192
" />
<path d="M21.9786 126.3192
L22.1691 126.4144
" />
<path d="M22.1691 126.4144
L22.2643 126.5096
" />
<path d="M22.2643 126.5096
L22.3595 126.7001
" />
<path d="M22.3595 126.7001
L22.4548 127.0811
" />
<path d="M22.4548 127.0811
L22.4548 127.5573
" />
<path d="M22.4548 127.5573
L22.3595 127.9382
" />
<path d="M22.3595 127.9382
L22.2643 128.1287
" />
<path d="M22.2643 128.1287
L22.1691 128.2239
" />
<path d="M22.1691 128.2239
L21.9786 128.3192
" />
<path d="M21.9786 128.3192
L21.7881 128.3192
" />
<path d="M21.7881 128.3192
L21.5976 128.2239
" />
<path d="M21.5976 128.2239
L21.5024 128.1287
" />
<path d="M21.5024 128.1287
L21.4071 127.9382
" />
<path d="M21.4071 127.9382
L21.3119 127.5573
" />
<path d="M21.3119 127.5573
L21.3119 127.0811
" />
<path d="M21.3119 127.0811
L21.4071 126.7001
" />
<path d="M21.4071 126.7001
L21.5024 126.5096
" />
<path d="M21.5024 126.5096
L21.5976 126.4144
" />
<path d="M21.5976 126.4144
L21.7881 126.3192
" />
<path d="M23.3119 128.1287
L23.4071 128.2239
" />
<path d="M23.4071 128.2239
L23.3119 128.3192
" />
<path d="M23.3119 128.3192
L23.2167 128.2239
" />
<path d="M23.2167 128.2239
L23.3119 128.1287
" />
<path d="M23.3119 128.1287
L23.3119 128.3192
" />
<path d="M25.3119 128.3192
L24.1691 128.3192
" />
<path d="M24.7405 128.3192
L24.7405 126.3192
" />
<path d="M24.7405 126.3192
L24.5500 126.6049
" />
<path d="M24.5500 126.6049
L24.3595 126.7953
" />
<path d="M24.3595 126.7953
L24.1691 126.8906
" />
<path d="M26.5500 126.3192
L26.7405 126.3192
" />
<path d="M26.7405 126.3192
L26.9310 126.4144
" />
<path d="M26.9310 126.4144
L27.0262 126.5096
" />
<path d="M27.0262 126.5096
L27.1214 126.7001
" />
<path d="M27.1214 126.7001
L27.2167 127.0811
" />
<path d="M27.2167 127.0811
L27.2167 127.5573
" />
<path d="M27.2167 127.5573
L27.1214 127.9382
" />
<path d="M27.1214 127.9382
L27.0262 128.1287
" />
<path d="M27.0262 128.1287
L26.9310 128.2239
" />
<path d="M26.9310 128.2239
L26.7405 128.3192
" />
<path d="M26.7405 128.3192
L26.5500 128.3192
" />
<path d="M26.5500 128.3192
L26.3595 128.2239
" />
<path d="M26.3595 128.2239
L26.2643 128.1287
" />
<path d="M26.2643 128.1287
L26.1691 127.9382
" />
<path d="M26.1691 127.9382
L26.0738 127.5573
" />
<path d="M26.0738 127.5573
L26.0738 127.0811
" />
<path d="M26.0738 127.0811
L26.1691 126.7001
" />
<path d="M26.1691 126.7001
L26.2643 126.5096
" />
<path d="M26.2643 126.5096
L26.3595 126.4144
" />
<path d="M26.3595 126.4144
L26.5500 126.3192
" />
<path d="M28.4548 126.3192
L28.6452 126.3192
" />
<path d="M28.6452 126.3192
L28.8357 126.4144
" />
<path d="M28.8357 126.4144
L28.9310 126.5096
" />
<path d="M28.9310 126.5096
L29.0262 126.7001
" />
<path d="M29.0262 126.7001
L29.1214 127.0811
" />
<path d="M29.1214 127.0811
L29.1214 127.5573
" />
<path d="M29.1214 127.5573
L29.0262 127.9382
" />
<path d="M29.0262 127.9382
L28.9310 128.1287
" />
<path d="M28.9310 128.1287
L28.8357 128.2239
" />
<path d="M28.8357 128.2239
L28.6452 128.3192
" />
<path d="M28.6452 128.3192
L28.4548 128.3192
" />
<path d="M28.4548 128.3192
L28.2643 128.2239
" />
<path d="M28.2643 128.2239
L28.1691 128.1287
" />
<path d="M28.1691 128.1287
L28.0738 127.9382
" />
<path d="M28.0738 127.9382
L27.9786 127.5573
" />
<path d="M27.9786 127.5573
L27.9786 127.0811
" />
<path d="M27.9786 127.0811
L28.0738 126.7001
" />
<path d="M28.0738 126.7001
L28.1691 126.5096
" />
<path d="M28.1691 126.5096
L28.2643 126.4144
" />
<path d="M28.2643 126.4144
L28.4548 126.3192
" />
<path d="M29.9786 128.3192
L29.9786 126.9858
" />
<path d="M29.9786 127.1763
L30.0738 127.0811
" />
<path d="M30.0738 127.0811
L30.2643 126.9858
" />
<path d="M30.2643 126.9858
L30.5500 126.9858
" />
<path d="M30.5500 126.9858
L30.7405 127.0811
" />
<path d="M30.7405 127.0811
L30.8357 127.2715
" />
<path d="M30.8357 127.2715
L30.8357 128.3192
" />
<path d="M30.8357 127.2715
L30.9310 127.0811
" />
<path d="M30.9310 127.0811
L31.1214 126.9858
" />
<path d="M31.1214 126.9858
L31.4071 126.9858
" />
<path d="M31.4071 126.9858
L31.5976 127.0811
" />
<path d="M31.5976 127.0811
L31.6929 127.2715
" />
<path d="M31.6929 127.2715
L31.6929 128.3192
" />
<path d="M32.6452 128.3192
L32.6452 126.9858
" />
<path d="M32.6452 127.1763
L32.7405 127.0811
" />
<path d="M32.7405 127.0811
L32.9310 126.9858
" />
<path d="M32.9310 126.9858
L33.2167 126.9858
" />
<path d="M33.2167 126.9858
L33.4072 127.0811
" />
<path d="M33.4072 127.0811
L33.5024 127.2715
" />
<path d="M33.5024 127.2715
L33.5024 128.3192
" />
<path d="M33.5024 127.2715
L33.5976 127.0811
" />
<path d="M33.5976 127.0811
L33.7881 126.9858
" />
<path d="M33.7881 126.9858
L34.0738 126.9858
" />
<path d="M34.0738 126.9858
L34.2643 127.0811
" />
<path d="M34.2643 127.0811
L34.3595 127.2715
" />
<path d="M34.3595 127.2715
L34.3595 128.3192
" />
<path d="M38.2643 126.2239
L36.5500 128.7953
" />
<path d="M40.8357 126.3192
L41.0262 126.3192
" />
<path d="M41.0262 126.3192
L41.2167 126.4144
" />
<path d="M41.2167 126.4144
L41.3119 126.5096
" />
<path d="M41.3119 126.5096
L41.4072 126.7001
" />
<path d="M41.4072 126.7001
L41.5024 127.0811
" />
<path d="M41.5024 127.0811
L41.5024 127.5573
" />
<path d="M41.5024 127.5573
L41.4072 127.9382
" />
<path d="M41.4072 127.9382
L41.3119 128.1287
" />
<path d="M41.3119 128.1287
L41.2167 128.2239
" />
<path d="M41.2167 128.2239
L41.0262 128.3192
" />
<path d="M41.0262 128.3192
L40.8357 128.3192
" />
<path d="M40.8357 128.3192
L40.6452 128.2239
" />
<path d="M40.6452 128.2239
L40.5500 128.1287
" />
<path d="M40.5500 128.1287
L40.4548 127.9382
" />
<path d="M40.4548 127.9382
L40.3595 127.5573
" />
<path d="M40.3595 127.5573
L40.3595 127.0811
" />
<path d="M40.3595 127.0811
L40.4548 126.7001
" />
<path d="M40.4548 126.7001
L40.5500 126.5096
" />
<path d="M40.5500 126.5096
L40.6452 126.4144
" />
<path d="M40.6452 126.4144
L40.8357 126.3192
" />
<path d="M42.3595 128.1287
L42.4548 128.2239
" />
<path d="M42.4548 128.2239
L42.3595 128.3192
" />
<path d="M42.3595 128.3192
L42.2643 128.2239
" />
<path d="M42.2643 128.2239
L42.3595 128.1287
" />
<path d="M42.3595 128.1287
L42.3595 128.3192
" />
<path d="M43.6929 126.3192
L43.8833 126.3192
" />
<path d="M43.8833 126.3192
L44.0738 126.4144
" />
<path d="M44.0738 126.4144
L44.1691 126.5096
" />
<path d="M44.1691 126.5096
L44.2643 126.7001
" />
<path d="M44.2643 126.7001
L44.3595 127.0811
" />
<path d="M44.3595 127.0811
L44.3595 127.5573
" />
<path d="M44.3595 127.5573
L44.2643 127.9382
" />
<path d="M44.2643 127.9382
L44.1691 128.1287
" />
<path d="M44.1691 128.1287
L44.0738 128.2239
" />
<path d="M44.0738 128.2239
L43.8833 128.3192
" />
<path d="M43.8833 128.3192
L43.6929 128.3192
" />
<path d="M43.6929 128.3192
L43.5024 128.2239
" />
<path d="M43.5024 128.2239
L43.4072 128.1287
" />
<path d="M43.4072 128.1287
L43.3119 127.9382
" />
<path d="M43.3119 127.9382
L43.2167 127.5573
" />
<path d="M43.2167 127.5573
L43.2167 127.0811
" />
<path d="M43.2167 127.0811
L43.3119 126.7001
" />
<path d="M43.3119 126.7001
L43.4072 126.5096
" />
<path d="M43.4072 126.5096
L43.5024 126.4144
" />
<path d="M43.5024 126.4144
L43.6929 126.3192
" />
<path d="M45.5976 126.3192
L45.7881 126.3192
" />
<path d="M45.7881 126.3192
L45.9786 126.4144
" />
<path d="M45.9786 126.4144
L46.0738 126.5096
" />
<path d="M46.0738 126.5096
L46.1691 126.7001
" />
<path d="M46.1691 126.7001
L46.2643 127.0811
" />
<path d="M46.2643 127.0811
L46.2643 127.5573
" />
<path d="M46.2643 127.5573
L46.1691 127.9382
" />
<path d="M46.1691 127.9382
L46.0738 128.1287
" />
<path d="M46.0738 128.1287
L45.9786 128.2239
" />
<path d="M45.9786 128.2239
L45.7881 128.3192
" />
<path d="M45.7881 128.3192
L45.5976 128.3192
" />
<path d="M45.5976 128.3192
L45.4072 128.2239
" />
<path d="M45.4072 128.2239
L45.3119 128.1287
" />
<path d="M45.3119 128.1287
L45.2167 127.9382
" />
<path d="M45.2167 127.9382
L45.1214 127.5573
" />
<path d="M45.1214 127.5573
L45.1214 127.0811
" />
<path d="M45.1214 127.0811
L45.2167 126.7001
" />
<path d="M45.2167 126.7001
L45.3119 126.5096
" />
<path d="M45.3119 126.5096
L45.4072 126.4144
" />
<path d="M45.4072 126.4144
L45.5976 126.3192
" />
<path d="M46.9310 126.3192
L48.1691 126.3192
" />
<path d="M48.1691 126.3192
L47.5024 127.0811
" />
<path d="M47.5024 127.0811
L47.7881 127.0811
" />
<path d="M47.7881 127.0811
L47.9786 127.1763
" />
<path d="M47.9786 127.1763
L48.0738 127.2715
" />
<path d="M48.0738 127.2715
L48.1691 127.4620
" />
<path d="M48.1691 127.4620
L48.1691 127.9382
" />
<path d="M48.1691 127.9382
L48.0738 128.1287
" />
<path d="M48.0738 128.1287
L47.9786 128.2239
" />
<path d="M47.9786 128.2239
L47.7881 128.3192
" />
<path d="M47.7881 128.3192
L47.2167 128.3192
" />
<path d="M47.2167 128.3192
L47.0262 128.2239
" />
<path d="M47.0262 128.2239
L46.9310 128.1287
" />
<path d="M49.1214 128.3192
L49.5024 128.3192
" />
<path d="M49.5024 128.3192
L49.6929 128.2239
" />
<path d="M49.6929 128.2239
L49.7881 128.1287
" />
<path d="M49.7881 128.1287
L49.9786 127.8430
" />
<path d="M49.9786 127.8430
L50.0738 127.4620
" />
<path d="M50.0738 127.4620
L50.0738 126.7001
" />
<path d="M50.0738 126.7001
L49.9786 126.5096
" />
<path d="M49.9786 126.5096
L49.8833 126.4144
" />
<path d="M49.8833 126.4144
L49.6929 126.3192
" />
<path d="M49.6929 126.3192
L49.3119 126.3192
" />
<path d="M49.3119 126.3192
L49.1214 126.4144
" />
<path d="M49.1214 126.4144
L49.0262 126.5096
" />
<path d="M49.0262 126.5096
L48.9310 126.7001
" />
<path d="M48.9310 126.7001
L48.9310 127.1763
" />
<path d="M48.9310 127.1763
L49.0262 127.3668
" />
<path d="M49.0262 127.3668
L49.1214 127.4620
" />
<path d="M49.1214 127.4620
L49.3119 127.5573
" />
<path d="M49.3119 127.5573
L49.6929 127.5573
" />
<path d="M49.6929 127.5573
L49.8833 127.4620
" />
<path d="M49.8833 127.4620
L49.9786 127.3668
" />
<path d="M49.9786 127.3668
L50.0738 127.1763
" />
<path d="M50.8357 126.3192
L50.8357 126.7001
" />
<path d="M51.5976 126.3192
L51.5976 126.7001
" />
<path d="M54.5500 129.0811
L54.4548 128.9858
" />
<path d="M54.4548 128.9858
L54.2643 128.7001
" />
<path d="M54.2643 128.7001
L54.1691 128.5096
" />
<path d="M54.1691 128.5096
L54.0738 128.2239
" />
<path d="M54.0738 128.2239
L53.9786 127.7477
" />
<path d="M53.9786 127.7477
L53.9786 127.3668
" />
<path d="M53.9786 127.3668
L54.0738 126.8906
" />
<path d="M54.0738 126.8906
L54.1691 126.6049
" />
<path d="M54.1691 126.6049
L54.2643 126.4144
" />
<path d="M54.2643 126.4144
L54.4548 126.1287
" />
<path d="M54.4548 126.1287
L54.5500 126.0334
" />
<path d="M56.2643 126.3192
L55.3119 126.3192
" />
<path d="M55.3119 126.3192
L55.2167 127.2715
" />
<path d="M55.2167 127.2715
L55.3119 127.1763
" />
<path d="M55.3119 127.1763
L55.5024 127.0811
" />
<path d="M55.5024 127.0811
L55.9786 127.0811
" />
<path d="M55.9786 127.0811
L56.1691 127.1763
" />
<path d="M56.1691 127.1763
L56.2643 127.2715
" />
<path d="M56.2643 127.2715
L56.3595 127.4620
" />
<path d="M56.3595 127.4620
L56.3595 127.9382
" />
<path d="M56.3595 127.9382
L56.2643 128.1287
" />
<path d="M56.2643 128.1287
L56.1691 128.2239
" />
<path d="M56.1691 128.2239
L55.9786 128.3192
" />
<path d="M55.9786 128.3192
L55.5024 128.3192
" />
<path d="M55.5024 128.3192
L55.3119 128.2239
" />
<path d="M55.3119 128.2239
L55.2167 128.1287
" />
<path d="M57.1214 126.5096
L57.2167 126.4144
" />
<path d="M57.2167 126.4144
L57.4072 126.3192
" />
<path d="M57.4072 126.3192
L57.8833 126.3192
" />
<path d="M57.8833 126.3192
L58.0738 126.4144
" />
<path d="M58.0738 126.4144
L58.1691 126.5096
" />
<path d="M58.1691 126.5096
L58.2643 126.7001
" />
<path d="M58.2643 126.7001
L58.2643 126.8906
" />
<path d="M58.2643 126.8906
L58.1691 127.1763
" />
<path d="M58.1691 127.1763
L57.0262 128.3192
" />
<path d="M57.0262 128.3192
L58.2643 128.3192
" />
<path d="M60.6453 128.3192
L60.6453 126.3192
" />
<path d="M61.5024 128.3192
L61.5024 127.2715
" />
<path d="M61.5024 127.2715
L61.4072 127.0811
" />
<path d="M61.4072 127.0811
L61.2167 126.9858
" />
<path d="M61.2167 126.9858
L60.9310 126.9858
" />
<path d="M60.9310 126.9858
L60.7405 127.0811
" />
<path d="M60.7405 127.0811
L60.6453 127.1763
" />
<path d="M62.7405 128.3192
L62.5500 128.2239
" />
<path d="M62.5500 128.2239
L62.4548 128.1287
" />
<path d="M62.4548 128.1287
L62.3595 127.9382
" />
<path d="M62.3595 127.9382
L62.3595 127.3668
" />
<path d="M62.3595 127.3668
L62.4548 127.1763
" />
<path d="M62.4548 127.1763
L62.5500 127.0811
" />
<path d="M62.5500 127.0811
L62.7405 126.9858
" />
<path d="M62.7405 126.9858
L63.0262 126.9858
" />
<path d="M63.0262 126.9858
L63.2167 127.0811
" />
<path d="M63.2167 127.0811
L63.3119 127.1763
" />
<path d="M63.3119 127.1763
L63.4072 127.3668
" />
<path d="M63.4072 127.3668
L63.4072 127.9382
" />
<path d="M63.4072 127.9382
L63.3119 128.1287
" />
<path d="M63.3119 128.1287
L63.2167 128.2239
" />
<path d="M63.2167 128.2239
L63.0262 128.3192
" />
<path d="M63.0262 128.3192
L62.7405 128.3192
" />
<path d="M64.5500 128.3192
L64.3595 128.2239
" />
<path d="M64.3595 128.2239
L64.2643 128.0334
" />
<path d="M64.2643 128.0334
L64.2643 126.3192
" />
<path d="M66.0738 128.2239
L65.8833 128.3192
" />
<path d="M65.8833 128.3192
L65.5024 128.3192
" />
<path d="M65.5024 128.3192
L65.3119 128.2239
" />
<path d="M65.3119 128.2239
L65.2167 128.0334
" />
<path d="M65.2167 128.0334
L65.2167 127.2715
" />
<path d="M65.2167 127.2715
L65.3119 127.0811
" />
<path d="M65.3119 127.0811
L65.5024 126.9858
" />
<path d="M65.5024 126.9858
L65.8833 126.9858
" />
<path d="M65.8833 126.9858
L66.0738 127.0811
" />
<path d="M66.0738 127.0811
L66.1691 127.2715
" />
<path d="M66.1691 127.2715
L66.1691 127.4620
" />
<path d="M66.1691 127.4620
L65.2167 127.6525
" />
<path d="M66.9310 128.2239
L67.1214 128.3192
" />
<path d="M67.1214 128.3192
L67.5024 128.3192
" />
<path d="M67.5024 128.3192
L67.6929 128.2239
" />
<path d="M67.6929 128.2239
L67.7881 128.0334
" />
<path d="M67.7881 128.0334
L67.7881 127.9382
" />
<path d="M67.7881 127.9382
L67.6929 127.7477
" />
<path d="M67.6929 127.7477
L67.5024 127.6525
" />
<path d="M67.5024 127.6525
L67.2167 127.6525
" />
<path d="M67.2167 127.6525
L67.0262 127.5573
" />
<path d="M67.0262 127.5573
L66.9310 127.3668
" />
<path d="M66.9310 127.3668
L66.9310 127.2715
" />
<path d="M66.9310 127.2715
L67.0262 127.0811
" />
<path d="M67.0262 127.0811
L67.2167 126.9858
" />
<path d="M67.2167 126.9858
L67.5024 126.9858
" />
<path d="M67.5024 126.9858
L67.6929 127.0811
" />
<path d="M68.4548 129.0811
L68.5500 128.9858
" />
<path d="M68.5500 128.9858
L68.7405 128.7001
" />
<path d="M68.7405 128.7001
L68.8357 128.5096
" />
<path d="M68.8357 128.5096
L68.9310 128.2239
" />
<path d="M68.9310 128.2239
L69.0262 127.7477
" />
<path d="M69.0262 127.7477
L69.0262 127.3668
" />
<path d="M69.0262 127.3668
L68.9310 126.8906
" />
<path d="M68.9310 126.8906
L68.8357 126.6049
" />
<path d="M68.8357 126.6049
L68.7405 126.4144
" />
<path d="M68.7405 126.4144
L68.5500 126.1287
" />
<path d="M68.5500 126.1287
L68.4548 126.0334
" />
</g></g>
<g style="fill:none; 
stroke:#000000; stroke-width:0.1047; stroke-opacity:1; 
stroke-linecap:round; stroke-linejoin:round;">
<circle cx="18.7418" cy="130.0443" r="0.0576" /> 
</g>
<g style="fill:none; 
stroke:#000000; stroke-width:0.2000; stroke-opacity:1; 
stroke-linecap:round; stroke-linejoin:round;">
<text x="20.7994" y="131.0443"
textLength="46.8667" font-size="2.6667" lengthAdjust="spacingAndGlyphs"
text-anchor="start" opacity="0" stroke-opacity="0">0.110mm / 0.0043" (4 holes)</text>
<g class="stroked-text"><desc>0.110mm / 0.0043" (4 holes)</desc>
<path d="M21.7881 128.9592
L21.9786 128.9592
" />
<path d="M21.9786 128.9592
L22.1691 129.0544
" />
<path d="M22.1691 129.0544
L22.2643 129.1496
" />
<path d="M22.2643 129.1496
L22.3595 129.3401
" />
<path d="M22.3595 129.3401
L22.4548 129.7211
" />
<path d="M22.4548 129.7211
L22.4548 130.1973
" />
<path d="M22.4548 130.1973
L22.3595 130.5782
" />
<path d="M22.3595 130.5782
L22.2643 130.7687
" />
<path d="M22.2643 130.7687
L22.1691 130.8639
" />
<path d="M22.1691 130.8639
L21.9786 130.9592
" />
<path d="M21.9786 130.9592
L21.7881 130.9592
" />
<path d="M21.7881 130.9592
L21.5976 130.8639
" />
<path d="M21.5976 130.8639
L21.5024 130.7687
" />
<path d="M21.5024 130.7687
L21.4071 130.5782
" />
<path d="M21.4071 130.5782
L21.3119 130.1973
" />
<path d="M21.3119 130.1973
L21.3119 129.7211
" />
<path d="M21.3119 129.7211
L21.4071 129.3401
" />
<path d="M21.4071 129.3401
L21.5024 129.1496
" />
<path d="M21.5024 129.1496
L21.5976 129.0544
" />
<path d="M21.5976 129.0544
L21.7881 128.9592
" />
<path d="M23.3119 130.7687
L23.4071 130.8639
" />
<path d="M23.4071 130.8639
L23.3119 130.9592
" />
<path d="M23.3119 130.9592
L23.2167 130.8639
" />
<path d="M23.2167 130.8639
L23.3119 130.7687
" />
<path d="M23.3119 130.7687
L23.3119 130.9592
" />
<path d="M25.3119 130.9592
L24.1691 130.9592
" />
<path d="M24.7405 130.9592
L24.7405 128.9592
" />
<path d="M24.7405 128.9592
L24.5500 129.2449
" />
<path d="M24.5500 129.2449
L24.3595 129.4353
" />
<path d="M24.3595 129.4353
L24.1691 129.5306
" />
<path d="M27.2167 130.9592
L26.0738 130.9592
" />
<path d="M26.6452 130.9592
L26.6452 128.9592
" />
<path d="M26.6452 128.9592
L26.4548 129.2449
" />
<path d="M26.4548 129.2449
L26.2643 129.4353
" />
<path d="M26.2643 129.4353
L26.0738 129.5306
" />
<path d="M28.4548 128.9592
L28.6452 128.9592
" />
<path d="M28.6452 128.9592
L28.8357 129.0544
" />
<path d="M28.8357 129.0544
L28.9310 129.1496
" />
<path d="M28.9310 129.1496
L29.0262 129.3401
" />
<path d="M29.0262 129.3401
L29.1214 129.7211
" />
<path d="M29.1214 129.7211
L29.1214 130.1973
" />
<path d="M29.1214 130.1973
L29.0262 130.5782
" />
<path d="M29.0262 130.5782
L28.9310 130.7687
" />
<path d="M28.9310 130.7687
L28.8357 130.8639
" />
<path d="M28.8357 130.8639
L28.6452 130.9592
" />
<path d="M28.6452 130.9592
L28.4548 130.9592
" />
<path d="M28.4548 130.9592
L28.2643 130.8639
" />
<path d="M28.2643 130.8639
L28.1691 130.7687
" />
<path d="M28.1691 130.7687
L28.0738 130.5782
" />
<path d="M28.0738 130.5782
L27.9786 130.1973
" />
<path d="M27.9786 130.1973
L27.9786 129.7211
" />
<path d="M27.9786 129.7211
L28.0738 129.3401
" />
<path d="M28.0738 129.3401
L28.1691 129.1496
" />
<path d="M28.1691 129.1496
L28.2643 129.0544
" />
<path d="M28.2643 129.0544
L28.4548 128.9592
" />
<path d="M29.9786 130.9592
L29.9786 129.6258
" />
<path d="M29.9786 129.8163
L30.0738 129.7211
" />
<path d="M30.0738 129.7211
L30.2643 129.6258
" />
<path d="M30.2643 129.6258
L30.5500 129.6258
" />
<path d="M30.5500 129.6258
L30.7405 129.7211
" />
<path d="M30.7405 129.7211
L30.8357 129.9115
" />
<path d="M30.8357 129.9115
L30.8357 130.9592
" />
<path d="M30.8357 129.9115
L30.9310 129.7211
" />
<path d="M30.9310 129.7211
L31.1214 129.6258
" />
<path d="M31.1214 129.6258
L31.4071 129.6258
" />
<path d="M31.4071 129.6258
L31.5976 129.7211
" />
<path d="M31.5976 129.7211
L31.6929 129.9115
" />
<path d="M31.6929 129.9115
L31.6929 130.9592
" />
<path d="M32.6452 130.9592
L32.6452 129.6258
" />
<path d="M32.6452 129.8163
L32.7405 129.7211
" />
<path d="M32.7405 129.7211
L32.9310 129.6258
" />
<path d="M32.9310 129.6258
L33.2167 129.6258
" />
<path d="M33.2167 129.6258
L33.4072 129.7211
" />
<path d="M33.4072 129.7211
L33.5024 129.9115
" />
<path d="M33.5024 129.9115
L33.5024 130.9592
" />
<path d="M33.5024 129.9115
L33.5976 129.7211
" />
<path d="M33.5976 129.7211
L33.7881 129.6258
" />
<path d="M33.7881 129.6258
L34.0738 129.6258
" />
<path d="M34.0738 129.6258
L34.2643 129.7211
" />
<path d="M34.2643 129.7211
L34.3595 129.9115
" />
<path d="M34.3595 129.9115
L34.3595 130.9592
" />
<path d="M38.2643 128.8639
L36.5500 131.4353
" />
<path d="M40.8357 128.9592
L41.0262 128.9592
" />
<path d="M41.0262 128.9592
L41.2167 129.0544
" />
<path d="M41.2167 129.0544
L41.3119 129.1496
" />
<path d="M41.3119 129.1496
L41.4072 129.3401
" />
<path d="M41.4072 129.3401
L41.5024 129.7211
" />
<path d="M41.5024 129.7211
L41.5024 130.1973
" />
<path d="M41.5024 130.1973
L41.4072 130.5782
" />
<path d="M41.4072 130.5782
L41.3119 130.7687
" />
<path d="M41.3119 130.7687
L41.2167 130.8639
" />
<path d="M41.2167 130.8639
L41.0262 130.9592
" />
<path d="M41.0262 130.9592
L40.8357 130.9592
" />
<path d="M40.8357 130.9592
L40.6452 130.8639
" />
<path d="M40.6452 130.8639
L40.5500 130.7687
" />
<path d="M40.5500 130.7687
L40.4548 130.5782
" />
<path d="M40.4548 130.5782
L40.3595 130.1973
" />
<path d="M40.3595 130.1973
L40.3595 129.7211
" />
<path d="M40.3595 129.7211
L40.4548 129.3401
" />
<path d="M40.4548 129.3401
L40.5500 129.1496
" />
<path d="M40.5500 129.1496
L40.6452 129.0544
" />
<path d="M40.6452 129.0544
L40.8357 128.9592
" />
<path d="M42.3595 130.7687
L42.4548 130.8639
" />
<path d="M42.4548 130.8639
L42.3595 130.9592
" />
<path d="M42.3595 130.9592
L42.2643 130.8639
" />
<path d="M42.2643 130.8639
L42.3595 130.7687
" />
<path d="M42.3595 130.7687
L42.3595 130.9592
" />
<path d="M43.6929 128.9592
L43.8833 128.9592
" />
<path d="M43.8833 128.9592
L44.0738 129.0544
" />
<path d="M44.0738 129.0544
L44.1691 129.1496
" />
<path d="M44.1691 129.1496
L44.2643 129.3401
" />
<path d="M44.2643 129.3401
L44.3595 129.7211
" />
<path d="M44.3595 129.7211
L44.3595 130.1973
" />
<path d="M44.3595 130.1973
L44.2643 130.5782
" />
<path d="M44.2643 130.5782
L44.1691 130.7687
" />
<path d="M44.1691 130.7687
L44.0738 130.8639
" />
<path d="M44.0738 130.8639
L43.8833 130.9592
" />
<path d="M43.8833 130.9592
L43.6929 130.9592
" />
<path d="M43.6929 130.9592
L43.5024 130.8639
" />
<path d="M43.5024 130.8639
L43.4072 130.7687
" />
<path d="M43.4072 130.7687
L43.3119 130.5782
" />
<path d="M43.3119 130.5782
L43.2167 130.1973
" />
<path d="M43.2167 130.1973
L43.2167 129.7211
" />
<path d="M43.2167 129.7211
L43.3119 129.3401
" />
<path d="M43.3119 129.3401
L43.4072 129.1496
" />
<path d="M43.4072 129.1496
L43.5024 129.0544
" />
<path d="M43.5024 129.0544
L43.6929 128.9592
" />
<path d="M45.5976 128.9592
L45.7881 128.9592
" />
<path d="M45.7881 128.9592
L45.9786 129.0544
" />
<path d="M45.9786 129.0544
L46.0738 129.1496
" />
<path d="M46.0738 129.1496
L46.1691 129.3401
" />
<path d="M46.1691 129.3401
L46.2643 129.7211
" />
<path d="M46.2643 129.7211
L46.2643 130.1973
" />
<path d="M46.2643 130.1973
L46.1691 130.5782
" />
<path d="M46.1691 130.5782
L46.0738 130.7687
" />
<path d="M46.0738 130.7687
L45.9786 130.8639
" />
<path d="M45.9786 130.8639
L45.7881 130.9592
" />
<path d="M45.7881 130.9592
L45.5976 130.9592
" />
<path d="M45.5976 130.9592
L45.4072 130.8639
" />
<path d="M45.4072 130.8639
L45.3119 130.7687
" />
<path d="M45.3119 130.7687
L45.2167 130.5782
" />
<path d="M45.2167 130.5782
L45.1214 130.1973
" />
<path d="M45.1214 130.1973
L45.1214 129.7211
" />
<path d="M45.1214 129.7211
L45.2167 129.3401
" />
<path d="M45.2167 129.3401
L45.3119 129.1496
" />
<path d="M45.3119 129.1496
L45.4072 129.0544
" />
<path d="M45.4072 129.0544
L45.5976 128.9592
" />
<path d="M47.9786 129.6258
L47.9786 130.9592
" />
<path d="M47.5024 128.8639
L47.0262 130.2925
" />
<path d="M47.0262 130.2925
L48.2643 130.2925
" />
<path d="M48.8357 128.9592
L50.0738 128.9592
" />
<path d="M50.0738 128.9592
L49.4072 129.7211
" />
<path d="M49.4072 129.7211
L49.6929 129.7211
" />
<path d="M49.6929 129.7211
L49.8833 129.8163
" />
<path d="M49.8833 129.8163
L49.9786 129.9115
" />
<path d="M49.9786 129.9115
L50.0738 130.1020
" />
<path d="M50.0738 130.1020
L50.0738 130.5782
" />
<path d="M50.0738 130.5782
L49.9786 130.7687
" />
<path d="M49.9786 130.7687
L49.8833 130.8639
" />
<path d="M49.8833 130.8639
L49.6929 130.9592
" />
<path d="M49.6929 130.9592
L49.1214 130.9592
" />
<path d="M49.1214 130.9592
L48.9310 130.8639
" />
<path d="M48.9310 130.8639
L48.8357 130.7687
" />
<path d="M50.8357 128.9592
L50.8357 129.3401
" />
<path d="M51.5976 128.9592
L51.5976 129.3401
" />
<path d="M54.5500 131.7211
L54.4548 131.6258
" />
<path d="M54.4548 131.6258
L54.2643 131.3401
" />
<path d="M54.2643 131.3401
L54.1691 131.1496
" />
<path d="M54.1691 131.1496
L54.0738 130.8639
" />
<path d="M54.0738 130.8639
L53.9786 130.3877
" />
<path d="M53.9786 130.3877
L53.9786 130.0068
" />
<path d="M53.9786 130.0068
L54.0738 129.5306
" />
<path d="M54.0738 129.5306
L54.1691 129.2449
" />
<path d="M54.1691 129.2449
L54.2643 129.0544
" />
<path d="M54.2643 129.0544
L54.4548 128.7687
" />
<path d="M54.4548 128.7687
L54.5500 128.6734
" />
<path d="M56.1691 129.6258
L56.1691 130.9592
" />
<path d="M55.6929 128.8639
L55.2167 130.2925
" />
<path d="M55.2167 130.2925
L56.4548 130.2925
" />
<path d="M58.7405 130.9592
L58.7405 128.9592
" />
<path d="M59.5976 130.9592
L59.5976 129.9115
" />
<path d="M59.5976 129.9115
L59.5024 129.7211
" />
<path d="M59.5024 129.7211
L59.3119 129.6258
" />
<path d="M59.3119 129.6258
L59.0262 129.6258
" />
<path d="M59.0262 129.6258
L58.8357 129.7211
" />
<path d="M58.8357 129.7211
L58.7405 129.8163
" />
<path d="M60.8357 130.9592
L60.6453 130.8639
" />
<path d="M60.6453 130.8639
L60.5500 130.7687
" />
<path d="M60.5500 130.7687
L60.4548 130.5782
" />
<path d="M60.4548 130.5782
L60.4548 130.0068
" />
<path d="M60.4548 130.0068
L60.5500 129.8163
" />
<path d="M60.5500 129.8163
L60.6453 129.7211
" />
<path d="M60.6453 129.7211
L60.8357 129.6258
" />
<path d="M60.8357 129.6258
L61.1214 129.6258
" />
<path d="M61.1214 129.6258
L61.3119 129.7211
" />
<path d="M61.3119 129.7211
L61.4072 129.8163
" />
<path d="M61.4072 129.8163
L61.5024 130.0068
" />
<path d="M61.5024 130.0068
L61.5024 130.5782
" />
<path d="M61.5024 130.5782
L61.4072 130.7687
" />
<path d="M61.4072 130.7687
L61.3119 130.8639
" />
<path d="M61.3119 130.8639
L61.1214 130.9592
" />
<path d="M61.1214 130.9592
L60.8357 130.9592
" />
<path d="M62.6453 130.9592
L62.4548 130.8639
" />
<path d="M62.4548 130.8639
L62.3595 130.6734
" />
<path d="M62.3595 130.6734
L62.3595 128.9592
" />
<path d="M64.1691 130.8639
L63.9786 130.9592
" />
<path d="M63.9786 130.9592
L63.5976 130.9592
" />
<path d="M63.5976 130.9592
L63.4072 130.8639
" />
<path d="M63.4072 130.8639
L63.3119 130.6734
" />
<path d="M63.3119 130.6734
L63.3119 129.9115
" />
<path d="M63.3119 129.9115
L63.4072 129.7211
" />
<path d="M63.4072 129.7211
L63.5976 129.6258
" />
<path d="M63.5976 129.6258
L63.9786 129.6258
" />
<path d="M63.9786 129.6258
L64.1691 129.7211
" />
<path d="M64.1691 129.7211
L64.2643 129.9115
" />
<path d="M64.2643 129.9115
L64.2643 130.1020
" />
<path d="M64.2643 130.1020
L63.3119 130.2925
" />
<path d="M65.0262 130.8639
L65.2167 130.9592
" />
<path d="M65.2167 130.9592
L65.5976 130.9592
" />
<path d="M65.5976 130.9592
L65.7881 130.8639
" />
<path d="M65.7881 130.8639
L65.8833 130.6734
" />
<path d="M65.8833 130.6734
L65.8833 130.5782
" />
<path d="M65.8833 130.5782
L65.7881 130.3877
" />
<path d="M65.7881 130.3877
L65.5976 130.2925
" />
<path d="M65.5976 130.2925
L65.3119 130.2925
" />
<path d="M65.3119 130.2925
L65.1214 130.1973
" />
<path d="M65.1214 130.1973
L65.0262 130.0068
" />
<path d="M65.0262 130.0068
L65.0262 129.9115
" />
<path d="M65.0262 129.9115
L65.1214 129.7211
" />
<path d="M65.1214 129.7211
L65.3119 129.6258
" />
<path d="M65.3119 129.6258
L65.5976 129.6258
" />
<path d="M65.5976 129.6258
L65.7881 129.7211
" />
<path d="M66.5500 131.7211
L66.6453 131.6258
" />
<path d="M66.6453 131.6258
L66.8357 131.3401
" />
<path d="M66.8357 131.3401
L66.9310 131.1496
" />
<path d="M66.9310 131.1496
L67.0262 130.8639
" />
<path d="M67.0262 130.8639
L67.1214 130.3877
" />
<path d="M67.1214 130.3877
L67.1214 130.0068
" />
<path d="M67.1214 130.0068
L67.0262 129.5306
" />
<path d="M67.0262 129.5306
L66.9310 129.2449
" />
<path d="M66.9310 129.2449
L66.8357 129.0544
" />
<path d="M66.8357 129.0544
L66.6453 128.7687
" />
<path d="M66.6453 128.7687
L66.5500 128.6734
" />
</g></g>
<g style="fill:none; 
stroke:#000000; stroke-width:0.1047; stroke-opacity:1; 
stroke-linecap:round; stroke-linejoin:round;">
<path d="M18.6946 132.5796
L18.6946 132.7891
" />
<path d="M18.5899 132.6843
L18.7994 132.6843
" />
</g>
<g style="fill:none; 
stroke:#000000; stroke-width:0.2000; stroke-opacity:1; 
stroke-linecap:round; stroke-linejoin:round;">
<text x="20.7994" y="133.6843"
textLength="46.8667" font-size="2.6667" lengthAdjust="spacingAndGlyphs"
text-anchor="start" opacity="0" stroke-opacity="0">0.200mm / 0.0079" (7 holes)</text>
<g class="stroked-text"><desc>0.200mm / 0.0079" (7 holes)</desc>
<path d="M21.7881 131.5992
L21.9786 131.5992
" />
<path d="M21.9786 131.5992
L22.1691 131.6944
" />
<path d="M22.1691 131.6944
L22.2643 131.7896
" />
<path d="M22.2643 131.7896
L22.3595 131.9801
" />
<path d="M22.3595 131.9801
L22.4548 132.3611
" />
<path d="M22.4548 132.3611
L22.4548 132.8373
" />
<path d="M22.4548 132.8373
L22.3595 133.2182
" />
<path d="M22.3595 133.2182
L22.2643 133.4087
" />
<path d="M22.2643 133.4087
L22.1691 133.5039
" />
<path d="M22.1691 133.5039
L21.9786 133.5992
" />
<path d="M21.9786 133.5992
L21.7881 133.5992
" />
<path d="M21.7881 133.5992
L21.5976 133.5039
" />
<path d="M21.5976 133.5039
L21.5024 133.4087
" />
<path d="M21.5024 133.4087
L21.4071 133.2182
" />
<path d="M21.4071 133.2182
L21.3119 132.8373
" />
<path d="M21.3119 132.8373
L21.3119 132.3611
" />
<path d="M21.3119 132.3611
L21.4071 131.9801
" />
<path d="M21.4071 131.9801
L21.5024 131.7896
" />
<path d="M21.5024 131.7896
L21.5976 131.6944
" />
<path d="M21.5976 131.6944
L21.7881 131.5992
" />
<path d="M23.3119 133.4087
L23.4071 133.5039
" />
<path d="M23.4071 133.5039
L23.3119 133.5992
" />
<path d="M23.3119 133.5992
L23.2167 133.5039
" />
<path d="M23.2167 133.5039
L23.3119 133.4087
" />
<path d="M23.3119 133.4087
L23.3119 133.5992
" />
<path d="M24.1691 131.7896
L24.2643 131.6944
" />
<path d="M24.2643 131.6944
L24.4548 131.5992
" />
<path d="M24.4548 131.5992
L24.9310 131.5992
" />
<path d="M24.9310 131.5992
L25.1214 131.6944
" />
<path d="M25.1214 131.6944
L25.2167 131.7896
" />
<path d="M25.2167 131.7896
L25.3119 131.9801
" />
<path d="M25.3119 131.9801
L25.3119 132.1706
" />
<path d="M25.3119 132.1706
L25.2167 132.4563
" />
<path d="M25.2167 132.4563
L24.0738 133.5992
" />
<path d="M24.0738 133.5992
L25.3119 133.5992
" />
<path d="M26.5500 131.5992
L26.7405 131.5992
" />
<path d="M26.7405 131.5992
L26.9310 131.6944
" />
<path d="M26.9310 131.6944
L27.0262 131.7896
" />
<path d="M27.0262 131.7896
L27.1214 131.9801
" />
<path d="M27.1214 131.9801
L27.2167 132.3611
" />
<path d="M27.2167 132.3611
L27.2167 132.8373
" />
<path d="M27.2167 132.8373
L27.1214 133.2182
" />
<path d="M27.1214 133.2182
L27.0262 133.4087
" />
<path d="M27.0262 133.4087
L26.9310 133.5039
" />
<path d="M26.9310 133.5039
L26.7405 133.5992
" />
<path d="M26.7405 133.5992
L26.5500 133.5992
" />
<path d="M26.5500 133.5992
L26.3595 133.5039
" />
<path d="M26.3595 133.5039
L26.2643 133.4087
" />
<path d="M26.2643 133.4087
L26.1691 133.2182
" />
<path d="M26.1691 133.2182
L26.0738 132.8373
" />
<path d="M26.0738 132.8373
L26.0738 132.3611
" />
<path d="M26.0738 132.3611
L26.1691 131.9801
" />
<path d="M26.1691 131.9801
L26.2643 131.7896
" />
<path d="M26.2643 131.7896
L26.3595 131.6944
" />
<path d="M26.3595 131.6944
L26.5500 131.5992
" />
<path d="M28.4548 131.5992
L28.6452 131.5992
" />
<path d="M28.6452 131.5992
L28.8357 131.6944
" />
<path d="M28.8357 131.6944
L28.9310 131.7896
" />
<path d="M28.9310 131.7896
L29.0262 131.9801
" />
<path d="M29.0262 131.9801
L29.1214 132.3611
" />
<path d="M29.1214 132.3611
L29.1214 132.8373
" />
<path d="M29.1214 132.8373
L29.0262 133.2182
" />
<path d="M29.0262 133.2182
L28.9310 133.4087
" />
<path d="M28.9310 133.4087
L28.8357 133.5039
" />
<path d="M28.8357 133.5039
L28.6452 133.5992
" />
<path d="M28.6452 133.5992
L28.4548 133.5992
" />
<path d="M28.4548 133.5992
L28.2643 133.5039
" />
<path d="M28.2643 133.5039
L28.1691 133.4087
" />
<path d="M28.1691 133.4087
L28.0738 133.2182
" />
<path d="M28.0738 133.2182
L27.9786 132.8373
" />
<path d="M27.9786 132.8373
L27.9786 132.3611
" />
<path d="M27.9786 132.3611
L28.0738 131.9801
" />
<path d="M28.0738 131.9801
L28.1691 131.7896
" />
<path d="M28.1691 131.7896
L28.2643 131.6944
" />
<path d="M28.2643 131.6944
L28.4548 131.5992
" />
<path d="M29.9786 133.5992
L29.9786 132.2658
" />
<path d="M29.9786 132.4563
L30.0738 132.3611
" />
<path d="M30.0738 132.3611
L30.2643 132.2658
" />
<path d="M30.2643 132.2658
L30.5500 132.2658
" />
<path d="M30.5500 132.2658
L30.7405 132.3611
" />
<path d="M30.7405 132.3611
L30.8357 132.5515
" />
<path d="M30.8357 132.5515
L30.8357 133.5992
" />
<path d="M30.8357 132.5515
L30.9310 132.3611
" />
<path d="M30.9310 132.3611
L31.1214 132.2658
" />
<path d="M31.1214 132.2658
L31.4071 132.2658
" />
<path d="M31.4071 132.2658
L31.5976 132.3611
" />
<path d="M31.5976 132.3611
L31.6929 132.5515
" />
<path d="M31.6929 132.5515
L31.6929 133.5992
" />
<path d="M32.6452 133.5992
L32.6452 132.2658
" />
<path d="M32.6452 132.4563
L32.7405 132.3611
" />
<path d="M32.7405 132.3611
L32.9310 132.2658
" />
<path d="M32.9310 132.2658
L33.2167 132.2658
" />
<path d="M33.2167 132.2658
L33.4072 132.3611
" />
<path d="M33.4072 132.3611
L33.5024 132.5515
" />
<path d="M33.5024 132.5515
L33.5024 133.5992
" />
<path d="M33.5024 132.5515
L33.5976 132.3611
" />
<path d="M33.5976 132.3611
L33.7881 132.2658
" />
<path d="M33.7881 132.2658
L34.0738 132.2658
" />
<path d="M34.0738 132.2658
L34.2643 132.3611
" />
<path d="M34.2643 132.3611
L34.3595 132.5515
" />
<path d="M34.3595 132.5515
L34.3595 133.5992
" />
<path d="M38.2643 131.5039
L36.5500 134.0753
" />
<path d="M40.8357 131.5992
L41.0262 131.5992
" />
<path d="M41.0262 131.5992
L41.2167 131.6944
" />
<path d="M41.2167 131.6944
L41.3119 131.7896
" />
<path d="M41.3119 131.7896
L41.4072 131.9801
" />
<path d="M41.4072 131.9801
L41.5024 132.3611
" />
<path d="M41.5024 132.3611
L41.5024 132.8373
" />
<path d="M41.5024 132.8373
L41.4072 133.2182
" />
<path d="M41.4072 133.2182
L41.3119 133.4087
" />
<path d="M41.3119 133.4087
L41.2167 133.5039
" />
<path d="M41.2167 133.5039
L41.0262 133.5992
" />
<path d="M41.0262 133.5992
L40.8357 133.5992
" />
<path d="M40.8357 133.5992
L40.6452 133.5039
" />
<path d="M40.6452 133.5039
L40.5500 133.4087
" />
<path d="M40.5500 133.4087
L40.4548 133.2182
" />
<path d="M40.4548 133.2182
L40.3595 132.8373
" />
<path d="M40.3595 132.8373
L40.3595 132.3611
" />
<path d="M40.3595 132.3611
L40.4548 131.9801
" />
<path d="M40.4548 131.9801
L40.5500 131.7896
" />
<path d="M40.5500 131.7896
L40.6452 131.6944
" />
<path d="M40.6452 131.6944
L40.8357 131.5992
" />
<path d="M42.3595 133.4087
L42.4548 133.5039
" />
<path d="M42.4548 133.5039
L42.3595 133.5992
" />
<path d="M42.3595 133.5992
L42.2643 133.5039
" />
<path d="M42.2643 133.5039
L42.3595 133.4087
" />
<path d="M42.3595 133.4087
L42.3595 133.5992
" />
<path d="M43.6929 131.5992
L43.8833 131.5992
" />
<path d="M43.8833 131.5992
L44.0738 131.6944
" />
<path d="M44.0738 131.6944
L44.1691 131.7896
" />
<path d="M44.1691 131.7896
L44.2643 131.9801
" />
<path d="M44.2643 131.9801
L44.3595 132.3611
" />
<path d="M44.3595 132.3611
L44.3595 132.8373
" />
<path d="M44.3595 132.8373
L44.2643 133.2182
" />
<path d="M44.2643 133.2182
L44.1691 133.4087
" />
<path d="M44.1691 133.4087
L44.0738 133.5039
" />
<path d="M44.0738 133.5039
L43.8833 133.5992
" />
<path d="M43.8833 133.5992
L43.6929 133.5992
" />
<path d="M43.6929 133.5992
L43.5024 133.5039
" />
<path d="M43.5024 133.5039
L43.4072 133.4087
" />
<path d="M43.4072 133.4087
L43.3119 133.2182
" />
<path d="M43.3119 133.2182
L43.2167 132.8373
" />
<path d="M43.2167 132.8373
L43.2167 132.3611
" />
<path d="M43.2167 132.3611
L43.3119 131.9801
" />
<path d="M43.3119 131.9801
L43.4072 131.7896
" />
<path d="M43.4072 131.7896
L43.5024 131.6944
" />
<path d="M43.5024 131.6944
L43.6929 131.5992
" />
<path d="M45.5976 131.5992
L45.7881 131.5992
" />
<path d="M45.7881 131.5992
L45.9786 131.6944
" />
<path d="M45.9786 131.6944
L46.0738 131.7896
" />
<path d="M46.0738 131.7896
L46.1691 131.9801
" />
<path d="M46.1691 131.9801
L46.2643 132.3611
" />
<path d="M46.2643 132.3611
L46.2643 132.8373
" />
<path d="M46.2643 132.8373
L46.1691 133.2182
" />
<path d="M46.1691 133.2182
L46.0738 133.4087
" />
<path d="M46.0738 133.4087
L45.9786 133.5039
" />
<path d="M45.9786 133.5039
L45.7881 133.5992
" />
<path d="M45.7881 133.5992
L45.5976 133.5992
" />
<path d="M45.5976 133.5992
L45.4072 133.5039
" />
<path d="M45.4072 133.5039
L45.3119 133.4087
" />
<path d="M45.3119 133.4087
L45.2167 133.2182
" />
<path d="M45.2167 133.2182
L45.1214 132.8373
" />
<path d="M45.1214 132.8373
L45.1214 132.3611
" />
<path d="M45.1214 132.3611
L45.2167 131.9801
" />
<path d="M45.2167 131.9801
L45.3119 131.7896
" />
<path d="M45.3119 131.7896
L45.4072 131.6944
" />
<path d="M45.4072 131.6944
L45.5976 131.5992
" />
<path d="M46.9310 131.5992
L48.2643 131.5992
" />
<path d="M48.2643 131.5992
L47.4072 133.5992
" />
<path d="M49.1214 133.5992
L49.5024 133.5992
" />
<path d="M49.5024 133.5992
L49.6929 133.5039
" />
<path d="M49.6929 133.5039
L49.7881 133.4087
" />
<path d="M49.7881 133.4087
L49.9786 133.1230
" />
<path d="M49.9786 133.1230
L50.0738 132.7420
" />
<path d="M50.0738 132.7420
L50.0738 131.9801
" />
<path d="M50.0738 131.9801
L49.9786 131.7896
" />
<path d="M49.9786 131.7896
L49.8833 131.6944
" />
<path d="M49.8833 131.6944
L49.6929 131.5992
" />
<path d="M49.6929 131.5992
L49.3119 131.5992
" />
<path d="M49.3119 131.5992
L49.1214 131.6944
" />
<path d="M49.1214 131.6944
L49.0262 131.7896
" />
<path d="M49.0262 131.7896
L48.9310 131.9801
" />
<path d="M48.9310 131.9801
L48.9310 132.4563
" />
<path d="M48.9310 132.4563
L49.0262 132.6468
" />
<path d="M49.0262 132.6468
L49.1214 132.7420
" />
<path d="M49.1214 132.7420
L49.3119 132.8373
" />
<path d="M49.3119 132.8373
L49.6929 132.8373
" />
<path d="M49.6929 132.8373
L49.8833 132.7420
" />
<path d="M49.8833 132.7420
L49.9786 132.6468
" />
<path d="M49.9786 132.6468
L50.0738 132.4563
" />
<path d="M50.8357 131.5992
L50.8357 131.9801
" />
<path d="M51.5976 131.5992
L51.5976 131.9801
" />
<path d="M54.5500 134.3611
L54.4548 134.2658
" />
<path d="M54.4548 134.2658
L54.2643 133.9801
" />
<path d="M54.2643 133.9801
L54.1691 133.7896
" />
<path d="M54.1691 133.7896
L54.0738 133.5039
" />
<path d="M54.0738 133.5039
L53.9786 133.0277
" />
<path d="M53.9786 133.0277
L53.9786 132.6468
" />
<path d="M53.9786 132.6468
L54.0738 132.1706
" />
<path d="M54.0738 132.1706
L54.1691 131.8849
" />
<path d="M54.1691 131.8849
L54.2643 131.6944
" />
<path d="M54.2643 131.6944
L54.4548 131.4087
" />
<path d="M54.4548 131.4087
L54.5500 131.3134
" />
<path d="M55.1214 131.5992
L56.4548 131.5992
" />
<path d="M56.4548 131.5992
L55.5976 133.5992
" />
<path d="M58.7405 133.5992
L58.7405 131.5992
" />
<path d="M59.5976 133.5992
L59.5976 132.5515
" />
<path d="M59.5976 132.5515
L59.5024 132.3611
" />
<path d="M59.5024 132.3611
L59.3119 132.2658
" />
<path d="M59.3119 132.2658
L59.0262 132.2658
" />
<path d="M59.0262 132.2658
L58.8357 132.3611
" />
<path d="M58.8357 132.3611
L58.7405 132.4563
" />
<path d="M60.8357 133.5992
L60.6453 133.5039
" />
<path d="M60.6453 133.5039
L60.5500 133.4087
" />
<path d="M60.5500 133.4087
L60.4548 133.2182
" />
<path d="M60.4548 133.2182
L60.4548 132.6468
" />
<path d="M60.4548 132.6468
L60.5500 132.4563
" />
<path d="M60.5500 132.4563
L60.6453 132.3611
" />
<path d="M60.6453 132.3611
L60.8357 132.2658
" />
<path d="M60.8357 132.2658
L61.1214 132.2658
" />
<path d="M61.1214 132.2658
L61.3119 132.3611
" />
<path d="M61.3119 132.3611
L61.4072 132.4563
" />
<path d="M61.4072 132.4563
L61.5024 132.6468
" />
<path d="M61.5024 132.6468
L61.5024 133.2182
" />
<path d="M61.5024 133.2182
L61.4072 133.4087
" />
<path d="M61.4072 133.4087
L61.3119 133.5039
" />
<path d="M61.3119 133.5039
L61.1214 133.5992
" />
<path d="M61.1214 133.5992
L60.8357 133.5992
" />
<path d="M62.6453 133.5992
L62.4548 133.5039
" />
<path d="M62.4548 133.5039
L62.3595 133.3134
" />
<path d="M62.3595 133.3134
L62.3595 131.5992
" />
<path d="M64.1691 133.5039
L63.9786 133.5992
" />
<path d="M63.9786 133.5992
L63.5976 133.5992
" />
<path d="M63.5976 133.5992
L63.4072 133.5039
" />
<path d="M63.4072 133.5039
L63.3119 133.3134
" />
<path d="M63.3119 133.3134
L63.3119 132.5515
" />
<path d="M63.3119 132.5515
L63.4072 132.3611
" />
<path d="M63.4072 132.3611
L63.5976 132.2658
" />
<path d="M63.5976 132.2658
L63.9786 132.2658
" />
<path d="M63.9786 132.2658
L64.1691 132.3611
" />
<path d="M64.1691 132.3611
L64.2643 132.5515
" />
<path d="M64.2643 132.5515
L64.2643 132.7420
" />
<path d="M64.2643 132.7420
L63.3119 132.9325
" />
<path d="M65.0262 133.5039
L65.2167 133.5992
" />
<path d="M65.2167 133.5992
L65.5976 133.5992
" />
<path d="M65.5976 133.5992
L65.7881 133.5039
" />
<path d="M65.7881 133.5039
L65.8833 133.3134
" />
<path d="M65.8833 133.3134
L65.8833 133.2182
" />
<path d="M65.8833 133.2182
L65.7881 133.0277
" />
<path d="M65.7881 133.0277
L65.5976 132.9325
" />
<path d="M65.5976 132.9325
L65.3119 132.9325
" />
<path d="M65.3119 132.9325
L65.1214 132.8373
" />
<path d="M65.1214 132.8373
L65.0262 132.6468
" />
<path d="M65.0262 132.6468
L65.0262 132.5515
" />
<path d="M65.0262 132.5515
L65.1214 132.3611
" />
<path d="M65.1214 132.3611
L65.3119 132.2658
" />
<path d="M65.3119 132.2658
L65.5976 132.2658
" />
<path d="M65.5976 132.2658
L65.7881 132.3611
" />
<path d="M66.5500 134.3611
L66.6453 134.2658
" />
<path d="M66.6453 134.2658
L66.8357 133.9801
" />
<path d="M66.8357 133.9801
L66.9310 133.7896
" />
<path d="M66.9310 133.7896
L67.0262 133.5039
" />
<path d="M67.0262 133.5039
L67.1214 133.0277
" />
<path d="M67.1214 133.0277
L67.1214 132.6468
" />
<path d="M67.1214 132.6468
L67.0262 132.1706
" />
<path d="M67.0262 132.1706
L66.9310 131.8849
" />
<path d="M66.9310 131.8849
L66.8357 131.6944
" />
<path d="M66.8357 131.6944
L66.6453 131.4087
" />
<path d="M66.6453 131.4087
L66.5500 131.3134
" />
</g></g> 
</svg>
