G04 ===== Begin FILE IDENTIFICATION =====*
G04 File Format:  Gerber RS274X*
G04 ===== End FILE IDENTIFICATION =====*
%FSLAX24Y24*%
%MOMM*%
%SFA1.0000B1.0000*%
%OFA0.0B0.0*%
%ADD14C,22.200000*%
%LNcond*%
%IPPOS*%
%LPD*%
G75*
G36*
G01X39408Y-585647D02*
G01X39407Y-585646D01*
G02X432732Y-321841I238251J69895D01*
G01X447357Y-303554D01*
G01X447356Y-303553D01*
G03X16938Y-592238I-169698J-212198D01*
G01X39408Y-585647D01*
G37*
G36*
G01X209646Y-793879D02*
G01X209645D01*
G01X196857Y-813494D01*
G01X196858Y-813495D01*
G03X597344Y-484543I148384J227612D01*
G01X597345Y-484542D01*
G01X575617Y-493276D01*
G01X575618D01*
G02X209646Y-793879I-230376J-92606D01*
G01X209646Y-793879D01*
G37*
G36*
G01X456233Y-431274D02*
G01X437572Y-445421D01*
G01X437573D01*
G02X164586Y-670238I-141026J-106905D01*
G01Y-670237D01*
G01X147125Y-685839D01*
G01X147126Y-685840D01*
G03X456233Y-431276I149421J133514D01*
G01Y-431274D01*
G37*
G36*
G01X437574Y-445422D02*
G01Y-445423D01*
G01X456235Y-431277D01*
G01X456234Y-431276D01*
G03X127634Y-660127I-159686J-121050D01*
G01Y-660129D01*
G01X147374Y-647531D01*
G01X147373Y-647530D01*
G02X437574Y-445422I149175J95203D01*
G01X437574Y-445422D01*
G37*
G36*
G01X-70006Y-740531D02*
G01X-85996Y-701469D01*
G01X121807Y-616404D01*
G01X137797Y-655466D01*
G01X-70006Y-740531D01*
G37*
G36*
G01X459652Y-455168D02*
G01X434154Y-421532D01*
G01X613092Y-285887D01*
G01X638590Y-319523D01*
G01X459652Y-455168D01*
G37*
G36*
G01X44963Y-878398D02*
G01X12384Y-851564D01*
G01X155139Y-678246D01*
G01X187719Y-705080D01*
G01X44963Y-878398D01*
G37*
G36*
G01X-167006Y-668531D02*
G01X-182996Y-629469D01*
G01X24807Y-544404D01*
G01X40797Y-583466D01*
G01X-167006Y-668531D01*
G37*
G36*
G01X95289Y-1001418D02*
G01X62710Y-974584D01*
G01X205465Y-801266D01*
G01X238045Y-828100D01*
G01X95289Y-1001418D01*
G37*
G36*
G01X434748Y-322819D02*
G01X409250Y-289183D01*
G01X588188Y-153538D01*
G01X613686Y-187174D01*
G01X434748Y-322819D01*
G37*
G36*
G01X588366Y-510095D02*
G01X562868Y-476459D01*
G01X741806Y-340814D01*
G01X767304Y-374450D01*
G01X588366Y-510095D01*
G37*
G36*
G01X-175006Y-633531D02*
G01X-190996Y-594469D01*
G01X16807Y-509404D01*
G01X32797Y-548466D01*
G01X-175006Y-633531D01*
G37*
G36*
G01X-181006Y-595531D02*
G01X-196996Y-556469D01*
G01X10807Y-471404D01*
G01X26797Y-510466D01*
G01X-181006Y-595531D01*
G37*
G36*
G01X-182006Y-552531D02*
G01X-197996Y-513469D01*
G01X9807Y-428404D01*
G01X25797Y-467466D01*
G01X-182006Y-552531D01*
G37*
G36*
G01X-171006Y-520531D02*
G01X-186996Y-481469D01*
G01X20807Y-396404D01*
G01X36797Y-435466D01*
G01X-171006Y-520531D01*
G37*
G36*
G01X-160006Y-488531D02*
G01X-175996Y-449469D01*
G01X31807Y-364404D01*
G01X47797Y-403466D01*
G01X-160006Y-488531D01*
G37*
G36*
G01X-141006Y-450531D02*
G01X-156996Y-411469D01*
G01X50807Y-326404D01*
G01X66797Y-365466D01*
G01X-141006Y-450531D01*
G37*
G36*
G01X-116006Y-419531D02*
G01X-131996Y-380469D01*
G01X75807Y-295404D01*
G01X91797Y-334466D01*
G01X-116006Y-419531D01*
G37*
G36*
G01X-62006Y-378531D02*
G01X-77996Y-339469D01*
G01X129807Y-254404D01*
G01X145797Y-293466D01*
G01X-62006Y-378531D01*
G37*
G36*
G01X-58006Y-344531D02*
G01X-73996Y-305469D01*
G01X133807Y-220404D01*
G01X149797Y-259466D01*
G01X-58006Y-344531D01*
G37*
G36*
G01X-257006Y-434531D02*
G01X-272996Y-395469D01*
G01X-65193Y-310404D01*
G01X-49203Y-349466D01*
G01X-257006Y-434531D01*
G37*
G36*
G01X-282006Y-476531D02*
G01X-297996Y-437469D01*
G01X-90193Y-352404D01*
G01X-74203Y-391466D01*
G01X-282006Y-476531D01*
G37*
G36*
G01X-284006Y-507531D02*
G01X-299996Y-468469D01*
G01X-92193Y-383404D01*
G01X-76203Y-422466D01*
G01X-284006Y-507531D01*
G37*
G36*
G01X-266006Y-542531D02*
G01X-281996Y-503469D01*
G01X-74193Y-418404D01*
G01X-58203Y-457466D01*
G01X-266006Y-542531D01*
G37*
G36*
G01X-268006Y-571531D02*
G01X-283996Y-532469D01*
G01X-76193Y-447404D01*
G01X-60203Y-486466D01*
G01X-268006Y-571531D01*
G37*
G36*
G01X-247006Y-607531D02*
G01X-262996Y-568469D01*
G01X-55193Y-483404D01*
G01X-39203Y-522466D01*
G01X-247006Y-607531D01*
G37*
G36*
G01X-244006Y-627531D02*
G01X-259996Y-588469D01*
G01X-52193Y-503404D01*
G01X-36203Y-542466D01*
G01X-244006Y-627531D01*
G37*
G36*
G01X149795Y-259466D02*
G01X133805Y-220404D01*
G01X341608Y-135339D01*
G01X357598Y-174401D01*
G01X149795Y-259466D01*
G37*
G36*
G01X145794Y-293466D02*
G01X129804Y-254404D01*
G01X337607Y-169339D01*
G01X353597Y-208401D01*
G01X145794Y-293466D01*
G37*
G36*
G01X257690Y-270464D02*
G01X241700Y-231402D01*
G01X449503Y-146337D01*
G01X465493Y-185399D01*
G01X257690Y-270464D01*
G37*
G36*
G01X353595Y-208400D02*
G01X337605Y-169338D01*
G01X545408Y-84273D01*
G01X561398Y-123335D01*
G01X353595Y-208400D01*
G37*
G36*
G01X330994Y-165531D02*
G01X315004Y-126469D01*
G01X522807Y-41404D01*
G01X538797Y-80466D01*
G01X330994Y-165531D01*
G37*
G36*
G01X357596Y-174401D02*
G01X341606Y-135339D01*
G01X549409Y-50274D01*
G01X565399Y-89336D01*
G01X357596Y-174401D01*
G37*
G36*
G01X327994Y-265531D02*
G01X312004Y-226469D01*
G01X519807Y-141404D01*
G01X535797Y-180466D01*
G01X327994Y-265531D01*
G37*
G36*
G01X412748Y-287819D02*
G01X387250Y-254183D01*
G01X566188Y-118538D01*
G01X591686Y-152174D01*
G01X412748Y-287819D01*
G37*
G36*
G01X376748Y-280819D02*
G01X351250Y-247183D01*
G01X530188Y-111538D01*
G01X555686Y-145174D01*
G01X376748Y-280819D01*
G37*
G36*
G01X225748Y-221819D02*
G01X200250Y-188183D01*
G01X379188Y-52538D01*
G01X404686Y-86174D01*
G01X225748Y-221819D01*
G37*
G36*
G01X322748Y-195819D02*
G01X297250Y-162183D01*
G01X476188Y-26538D01*
G01X501686Y-60174D01*
G01X322748Y-195819D01*
G37*
G36*
G01X159748Y-233819D02*
G01X134250Y-200183D01*
G01X313188Y-64538D01*
G01X338686Y-98174D01*
G01X159748Y-233819D01*
G37*
G36*
G01X609748Y-538819D02*
G01X584250Y-505183D01*
G01X763188Y-369538D01*
G01X788686Y-403174D01*
G01X609748Y-538819D01*
G37*
G36*
G01X629748Y-574819D02*
G01X604250Y-541183D01*
G01X783188Y-405538D01*
G01X808686Y-439174D01*
G01X629748Y-574819D01*
G37*
G36*
G01X628748Y-612819D02*
G01X603250Y-579183D01*
G01X782188Y-443538D01*
G01X807686Y-477174D01*
G01X628748Y-612819D01*
G37*
G36*
G01X619748Y-658819D02*
G01X594250Y-625183D01*
G01X773188Y-489538D01*
G01X798686Y-523174D01*
G01X619748Y-658819D01*
G37*
G36*
G01X619748Y-627819D02*
G01X594250Y-594183D01*
G01X773188Y-458538D01*
G01X798686Y-492174D01*
G01X619748Y-627819D01*
G37*
G36*
G01X632748Y-590819D02*
G01X607250Y-557183D01*
G01X786188Y-421538D01*
G01X811686Y-455174D01*
G01X632748Y-590819D01*
G37*
G36*
G01X126289Y-1021418D02*
G01X93710Y-994584D01*
G01X236465Y-821266D01*
G01X269045Y-848100D01*
G01X126289Y-1021418D01*
G37*
G36*
G01X163289Y-1033418D02*
G01X130710Y-1006584D01*
G01X273465Y-833266D01*
G01X306045Y-860100D01*
G01X163289Y-1033418D01*
G37*
G36*
G01X198289Y-1033418D02*
G01X165710Y-1006584D01*
G01X308465Y-833266D01*
G01X341045Y-860100D01*
G01X198289Y-1033418D01*
G37*
G36*
G01X232289Y-1038418D02*
G01X199710Y-1011584D01*
G01X342465Y-838266D01*
G01X375045Y-865100D01*
G01X232289Y-1038418D01*
G37*
G36*
G01X264289Y-1036418D02*
G01X231710Y-1009584D01*
G01X374465Y-836266D01*
G01X407045Y-863100D01*
G01X264289Y-1036418D01*
G37*
G36*
G01X304289Y-1030418D02*
G01X271710Y-1003584D01*
G01X414465Y-830266D01*
G01X447045Y-857100D01*
G01X304289Y-1030418D01*
G37*
G36*
G01X339289Y-1026418D02*
G01X306710Y-999584D01*
G01X449465Y-826266D01*
G01X482045Y-853100D01*
G01X339289Y-1026418D01*
G37*
G36*
G01X405748Y-920819D02*
G01X380250Y-887183D01*
G01X559188Y-751538D01*
G01X584686Y-785174D01*
G01X405748Y-920819D01*
G37*
G36*
G01X423415Y-956578D02*
G01X397917Y-922942D01*
G01X576855Y-787297D01*
G01X602353Y-820933D01*
G01X423415Y-956578D01*
G37*
G36*
G01X361748Y-1032819D02*
G01X336250Y-999183D01*
G01X515188Y-863538D01*
G01X540686Y-897174D01*
G01X361748Y-1032819D01*
G37*
G36*
G01X407748Y-1044819D02*
G01X382250Y-1011183D01*
G01X561188Y-875538D01*
G01X586686Y-909174D01*
G01X407748Y-1044819D01*
G37*
G36*
G01X399748Y-980819D02*
G01X374250Y-947183D01*
G01X553188Y-811538D01*
G01X578686Y-845174D01*
G01X399748Y-980819D01*
G37*
G36*
G01X501965Y-929815D02*
G01X476467Y-896179D01*
G01X655405Y-760534D01*
G01X680903Y-794170D01*
G01X501965Y-929815D01*
G37*
G36*
G01X565748Y-793819D02*
G01X540250Y-760183D01*
G01X719188Y-624538D01*
G01X744686Y-658174D01*
G01X565748Y-793819D01*
G37*
G36*
G01X588748Y-752819D02*
G01X563250Y-719183D01*
G01X742188Y-583538D01*
G01X767686Y-617174D01*
G01X588748Y-752819D01*
G37*
G36*
G01X604748Y-714819D02*
G01X579250Y-681183D01*
G01X758188Y-545538D01*
G01X783686Y-579174D01*
G01X604748Y-714819D01*
G37*
G36*
G01X615748Y-690819D02*
G01X590250Y-657183D01*
G01X769188Y-521538D01*
G01X794686Y-555174D01*
G01X615748Y-690819D01*
G37*
G36*
G01X580748Y-824819D02*
G01X555250Y-791183D01*
G01X734188Y-655538D01*
G01X759686Y-689174D01*
G01X580748Y-824819D01*
G37*
G36*
G01X690965Y-701815D02*
G01X665467Y-668179D01*
G01X844405Y-532534D01*
G01X869903Y-566170D01*
G01X690965Y-701815D01*
G37*
G36*
G01X714748Y-725819D02*
G01X689250Y-692183D01*
G01X868188Y-556538D01*
G01X893686Y-590174D01*
G01X714748Y-725819D01*
G37*
G36*
G01X717965Y-639815D02*
G01X692467Y-606179D01*
G01X871405Y-470534D01*
G01X896903Y-504170D01*
G01X717965Y-639815D01*
G37*
G36*
G01X721965Y-576815D02*
G01X696467Y-543179D01*
G01X875405Y-407534D01*
G01X900903Y-441170D01*
G01X721965Y-576815D01*
G37*
G36*
G01X721965Y-607815D02*
G01X696467Y-574179D01*
G01X875405Y-438534D01*
G01X900903Y-472170D01*
G01X721965Y-607815D01*
G37*
G36*
G01X680901Y-794172D02*
G01X655403Y-760536D01*
G01X834341Y-624891D01*
G01X859839Y-658527D01*
G01X680901Y-794172D01*
G37*
G36*
G01X572748Y-928819D02*
G01X547250Y-895183D01*
G01X726188Y-759538D01*
G01X751686Y-793174D01*
G01X572748Y-928819D01*
G37*
G36*
G01X722748Y-807819D02*
G01X697250Y-774183D01*
G01X876188Y-638538D01*
G01X901686Y-672174D01*
G01X722748Y-807819D01*
G37*
G36*
G01X751748Y-737819D02*
G01X726250Y-704183D01*
G01X905188Y-568538D01*
G01X930686Y-602174D01*
G01X751748Y-737819D01*
G37*
G36*
G01X760748Y-637819D02*
G01X735250Y-604183D01*
G01X914188Y-468538D01*
G01X939686Y-502174D01*
G01X760748Y-637819D01*
G37*
G36*
G01X38654Y-313755D02*
G01X13156Y-280119D01*
G01X192094Y-144474D01*
G01X217592Y-178110D01*
G01X38654Y-313755D01*
G37*
G36*
G01X-38252Y-325819D02*
G01X-63750Y-292183D01*
G01X115188Y-156538D01*
G01X140686Y-190174D01*
G01X-38252Y-325819D01*
G37*
G36*
G01X-129252Y-359819D02*
G01X-154750Y-326183D01*
G01X24188Y-190538D01*
G01X49686Y-224174D01*
G01X-129252Y-359819D01*
G37*
G36*
G01X-224252Y-401819D02*
G01X-249750Y-368183D01*
G01X-70812Y-232538D01*
G01X-45314Y-266174D01*
G01X-224252Y-401819D01*
G37*
G36*
G01X-273252Y-422819D02*
G01X-298750Y-389183D01*
G01X-119812Y-253538D01*
G01X-94314Y-287174D01*
G01X-273252Y-422819D01*
G37*
G36*
G01X115373Y-229115D02*
G01X89875Y-195479D01*
G01X268813Y-59834D01*
G01X294311Y-93470D01*
G01X115373Y-229115D01*
G37*
G36*
G01X272748Y-139819D02*
G01X247250Y-106183D01*
G01X426188Y29462D01*
G01X451686Y-4174D01*
G01X272748Y-139819D01*
G37*
G36*
G01X339748Y-142819D02*
G01X314250Y-109183D01*
G01X493188Y26462D01*
G01X518686Y-7174D01*
G01X339748Y-142819D01*
G37*
G36*
G01X409748Y-139819D02*
G01X384250Y-106183D01*
G01X563188Y29462D01*
G01X588686Y-4174D01*
G01X409748Y-139819D01*
G37*
D14*
X292000Y-557000D03*
M02*

